<svg width="1600" height="1100" viewBox="0 0 1600 1100" fill="none" xmlns="http://www.w3.org/2000/svg">
<mask id="mask0_5318_2513" style="mask-type:luminance" maskUnits="userSpaceOnUse" x="399" y="369" width="801" height="363">
<path d="M1199.69 369.117H399.691V731.824H1199.69V369.117Z" fill="white"/>
</mask>
<g mask="url(#mask0_5318_2513)">
<path d="M946.387 706.07C941.844 706.07 937.679 704.555 934.65 703.041C934.65 703.041 934.65 703.041 934.272 703.041C930.864 701.147 927.457 698.119 924.049 693.954L918.749 687.139L911.933 678.052L908.905 674.266L897.168 659.501L921.399 618.611C926.321 611.417 930.864 606.117 934.65 602.709C938.436 599.302 943.737 596.652 949.794 594.759C952.824 593.244 954.717 592.108 955.852 590.594C956.988 589.08 957.745 587.565 957.745 586.051C957.745 581.507 954.338 578.857 948.28 578.857H892.246C889.217 578.857 886.945 579.614 885.431 581.129C883.538 582.643 882.781 584.158 882.781 586.429C882.781 587.943 883.538 589.08 884.295 590.594C885.431 591.73 887.324 592.487 889.596 593.623L901.332 596.273C904.74 597.409 907.012 598.923 908.148 601.195C909.662 603.088 909.662 605.739 908.905 609.146C908.148 612.175 906.633 615.961 903.983 619.747L888.838 648.899L852.492 603.088C847.192 596.652 842.648 591.73 838.483 587.565C835.076 584.158 830.912 581.129 827.125 578.479C837.348 575.828 846.056 572.799 853.628 569.013C861.958 564.47 868.773 559.17 874.073 553.112C876.344 550.461 878.237 547.811 879.752 545.161C880.888 543.268 882.024 540.996 882.781 538.725C886.188 530.774 888.081 521.688 888.081 511.843C888.081 508.815 888.081 506.164 887.324 503.514C886.567 497.835 885.053 492.913 882.402 487.991C881.645 485.72 880.13 483.448 878.616 481.176C872.18 472.09 863.85 464.896 852.492 459.974C841.134 454.674 828.261 452.023 812.738 452.023C795.701 452.023 780.935 455.052 768.441 461.489C755.947 467.925 746.482 476.633 739.667 487.612C732.852 498.592 729.444 511.086 729.444 524.716C729.444 540.239 733.609 553.869 741.56 564.848C747.996 574.314 757.083 581.507 769.198 587.187C758.597 589.08 749.132 592.487 741.181 596.652C728.309 603.467 718.465 612.175 711.65 623.154C711.65 623.533 711.272 623.911 710.893 624.669L725.659 668.966C728.309 677.295 730.202 680.324 730.959 680.703C731.716 682.217 733.988 682.596 736.26 683.353C744.21 686.382 749.511 689.79 752.918 693.576C757.083 698.497 759.355 704.934 759.355 712.127C759.355 716.671 758.219 721.214 756.325 725C764.276 727.272 772.984 728.029 782.45 728.029C803.652 728.029 821.068 723.486 835.076 714.778C846.056 707.963 855.9 698.497 864.229 687.139L884.295 712.506C887.324 716.292 890.731 718.943 894.139 720.457C897.547 721.971 902.09 722.349 907.012 722.349H945.251C948.659 722.349 951.687 721.593 953.58 720.457C953.959 720.078 954.338 719.699 954.338 719.321C955.852 718.185 956.231 716.671 956.231 714.778C956.231 712.506 955.474 710.613 953.58 709.477C951.687 708.342 949.416 707.584 946.009 707.205L946.387 706.07ZM781.692 477.769C788.507 468.682 797.594 464.139 809.331 464.139C820.311 464.139 829.019 468.682 835.833 477.39C842.648 486.098 846.434 498.592 846.434 514.115C846.434 529.638 843.027 543.646 836.591 554.247C831.29 562.577 824.097 568.635 814.631 572.043C812.738 571.285 810.845 570.528 808.574 569.771C796.079 565.606 786.615 558.412 780.935 548.19C774.877 537.967 771.849 525.852 771.849 511.843C771.849 497.835 775.256 486.477 781.692 477.769ZM834.698 696.983C824.096 703.041 812.36 706.07 799.487 706.07C788.129 706.07 778.285 703.419 770.334 698.497C762.383 693.576 755.947 686.76 751.404 677.674C746.861 668.588 744.968 657.987 744.968 645.493C744.968 636.784 746.861 628.455 750.268 620.504C753.675 612.553 758.976 606.117 765.791 600.438C770.713 596.273 776.771 593.623 783.585 591.73C786.615 593.623 790.022 595.516 792.672 598.166C797.973 602.331 804.03 609.146 811.224 618.233L856.657 675.781C850.221 684.867 843.406 691.683 834.698 696.604V696.983Z" fill="#E8E8E8"/>
<path d="M740.439 704.149C738.925 702.256 735.517 700.363 730.595 698.47C724.916 696.956 720.752 694.305 717.722 690.519C714.694 687.112 712.044 681.054 709.772 672.724L702.2 650.008L696.899 634.863L692.734 622.369L623.828 417.164C622.313 411.863 621.935 408.077 622.692 405.805C623.449 403.155 626.1 401.641 630.643 400.126C634.807 398.612 637.836 397.098 639.729 395.204C641.622 393.311 642.758 391.04 642.758 387.632C642.758 384.225 641.244 381.953 639.351 379.682C636.701 377.788 632.914 377.031 627.992 377.031H511.381C506.459 377.031 503.051 377.788 500.401 379.682C497.751 381.575 496.615 384.225 496.615 387.632C496.615 390.283 497.751 392.933 499.644 394.826C501.537 396.719 504.945 398.233 509.109 400.126C514.789 402.019 518.196 404.291 519.332 407.32C520.089 410.349 519.332 415.271 517.439 422.464L437.174 667.424C434.145 677.267 431.495 684.083 428.844 687.869C426.194 691.655 422.408 694.684 417.486 696.956L409.157 700.363C405.749 701.877 402.72 703.392 401.584 705.285C400.449 707.178 399.691 709.071 399.691 711.721C399.691 715.128 400.827 717.779 403.099 719.672C405.371 721.565 409.157 722.701 414.079 722.701H490.936C496.237 722.701 499.644 721.565 502.295 719.672C504.945 717.779 505.701 715.128 505.701 711.721C505.701 709.071 504.945 706.799 503.051 705.285C501.158 703.77 498.508 702.256 495.479 701.12L481.092 697.713C475.792 695.819 471.627 693.169 469.355 690.519C466.705 687.869 465.569 684.84 465.569 680.297C465.569 675.753 466.327 670.831 468.598 664.016L487.15 607.982H613.227L635.943 677.267C637.836 683.704 638.972 688.626 638.972 691.276C638.972 694.305 637.079 696.198 632.536 697.334L617.391 700.363C613.984 701.499 610.955 703.013 609.441 704.527C607.548 706.42 606.79 708.692 606.79 711.343C606.79 714.75 608.304 717.779 610.576 719.293C613.227 721.186 616.634 722.322 621.556 722.322H727.566C727.566 722.322 729.081 722.322 729.838 722.322C734.003 722.322 737.032 721.186 738.925 719.293C739.303 719.293 739.682 718.914 739.682 718.536C741.575 716.643 742.332 714.371 742.332 711.343C742.332 708.313 741.575 706.042 739.682 704.149H740.439ZM495.479 582.994L550.378 415.271L604.897 582.615H495.479V582.994Z" fill="#E8E8E8"/>
<path d="M1199.7 633.002C1199.7 644.36 1196.67 655.718 1190.61 667.455C1184.18 679.192 1175.09 689.793 1163.35 699.637C1151.62 709.102 1137.23 717.053 1120.19 723.111C1103.16 728.79 1084.23 731.818 1062.65 731.818C1028.19 731.818 998.281 724.625 973.293 710.238C972.535 709.859 971.399 709.102 970.643 708.723C961.177 703.044 952.091 696.229 944.14 689.036C938.839 684.114 933.917 678.813 929.374 673.134C925.209 668.212 921.423 662.912 918.016 657.233L935.432 628.08C940.353 620.508 943.761 617.479 945.654 615.586C947.547 613.693 950.954 612.178 954.741 611.043H956.255L957.012 610.285C962.313 607.635 966.099 604.985 968.749 601.956C969.128 601.199 969.885 600.441 970.264 600.062C972.535 608.013 975.186 615.207 978.214 622.401C988.815 645.496 1003.2 662.912 1021.37 674.649C1039.55 686.764 1060.37 692.443 1083.47 692.443C1106.57 692.443 1125.11 687.143 1141.4 676.92C1158.05 666.698 1170.55 651.932 1179.63 632.623C1181.53 628.837 1183.42 626.187 1185.69 625.051C1187.2 624.294 1189.1 623.537 1190.99 623.537C1191.75 623.537 1192.51 623.537 1192.88 623.537C1195.53 623.915 1197.05 625.051 1198.57 626.565C1199.7 628.08 1200.08 630.352 1200.08 633.002H1199.7Z" fill="#E8E8E8"/>
<path d="M1197.42 467.91L1171.29 383.48C1170.16 378.937 1168.26 375.908 1166.37 374.394C1164.47 372.501 1162.2 371.743 1159.18 371.743C1155.01 371.743 1151.6 373.258 1149.71 375.908C1147.82 378.558 1145.54 381.587 1143.66 384.237C1141.76 387.266 1138.73 388.402 1134.19 388.402C1133.05 388.402 1131.16 388.024 1129.64 387.266C1127 386.509 1123.96 385.373 1120.55 383.48C1117.15 381.587 1112.23 379.694 1107.3 377.423C1103.52 376.287 1099.74 374.772 1095.95 373.636C1085.73 370.229 1072.1 368.336 1055.44 368.336C1031.59 368.336 1009.62 372.879 989.938 381.966C969.871 391.052 952.455 403.925 937.311 420.584C936.932 420.962 936.554 421.72 936.175 422.098C929.36 429.671 922.924 438 917.623 447.086C911.944 456.173 907.401 466.395 903.615 476.618C903.615 477.375 903.236 477.754 902.857 478.133C902.101 480.783 900.964 483.054 900.207 485.704C903.236 493.277 904.751 501.606 904.751 510.314C904.751 525.837 900.964 539.845 893.771 552.339C893.014 553.854 891.878 555.369 890.363 556.883C890.363 558.019 890.363 558.776 890.363 559.912V560.669H898.693H921.788H963.056C962.299 554.233 962.299 547.039 962.299 539.845C962.299 538.331 962.299 537.195 962.299 536.059C962.299 514.479 964.95 494.791 969.871 477.754C975.172 460.338 981.987 445.193 991.073 432.699C991.452 431.942 992.209 431.564 992.966 430.806C1001.67 419.448 1011.9 410.362 1023.63 403.925C1036.13 397.11 1049.76 393.703 1064.9 393.703C1080.04 393.703 1093.68 396.353 1106.55 401.275C1107.3 401.653 1108.44 402.411 1109.2 402.789C1113.74 404.682 1118.28 407.333 1122.83 410.362C1124.34 411.119 1125.48 412.255 1127 413.012C1131.54 416.419 1136.08 420.205 1140.25 424.749C1140.62 425.506 1141.38 425.506 1142.14 426.263C1152.74 438 1162.96 453.523 1171.67 472.832C1173.18 476.618 1175.84 479.647 1178.86 480.783C1179.62 480.783 1180.38 481.161 1181.13 481.54C1182.27 481.54 1183.41 482.297 1184.54 482.297C1186.05 482.297 1187.57 482.297 1189.09 482.297C1192.5 481.54 1195.14 479.647 1197.04 476.996C1197.79 475.861 1198.55 474.346 1198.55 472.832C1198.55 472.832 1198.55 472.453 1198.55 472.075C1198.55 470.56 1198.55 468.667 1198.17 466.774L1197.42 467.91Z" fill="#E8E8E8"/>
</g>
</svg>
