<svg width="1600" height="1100" viewBox="0 0 1600 1100" fill="none" xmlns="http://www.w3.org/2000/svg">
<path d="M574.659 487.29H574.631C561.334 525.677 559.17 549.344 559.137 565.372C558.88 697.955 666.519 806.045 799.126 806.302C931.71 806.564 1039.8 698.897 1040.06 566.314C1040.09 549.97 1037.93 525.635 1024.01 485.709C1011.14 482.192 997.408 478.616 983.364 475.153C1003.02 523.62 1005.74 549.817 1005.71 566.245C1005.49 679.908 912.827 772.177 799.193 771.958C685.536 771.735 593.262 679.1 593.486 565.439C593.519 549.012 596.343 522.885 616.044 474.75C602.129 478.701 588.18 482.939 574.659 487.29Z" fill="#E8E8E8"/>
<path d="M1108.51 554.856C1108.46 553.482 1108.38 552.079 1108.3 550.648C1108.24 549.703 1108.18 548.731 1108.1 547.728C1108.02 546.556 1107.93 545.352 1107.82 544.092C1107.57 541.23 1107.23 538.224 1106.84 535.104C1106.7 533.987 1106.56 532.871 1106.38 531.725C1106.25 530.58 1106.08 529.406 1105.88 528.203C1105.71 527.028 1105.51 525.827 1105.28 524.597C1105.09 523.392 1104.89 522.162 1104.63 520.903C1104.01 517.438 1103.3 513.83 1102.48 510.079L1089.46 505.559C1082.71 503.227 1073.99 500.376 1063.8 497.266C1072.96 529.14 1074.43 550.466 1074.4 566.382C1074.1 717.91 950.586 840.947 799.057 840.652C647.529 840.358 524.491 716.835 524.786 565.306C524.814 550.165 526.231 530.16 534.304 500.953C531.351 502.006 528.461 503.032 525.623 504.083L495.577 515.16C495.315 516.475 495.058 517.792 494.825 519.079C494.331 521.627 493.927 524.116 493.551 526.52C493.494 526.805 493.437 527.09 493.404 527.349C493.085 529.294 492.824 531.184 492.562 533.042C492.391 534.302 492.244 535.562 492.101 536.822C491.835 538.91 491.631 540.942 491.459 542.944C491.455 543.031 491.426 543.146 491.426 543.231C491.312 544.462 491.222 545.633 491.136 546.808C490.841 550.615 490.661 554.192 490.57 557.597C490.48 560.259 490.447 562.806 490.442 565.239C490.109 735.719 628.517 874.668 798.991 875.001C969.441 875.334 1108.41 736.926 1108.75 566.449C1108.76 562.843 1108.71 559.006 1108.51 554.856Z" fill="#E8E8E8"/>
<path d="M700.546 455.191C706.608 443.067 713.131 430.715 719.939 418.334C731.192 417.269 742.526 416.489 753.921 415.997C784.433 414.597 815.373 415.058 846.541 417.381C857.989 418.206 869.461 419.315 880.966 420.682C887.727 433.203 894.23 445.695 900.244 457.929C921.681 501.479 937.06 541.437 937.013 566.109C936.866 641.902 875.09 703.406 799.328 703.259C723.561 703.112 662.028 641.366 662.176 565.573C662.223 540.47 678.335 499.571 700.546 455.191ZM772.149 329.62C782.256 313.496 791.788 298.718 800.141 286.11C808.446 298.75 817.95 313.566 827.991 329.729C838.122 346.092 848.847 363.86 859.406 382.17C848.186 381.376 836.824 380.867 825.343 380.673C817.128 380.484 808.86 380.441 800.559 380.567C791.826 380.407 783.154 380.419 774.54 380.603C763.063 380.781 751.725 381.245 740.505 382.024C751.131 363.725 761.927 345.972 772.149 329.62ZM590.854 446.305C605.744 441.897 620.296 437.889 634.24 434.367C636.617 433.772 638.966 433.175 641.286 432.606C654.027 429.482 666.198 426.788 677.593 424.577C670.41 438.388 663.973 451.428 658.339 463.696C638.101 507.736 627.875 541.834 627.827 565.505C627.646 660.22 704.545 737.422 799.257 737.608C893.974 737.793 971.176 660.89 971.362 566.176C971.404 542.734 961.511 509.083 941.872 465.652C936.091 452.876 929.473 439.267 922.004 424.798C933.39 427.024 945.551 429.738 958.254 432.883C960.598 433.46 962.947 434.065 965.319 434.672C979.225 438.219 993.754 442.255 1008.63 446.721C1022.62 450.898 1036.89 455.421 1051.28 460.257C1065.13 464.92 1079.06 469.843 1092.87 474.993C1092.56 474.02 1092.25 473.017 1091.9 471.986C1090.94 468.949 1089.88 465.856 1088.75 462.677C1087.38 458.725 1085.87 454.628 1084.3 450.447C1084.19 450.16 1084.08 449.846 1083.96 449.559C1083.65 448.67 1083.31 447.783 1082.94 446.894C1082.59 446.006 1082.22 445.09 1081.88 444.174C1081.2 442.369 1080.46 440.536 1079.72 438.675L1077.41 432.916C1028.04 415.703 978.807 401.638 937.664 392.943C924.676 390.227 912.486 388.029 901.357 386.431C898.39 381.102 895.309 375.686 892.143 370.184C884.071 356.144 875.993 342.531 868.235 329.809C856.197 309.978 844.954 292.238 835.906 278.223C823.008 258.305 814.56 245.895 814.389 245.637L800.26 225L786.054 245.583C785.879 245.838 777.383 258.217 764.409 278.083C755.309 292.064 743.995 309.759 731.876 329.542C724.065 342.235 715.94 355.815 707.811 369.823C704.597 375.4 701.464 380.859 698.45 386.235C687.282 387.788 675.055 389.995 662.028 392.69V392.717C620.767 401.311 571.476 415.268 522.1 432.315L520.749 435.606C518.187 441.84 515.857 447.847 513.699 453.595C510.994 460.89 508.579 467.812 506.473 474.39C520.312 469.265 534.227 464.368 548.09 459.759C562.529 454.95 576.848 450.456 590.854 446.305Z" fill="#E8E8E8"/>
</svg>
