<svg width="1600" height="1100" viewBox="0 0 1600 1100" fill="none" xmlns="http://www.w3.org/2000/svg">
<g clip-path="url(#clip0_5315_2433)">
<path d="M676.671 989.372C670.318 989.372 664.11 988.506 658.046 986.629C631.915 978.111 615.167 952.124 598.997 926.858C587.447 908.811 575.464 890.187 560.594 879.503C545.579 868.531 523.922 862.756 502.988 857.27C474.258 849.618 444.517 841.822 428.635 819.877C412.899 798.365 414.631 767.758 416.075 738.161C417.23 716.505 418.385 693.982 412.61 675.935C407.124 658.899 393.841 642.729 379.981 625.693C360.779 602.449 341 578.194 341 550.185C341 522.177 360.779 497.922 379.837 474.677C393.841 457.641 406.979 441.471 412.465 424.435C418.385 406.388 417.085 384.01 415.93 362.21C414.342 332.613 412.754 302.15 428.491 280.494C444.372 258.693 474.113 250.752 502.844 243.101C523.778 237.614 545.29 231.839 560.449 220.867C575.32 210.039 587.159 191.414 598.853 173.512C615.023 148.247 631.77 122.259 657.902 113.741C682.734 105.656 711.032 116.484 738.319 127.023C758.964 134.964 780.187 143.193 799.678 143.193C819.168 143.193 840.391 134.964 861.037 127.023C888.324 116.484 916.621 105.656 941.454 113.741C967.585 122.259 984.333 148.247 1000.5 173.512C1012.05 191.559 1024.04 210.183 1038.91 220.867C1053.92 231.839 1075.58 237.614 1096.51 243.101C1125.24 250.752 1154.98 258.549 1170.86 280.494C1186.6 302.005 1184.87 332.613 1183.43 362.21C1182.27 383.866 1181.12 406.388 1186.89 424.435C1192.38 441.471 1205.66 457.641 1219.52 474.677C1238.58 498.066 1258.36 522.177 1258.36 550.185C1258.36 578.194 1238.58 602.449 1219.52 625.837C1205.51 642.874 1192.38 659.044 1186.89 676.08C1180.97 694.127 1182.27 716.505 1183.43 738.305C1185.01 767.902 1186.6 798.365 1170.86 820.021C1154.98 841.822 1125.24 849.762 1096.51 857.414C1075.58 862.9 1054.07 868.675 1038.91 879.648C1024.04 890.476 1012.2 909.1 1000.5 927.003C984.333 952.268 967.585 978.256 941.454 986.774C916.621 994.859 888.324 984.031 861.037 973.491C840.391 965.551 819.168 957.321 799.678 957.321C780.187 957.321 758.964 965.551 738.319 973.491C717.673 981.287 696.45 989.372 676.671 989.372ZM676.815 118.938C671.184 118.938 665.698 119.66 660.356 121.393C636.968 129.045 620.942 153.877 605.494 177.843C593.511 196.468 581.095 215.669 565.214 227.364C548.899 239.202 526.666 245.122 505.009 250.897C477.578 258.116 449.281 265.623 434.988 285.258C420.983 304.604 422.427 332.324 424.015 361.776C425.17 384.154 426.47 407.399 420.117 426.889C414.198 445.369 399.905 462.839 386.045 479.73C367.854 501.964 348.941 525.064 348.941 550.33C348.941 575.595 367.854 598.551 386.045 620.929C399.905 637.82 414.198 655.29 420.117 673.77C426.47 693.26 425.17 716.36 424.015 738.883C422.427 768.335 420.983 796.199 434.988 815.401C449.281 834.892 477.578 842.544 505.009 849.762C526.666 855.537 548.899 861.457 565.214 873.295C581.239 884.99 593.655 904.191 605.494 922.816C620.942 946.782 636.968 971.759 660.356 979.266C682.59 986.485 708.289 976.523 735.431 966.128C756.654 957.899 778.744 949.525 799.678 949.525C820.612 949.525 842.557 958.043 863.924 966.128C891.211 976.667 916.91 986.485 938.999 979.266C962.388 971.614 978.413 946.782 993.862 922.816C1005.84 904.191 1018.26 884.99 1034.14 873.295C1050.46 861.457 1072.69 855.537 1094.35 849.762C1121.78 842.544 1150.07 835.036 1164.37 815.401C1178.37 796.055 1176.93 768.335 1175.34 738.883C1174.19 716.505 1172.89 693.26 1179.24 673.77C1185.16 655.29 1199.45 637.82 1213.31 620.929C1231.5 598.695 1250.42 575.595 1250.42 550.33C1250.42 525.064 1231.5 502.108 1213.31 479.73C1199.45 462.839 1185.16 445.369 1179.24 426.889C1172.89 407.399 1174.19 384.299 1175.34 361.776C1176.93 332.324 1178.37 304.46 1164.37 285.258C1150.07 265.623 1121.78 258.116 1094.35 250.897C1072.69 245.122 1050.46 239.202 1034.14 227.364C1018.12 215.669 1005.7 196.468 993.862 177.843C978.413 153.877 962.388 128.9 938.999 121.393C916.766 114.174 891.067 124.136 863.924 134.531C842.701 142.76 820.612 151.134 799.678 151.134C778.744 151.134 756.799 142.76 735.575 134.531C714.786 126.59 694.862 118.938 676.815 118.938Z" fill="#E8E8E8"/>
<path d="M470.647 563.608V569.817C470.647 577.324 472.957 581.511 478.877 581.511C484.94 581.511 486.528 575.736 486.528 569.239C486.528 558.411 484.218 555.09 473.39 546.572C462.562 538.054 456.787 532.568 456.787 517.553C456.787 504.271 460.83 490.844 479.021 490.844C497.645 490.844 500.533 504.126 500.533 515.099V520.441H484.94V515.532C484.94 508.457 483.785 504.271 478.588 504.271C473.535 504.271 472.235 508.602 472.235 515.387C472.235 522.462 473.535 525.927 482.486 532.424C497.645 543.54 502.265 550.037 502.265 566.929C502.265 581.222 497.212 594.793 478.444 594.793C459.819 594.793 455.199 582.955 455.199 569.672V563.753H470.647V563.608Z" fill="#E8E8E8"/>
<path d="M542.401 492.43V593.203H526.809V492.43H542.401Z" fill="#E8E8E8"/>
<path d="M600.296 593.203L590.334 556.676H590.19L579.506 593.203H563.336L581.238 541.95L564.202 492.43H581.383L590.623 525.78H590.767L600.007 492.43H616.321L599.43 539.64L617.621 593.203H600.296Z" fill="#E8E8E8"/>
<path d="M633.502 314.859H641.587L650.683 329.441L659.778 314.859H667.863V349.221H660.356V326.842L650.683 341.569H650.538L641.009 326.987V349.221H633.646V314.859H633.502Z" fill="#E8E8E8"/>
<path d="M681.002 314.859H695.006C703.236 314.859 708.144 319.768 708.144 326.698V326.842C708.144 334.783 701.936 338.97 694.284 338.97H688.509V349.221H681.002V314.859ZM694.573 332.184C698.327 332.184 700.493 329.874 700.493 326.987V326.842C700.493 323.522 698.183 321.645 694.284 321.645H688.509V332.184H694.573V332.184Z" fill="#E8E8E8"/>
<path d="M718.684 314.859H726.191V342.291H743.372V349.221H718.684V314.859V314.859Z" fill="#E8E8E8"/>
<path d="M751.602 344.167L756.077 338.825C759.109 341.424 762.43 343.012 766.328 343.012C769.36 343.012 771.237 341.712 771.237 339.836V339.691C771.237 337.814 770.082 336.804 764.307 335.36C757.377 333.627 752.901 331.606 752.901 324.821V324.676C752.901 318.468 757.954 314.281 764.884 314.281C769.937 314.281 774.124 315.869 777.589 318.612L773.691 324.243C770.659 322.077 767.627 320.922 764.74 320.922C761.852 320.922 760.264 322.222 760.264 323.954V324.099C760.264 326.409 761.708 327.131 767.627 328.574C774.557 330.451 778.455 332.906 778.455 338.825V338.969C778.455 345.755 773.258 349.653 765.895 349.653C760.986 349.653 755.788 347.921 751.602 344.167Z" fill="#E8E8E8"/>
<path d="M810.795 332.035C810.795 327.848 814.116 324.672 818.158 324.672C822.201 324.672 825.521 327.848 825.521 331.891V332.035C825.521 336.077 822.201 339.254 818.158 339.254C814.116 339.254 810.795 336.077 810.795 332.035Z" fill="#E8E8E8"/>
<path d="M859.16 314.859H867.245L876.341 329.441L885.436 314.859H893.521V349.221H886.014V326.842L876.341 341.569H876.196L866.668 326.987V349.221H859.305V314.859H859.16Z" fill="#E8E8E8"/>
<path d="M906.658 314.859H913.588L929.758 336.082V314.859H937.266V349.221H930.769L914.166 327.42V349.221H906.658V314.859Z" fill="#E8E8E8"/>
<path d="M591.346 744.945H604.773C615.601 744.945 623.108 752.308 623.108 761.981V762.126C623.108 771.799 615.601 779.306 604.773 779.306H591.346V744.945ZM604.773 772.376C610.981 772.376 615.167 768.19 615.167 762.126C615.167 756.062 610.981 751.731 604.773 751.731H598.998V772.521H604.773V772.376Z" fill="#E8E8E8"/>
<path d="M633.07 762.129C633.07 752.312 640.722 744.227 651.406 744.227C661.945 744.227 669.597 752.167 669.597 761.84V761.985C669.597 771.802 661.945 779.743 651.261 779.743C640.578 779.743 633.07 771.946 633.07 762.129ZM661.801 762.129C661.801 756.065 657.47 751.157 651.406 751.157C645.342 751.157 641.155 755.921 641.155 761.84V761.985C641.155 767.904 645.487 772.813 651.55 772.813C657.614 772.813 661.801 768.048 661.801 762.129Z" fill="#E8E8E8"/>
<path d="M681.293 744.945H689.378L698.474 759.527L707.569 744.945H715.654V779.306H708.147V756.928L698.474 771.655H698.329L688.8 757.073V779.306H681.437V744.945H681.293Z" fill="#E8E8E8"/>
<path d="M729.223 744.945H736.73V779.306H729.223V744.945Z" fill="#E8E8E8"/>
<path d="M750.301 744.945H757.231L773.401 766.168V744.945H780.908V779.306H774.411L757.808 757.506V779.306H750.301V744.945Z" fill="#E8E8E8"/>
<path d="M792.461 762.129C792.461 752.312 800.113 744.227 810.796 744.227C821.336 744.227 828.988 752.167 828.988 761.84V761.985C828.988 771.802 821.336 779.743 810.652 779.743C799.968 779.887 792.461 771.946 792.461 762.129ZM821.047 762.129C821.047 756.065 816.716 751.157 810.652 751.157C804.588 751.157 800.402 755.921 800.402 761.84V761.985C800.402 767.904 804.733 772.813 810.796 772.813C816.86 772.813 821.047 768.048 821.047 762.129Z" fill="#E8E8E8"/>
<path d="M865.514 744.945H881.539C885.437 744.945 888.614 745.956 890.49 747.977C892.079 749.565 892.8 751.442 892.8 753.752V753.897C892.8 757.795 890.779 759.96 888.325 761.26C892.367 762.848 894.822 765.158 894.822 769.633V769.778C894.822 776.13 889.769 779.162 881.972 779.162H865.658V744.945H865.514ZM879.807 758.805C883.127 758.805 885.293 757.795 885.293 755.196V755.052C885.293 752.742 883.561 751.587 880.384 751.587H872.877V758.805H879.807ZM881.828 772.665C885.149 772.665 887.17 771.51 887.17 768.911V768.767C887.17 766.457 885.437 765.013 881.539 765.013H872.732V772.521H881.828V772.665Z" fill="#E8E8E8"/>
<path d="M917.634 744.664H924.564L939.291 779.314H931.494L928.318 771.662H913.736L910.56 779.314H902.908L917.634 744.664ZM925.575 764.876L920.955 753.76L916.335 764.876H925.575Z" fill="#E8E8E8"/>
<path d="M949.539 744.945H965.276C969.607 744.945 973.072 746.245 975.238 748.41C977.115 750.287 978.125 753.03 978.125 756.207V756.351C978.125 761.837 975.093 765.446 970.762 767.035L979.136 779.306H970.473L963.11 768.334H957.191V779.306H949.683V744.945H949.539ZM964.843 761.548C968.597 761.548 970.618 759.527 970.618 756.64V756.495C970.618 753.319 968.308 751.587 964.698 751.587H957.191V761.404H964.843V761.548Z" fill="#E8E8E8"/>
<path d="M943.33 492.43H964.842C986.209 492.43 991.407 503.546 991.407 522.171V560.863C991.407 576.311 988.808 593.203 964.842 593.203H943.33V492.43ZM958.923 580.065H963.976C974.226 580.065 975.814 573.424 975.814 563.029V521.016C975.814 511.776 974.226 505.856 963.976 505.856H958.923V580.065Z" fill="#E8E8E8"/>
<path d="M1065.76 519.141V566.207C1065.76 585.553 1057.53 594.649 1040.5 594.649C1024.18 594.649 1016.67 585.265 1016.67 566.496V518.997C1016.67 499.651 1026.35 490.844 1041.36 490.844C1056.67 490.988 1065.76 499.795 1065.76 519.141ZM1032.56 517.697V568.373C1032.56 576.747 1035.59 580.645 1041.22 580.645C1047.28 580.645 1050.02 577.035 1050.02 568.084V517.553C1050.02 509.612 1047.57 505.137 1041.22 505.137C1035.59 505.137 1032.56 509.179 1032.56 517.697Z" fill="#E8E8E8"/>
<path d="M1101.13 506.867H1084.96V492.43H1133.04V506.867H1116.72V593.203H1101.13V506.867Z" fill="#E8E8E8"/>
<path opacity="0.7" d="M874.176 442.922C875.186 446.531 875.331 450.429 874.32 454.327L818.592 649.233C815.56 659.917 804.298 666.125 793.615 663.093L706.846 638.261C704.103 637.539 701.648 636.239 699.627 634.507C701.504 640.859 706.557 646.201 713.343 648.078L800.112 672.91C810.795 675.942 822.057 669.734 825.088 659.051L880.817 464.145C882.983 456.06 880.095 447.831 874.176 442.922Z" fill="#E8E8E8"/>
<path opacity="0.34" d="M699.337 622.953L755.066 428.048C758.098 417.364 769.359 411.156 780.043 414.188L866.812 439.02C869.555 439.742 872.009 441.041 874.031 442.774C872.154 436.421 867.101 431.079 860.315 429.203L773.546 404.37C762.862 401.338 751.601 407.546 748.569 418.23L692.841 613.136C690.531 621.076 693.418 629.306 699.482 634.359C698.327 630.749 698.327 626.851 699.337 622.953Z" fill="#E8E8E8"/>
<path d="M874.176 442.921C872.155 441.189 869.7 439.889 866.957 439.167L780.044 414.19C769.36 411.159 758.099 417.367 755.067 428.05L699.338 622.956C698.183 626.854 698.328 630.752 699.483 634.362C701.504 636.094 703.958 637.393 706.702 638.115L793.471 662.948C804.154 665.98 815.416 659.772 818.447 649.088L874.176 454.182C875.331 450.284 875.187 446.386 874.176 442.921ZM762.719 429.927C764.74 422.997 771.814 419.099 778.744 420.976C785.674 422.997 789.573 430.072 787.696 437.002C785.674 443.932 778.6 447.83 771.67 445.953C764.74 443.932 760.842 436.857 762.719 429.927ZM753.335 462.989C755.356 456.059 762.43 452.161 769.36 454.038C776.29 456.059 780.188 463.133 778.311 470.063C776.29 476.993 769.216 480.892 762.286 479.015C755.356 476.993 751.313 469.919 753.335 462.989ZM743.806 496.051C745.827 489.121 752.901 485.223 759.831 487.1C766.761 489.121 770.659 496.195 768.783 503.125C766.761 510.055 759.687 513.953 752.757 512.076C745.827 510.2 741.929 502.981 743.806 496.051ZM736.01 618.047C733.988 624.977 726.914 628.875 719.984 626.999C713.054 624.977 709.156 617.903 711.033 610.973C713.054 604.043 720.128 600.145 727.058 602.022C733.988 603.899 737.886 611.117 736.01 618.047ZM745.394 584.841C743.373 591.771 736.298 595.669 729.368 593.792C722.438 591.771 718.54 584.697 720.417 577.767C722.438 570.837 729.513 566.939 736.443 568.816C743.373 570.837 747.415 578.056 745.394 584.841ZM754.923 551.779C752.901 558.709 745.827 562.607 738.897 560.731C731.967 558.709 728.069 551.635 729.946 544.705C731.967 537.775 739.041 533.877 745.971 535.754C752.901 537.775 756.8 544.849 754.923 551.779ZM804.299 637.538C802.277 644.468 795.203 648.366 788.273 646.489C781.343 644.468 777.445 637.393 779.322 630.463C781.343 623.534 788.418 619.635 795.348 621.512C802.278 623.389 806.176 630.608 804.299 637.538ZM813.683 604.476C811.662 611.406 804.587 615.304 797.657 613.427C790.728 611.406 786.829 604.332 788.706 597.402C790.728 590.472 797.802 586.574 804.732 588.451C811.662 590.327 815.704 597.546 813.683 604.476ZM823.212 571.27C821.191 578.2 814.116 582.098 807.186 580.221C800.256 578.2 796.358 571.126 798.235 564.196C800.256 557.266 807.331 553.368 814.261 555.244C821.191 557.266 825.089 564.484 823.212 571.27ZM829.564 549.325L736.298 522.616L737.598 518.14L830.864 544.849L829.564 549.325ZM837.072 522.76C835.051 529.69 827.976 533.588 821.046 531.711C814.116 529.69 810.218 522.616 812.095 515.686C814.116 508.756 821.191 504.858 828.121 506.735C835.05 508.756 839.093 515.83 837.072 522.76ZM846.6 489.698C844.579 496.628 837.505 500.526 830.575 498.65C823.645 496.628 819.747 489.554 821.624 482.624C823.645 475.694 830.719 471.796 837.649 473.673C844.579 475.55 848.477 482.768 846.6 489.698ZM855.985 456.492C853.964 463.422 846.889 467.32 839.959 465.443C833.029 463.422 829.131 456.348 831.008 449.418C833.029 442.488 840.104 438.59 847.034 440.467C853.964 442.488 858.006 449.707 855.985 456.492Z" fill="#E8E8E8"/>
</g>
<defs>
<clipPath id="clip0_5315_2433">
<rect width="917.5" height="878.375" fill="white" transform="translate(341 111)"/>
</clipPath>
</defs>
</svg>
