<svg width="1600" height="1100" viewBox="0 0 1600 1100" fill="none" xmlns="http://www.w3.org/2000/svg">
<path d="M754.365 860.707C735.47 860.707 722.873 850.629 722.873 832.154V804.862H745.127V825.436C745.127 835.094 748.906 838.033 754.365 838.033C760.243 838.033 763.602 834.674 763.602 819.138C763.602 803.602 762.343 790.165 750.586 770.431C747.647 765.812 740.928 754.055 738.829 750.696C727.072 731.381 722.453 717.524 722.453 695.27C722.453 669.237 735.89 654.961 755.205 654.961C777.039 654.961 785.857 670.917 786.696 691.071C787.116 699.469 787.116 712.906 787.116 712.906H764.442V694.85C764.442 684.353 762.343 678.475 755.205 678.475C748.066 678.475 745.547 683.513 745.547 697.37C745.547 712.906 751.426 726.342 758.984 738.099C761.083 741.458 769.481 754.895 771.16 758.254C783.337 778.408 787.116 794.364 787.116 819.138C786.696 848.95 774.519 860.707 754.365 860.707Z" fill="#E8E8E8"/>
<path d="M842.959 780.508V848.95" stroke="#E8E8E8" stroke-width="8.39779" stroke-miterlimit="10"/>
<path d="M876.971 814.938H808.949" stroke="#E8E8E8" stroke-width="8.39779" stroke-miterlimit="10"/>
<path d="M866.897 790.586L818.609 838.873" stroke="#E8E8E8" stroke-width="8.39779" stroke-miterlimit="10"/>
<path d="M866.897 838.873L818.609 790.586" stroke="#E8E8E8" stroke-width="8.39779" stroke-miterlimit="10"/>
<path d="M871.097 676.37C866.478 663.353 857.241 657.055 840.445 657.055H810.213V713.74V770.425H840.445C857.241 770.425 866.058 764.127 871.097 751.11C874.456 741.453 875.296 736.414 875.296 713.74C875.296 691.066 874.876 686.027 871.097 676.37ZM851.362 734.314C850.942 743.972 846.743 749.011 840.865 749.011H833.727V713.74V678.049H840.865C846.323 678.049 850.942 682.668 851.362 692.745C851.362 697.364 851.362 706.182 851.782 713.74C851.362 721.298 851.362 730.115 851.362 734.314Z" fill="#E8E8E8"/>
<path d="M799.295 591.981V549.992" stroke="#E8E8E8" stroke-width="8.39779" stroke-miterlimit="10"/>
<path d="M773.263 594.077L766.965 552.508" stroke="#E8E8E8" stroke-width="8.39779" stroke-miterlimit="10"/>
<path d="M748.063 600.38L735.047 560.07" stroke="#E8E8E8" stroke-width="8.39779" stroke-miterlimit="10"/>
<path d="M724.133 610.454L704.818 572.664" stroke="#E8E8E8" stroke-width="8.39779" stroke-miterlimit="10"/>
<path d="M701.881 623.886L677.107 589.875" stroke="#E8E8E8" stroke-width="8.39779" stroke-miterlimit="10"/>
<path d="M682.144 640.687L652.332 610.875" stroke="#E8E8E8" stroke-width="8.39779" stroke-miterlimit="10"/>
<path d="M665.349 660.422L630.918 635.648" stroke="#E8E8E8" stroke-width="8.39779" stroke-miterlimit="10"/>
<path d="M651.495 682.668L614.125 663.773" stroke="#E8E8E8" stroke-width="8.39779" stroke-miterlimit="10"/>
<path d="M641.417 706.603L601.527 693.586" stroke="#E8E8E8" stroke-width="8.39779" stroke-miterlimit="10"/>
<path d="M635.534 732.226L593.965 725.508" stroke="#E8E8E8" stroke-width="8.39779" stroke-miterlimit="10"/>
<path d="M633.436 758.258H591.447" stroke="#E8E8E8" stroke-width="8.39779" stroke-miterlimit="10"/>
<path d="M635.534 783.859L593.965 790.578" stroke="#E8E8E8" stroke-width="8.39779" stroke-miterlimit="10"/>
<path d="M641.417 809.484L601.527 822.501" stroke="#E8E8E8" stroke-width="8.39779" stroke-miterlimit="10"/>
<path d="M651.495 833.414L614.125 852.729" stroke="#E8E8E8" stroke-width="8.39779" stroke-miterlimit="10"/>
<path d="M665.349 855.672L630.918 880.445" stroke="#E8E8E8" stroke-width="8.39779" stroke-miterlimit="10"/>
<path d="M682.144 875.406L652.332 905.218" stroke="#E8E8E8" stroke-width="8.39779" stroke-miterlimit="10"/>
<path d="M701.881 892.203L677.107 926.214" stroke="#E8E8E8" stroke-width="8.39779" stroke-miterlimit="10"/>
<path d="M724.133 906.062L704.818 943.433" stroke="#E8E8E8" stroke-width="8.39779" stroke-miterlimit="10"/>
<path d="M748.063 915.711L735.047 956.02" stroke="#E8E8E8" stroke-width="8.39779" stroke-miterlimit="10"/>
<path d="M773.263 922.008L766.965 963.577" stroke="#E8E8E8" stroke-width="8.39779" stroke-miterlimit="10"/>
<path d="M799.295 924.109V966.098" stroke="#E8E8E8" stroke-width="8.39779" stroke-miterlimit="10"/>
<path d="M825.322 922.008L832.041 963.577" stroke="#E8E8E8" stroke-width="8.39779" stroke-miterlimit="10"/>
<path d="M850.516 915.711L863.532 956.02" stroke="#E8E8E8" stroke-width="8.39779" stroke-miterlimit="10"/>
<path d="M874.871 906.062L893.766 943.433" stroke="#E8E8E8" stroke-width="8.39779" stroke-miterlimit="10"/>
<path d="M896.705 892.203L921.479 926.214" stroke="#E8E8E8" stroke-width="8.39779" stroke-miterlimit="10"/>
<path d="M916.863 875.406L946.675 905.218" stroke="#E8E8E8" stroke-width="8.39779" stroke-miterlimit="10"/>
<path d="M933.658 855.672L967.669 880.445" stroke="#E8E8E8" stroke-width="8.39779" stroke-miterlimit="10"/>
<path d="M947.09 833.414L984.88 852.729" stroke="#E8E8E8" stroke-width="8.39779" stroke-miterlimit="10"/>
<path d="M957.17 809.484L997.059 822.501" stroke="#E8E8E8" stroke-width="8.39779" stroke-miterlimit="10"/>
<path d="M963.051 783.859L1005.04 790.578" stroke="#E8E8E8" stroke-width="8.39779" stroke-miterlimit="10"/>
<path d="M965.148 758.258H1007.56" stroke="#E8E8E8" stroke-width="8.39779" stroke-miterlimit="10"/>
<path d="M963.051 732.226L1005.04 725.508" stroke="#E8E8E8" stroke-width="8.39779" stroke-miterlimit="10"/>
<path d="M957.17 706.603L997.059 693.586" stroke="#E8E8E8" stroke-width="8.39779" stroke-miterlimit="10"/>
<path d="M947.09 682.668L984.88 663.773" stroke="#E8E8E8" stroke-width="8.39779" stroke-miterlimit="10"/>
<path d="M933.658 660.422L967.669 635.648" stroke="#E8E8E8" stroke-width="8.39779" stroke-miterlimit="10"/>
<path d="M916.863 640.687L946.675 610.875" stroke="#E8E8E8" stroke-width="8.39779" stroke-miterlimit="10"/>
<path d="M896.705 623.886L921.479 589.875" stroke="#E8E8E8" stroke-width="8.39779" stroke-miterlimit="10"/>
<path d="M874.871 610.454L893.766 572.664" stroke="#E8E8E8" stroke-width="8.39779" stroke-miterlimit="10"/>
<path d="M850.516 600.38L863.532 560.07" stroke="#E8E8E8" stroke-width="8.39779" stroke-miterlimit="10"/>
<path d="M825.322 594.077L832.041 552.508" stroke="#E8E8E8" stroke-width="8.39779" stroke-miterlimit="10"/>
<path d="M1033.44 444.715C1014.55 444.715 1001.95 434.637 1001.95 416.162V388.869H1024.21V409.444C1024.21 419.101 1027.99 422.041 1033.44 422.041C1039.32 422.041 1042.68 418.682 1042.68 403.146C1042.68 387.61 1041.42 374.173 1029.67 354.438C1026.73 349.82 1020.01 338.063 1017.91 334.704C1006.15 315.389 1001.53 301.532 1001.53 279.278C1001.53 253.245 1014.97 238.969 1034.28 238.969C1056.12 238.969 1064.94 254.925 1065.78 275.079C1066.2 283.477 1066.2 296.914 1066.2 296.914H1043.52V278.858C1043.52 268.361 1041.42 262.483 1034.28 262.483C1027.15 262.483 1024.63 267.521 1024.63 281.378C1024.63 296.914 1030.51 310.35 1038.06 322.107C1040.16 325.466 1048.56 338.902 1050.24 342.262C1062.42 362.416 1066.2 378.372 1066.2 403.146C1066.2 432.958 1054.02 444.715 1033.44 444.715Z" fill="#E8E8E8"/>
<path d="M1150.59 260.385C1145.98 247.369 1136.74 241.07 1119.94 241.07H1089.71V297.755V354.441H1119.94C1136.74 354.441 1145.56 348.142 1150.59 335.126C1153.95 325.468 1154.79 320.429 1154.79 297.755C1154.79 275.081 1154.37 270.043 1150.59 260.385ZM1130.86 318.33C1130.44 327.987 1126.24 333.026 1120.36 333.026H1113.22V297.755V262.065H1120.36C1125.82 262.065 1130.44 266.684 1130.86 276.761C1130.86 281.38 1130.86 290.197 1131.28 297.755C1130.86 305.313 1130.86 314.131 1130.86 318.33Z" fill="#E8E8E8"/>
<path d="M1122.04 365.359L1085.93 389.293H1158.15L1122.04 365.359Z" fill="#E8E8E8"/>
<path d="M1143.88 385.516H1100.21V421.206H1143.88V385.516Z" fill="#E8E8E8"/>
<path d="M1129.6 444.715H1090.97L1094.75 441.356C1098.11 438.417 1100.21 433.798 1100.21 428.759V420.781H1143.88V430.019C1143.88 438.417 1137.58 444.715 1129.6 444.715Z" fill="#E8E8E8"/>
<path d="M1078.8 175.989V134" stroke="#E8E8E8" stroke-width="8.39779" stroke-miterlimit="10"/>
<path d="M1052.77 178.085L1046.05 136.516" stroke="#E8E8E8" stroke-width="8.39779" stroke-miterlimit="10"/>
<path d="M1027.57 184.388L1014.56 144.078" stroke="#E8E8E8" stroke-width="8.39779" stroke-miterlimit="10"/>
<path d="M1003.63 194.462L984.318 156.672" stroke="#E8E8E8" stroke-width="8.39779" stroke-miterlimit="10"/>
<path d="M981.383 207.894L956.609 173.883" stroke="#E8E8E8" stroke-width="8.39779" stroke-miterlimit="10"/>
<path d="M961.228 224.695L931.416 194.883" stroke="#E8E8E8" stroke-width="8.39779" stroke-miterlimit="10"/>
<path d="M944.431 244.43L910.42 219.656" stroke="#E8E8E8" stroke-width="8.39779" stroke-miterlimit="10"/>
<path d="M930.997 266.676L893.207 247.781" stroke="#E8E8E8" stroke-width="8.39779" stroke-miterlimit="10"/>
<path d="M920.919 290.618L881.029 277.602" stroke="#E8E8E8" stroke-width="8.39779" stroke-miterlimit="10"/>
<path d="M915.038 316.234L873.049 309.516" stroke="#E8E8E8" stroke-width="8.39779" stroke-miterlimit="10"/>
<path d="M912.94 342.266H870.531" stroke="#E8E8E8" stroke-width="8.39779" stroke-miterlimit="10"/>
<path d="M915.038 367.875L873.049 374.593" stroke="#E8E8E8" stroke-width="8.39779" stroke-miterlimit="10"/>
<path d="M920.919 393.492L881.029 406.509" stroke="#E8E8E8" stroke-width="8.39779" stroke-miterlimit="10"/>
<path d="M930.997 417.422L893.207 436.737" stroke="#E8E8E8" stroke-width="8.39779" stroke-miterlimit="10"/>
<path d="M944.431 439.68L910.42 464.453" stroke="#E8E8E8" stroke-width="8.39779" stroke-miterlimit="10"/>
<path d="M961.228 459.414L931.416 489.226" stroke="#E8E8E8" stroke-width="8.39779" stroke-miterlimit="10"/>
<path d="M981.383 476.211L956.609 510.222" stroke="#E8E8E8" stroke-width="8.39779" stroke-miterlimit="10"/>
<path d="M1003.63 490.07L984.318 527.44" stroke="#E8E8E8" stroke-width="8.39779" stroke-miterlimit="10"/>
<path d="M1027.57 499.727L1014.56 540.036" stroke="#E8E8E8" stroke-width="8.39779" stroke-miterlimit="10"/>
<path d="M1052.77 506.016L1046.05 547.585" stroke="#E8E8E8" stroke-width="8.39779" stroke-miterlimit="10"/>
<path d="M1078.8 508.117V550.106" stroke="#E8E8E8" stroke-width="8.39779" stroke-miterlimit="10"/>
<path d="M1104.83 506.016L1111.13 547.585" stroke="#E8E8E8" stroke-width="8.39779" stroke-miterlimit="10"/>
<path d="M1130.03 499.727L1143.04 540.036" stroke="#E8E8E8" stroke-width="8.39779" stroke-miterlimit="10"/>
<path d="M1153.96 490.07L1173.27 527.44" stroke="#E8E8E8" stroke-width="8.39779" stroke-miterlimit="10"/>
<path d="M1176.21 476.211L1200.99 510.222" stroke="#E8E8E8" stroke-width="8.39779" stroke-miterlimit="10"/>
<path d="M1195.95 459.414L1225.76 489.226" stroke="#E8E8E8" stroke-width="8.39779" stroke-miterlimit="10"/>
<path d="M1213.16 439.68L1247.17 464.453" stroke="#E8E8E8" stroke-width="8.39779" stroke-miterlimit="10"/>
<path d="M1226.6 417.422L1263.97 436.737" stroke="#E8E8E8" stroke-width="8.39779" stroke-miterlimit="10"/>
<path d="M1236.67 393.492L1276.56 406.509" stroke="#E8E8E8" stroke-width="8.39779" stroke-miterlimit="10"/>
<path d="M1242.55 367.875L1284.12 374.593" stroke="#E8E8E8" stroke-width="8.39779" stroke-miterlimit="10"/>
<path d="M1244.65 342.266H1286.64" stroke="#E8E8E8" stroke-width="8.39779" stroke-miterlimit="10"/>
<path d="M1242.55 316.234L1284.12 309.516" stroke="#E8E8E8" stroke-width="8.39779" stroke-miterlimit="10"/>
<path d="M1236.67 290.618L1276.56 277.602" stroke="#E8E8E8" stroke-width="8.39779" stroke-miterlimit="10"/>
<path d="M1226.6 266.676L1263.97 247.781" stroke="#E8E8E8" stroke-width="8.39779" stroke-miterlimit="10"/>
<path d="M1213.16 244.43L1247.17 219.656" stroke="#E8E8E8" stroke-width="8.39779" stroke-miterlimit="10"/>
<path d="M1195.95 224.695L1225.76 194.883" stroke="#E8E8E8" stroke-width="8.39779" stroke-miterlimit="10"/>
<path d="M1176.21 207.894L1200.99 173.883" stroke="#E8E8E8" stroke-width="8.39779" stroke-miterlimit="10"/>
<path d="M1153.96 194.462L1173.27 156.672" stroke="#E8E8E8" stroke-width="8.39779" stroke-miterlimit="10"/>
<path d="M1130.03 184.388L1143.04 144.078" stroke="#E8E8E8" stroke-width="8.39779" stroke-miterlimit="10"/>
<path d="M1104.83 178.085L1111.13 136.516" stroke="#E8E8E8" stroke-width="8.39779" stroke-miterlimit="10"/>
<path d="M475.83 444.715C456.935 444.715 444.338 434.637 444.338 416.162V388.869H466.592V409.444C466.592 419.101 470.371 422.041 475.83 422.041C481.708 422.041 485.067 418.682 485.067 403.146C485.067 387.61 483.807 374.173 472.051 354.438C469.111 349.82 462.393 338.063 460.294 334.704C448.537 315.389 443.918 301.532 443.918 279.278C443.918 253.245 457.354 238.969 476.669 238.969C498.504 238.969 507.321 254.925 508.161 275.079C508.581 283.477 508.581 296.914 508.581 296.914H485.907V278.858C485.907 268.361 483.807 262.483 476.669 262.483C469.531 262.483 467.012 267.521 467.012 281.378C467.012 296.914 472.89 310.35 480.448 322.107C482.548 325.466 490.946 338.902 492.625 342.262C504.802 362.416 508.581 378.372 508.581 403.146C508.581 432.958 495.984 444.715 475.83 444.715Z" fill="#E8E8E8"/>
<path d="M592.978 260.385C588.359 247.369 579.121 241.07 562.326 241.07H532.094V297.755V354.441H562.326C579.121 354.441 587.939 348.142 592.978 335.126C596.337 325.468 597.177 320.429 597.177 297.755C597.177 275.081 596.337 270.043 592.978 260.385ZM572.823 318.33C572.403 327.987 568.204 333.026 562.326 333.026H555.188V297.755V262.065H562.326C567.784 262.065 572.403 266.684 572.823 276.761C572.823 281.38 572.823 290.197 573.243 297.755C573.243 305.313 572.823 314.131 572.823 318.33Z" fill="#E8E8E8"/>
<path d="M571.982 422.887C585.896 422.887 597.176 411.607 597.176 397.693C597.176 383.779 585.896 372.5 571.982 372.5C558.069 372.5 546.789 383.779 546.789 397.693C546.789 411.607 558.069 422.887 571.982 422.887Z" stroke="#E8E8E8" stroke-width="8.39779" stroke-miterlimit="10"/>
<path d="M554.35 415.32L531.676 437.574" stroke="#E8E8E8" stroke-width="8.39779" stroke-miterlimit="10"/>
<path d="M521.182 175.989V134" stroke="#E8E8E8" stroke-width="8.39779" stroke-miterlimit="10"/>
<path d="M495.15 178.085L488.432 136.516" stroke="#E8E8E8" stroke-width="8.39779" stroke-miterlimit="10"/>
<path d="M469.532 184.388L456.516 144.078" stroke="#E8E8E8" stroke-width="8.39779" stroke-miterlimit="10"/>
<path d="M445.598 194.462L426.703 156.672" stroke="#E8E8E8" stroke-width="8.39779" stroke-miterlimit="10"/>
<path d="M423.348 207.894L398.574 173.883" stroke="#E8E8E8" stroke-width="8.39779" stroke-miterlimit="10"/>
<path d="M403.611 224.695L373.799 194.883" stroke="#E8E8E8" stroke-width="8.39779" stroke-miterlimit="10"/>
<path d="M386.816 244.43L352.805 219.656" stroke="#E8E8E8" stroke-width="8.39779" stroke-miterlimit="10"/>
<path d="M373.382 266.676L335.592 247.781" stroke="#E8E8E8" stroke-width="8.39779" stroke-miterlimit="10"/>
<path d="M363.304 290.618L322.994 277.602" stroke="#E8E8E8" stroke-width="8.39779" stroke-miterlimit="10"/>
<path d="M357.003 316.234L315.434 309.516" stroke="#E8E8E8" stroke-width="8.39779" stroke-miterlimit="10"/>
<path d="M354.905 342.266H312.916" stroke="#E8E8E8" stroke-width="8.39779" stroke-miterlimit="10"/>
<path d="M357.003 367.875L315.434 374.593" stroke="#E8E8E8" stroke-width="8.39779" stroke-miterlimit="10"/>
<path d="M363.304 393.492L322.994 406.509" stroke="#E8E8E8" stroke-width="8.39779" stroke-miterlimit="10"/>
<path d="M373.382 417.422L335.592 436.737" stroke="#E8E8E8" stroke-width="8.39779" stroke-miterlimit="10"/>
<path d="M386.816 439.68L352.805 464.453" stroke="#E8E8E8" stroke-width="8.39779" stroke-miterlimit="10"/>
<path d="M403.611 459.414L373.799 489.226" stroke="#E8E8E8" stroke-width="8.39779" stroke-miterlimit="10"/>
<path d="M423.348 476.211L398.574 510.222" stroke="#E8E8E8" stroke-width="8.39779" stroke-miterlimit="10"/>
<path d="M445.598 490.07L426.703 527.44" stroke="#E8E8E8" stroke-width="8.39779" stroke-miterlimit="10"/>
<path d="M469.532 499.727L456.516 540.036" stroke="#E8E8E8" stroke-width="8.39779" stroke-miterlimit="10"/>
<path d="M495.15 506.016L488.432 547.585" stroke="#E8E8E8" stroke-width="8.39779" stroke-miterlimit="10"/>
<path d="M521.182 508.117V550.106" stroke="#E8E8E8" stroke-width="8.39779" stroke-miterlimit="10"/>
<path d="M546.789 506.016L553.507 547.585" stroke="#E8E8E8" stroke-width="8.39779" stroke-miterlimit="10"/>
<path d="M572.41 499.727L585.427 540.036" stroke="#E8E8E8" stroke-width="8.39779" stroke-miterlimit="10"/>
<path d="M596.34 490.07L615.655 527.44" stroke="#E8E8E8" stroke-width="8.39779" stroke-miterlimit="10"/>
<path d="M618.6 476.211L643.373 510.222" stroke="#E8E8E8" stroke-width="8.39779" stroke-miterlimit="10"/>
<path d="M638.332 459.414L668.144 489.226" stroke="#E8E8E8" stroke-width="8.39779" stroke-miterlimit="10"/>
<path d="M655.125 439.68L689.136 464.453" stroke="#E8E8E8" stroke-width="8.39779" stroke-miterlimit="10"/>
<path d="M668.984 417.422L706.355 436.737" stroke="#E8E8E8" stroke-width="8.39779" stroke-miterlimit="10"/>
<path d="M678.637 393.492L718.946 406.509" stroke="#E8E8E8" stroke-width="8.39779" stroke-miterlimit="10"/>
<path d="M684.938 367.875L726.507 374.593" stroke="#E8E8E8" stroke-width="8.39779" stroke-miterlimit="10"/>
<path d="M687.035 342.266H729.024" stroke="#E8E8E8" stroke-width="8.39779" stroke-miterlimit="10"/>
<path d="M684.938 316.234L726.507 309.516" stroke="#E8E8E8" stroke-width="8.39779" stroke-miterlimit="10"/>
<path d="M678.637 290.618L718.946 277.602" stroke="#E8E8E8" stroke-width="8.39779" stroke-miterlimit="10"/>
<path d="M668.984 266.676L706.355 247.781" stroke="#E8E8E8" stroke-width="8.39779" stroke-miterlimit="10"/>
<path d="M655.125 244.43L689.136 219.656" stroke="#E8E8E8" stroke-width="8.39779" stroke-miterlimit="10"/>
<path d="M638.332 224.695L668.144 194.883" stroke="#E8E8E8" stroke-width="8.39779" stroke-miterlimit="10"/>
<path d="M618.6 207.894L643.373 173.883" stroke="#E8E8E8" stroke-width="8.39779" stroke-miterlimit="10"/>
<path d="M596.34 194.462L615.655 156.672" stroke="#E8E8E8" stroke-width="8.39779" stroke-miterlimit="10"/>
<path d="M572.41 184.388L585.427 144.078" stroke="#E8E8E8" stroke-width="8.39779" stroke-miterlimit="10"/>
<path d="M546.789 178.085L553.507 136.516" stroke="#E8E8E8" stroke-width="8.39779" stroke-miterlimit="10"/>
</svg>
