<svg width="1600" height="1100" viewBox="0 0 1600 1100" fill="none" xmlns="http://www.w3.org/2000/svg">
<path d="M800.289 885.477C763.944 885.477 732.004 870.425 703.369 856.841C694.558 852.803 686.114 848.764 678.037 845.46C669.593 841.789 660.782 838.852 651.237 835.181C620.399 823.8 588.092 812.052 563.127 787.455C538.163 762.857 526.415 730.551 515.401 699.345C512.097 690.167 508.793 680.989 505.122 672.545C501.818 664.468 497.78 656.025 493.741 647.214C480.525 618.945 465.473 587.005 465.473 550.293C465.473 513.581 480.525 482.008 494.108 453.372C498.147 444.562 502.185 436.118 505.489 428.041C509.16 419.597 512.097 410.786 515.769 401.241C527.149 370.403 538.897 338.096 563.495 313.131C588.459 288.167 620.399 276.419 651.604 265.405C660.782 262.101 669.96 258.797 678.404 255.126C686.481 251.822 694.925 247.783 703.736 243.745C732.004 230.529 763.944 215.477 800.289 215.477C836.634 215.477 868.574 230.529 897.21 244.112C906.021 248.151 914.464 252.189 922.541 255.493C930.985 259.164 939.796 262.101 949.341 265.772C980.18 277.153 1012.49 288.901 1037.45 313.498C1062.42 338.463 1074.16 370.403 1085.18 401.608C1088.48 410.786 1091.79 419.964 1095.46 428.408C1098.76 436.485 1102.8 444.929 1106.84 453.74C1120.05 482.008 1135.47 513.948 1135.47 550.66C1135.47 587.372 1120.42 618.945 1106.84 647.581C1102.8 656.392 1098.76 664.835 1095.46 672.912C1091.79 681.356 1088.85 690.167 1085.18 699.712C1073.8 730.551 1062.05 762.857 1037.45 787.822C1012.49 812.786 980.547 824.534 949.341 835.548C940.163 838.852 930.985 842.156 922.541 845.827C914.464 849.131 906.021 853.17 897.21 857.208C868.941 870.425 837.001 885.477 800.289 885.477ZM800.289 264.671C774.958 264.671 750.36 276.419 724.662 288.534C715.851 292.94 706.306 297.345 697.127 301.016C687.582 305.055 677.67 308.359 668.492 312.03C641.325 321.942 615.626 331.12 598.371 348.375C581.116 365.63 571.938 391.329 562.026 418.496C558.722 428.041 555.051 437.586 551.012 447.131C546.974 456.309 542.936 465.855 538.53 474.666C526.415 500.731 514.667 524.961 514.667 550.293C514.667 575.625 526.415 600.222 538.53 625.92C542.936 634.731 547.341 644.277 551.012 653.455C555.051 663 558.355 672.912 562.026 682.09C571.938 709.257 581.116 734.956 598.371 752.211C615.626 769.466 641.325 778.644 668.492 788.556C678.037 791.86 687.582 795.531 697.127 799.57C706.306 803.608 715.851 807.646 724.662 812.052C750.727 824.167 774.958 835.915 800.289 835.915C825.621 835.915 850.218 824.167 875.917 812.052C884.727 807.646 894.273 803.241 903.451 799.57C912.996 795.531 922.908 792.227 932.086 788.556C959.253 778.644 984.952 769.466 1002.21 752.211C1019.46 734.956 1028.64 709.257 1038.55 682.09C1041.86 672.545 1045.53 663 1049.57 653.455C1053.6 644.277 1057.64 634.731 1062.05 625.92C1074.16 599.855 1085.91 575.625 1085.91 550.293C1085.91 524.961 1074.16 500.364 1062.05 474.666C1057.64 465.855 1053.24 456.309 1049.57 447.131C1045.53 437.586 1042.22 427.674 1038.55 418.496C1028.64 391.329 1019.46 365.63 1002.21 348.375C984.952 331.12 959.253 321.942 932.086 312.03C922.541 308.726 912.996 305.055 903.451 301.016C894.273 296.978 884.727 292.94 875.917 288.534C850.218 276.052 825.988 264.671 800.289 264.671Z" fill="#E8E8E8"/>
<path d="M800.291 402.359L678.406 437.97V389.142L800.291 355L922.176 389.51V438.337L800.291 402.359Z" fill="#E8E8E8"/>
<path d="M922.176 635.829L824.889 607.194V746.333H776.061V607.194L678.773 635.829V587.002L800.658 552.492L922.543 587.002V635.829H922.176Z" fill="#E8E8E8"/>
<path d="M800.291 503.32L678.406 538.931V490.103L800.291 455.594L922.176 490.103V538.931L800.291 503.32Z" fill="#E8E8E8"/>
</svg>
