<svg width="1600" height="1100" viewBox="0 0 1600 1100" fill="none" xmlns="http://www.w3.org/2000/svg">
<path opacity="0.3" d="M559.25 634.756C559.371 635.341 559.434 635.936 559.439 636.533L556.489 813.703C556.453 816.436 557.183 819.125 558.597 821.464C560.011 823.804 562.052 825.701 564.488 826.94L649.697 883.671C652.332 885.926 655.683 887.173 659.152 887.188H1030.74C1033.04 887.19 1035.3 886.651 1037.35 885.616C1039.41 884.581 1041.19 883.079 1042.55 881.23C1043.92 879.38 1044.83 877.236 1045.21 874.97C1045.6 872.704 1045.45 870.379 1044.77 868.183L1042.16 859.806C1038.4 847.663 1032.21 836.411 1023.97 826.732L929.227 715.521C925.878 711.586 923.739 706.766 923.068 701.642C922.396 696.519 923.222 691.31 925.445 686.645V686.645C926.371 684.706 926.493 682.479 925.785 680.449C925.076 678.42 923.595 676.752 921.663 675.81C921.401 675.69 921.148 675.551 920.907 675.394C920.507 675.008 920.063 674.672 919.583 674.392C918.807 673.658 918.183 672.779 917.747 671.804C917.31 670.829 917.07 669.777 917.041 668.71C917.011 667.642 917.191 666.579 917.573 665.581C917.954 664.583 918.528 663.67 919.262 662.894L945.32 635.456C951.489 628.932 954.879 620.266 954.775 611.288L954.454 578.857C954.356 568.661 958.292 558.84 965.403 551.532L1017.88 497.563L1079.85 433.268C1081.43 431.616 1082.61 429.616 1083.28 427.429C1083.96 425.242 1084.11 422.927 1083.73 420.67C1083.35 418.413 1082.45 416.275 1081.1 414.427C1079.75 412.579 1077.99 411.073 1075.95 410.027L990.742 353.297C989.019 351.805 986.963 350.748 984.748 350.214L781.69 299.819V284.691C781.689 282.085 780.964 279.53 779.595 277.313C778.226 275.095 776.267 273.302 773.937 272.134L688.728 215.404C686.176 213.209 682.922 212.001 679.556 212H650.926C647.196 212.005 643.621 213.489 640.983 216.126C638.346 218.764 636.862 222.339 636.857 226.069V246.549C636.86 247.63 636.646 248.701 636.229 249.699C635.812 250.697 635.2 251.601 634.428 252.359C633.656 253.116 632.741 253.712 631.736 254.111C630.73 254.509 629.656 254.703 628.574 254.68L531.981 252.657C529.872 252.613 527.778 253.024 525.842 253.862C523.906 254.701 522.174 255.947 520.763 257.516C519.353 259.084 518.297 260.939 517.668 262.952C517.038 264.966 516.851 267.092 517.118 269.184L552.385 545.594C552.572 547.04 552.37 548.508 551.799 549.849L531.584 596.728C529.079 602.543 528.809 609.079 530.826 615.082C532.843 621.084 537.005 626.131 542.514 629.253L559.25 634.756Z" fill="#E8E8E8"/>
<path d="M699.79 279.472C698.032 279.037 696.47 278.026 695.353 276.6C694.235 275.175 693.627 273.416 693.625 271.605V226.069C693.625 222.338 692.143 218.759 689.505 216.121C686.866 213.482 683.288 212 679.556 212H650.926C647.196 212.005 643.621 213.489 640.983 216.126C638.346 218.764 636.862 222.339 636.857 226.069V246.549C636.86 247.63 636.646 248.701 636.229 249.699C635.812 250.697 635.2 251.601 634.428 252.359C633.656 253.116 632.741 253.712 631.736 254.111C630.73 254.509 629.656 254.703 628.574 254.68L531.981 252.657C529.872 252.613 527.778 253.024 525.842 253.862C523.906 254.701 522.174 255.947 520.763 257.516C519.353 259.084 518.297 260.939 517.668 262.952C517.038 264.966 516.851 267.092 517.118 269.184L552.385 545.594C552.572 547.04 552.37 548.508 551.799 549.849L531.584 596.728C530.248 599.827 529.536 603.159 529.487 606.533C529.439 609.908 530.056 613.259 531.302 616.395C532.549 619.531 534.401 622.391 536.753 624.811C539.105 627.232 541.911 629.165 545.01 630.501L554.465 634.605C555.94 635.239 557.194 636.296 558.069 637.642C558.944 638.988 559.401 640.563 559.382 642.169L556.432 813.665C556.402 815.612 556.759 817.546 557.483 819.353C558.207 821.161 559.283 822.807 560.648 824.195C562.013 825.583 563.641 826.686 565.437 827.44C567.232 828.194 569.159 828.583 571.106 828.585H942.691C944.991 828.585 947.257 828.044 949.309 827.007C951.361 825.97 953.14 824.465 954.504 822.614C955.868 820.763 956.777 818.617 957.159 816.35C957.541 814.083 957.385 811.757 956.704 809.562L954.113 801.165C950.349 789.014 944.153 777.755 935.903 768.073L841.182 656.881C837.833 652.942 835.694 648.119 835.023 642.992C834.352 637.866 835.177 632.654 837.4 627.986V627.986C838.33 626.05 838.454 623.824 837.745 621.796C837.036 619.768 835.552 618.104 833.618 617.169V617.169C832.46 616.62 831.449 615.803 830.667 614.787C829.886 613.771 829.356 612.585 829.122 611.324C828.887 610.064 828.955 608.766 829.319 607.537C829.683 606.308 830.333 605.183 831.216 604.254L857.255 576.796C863.416 570.276 866.806 561.618 866.71 552.648L866.389 520.217C866.277 510.037 870.2 500.226 877.3 492.93L929.738 438.998L991.688 374.703C993.472 372.848 994.737 370.556 995.356 368.057C995.974 365.559 995.925 362.941 995.212 360.468C994.499 357.994 993.148 355.752 991.295 353.965C989.442 352.179 987.151 350.911 984.653 350.29L699.79 279.472Z" fill="white"/>
<mask id="mask0_5318_2609" style="mask-type:alpha" maskUnits="userSpaceOnUse" x="517" y="212" width="479" height="617">
<path d="M699.79 279.472C698.032 279.037 696.47 278.026 695.353 276.6C694.235 275.175 693.627 273.416 693.625 271.605V226.069C693.625 222.338 692.143 218.759 689.505 216.121C686.866 213.482 683.288 212 679.556 212H650.926C647.196 212.005 643.621 213.489 640.983 216.126C638.346 218.764 636.862 222.339 636.857 226.069V246.549C636.86 247.63 636.646 248.701 636.229 249.699C635.812 250.697 635.2 251.601 634.428 252.359C633.656 253.116 632.741 253.712 631.736 254.111C630.73 254.509 629.656 254.703 628.574 254.68L531.981 252.657C529.872 252.613 527.778 253.024 525.842 253.862C523.906 254.701 522.174 255.947 520.763 257.516C519.353 259.084 518.297 260.939 517.668 262.952C517.038 264.966 516.851 267.092 517.118 269.184L552.385 545.594C552.572 547.04 552.37 548.508 551.799 549.849L531.584 596.728C530.248 599.827 529.536 603.159 529.487 606.533C529.439 609.908 530.056 613.259 531.302 616.395C532.549 619.531 534.401 622.391 536.753 624.811C539.105 627.232 541.911 629.165 545.01 630.501L554.465 634.605C555.94 635.239 557.194 636.296 558.069 637.642C558.944 638.988 559.401 640.563 559.382 642.169L556.432 813.665C556.402 815.612 556.759 817.546 557.483 819.353C558.207 821.161 559.283 822.807 560.648 824.195C562.013 825.583 563.641 826.686 565.437 827.44C567.232 828.194 569.159 828.583 571.106 828.585H942.691C944.991 828.585 947.257 828.044 949.309 827.007C951.361 825.97 953.14 824.465 954.504 822.614C955.868 820.763 956.777 818.617 957.159 816.35C957.541 814.083 957.385 811.757 956.704 809.562L954.113 801.165C950.349 789.014 944.153 777.755 935.903 768.073L841.182 656.881C837.833 652.942 835.694 648.119 835.023 642.992C834.352 637.866 835.177 632.654 837.4 627.986V627.986C838.33 626.05 838.454 623.824 837.745 621.796C837.036 619.768 835.552 618.104 833.618 617.169V617.169C832.46 616.62 831.449 615.803 830.667 614.787C829.886 613.771 829.356 612.585 829.122 611.324C828.887 610.064 828.955 608.766 829.319 607.537C829.683 606.308 830.333 605.183 831.216 604.254L857.255 576.796C863.416 570.276 866.806 561.618 866.71 552.648L866.389 520.217C866.277 510.037 870.2 500.226 877.3 492.93L929.738 438.998L991.688 374.703C993.472 372.848 994.737 370.556 995.356 368.057C995.974 365.559 995.925 362.941 995.212 360.468C994.499 357.994 993.148 355.752 991.295 353.965C989.442 352.179 987.151 350.911 984.653 350.29L699.79 279.472Z" fill="white"/>
</mask>
<g mask="url(#mask0_5318_2609)">
<g style="mix-blend-mode:multiply">
<path d="M685.381 393.721C702.826 324.933 661.203 255.028 592.415 237.583C523.627 220.139 453.722 261.761 436.277 330.55C418.833 399.338 460.455 469.243 529.243 486.687C598.032 504.132 667.937 462.51 685.381 393.721Z" fill="#E8E8E8"/>
</g>
<g style="mix-blend-mode:multiply">
<path d="M757.334 872.559C780.426 781.5 725.328 688.961 634.268 665.869C543.209 642.777 450.67 697.875 427.578 788.935C404.486 879.994 459.584 972.533 550.644 995.625C641.703 1018.72 734.241 963.619 757.334 872.559Z" fill="#C7C7C7"/>
</g>
<g style="mix-blend-mode:multiply">
<path d="M846.86 401.344C863.915 334.095 823.223 265.753 755.974 248.699C688.724 231.645 620.383 272.336 603.329 339.586C586.274 406.835 626.966 475.177 694.215 492.231C761.465 509.285 829.806 468.594 846.86 401.344Z" fill="#EEEEEE"/>
</g>
<g style="mix-blend-mode:multiply">
<path d="M882.63 599.704C901.327 525.975 856.715 451.05 782.987 432.352C709.259 413.655 634.333 458.267 615.636 531.995C596.938 605.724 641.55 680.649 715.278 699.347C789.007 718.044 863.932 673.432 882.63 599.704Z" fill="#C7C7C7"/>
</g>
<g style="mix-blend-mode:multiply">
<path d="M723.868 246.556C733.361 209.12 710.709 171.076 673.273 161.582C635.837 152.089 597.793 174.741 588.299 212.177C578.806 249.613 601.457 287.657 638.894 297.151C676.33 306.644 714.374 283.993 723.868 246.556Z" fill="#C7C7C7"/>
</g>
<g style="mix-blend-mode:multiply">
<path d="M1119.13 362.362C1134.03 303.616 1098.48 243.916 1039.74 229.019C980.99 214.121 921.29 249.667 906.393 308.413C891.495 367.158 927.041 426.858 985.787 441.756C1044.53 456.654 1104.23 421.108 1119.13 362.362Z" fill="#EEEEEE"/>
</g>
<g style="mix-blend-mode:multiply">
<path d="M846.339 420.349C911.446 420.349 964.225 370.279 964.225 308.514C964.225 246.75 911.446 196.68 846.339 196.68C781.232 196.68 728.453 246.75 728.453 308.514C728.453 370.279 781.232 420.349 846.339 420.349Z" fill="#C7C7C7"/>
</g>
<g style="mix-blend-mode:multiply">
<path d="M1133.32 756C1156.67 663.928 1100.95 570.361 1008.88 547.012C916.811 523.663 823.244 579.373 799.894 671.445C776.545 763.517 832.256 857.084 924.328 880.433C1016.4 903.783 1109.97 848.072 1133.32 756Z" fill="#EEEEEE"/>
</g>
<g style="mix-blend-mode:multiply">
<path d="M1001.05 545.266C1018.42 476.781 976.981 407.185 908.497 389.817C840.012 372.45 770.415 413.888 753.048 482.373C735.681 550.857 777.119 620.454 845.604 637.821C914.088 655.189 983.685 613.75 1001.05 545.266Z" fill="#E8E8E8"/>
</g>
<g style="mix-blend-mode:multiply">
<path d="M728.589 600.687C750.459 514.446 698.277 426.805 612.036 404.935C525.795 383.064 438.154 435.247 416.283 521.488C394.413 607.729 446.596 695.37 532.836 717.24C619.077 739.111 706.719 686.928 728.589 600.687Z" fill="#EEEEEE"/>
</g>
<g style="mix-blend-mode:multiply">
<path d="M858.808 845.006C877.066 773.009 833.502 699.842 761.505 681.584C689.508 663.326 616.341 706.89 598.083 778.887C579.825 850.885 623.389 924.051 695.386 942.309C767.383 960.568 840.55 917.004 858.808 845.006Z" fill="#E8E8E8"/>
</g>
</g>
</svg>
