<svg width="1600" height="1100" viewBox="0 0 1600 1100" fill="none" xmlns="http://www.w3.org/2000/svg">
<g clip-path="url(#clip0_5315_2220)">
<path d="M956.147 411.193L1041.24 331.854L1041.88 331.214C1047.64 324.816 1047.64 314.579 1041.24 308.82C1034.85 303.062 1024.61 303.062 1018.85 309.46L939.512 394.558C942.711 397.117 945.27 399.676 947.83 402.875C950.389 406.075 953.588 407.994 956.147 411.193Z" fill="#E8E8E8"/>
<path d="M1125.07 534.039L1008.62 538.518C1009.26 546.196 1008.62 553.874 1008.62 562.192L1125.07 566.67C1125.71 566.67 1125.71 566.67 1126.35 566.67C1135.3 566.031 1142.34 558.992 1141.7 550.035C1141.06 541.077 1134.02 534.039 1125.07 534.039Z" fill="#E8E8E8"/>
<path d="M938.238 704.854L1018.86 791.232L1019.5 791.871C1025.9 797.63 1036.13 797.63 1041.89 791.232C1047.65 784.833 1047.65 774.596 1041.25 768.837L954.874 688.219C952.954 690.778 950.395 692.698 947.836 695.257C944.637 698.456 941.437 701.655 938.238 704.854Z" fill="#E8E8E8"/>
<path d="M788.518 755.406L784.039 875.055C784.039 875.695 784.039 875.695 784.039 876.334C784.679 885.292 791.717 892.33 800.675 891.69C809.632 891.05 816.67 884.012 816.031 875.055L811.552 756.046C803.874 756.046 796.196 756.046 788.518 755.406Z" fill="#E8E8E8"/>
<path d="M594.644 538.518L475.636 534.039C474.996 534.039 474.996 534.039 474.356 534.039C465.398 534.679 459 541.717 459 550.675C459.64 559.632 466.678 566.67 475.636 566.031L595.284 561.552C594.644 553.874 594.644 546.196 594.644 538.518Z" fill="#E8E8E8"/>
<path d="M662.469 395.837L581.85 309.46L581.21 308.82C574.812 303.062 564.575 303.062 558.816 309.46C553.058 315.858 553.058 326.096 559.456 331.854L645.833 412.473C649.032 409.274 651.592 405.435 654.791 402.236C657.35 400.316 659.91 397.757 662.469 395.837Z" fill="#E8E8E8"/>
<path d="M812.183 342.085L816.662 225.636C816.662 224.996 816.662 224.996 816.662 224.356C816.022 215.398 808.344 209 799.387 209C790.429 209.64 783.391 216.678 784.031 225.636L788.509 342.085C796.187 342.085 804.505 341.445 812.183 342.085Z" fill="#E8E8E8"/>
<path d="M883.211 466.854C893.448 477.732 901.766 490.528 907.524 504.604C913.283 518.681 915.842 533.397 915.202 548.753C914.562 578.825 901.766 607.617 880.651 627.452C876.173 631.291 869.774 631.291 865.935 626.812C862.096 622.973 862.096 616.575 865.935 612.096C882.571 594.821 891.528 571.147 890.249 548.113C889.609 525.079 879.372 502.685 862.736 486.689C856.978 480.931 856.338 471.973 862.096 466.215C867.855 460.456 876.812 459.816 882.571 465.575C883.211 466.854 883.211 466.854 883.211 466.854Z" fill="#E8E8E8"/>
<path d="M926.075 423.983C892.804 390.711 848.656 372.156 801.308 372.156C753.961 372.156 709.812 390.711 676.541 423.983C643.91 457.254 625.354 502.042 625.354 548.75C625.354 590.339 639.431 629.368 665.664 660.72C665.024 661.36 664.384 661.36 663.744 662L485.871 805.962C483.952 807.881 481.392 809.801 479.473 812.36C464.757 830.276 467.956 856.509 485.871 871.225C503.786 885.941 530.02 882.742 544.736 864.826L688.058 686.953C688.698 686.313 688.698 685.674 689.338 685.034C720.689 711.267 760.359 725.343 801.308 725.343C848.656 725.343 892.804 706.788 926.075 673.517C959.346 640.246 977.901 596.097 977.901 548.75C977.901 502.042 959.346 457.254 926.075 423.983ZM903.681 651.123C876.168 678.635 840.338 693.352 801.948 693.352C763.558 693.352 727.088 678.635 700.215 651.123C672.702 623.61 657.986 587.779 657.986 549.39C657.986 511 672.702 474.529 700.215 447.656C727.727 420.144 763.558 405.427 801.948 405.427C840.338 405.427 876.808 420.144 903.681 447.656C931.194 475.169 945.91 511 945.91 549.39C945.91 587.14 931.194 623.61 903.681 651.123Z" fill="#E8E8E8"/>
</g>
<defs>
<clipPath id="clip0_5315_2220">
<rect width="682.7" height="682.7" fill="white" transform="translate(459 209)"/>
</clipPath>
</defs>
</svg>
