<svg width="1600" height="1100" viewBox="0 0 1600 1100" fill="none" xmlns="http://www.w3.org/2000/svg">
<g clip-path="url(#clip0_5315_2147)">
<path d="M737.534 445.828H710.67V463.966H737.534C740.443 463.966 742.496 462.939 743.865 461.057C745.234 459.175 745.919 456.95 745.919 454.726V454.555C745.919 452.159 745.063 450.106 743.523 448.395C742.154 446.855 740.101 445.828 737.534 445.828Z" fill="#E8E8E8"/>
<path d="M754.302 304.835C754.302 304.835 746.774 302.611 740.785 302.611L737.362 306.375C734.454 309.627 730.347 311.338 726.069 311.338C719.567 311.338 713.92 307.06 711.867 301.242C643.765 306.547 590.208 363.526 590.208 432.826C590.208 494.767 632.814 546.785 690.307 560.987C690.307 560.987 696.125 562.185 704.167 562.698L707.247 559.276C710.156 556.025 714.263 554.314 718.54 554.314C725.214 554.314 730.689 558.591 732.742 564.58C800.673 559.276 854.23 502.296 854.23 432.997C854.573 371.055 811.795 319.038 754.302 304.835ZM743.865 495.794H667.55C666.181 495.794 664.983 495.281 663.956 494.254C662.93 493.227 662.416 492.03 662.416 490.661V371.397C662.416 370.028 662.93 368.831 663.956 367.804C664.983 366.777 666.181 366.264 667.55 366.264H741.982C759.436 366.264 772.44 369.515 780.824 375.846C789.209 382.177 793.315 391.759 793.315 404.593V405.106C793.315 411.095 791.775 416.057 788.524 420.335C785.273 424.612 782.022 427.179 778.6 428.377C783.391 429.917 787.498 433.168 790.92 438.13C794.342 443.092 796.053 448.91 796.053 455.241C796.053 482.276 778.6 495.794 743.865 495.794Z" fill="#E8E8E8"/>
<path d="M741.128 412.296C742.496 410.585 743.01 408.531 743.01 406.307C743.01 404.083 742.325 402.2 741.128 400.489C739.759 398.949 737.876 398.094 735.481 398.094H710.67V414.863H735.481C737.876 415.034 739.759 414.178 741.128 412.296Z" fill="#E8E8E8"/>
<path d="M614.848 801.398C614.848 835.62 592.946 852.56 549.142 852.56H453.149C451.438 852.56 449.898 851.875 448.701 850.678C447.503 849.48 446.818 847.94 446.818 846.229V695.823C446.818 694.112 447.503 692.572 448.701 691.374C449.898 690.177 451.438 689.492 453.149 689.492H546.747C568.82 689.492 585.075 693.428 595.513 701.47C605.951 709.512 611.255 721.49 611.255 737.745V738.43C611.255 745.958 609.202 752.289 605.266 757.594C601.159 762.898 597.053 766.149 592.604 767.689C598.593 769.572 603.897 773.678 608.175 779.838C612.624 786.169 614.848 793.356 614.848 801.398ZM545.891 747.498C547.602 745.274 548.287 742.707 548.287 739.97C548.287 737.232 547.431 734.836 545.891 732.783C544.18 730.73 541.955 729.703 538.704 729.703H507.562V750.921H538.704C541.784 750.921 544.18 749.894 545.891 747.498ZM507.562 789.763V812.52H541.271C544.864 812.52 547.602 811.322 549.313 808.927C551.024 806.531 552.051 803.794 552.051 800.885V800.714C552.051 797.805 551.024 795.238 549.142 793.014C547.26 790.789 544.522 789.763 541.271 789.763H507.562Z" fill="#E8E8E8"/>
<path d="M816.586 845.545C816.929 846.23 817.1 847.085 817.1 848.112C817.1 849.138 816.586 850.165 815.56 851.192C814.533 852.218 813.335 852.732 811.966 852.732H759.093C754.473 852.732 751.222 850.85 749.34 846.914L728.807 800.714H709.3V846.401C709.3 848.112 708.616 849.652 707.418 850.85C706.22 852.047 704.68 852.732 702.969 852.732H652.663C650.952 852.732 649.412 852.047 648.214 850.85C647.016 849.652 646.332 848.112 646.332 846.401V695.995C646.332 694.284 647.016 692.744 648.214 691.546C649.412 690.348 650.952 689.664 652.663 689.664H743.351C764.569 689.664 781.509 694.797 793.829 704.893C806.32 714.988 812.48 728.677 812.48 746.13C812.48 767.177 804.266 782.577 788.011 791.988L816.586 845.545ZM709.3 732.955V757.595H738.389C741.811 757.595 744.378 756.397 746.26 754.172C748.142 751.948 748.998 749.039 748.998 745.617C748.998 742.195 748.142 739.286 746.26 736.719C744.549 734.153 741.811 732.955 738.218 732.955H709.3Z" fill="#E8E8E8"/>
<path d="M1187.21 766.322C1197.99 774.022 1203.47 785.657 1203.47 801.057C1203.47 816.457 1195.6 828.948 1180.02 838.702C1164.28 848.284 1143.58 853.075 1117.57 853.075C1091.56 853.075 1071.54 848.284 1057.17 838.873C1042.79 829.462 1035.61 817.826 1035.61 803.966C1035.61 800.544 1037.32 798.833 1040.91 798.833H1088.65C1091.9 798.833 1094.47 799.86 1096.52 801.742C1100.8 805.677 1108.33 807.731 1119.11 807.731C1133.82 807.731 1141.18 805.506 1141.18 801.228C1141.18 798.491 1138.79 796.437 1134.17 794.897C1129.55 793.357 1120.31 791.817 1106.45 790.277C1062.47 785.144 1040.57 768.889 1040.57 741.511C1040.57 726.111 1047.59 713.62 1061.79 704.038C1075.99 694.456 1094.81 689.836 1118.42 689.836C1142.04 689.836 1161.2 694.969 1175.92 705.236C1190.46 715.502 1197.82 726.282 1197.82 737.747C1197.82 739.287 1197.31 740.484 1196.28 741.511C1195.25 742.367 1193.88 742.88 1192.17 742.88H1142.04C1139.3 742.88 1136.9 742.024 1134.85 740.313C1131.09 737.062 1125.61 735.522 1118.08 735.522C1107.64 735.522 1102.51 737.576 1102.51 741.853C1102.51 744.078 1104.56 745.789 1108.5 747.158C1112.61 748.356 1120.65 749.724 1132.8 751.093C1158.29 753.318 1176.43 758.451 1187.21 766.322Z" fill="#E8E8E8"/>
<path d="M1008.57 757.424V785.144C1008.57 800.715 1004.64 813.719 996.936 824.157C989.236 834.595 978.969 841.953 966.478 846.401C953.987 850.85 939.101 852.904 921.99 852.904C904.879 852.904 890.163 850.679 877.501 846.401C865.01 841.953 854.744 834.595 847.044 824.157C839.344 813.719 835.408 800.544 835.408 784.631V757.938C835.408 735.18 843.45 718.069 859.535 706.776C875.619 695.483 896.323 689.836 921.99 689.836C947.485 689.836 968.361 695.483 984.445 706.776C1000.53 718.069 1008.57 735.009 1008.57 757.424ZM898.377 753.66V788.909C898.377 794.897 900.43 799.517 904.708 802.768C908.985 806.02 914.803 807.56 921.99 807.56C929.348 807.56 934.994 805.848 939.272 802.597C943.55 799.346 945.603 794.726 945.603 788.566V753.831C945.603 747.842 943.55 743.222 939.272 739.8C934.994 736.378 929.176 734.838 921.99 734.838C914.632 734.838 908.985 736.378 904.708 739.629C900.43 743.051 898.377 747.671 898.377 753.66Z" fill="#E8E8E8"/>
<path d="M414.821 757.424V784.973C414.821 800.544 410.885 813.548 403.185 823.986C395.486 834.424 385.219 841.782 372.728 846.23C360.237 850.679 345.35 852.733 328.41 852.733C311.299 852.733 296.584 850.508 284.093 846.23C271.602 841.782 261.335 834.424 253.635 823.986C245.936 813.548 242 800.373 242 784.631V757.938C242 735.18 250.042 718.069 266.126 706.776C282.211 695.483 302.915 689.836 328.41 689.836C353.906 689.836 374.781 695.483 390.694 706.776C406.779 717.898 414.821 734.838 414.821 757.424ZM304.797 753.66V788.737C304.797 794.726 306.851 799.346 311.128 802.597C315.406 805.848 321.224 807.388 328.41 807.388C335.597 807.388 341.415 805.677 345.693 802.426C349.97 799.175 352.024 794.555 352.024 788.395V753.66C352.024 747.671 349.97 743.051 345.693 739.8C341.415 736.549 335.597 734.838 328.41 734.838C321.053 734.838 315.406 736.378 311.128 739.629C306.851 743.051 304.797 747.671 304.797 753.66Z" fill="#E8E8E8"/>
<path d="M1229.82 802.773H1240.77V842.3H1265.24V852.224H1229.82V802.773Z" fill="#E8E8E8"/>
<path d="M1273.45 802.773H1284.4V842.3H1309.04V852.224H1273.62V802.773H1273.45Z" fill="#E8E8E8"/>
<path d="M1312.12 827.581C1312.12 813.378 1322.73 801.914 1337.96 801.914C1347.2 801.914 1352.84 804.994 1357.46 809.614L1350.62 817.656C1346.85 814.234 1342.92 812.01 1337.96 812.01C1329.57 812.01 1323.58 818.854 1323.58 827.409V827.581C1323.58 836.136 1329.4 843.152 1337.96 843.152C1343.6 843.152 1347.03 840.927 1350.96 837.334L1357.81 844.349C1352.67 849.825 1347.03 853.247 1337.61 853.247C1322.9 852.905 1312.12 841.783 1312.12 827.581Z" fill="#E8E8E8"/>
<path d="M694.584 573.82L687.055 582.204C681.922 588.022 681.922 596.749 687.055 602.395L689.28 604.791C686.371 604.277 684.66 603.764 684.317 603.764C605.265 586.14 547.601 514.274 547.601 432.825C547.601 340.255 619.98 264.111 711.01 258.122C712.893 257.951 714.775 257.951 716.657 257.78C718.539 257.78 720.422 257.609 722.304 257.609V250.764C722.304 248.54 724.186 247 726.068 247C727.095 247 727.95 247.342 728.806 248.198L749.339 270.955C750.537 272.324 750.537 274.549 749.339 275.918L728.806 298.675C728.121 299.531 727.095 299.873 726.068 299.873C724.186 299.873 722.304 298.333 722.304 296.109V289.093C720.422 289.093 718.539 289.093 716.657 289.264C714.775 289.264 712.893 289.435 711.01 289.606C637.091 295.595 578.914 357.537 578.914 432.996C578.914 496.478 621.691 552.944 681.922 570.74C681.922 570.911 687.397 572.451 694.584 573.82Z" fill="#E8E8E8"/>
<path d="M749.51 292.687L757.894 283.618C763.028 277.8 763.028 269.073 757.894 263.427L755.841 261.031C758.921 261.545 760.803 262.058 760.974 262.058C840.369 279.682 898.033 351.548 898.033 432.997C898.033 525.909 825.483 602.053 733.939 607.871C732.057 608.042 730.175 608.042 728.292 608.042C726.41 608.042 724.699 608.213 722.817 608.213C722.646 608.213 722.646 608.213 722.475 608.213V615.058C722.475 617.282 720.593 618.822 718.71 618.822C717.684 618.822 716.828 618.48 715.973 617.624L695.439 594.867C694.242 593.498 694.242 591.273 695.439 589.904L715.973 567.147C716.657 566.291 717.684 565.949 718.71 565.949C720.593 565.949 722.475 567.489 722.475 569.713V576.9V577.071H722.817C724.699 577.071 726.41 577.071 728.292 576.9C730.175 576.9 732.057 576.729 733.939 576.558C808.03 570.911 866.72 508.798 866.72 433.168C866.72 369.344 823.601 312.878 763.199 295.253C763.028 295.082 757.039 292.687 749.51 292.687Z" fill="#E8E8E8"/>
</g>
<defs>
<clipPath id="clip0_5315_2147">
<rect width="1115.81" height="605.9" fill="white" transform="translate(242 247)"/>
</clipPath>
</defs>
</svg>
