<svg width="1600" height="1100" viewBox="0 0 1600 1100" fill="none" xmlns="http://www.w3.org/2000/svg">
<g clip-path="url(#clip0_5315_2405)">
<path d="M1089.88 586.797H1059.08V696.111H1089.88C1116.96 696.111 1136.59 680.882 1142.51 657.191C1143.69 652.453 1144.54 647.377 1144.54 641.962V641.454C1144.54 635.532 1143.52 630.286 1142.17 625.04C1135.91 602.026 1116.62 586.797 1089.88 586.797Z" fill="#E8E8E8"/>
<path d="M1398.37 303.354H1343.2H1303.27H1248.1H1226.44L1173.98 331.105H1172.29L1170.77 329.921C1147.76 311.307 1120.68 302 1089.88 302C1073.47 302 1058.58 305.554 1045.89 311.984C1044.87 312.491 1043.86 312.999 1042.84 313.507C1041.83 314.014 1040.81 314.522 1039.79 315.03C1038.78 315.537 1037.76 316.045 1036.75 316.553C1035.73 317.06 1034.72 317.568 1033.53 318.076C1032.52 318.583 1031.5 319.091 1030.49 319.599C1029.47 320.106 1028.46 320.614 1027.44 321.122C1026.43 321.629 1025.41 322.137 1024.4 322.645C1023.38 323.152 1022.37 323.66 1021.35 324.168C1020.33 324.675 1019.32 325.183 1018.3 325.69C1017.29 326.198 1016.27 326.706 1015.26 327.213C1014.24 327.721 1013.23 328.229 1012.04 328.736C1011.03 329.244 1010.01 329.752 1009 330.259C1007.98 330.767 1006.97 331.275 1005.95 331.782C1004.94 332.29 1003.92 332.798 1002.91 333.305C1001.89 333.813 1000.87 334.321 999.69 334.828C998.675 335.336 997.66 335.844 996.644 336.351C995.629 336.859 994.614 337.366 993.598 337.874C992.583 338.382 991.568 338.889 990.383 339.397C989.368 339.905 988.353 340.412 987.337 340.92C986.322 341.428 985.307 341.935 984.291 342.443C980.569 344.135 977.184 345.997 973.969 348.196L896.298 387.624L880.561 304.538H822.519H804.582L679.192 366.641V361.565V326.029V304.538H657.532H520.804H499.144L423.843 342.105C420.966 336.69 417.412 331.444 412.843 326.875C398.291 312.322 376.631 304.538 350.233 304.538H266.301H244.81L180 337.028L180.338 796.623L1221.87 797.3C1254.36 778.855 1257.92 775.132 1257.92 775.132C1325.77 729.951 1346.42 714.045 1346.42 714.045C1419.86 672.079 1409.2 598.131 1409.2 598.131C1409.2 598.131 1408.86 597.116 1409.7 596.439C1412.07 594.239 1416.81 581.717 1415.63 557.688C1415.12 547.704 1417.66 538.059 1417.83 537.889C1417.83 537.889 1410.21 540.428 1397.69 540.597C1387.2 540.766 1368.42 540.766 1359.95 548.381C1359.79 548.55 1359.62 548.55 1359.45 548.719C1358.6 549.396 1357.59 548.55 1357.59 548.55C1354.71 546.181 1348.79 542.797 1339.14 542.289L1364.86 529.259V507.599V409.453L1419.86 383.224V361.734V324.844V303.354H1398.37ZM420.12 732.151H380.184V659.388H306.575V732.151H266.639V550.75H306.575V622.498H380.184V550.75H420.12V732.151ZM420.458 457.849C420.458 491.016 393.553 507.599 352.602 507.599H266.301V326.198H350.402C371.216 326.198 387.461 331.952 397.783 342.274C406.075 350.565 410.305 360.719 410.305 373.071V373.579C410.305 394.054 399.475 405.392 386.445 412.668C407.428 420.791 420.458 432.805 420.458 457.173V457.849ZM659.055 732.151H520.974V326.198H657.701V361.734H560.74V511.491H578.508H646.195V547.027H576.646H560.74V696.785H659.224V732.151H659.055ZM897.144 732.151L863.132 546.858H821.842L787.322 732.151H746.71L822.689 326.198H862.624H862.793L938.772 732.151H897.144ZM1042.84 452.773C1059.09 466.31 1076.18 474.771 1096.99 474.771C1113.4 474.771 1123.22 468.341 1123.22 457.68V457.173C1123.22 447.019 1116.96 441.943 1086.67 434.159C1050.12 424.852 1026.6 414.699 1026.6 378.656V378.148C1026.6 345.32 1052.99 323.491 1090.05 323.491C1116.45 323.491 1138.96 331.782 1157.4 346.504L1136.76 376.625C1120.68 365.457 1104.94 358.688 1089.54 358.688C1074.15 358.688 1066.19 365.626 1066.19 374.425V374.933C1066.19 386.778 1073.98 390.67 1105.28 398.792C1142 408.438 1162.82 421.637 1162.82 453.111V453.619C1162.82 456.496 1162.65 459.034 1162.31 461.741C1160.45 477.309 1152.83 489.324 1141.16 497.446C1129.65 505.569 1114.25 509.799 1096.14 509.799C1068.73 509.799 1040.98 500.154 1019.15 480.694L1042.84 452.773ZM1186.34 641.451C1186.34 673.602 1170.77 701.015 1145.05 717.091C1129.82 726.567 1111.04 732.151 1089.88 732.151H1019.15V550.75H1089.88C1128.97 550.75 1159.77 569.195 1175.17 597.116C1182.28 609.976 1186.17 624.867 1186.17 640.943V641.451H1186.34ZM1357.92 567.841C1357.92 567.841 1358.94 568.687 1359.79 568.01C1367.23 561.241 1379.92 554.642 1389.23 553.796C1398.87 552.95 1406.66 548.55 1406.66 548.55C1406.49 548.719 1398.71 558.534 1398.71 566.656C1398.71 587.978 1392.11 595.085 1389.91 597.116C1389.23 597.792 1389.57 598.638 1389.57 598.638C1389.91 599.654 1390.08 600.669 1390.41 601.684C1393.29 612.345 1393.29 620.975 1392.95 626.052C1392.61 629.267 1392.28 630.959 1392.28 630.959C1392.28 629.944 1391.94 628.928 1391.6 628.082C1390.41 624.867 1387.37 622.498 1386.01 621.483C1386.01 621.483 1385.17 620.975 1385.34 621.991C1386.35 627.405 1386.18 632.82 1385.51 637.728C1383.14 654.142 1373.83 666.495 1373.83 666.495C1376.03 661.926 1375.52 657.865 1374.51 654.819C1374 653.296 1373.49 651.942 1373.15 651.096C1373.15 651.096 1372.81 650.25 1372.65 651.096C1371.46 656.172 1369.94 660.572 1368.42 664.633C1367.06 668.018 1365.54 671.064 1364.18 673.771C1356.06 688.324 1347.43 691.708 1347.43 691.708C1348.28 688.662 1347.77 684.093 1347.6 682.232C1347.43 681.047 1346.92 681.894 1346.92 681.894C1337.79 696.108 1321.88 707.445 1321.88 707.445C1323.07 701.692 1320.02 695.939 1318.83 694.077C1318.83 694.077 1318.5 693.231 1318.16 694.077C1315.96 700 1315.45 711.337 1315.45 711.337C1314.1 704.061 1305.64 696.108 1302.08 693.062C1302.08 693.062 1301.91 693.062 1301.91 693.231C1299.04 699.154 1302.59 703.384 1302.59 703.384C1287.53 704.569 1273.82 677.325 1271.28 671.91C1271.28 671.91 1271.12 671.74 1271.12 672.079C1270.95 672.417 1270.95 672.756 1270.61 673.602C1269.08 676.817 1272.13 683.924 1272.13 683.924C1256.22 674.448 1256.22 646.527 1256.39 640.943C1256.39 640.943 1256.39 640.604 1256.05 640.774C1255.72 640.943 1255.38 641.112 1254.53 641.451C1250.64 643.143 1250.13 649.235 1250.13 649.235C1244.38 638.405 1249.12 616.406 1250.13 612.514C1250.3 611.837 1249.62 612.007 1249.62 612.007C1242.86 612.853 1241.16 621.821 1241.16 621.821C1240.32 615.56 1243.03 607.607 1245.39 601.854C1246.58 598.808 1247.93 596.439 1248.44 595.254C1248.78 594.577 1248.27 593.731 1248.27 593.731C1247.42 592.377 1246.75 590.854 1246.07 589.332C1242.18 580.194 1241.33 569.533 1241.16 565.81C1240.99 562.257 1240.32 562.087 1239.13 561.411C1239.98 561.749 1241.84 562.087 1242.86 561.918C1263.67 558.872 1277.04 563.949 1280.93 565.641C1282.28 566.149 1282.96 565.641 1282.96 565.641C1289.56 561.918 1295.82 561.072 1301.07 561.411C1306.14 561.749 1310.2 563.103 1311.9 563.78C1313.25 564.287 1312.74 563.272 1312.74 563.272C1312.07 561.072 1308.85 558.534 1308.85 558.534C1319.17 557.519 1327.63 562.257 1330.51 563.949C1331.7 564.626 1331.02 563.61 1331.02 563.61C1329.33 560.903 1323.74 558.534 1323.74 558.534C1340.66 554.98 1354.2 564.795 1357.92 567.841ZM1398.37 361.734H1343.2V507.599H1303.27V361.734H1248.1V324.844H1303.27H1343.2H1398.37V361.734Z" fill="#E8E8E8"/>
<path d="M351.248 432.633H305.221V472.568H352.602C370.2 472.568 380.861 466.307 380.861 452.939V452.431C380.861 440.078 371.723 432.633 351.248 432.633Z" fill="#E8E8E8"/>
<path d="M828.439 511.494H856.53L842.484 435.516L828.439 511.494Z" fill="#E8E8E8"/>
<path d="M370.708 380.348V379.84C370.708 367.995 361.401 361.227 344.479 361.227H305.221V399.639H341.941C359.54 399.47 370.708 393.716 370.708 380.348Z" fill="#E8E8E8"/>
</g>
<defs>
<clipPath id="clip0_5315_2405">
<rect width="1239.86" height="495.3" fill="white" transform="translate(180 302)"/>
</clipPath>
</defs>
</svg>
