<svg width="1600" height="1100" viewBox="0 0 1600 1100" fill="none" xmlns="http://www.w3.org/2000/svg">
<path d="M1329.71 227C1331.04 227 1332.6 227.222 1334.15 227.666C1335.7 228.11 1337.26 228.553 1338.37 228.997L1360.55 251.406C1361 252.515 1361.44 253.847 1361.88 255.621C1362.33 257.174 1362.55 258.727 1362.55 260.059V460.852C1362.55 462.183 1362.33 463.514 1361.88 465.289C1361.44 466.842 1361 468.396 1360.55 469.505L1338.37 491.691C1337.26 492.357 1335.93 492.801 1334.15 493.245C1332.38 493.689 1330.82 493.688 1329.71 493.688H1302.64V665.631C1302.64 666.962 1302.42 668.294 1301.98 670.068C1301.53 671.621 1301.09 672.953 1300.65 674.284L1278.46 696.472C1277.35 697.137 1275.8 697.581 1274.24 698.024C1272.47 698.246 1271.14 698.468 1269.81 698.468H1040.62V840.023C1040.62 841.355 1040.39 842.686 1039.95 844.461C1039.51 846.014 1039.06 847.568 1038.62 848.455L1016.43 870.642C1015.32 871.307 1013.99 871.752 1012.22 872.195C1010.44 872.417 1009.11 872.639 1007.78 872.639H584.894C583.562 872.639 582.231 872.417 580.456 872.195C578.903 871.973 577.571 871.307 576.24 870.642L554.054 848.455C553.388 847.346 552.944 846.014 552.722 844.461C552.278 842.908 552.278 841.355 552.278 840.023V698.468H324.638C323.307 698.468 321.975 698.246 320.2 698.024C318.647 697.803 317.095 697.137 315.985 696.472L293.798 674.284C293.132 673.175 292.689 671.843 292.467 670.068C292.245 668.515 292.023 666.962 292.023 665.631V493.688H269.837C268.506 493.688 267.174 493.467 265.399 493.245C263.846 493.023 262.515 492.357 261.184 491.691L238.997 469.505C238.331 468.396 237.887 467.064 237.443 465.289C237.221 463.736 237 462.183 237 460.852V259.837C237 258.506 237.221 257.174 237.443 255.399C237.665 253.846 238.331 252.515 238.997 251.184L261.184 228.997C262.293 228.553 263.625 228.11 265.399 227.666C266.953 227.222 268.506 227 269.837 227H1329.71ZM616.753 684.934C616.309 684.934 615.421 684.933 614.756 685.155C613.868 685.377 613.203 685.599 612.759 685.821L602.109 696.471L601.666 697.703C601.592 697.925 601.517 698.172 601.443 698.468C601.222 699.133 601.222 699.799 601.222 700.465V808.294C601.222 808.959 601.222 809.625 601.443 810.513C601.443 811.263 601.761 811.854 601.993 812.287C602.036 812.366 602.075 812.44 602.109 812.509L612.759 823.159C613.202 823.381 613.869 823.602 614.756 823.824C615.421 824.046 616.087 824.047 616.753 824.047H976.849C977.514 824.047 978.18 824.046 979.067 823.824C979.289 823.75 979.537 823.676 979.783 823.603C980.276 823.455 980.769 823.307 981.064 823.159L991.715 812.509C991.789 812.361 991.863 812.164 991.937 811.942L992.38 810.513C992.38 810.037 992.444 809.624 992.503 809.242C992.554 808.911 992.602 808.603 992.602 808.294V700.465C992.602 699.799 992.602 699.133 992.38 698.468C992.158 697.58 991.937 696.914 991.715 696.471L980.843 685.821C980.399 685.599 979.733 685.377 978.846 685.155C977.958 684.933 977.293 684.934 976.627 684.934H616.753ZM690.414 714.009C690.858 713.787 691.523 714.009 691.967 714.453C692.411 714.897 692.633 715.34 692.633 716.006V731.314C692.633 731.98 692.411 732.424 691.967 732.868C691.523 733.312 691.08 733.533 690.414 733.533H651.587C651.143 733.533 650.921 733.756 650.921 733.978V746.624C650.921 747.068 651.143 747.289 651.587 747.289H681.096C681.761 747.289 682.205 747.511 682.648 747.955C683.092 748.399 683.314 748.842 683.314 749.508V763.93C683.314 764.595 683.092 765.04 682.648 765.483C682.205 765.927 681.761 766.148 681.096 766.148H651.587C651.143 766.148 650.921 766.371 650.921 766.814V792.995C650.921 794.548 650.255 795.214 648.702 795.214H632.728C631.175 795.214 630.509 794.548 630.509 792.995V716.228C630.509 714.675 631.175 714.009 632.728 714.009H690.414ZM756.31 714C756.975 714 757.641 714 758.528 714.222C759.416 714.443 760.081 714.666 760.524 714.888L771.396 725.315L771.84 726.548C771.914 726.77 771.988 727.017 772.062 727.312C772.283 728.2 772.284 728.866 772.284 729.531V792.986C772.284 793.652 772.062 794.095 771.618 794.539C771.174 794.983 770.731 795.205 770.065 795.205H753.868C753.203 795.205 752.759 794.983 752.315 794.539C751.872 794.095 751.872 793.652 751.872 792.986V772.13C751.872 771.464 751.65 771.021 751.206 770.577C750.762 770.133 750.319 769.911 749.653 769.911H726.578C725.913 769.911 725.469 770.133 725.025 770.577C724.582 771.021 724.359 771.464 724.359 772.13V792.986C724.359 793.652 724.138 794.095 723.694 794.539C723.251 794.983 722.806 795.205 722.141 795.205H705.944C705.279 795.205 704.835 794.983 704.392 794.539C703.948 794.095 703.726 793.652 703.726 792.986V729.31C703.726 729.143 703.74 728.976 703.761 728.81L703.913 727.812C703.934 727.645 703.947 727.479 703.947 727.312C704.169 726.647 704.391 725.981 704.613 725.537L715.263 714.888C715.485 714.814 715.683 714.74 715.88 714.666C716.274 714.518 716.668 714.37 717.26 714.222C718.147 714 718.813 714 719.257 714H756.31ZM841.953 714C842.262 714 842.571 714.047 842.901 714.099C843.284 714.158 843.696 714.222 844.172 714.222C845.059 714.443 845.724 714.666 846.168 714.888L856.818 725.537L857.262 726.77C857.336 726.991 857.409 727.238 857.483 727.534C857.705 728.2 857.706 729.088 857.706 729.531V754.824C857.706 755.023 857.661 755.267 857.611 755.536C857.551 755.866 857.483 756.233 857.483 756.6C857.262 757.265 857.04 757.93 856.597 758.374L845.946 769.246L860.146 793.208C860.202 793.374 860.257 793.513 860.306 793.635C860.451 793.998 860.534 794.206 860.368 794.539C860.146 794.983 859.703 794.982 859.037 794.982H840.621C839.956 794.982 839.29 794.761 838.847 794.539C838.77 794.488 838.696 794.44 838.625 794.394C838.082 794.039 837.712 793.797 837.516 793.208L824.425 771.243C824.203 771.021 823.981 770.799 823.537 770.799H810.447C810.004 770.799 809.781 771.021 809.781 771.465V792.986C809.781 794.539 809.115 795.205 807.562 795.205H791.588C790.257 795.205 789.369 794.539 789.369 792.986V716.219C789.369 715.553 789.591 715.11 790.035 714.666C790.479 714.222 790.922 714 791.588 714H841.953ZM947.562 714C947.87 714 948.18 714.047 948.511 714.099C948.893 714.158 949.305 714.222 949.78 714.222C950.668 714.444 951.334 714.666 951.777 714.888L962.428 725.537C962.871 725.981 963.093 726.647 963.314 727.534C963.536 728.2 963.537 729.088 963.537 729.531V792.764C963.537 793.429 963.315 793.874 962.871 794.317C962.427 794.761 961.984 794.982 961.318 794.982H945.343C944.677 794.982 944.234 794.761 943.79 794.317C943.346 793.874 943.125 793.429 943.125 792.764V733.524H930.256V792.764C930.256 793.429 930.034 793.874 929.591 794.317C929.147 794.761 928.703 794.982 928.037 794.982H913.394C912.728 794.982 912.284 794.761 911.841 794.317C911.397 793.874 911.175 793.429 911.175 792.764V733.524H898.085V792.986C898.085 794.539 897.419 795.205 895.866 795.205H879.892C878.339 795.205 877.673 794.539 877.673 792.986V716.219C877.673 715.553 877.894 715.11 878.338 714.666C878.782 714.222 879.226 714 879.892 714H947.562ZM724.359 731.972V752.605H751.872V731.972H724.359ZM808.895 732.859V752.605H836.85V732.859H808.895ZM767.271 480.594C765.94 480.594 764.831 481.037 763.943 481.925C763.056 482.812 762.612 483.922 762.612 485.253V645.222C762.612 648.328 764.165 649.881 767.271 649.881H800.552C803.658 649.881 805.211 648.328 805.211 645.222V600.182C805.211 599.516 805.433 599.072 806.32 599.072H833.61C834.498 599.072 834.942 599.294 835.386 599.96L862.676 646.109C863.341 647.219 864.229 648.329 865.561 648.994C866.67 649.66 868.001 650.103 869.332 650.103H907.716C909.047 650.102 909.934 649.66 910.378 648.994C910.822 648.107 910.822 647.219 910.156 646.109L879.981 596.188L902.169 573.558C902.834 572.448 903.5 571.117 903.943 569.786C904.387 568.455 904.609 567.124 904.609 566.236V513.431C904.609 512.099 904.387 510.546 903.943 508.993C903.5 507.218 903.056 505.887 902.612 504.777L880.426 482.591C879.316 482.147 877.985 481.703 876.21 481.26C874.657 480.816 873.104 480.594 871.772 480.594H767.271ZM689.173 480.594C686.067 480.594 684.514 482.147 684.514 485.253V645.222C684.514 648.328 686.067 649.881 689.173 649.881H722.453C725.559 649.881 727.112 648.328 727.112 645.222V485.253C727.112 482.147 725.559 480.594 722.453 480.594H689.173ZM951.426 480.371C950.095 480.371 948.985 480.815 948.098 481.702C947.21 482.59 946.767 483.699 946.767 485.03V645.221C946.767 648.327 948.32 649.88 951.426 649.88H1056.15C1057.48 649.88 1058.81 649.658 1060.59 649.437C1062.36 648.993 1063.69 648.549 1064.8 647.884L1086.99 625.696C1087.43 624.587 1087.88 623.256 1088.32 621.703C1088.76 619.928 1088.99 618.597 1088.99 617.266V513.43C1088.99 512.098 1088.76 510.545 1088.32 508.992C1087.88 507.217 1087.43 505.887 1086.99 504.777L1064.8 482.368C1063.69 481.924 1062.36 481.481 1060.59 481.037C1058.81 480.593 1057.48 480.371 1056.15 480.371H951.426ZM509.459 480.371C508.128 480.371 507.018 480.815 506.131 481.702C505.243 482.59 504.8 483.699 504.8 485.03V644.999C504.8 648.105 506.353 649.658 509.459 649.658H614.182C615.513 649.658 616.844 649.437 618.619 649.215C620.394 648.771 621.726 648.328 622.835 647.662L645.021 625.475C645.465 624.365 645.909 623.034 646.353 621.48C646.796 619.706 647.019 618.375 647.019 617.044V588.644C647.019 587.313 646.796 585.982 646.131 584.429C645.465 582.876 644.8 581.544 643.912 580.656L633.928 568.454C633.262 567.789 632.597 566.679 632.597 565.126C632.597 563.795 632.819 562.464 633.706 561.576L644.134 548.264C644.799 547.154 645.687 546.045 646.131 544.492C646.796 542.939 647.019 541.608 647.019 540.276V513.43C647.019 512.099 646.796 510.767 646.353 508.992C645.909 507.218 645.465 505.887 645.021 504.777L622.835 482.368C621.726 481.924 620.394 481.481 618.619 481.037C616.844 480.593 615.513 480.371 614.182 480.371H509.459ZM421.817 513.22C420.93 506.342 414.939 501.683 408.283 502.349C401.405 503.236 396.746 509.227 397.411 515.883V516.326C398.299 523.648 399.852 530.97 403.18 538.069C406.508 544.947 411.168 551.382 417.158 556.041C418.455 557.088 419.807 558.046 421.2 558.921L353.26 552.492H351.041C344.385 553.158 339.503 559.149 340.169 565.805C340.835 572.461 346.825 577.341 353.481 576.676L423.619 570.039C421.2 571.445 418.879 573.059 416.714 574.891C410.723 579.772 406.064 586.428 402.958 593.528C399.852 600.628 398.299 608.172 397.411 615.493V615.937C397.189 617.046 397.189 617.934 397.411 619.043C398.299 625.699 404.511 630.136 411.167 629.249C417.823 628.14 422.26 621.927 421.373 615.271C419.82 604.178 420.708 593.306 426.92 584.432C430.026 579.994 434.464 576.001 439.566 573.116C444.637 570.03 450.584 568.038 456.536 566.925L456.651 566.914C456.93 566.858 457.195 566.76 457.432 566.627C457.459 566.613 457.487 566.599 457.515 566.584C457.731 566.479 457.943 566.365 458.146 566.255C458.49 566.07 458.811 565.897 459.092 565.804C459.216 565.057 459.061 564.38 458.666 563.891C458.517 563.621 458.304 563.377 458.039 563.179C457.68 562.717 457.113 562.369 456.43 562.255L451.459 561.784C447.54 560.645 443.683 559.101 440.232 557.15C435.129 554.266 430.692 550.494 427.586 546.278C421.152 537.625 420.264 527.198 421.817 516.548C421.817 516.363 421.823 516.178 421.832 515.993L421.9 514.884C421.928 514.329 421.928 513.774 421.817 513.22ZM1197.48 511.89C1196.37 505.234 1190.16 500.796 1183.5 501.684C1176.84 502.793 1172.41 509.005 1173.29 515.661C1174.85 526.755 1173.96 537.626 1167.75 546.501C1164.64 550.938 1160.2 554.932 1155.1 557.816C1150.05 560.892 1144.13 563.097 1138.19 564.002L1138.02 564.019C1137.13 564.019 1136.24 564.907 1135.8 565.572C1135.62 566.617 1136 567.525 1136.81 567.975C1137.17 568.333 1137.66 568.597 1138.24 568.693L1141.11 568.965C1145.81 570.137 1150.53 571.89 1154.66 574.225C1159.76 577.109 1164.2 580.881 1167.3 585.097C1173.74 593.75 1174.63 604.177 1173.07 614.827C1173.07 615.197 1173.05 615.567 1173.02 615.937C1172.98 616.676 1172.93 617.416 1173.07 618.155C1173.74 624.811 1179.95 629.47 1186.61 628.805C1193.26 628.139 1197.92 621.927 1197.26 615.271V614.827C1196.59 607.505 1194.82 599.962 1191.49 593.084C1188.16 586.206 1183.28 579.772 1177.51 575.112C1176.03 573.963 1174.52 572.922 1172.97 571.979L1241.41 578.456H1243.63C1250.28 577.79 1255.16 571.8 1254.5 565.144C1253.83 558.487 1247.84 553.606 1241.19 554.271L1171.28 560.887C1173.7 559.482 1176.01 557.87 1178.17 556.041C1183.94 551.16 1188.6 544.504 1191.71 537.404C1195.04 530.305 1196.59 522.761 1197.48 515.439V514.995C1197.7 513.886 1197.7 512.999 1197.48 511.89ZM608.413 579.991V612.828H543.405V579.991H608.413ZM1046.16 521.639V608.834H989.365V521.639H1046.16ZM861.788 520.087V561.133H803.437V520.087H861.788ZM608.413 517.424V547.598H543.405V517.424H608.413ZM679.188 275.805C677.857 275.805 676.304 276.027 674.751 276.471C672.976 276.914 671.644 277.358 670.535 277.802L648.349 299.988C647.905 301.098 647.239 302.429 647.018 303.982C646.796 305.757 646.573 307.089 646.573 308.42V412.478C646.573 413.809 646.574 415.361 647.018 416.914C647.239 418.689 647.683 420.021 648.349 421.13L670.535 443.317C671.866 443.761 673.198 444.427 674.751 444.648C676.526 444.87 677.857 445.092 679.188 445.092H755.956C757.287 445.092 758.619 445.092 760.394 444.648C761.946 444.427 763.499 443.983 764.608 443.317L786.796 421.13C787.24 419.799 787.683 418.467 788.127 416.914C788.571 415.139 788.793 413.809 788.793 412.478V308.42C788.793 307.089 788.571 305.535 788.127 303.982C787.683 302.429 787.24 301.098 786.796 299.988L764.608 277.802C763.499 277.358 762.168 276.914 760.394 276.471C758.841 276.027 757.287 275.805 755.956 275.805H679.188ZM858.684 275.805C857.352 275.805 855.799 276.027 854.246 276.471C852.471 276.914 851.14 277.358 850.03 277.802L827.844 299.988C827.4 301.098 826.734 302.429 826.512 303.982C826.29 305.757 826.068 307.089 826.068 308.42V412.478C826.068 413.809 826.068 415.361 826.512 416.914C826.734 418.689 827.178 420.021 827.844 421.13L850.03 443.317C851.361 443.761 852.693 444.427 854.246 444.648C855.799 444.87 857.352 445.092 858.684 445.092H935.451C936.782 445.092 938.113 445.092 939.888 444.648C941.441 444.427 942.994 443.983 944.104 443.317L966.291 421.13C966.735 419.799 967.178 418.467 967.622 416.914C968.066 415.14 968.287 413.808 968.287 412.478V308.42C968.287 307.089 968.066 305.535 967.622 303.982C967.178 302.429 966.735 301.098 966.291 299.988L944.104 277.802C942.994 277.358 941.441 276.914 939.888 276.471C938.335 276.027 936.782 275.805 935.451 275.805H858.684ZM1010.89 275.805C1009.55 275.805 1008.45 276.248 1007.56 277.136C1006.67 278.023 1006.23 279.133 1006.23 280.464V440.433C1006.23 443.317 1007.78 444.87 1010.89 444.87H1115.61C1116.94 444.87 1118.27 444.87 1120.05 444.427C1121.6 444.205 1123.15 443.76 1124.26 443.095L1146.45 420.908C1146.89 419.577 1147.34 418.245 1147.78 416.692C1148.22 414.918 1148.45 413.586 1148.45 412.255V308.42C1148.45 307.089 1148.22 305.535 1147.78 303.982C1147.34 302.429 1146.89 301.098 1146.45 299.988L1124.48 277.802C1123.38 277.358 1122.04 276.914 1120.27 276.471C1118.49 276.027 1117.16 275.805 1115.83 275.805H1010.89ZM290.249 275.582C288.918 275.582 287.808 276.026 286.921 276.913C286.034 277.801 285.59 278.91 285.59 280.241V440.432C285.59 443.316 287.143 444.869 290.249 444.869H394.973C396.304 444.869 397.635 444.869 399.41 444.426C401.185 444.204 402.516 443.76 403.625 443.095L425.812 420.907C426.256 419.576 426.7 418.244 427.144 416.691C427.587 414.917 427.81 413.586 427.81 412.255V383.633C427.81 382.302 427.587 380.971 426.922 379.418C426.256 377.865 425.591 376.755 424.703 375.646L414.719 363.665C413.831 362.999 413.388 361.668 413.388 360.337C413.388 359.006 413.61 357.675 414.497 356.787L424.925 343.475C425.59 342.365 426.256 341.256 426.922 339.703C427.587 338.15 427.81 336.818 427.81 335.487V308.641C427.81 307.309 427.587 305.978 427.144 304.203C426.7 302.429 426.256 301.097 425.812 299.988L403.625 277.579C402.516 277.135 401.185 276.692 399.41 276.248C397.635 275.804 396.304 275.582 394.973 275.582H290.249ZM467.747 275.582C466.416 275.582 465.306 276.026 464.419 276.913C463.531 277.801 463.088 278.91 463.088 280.241V440.432C463.088 443.316 464.641 444.869 467.747 444.869H501.027C504.134 444.869 505.687 443.538 505.687 440.432V395.393C505.687 394.727 505.908 394.283 506.796 394.283H534.086C534.973 394.283 535.639 394.505 535.861 395.17L562.93 441.098C563.595 441.985 564.482 443.094 565.813 443.76C566.923 444.425 568.254 444.869 569.585 444.869H607.969C609.3 444.869 610.188 444.425 610.632 443.76C611.075 443.094 611.075 442.207 610.409 441.098L580.679 390.733L602.866 368.103C603.532 366.993 604.197 365.661 604.641 364.33C605.084 362.999 605.307 361.89 605.307 360.78V308.197C605.307 306.866 605.084 305.313 604.641 303.76C604.197 302.207 603.753 300.875 603.31 299.766L581.123 277.579C580.014 277.135 578.682 276.692 576.907 276.248C575.354 275.804 573.801 275.582 572.47 275.582H467.747ZM1183.06 275.582C1181.73 275.582 1180.62 276.026 1179.73 276.913C1178.84 277.801 1178.4 278.91 1178.4 280.241V361.89C1178.4 363.221 1178.4 364.552 1178.84 366.327C1179.06 367.88 1179.51 369.434 1180.17 370.543L1202.36 392.729C1203.47 393.173 1204.8 393.617 1206.35 394.061C1208.13 394.504 1209.46 394.727 1210.79 394.727H1224.77V440.21C1224.77 441.319 1224.99 442.429 1225.88 443.316C1226.77 444.204 1227.65 444.647 1228.98 444.647H1262.49C1263.82 444.647 1264.93 444.204 1265.82 443.316C1266.7 442.429 1267.15 441.541 1267.15 440.21V394.727H1280.9C1282.23 394.727 1283.56 394.504 1285.34 394.061C1287.11 393.617 1288.45 393.173 1289.56 392.729L1311.74 370.543C1312.19 369.434 1312.63 368.102 1313.07 366.327C1313.52 364.552 1313.74 363.221 1313.74 361.89V280.463C1313.74 279.132 1313.3 278.022 1312.41 277.135C1311.52 276.247 1310.63 275.804 1309.97 275.804H1278.02C1276.69 275.804 1275.58 276.248 1274.69 277.135C1273.8 278.022 1273.36 279.132 1273.36 280.463V352.127C1273.36 355.233 1271.81 356.787 1268.7 356.787H1223.88C1222.55 356.787 1221.44 356.343 1220.55 355.455C1219.67 354.568 1219.22 353.458 1219.22 352.127V280.241C1219.22 278.91 1219 277.801 1218.11 276.913C1217.45 276.026 1216.34 275.582 1215.01 275.582H1183.06ZM388.981 375.202V408.039H323.974V375.202H388.981ZM745.972 316.851V404.046H689.173V316.851H745.972ZM925.467 316.851V404.046H868.668V316.851H925.467ZM1105.62 316.851V404.046H1048.83V316.851H1105.62ZM562.042 315.075V356.121H503.689V315.075H562.042ZM388.981 312.412V342.809H323.974V312.412H388.981Z" fill="#E8E8E8"/>
</svg>
