<svg width="1600" height="1100" viewBox="0 0 1600 1100" fill="none" xmlns="http://www.w3.org/2000/svg">
<path d="M1183.72 650.257C1178.62 676.59 1164.14 693.185 1140.69 699.574C1122.13 704.626 1106.92 704.868 1095.09 703.153C1092.13 702.724 1091.68 698.634 1094.47 697.575C1115.34 689.686 1144.14 672.565 1177.6 635.903C1180.41 632.824 1185.58 634.979 1185.24 639.133C1184.94 642.717 1184.45 646.458 1183.72 650.257ZM1080.81 687.096C1075.22 688.681 1070.32 683.012 1072.68 677.702C1081.74 657.292 1104.67 627.364 1162.06 618.556C1166.8 617.825 1169.81 623.462 1166.56 626.993C1129.67 667.148 1099.38 681.819 1080.81 687.096ZM1058.82 741.551L1037.88 784.565C1037.06 786.44 1034.93 787.37 1033.01 786.65C1027.65 784.651 1017.33 782.743 1014.66 777.901C1012.51 773.999 1029.58 748.956 1039.4 727.235C1046.04 712.553 1037.42 697.86 1030.6 683.291C1028.44 677.197 1023.2 665.052 1012.46 652.439C1008.73 646.968 1004.87 641.551 1001.03 636.172C988.376 618.432 975.29 600.08 968.889 581.835C964.225 568.529 952.128 554.809 939.875 543.507C938.526 542.261 939.66 540.041 941.46 540.396C964.961 544.98 988.865 547.183 1012.81 546.974L1016.6 546.941C1021.1 546.898 1023.22 552.584 1019.72 555.416C1008.21 564.702 999.102 576.364 1000.54 589.514C1002.83 610.548 1015.98 633.716 1029.9 658.248C1046.96 688.31 1067.49 715.89 1058.82 741.551ZM1001.61 681.91C985.323 679.406 960.183 671.302 927.896 648.231C923.973 645.42 919.959 642.438 915.826 639.17C913.139 637.048 910.409 634.833 907.631 632.501C904.723 630.061 906.438 625.241 910.237 625.252C912.811 625.257 915.106 625.488 917.562 625.59C922.49 625.789 927.219 626.144 931.685 626.703C965.332 630.91 986.403 644.421 999.167 658.055C1002.34 662.644 1005.39 667.212 1008.22 671.775C1011.22 676.606 1007.23 682.775 1001.61 681.91ZM984.232 701.606C973.758 703.788 960.823 704.642 945.249 702.616C930.379 700.687 918.39 694.415 909.34 683.963C905.949 680.04 903.009 675.472 900.451 670.372C898.769 667.013 897.211 663.488 895.894 659.624C894.556 655.69 893.513 651.778 892.707 648.032C891.879 644.217 896.394 641.567 899.387 644.071C903.09 647.167 906.68 649.994 910.243 652.745C914.155 655.765 917.97 658.565 921.716 661.198C946.738 678.804 967.938 688.128 984.571 692.771C989.144 694.045 988.881 700.633 984.232 701.606ZM893.201 723.075L909.007 779.54C909.35 780.744 908.722 781.518 908.313 781.872C908.028 782.119 907.534 782.453 906.857 782.458C906.572 782.458 906.255 782.399 905.911 782.259L859.947 762.617C856.97 761.343 853.907 760.317 850.795 759.527C846.039 758.323 844.018 752.654 846.673 748.526L849.699 743.819C861.097 726.106 861.479 703.465 850.688 685.376L841.777 670.436C837.709 663.617 837.301 655.26 840.703 648.086C849.629 629.266 857.717 603.143 846.136 584.855C845.405 583.313 844.615 581.797 843.696 580.319L842.293 578.068C840.305 574.865 843.046 570.866 846.765 571.49C849.736 571.99 852.703 572.527 855.659 573.102L882.797 578.401C891.181 580.035 898.748 584.479 904.261 590.998L905.438 592.389C907.023 594.265 908.448 596.232 909.711 598.274C913.155 603.831 909.162 611.043 902.628 611.247C896.098 611.446 889.252 611.94 882.061 612.768C878.681 613.155 876.005 615.955 875.833 619.351C875.08 634.484 877.789 656.829 887.709 676.38C891.02 682.91 892.073 690.218 891.218 697.489C890.219 705.986 890.848 714.675 893.201 723.075ZM837.811 736.182L827.262 752.578C824.967 756.147 821.442 758.737 817.352 759.86C816.912 759.978 816.466 760.107 816.025 760.247L796.136 766.309C780.922 770.947 764.504 769.598 750.247 762.542L743.546 759.226C738.075 756.518 738.397 748.607 744.072 746.35L782.056 731.254C796.001 725.714 803.993 710.994 801.042 696.285L798.253 682.367C796.281 672.522 800.322 662.445 808.544 656.684L816.154 651.359C819.728 648.854 824.661 651.563 824.376 655.921C823.893 663.418 825.655 670.995 829.643 677.681L838.548 692.604C846.593 706.093 846.308 722.973 837.811 736.182ZM650.817 768.201C649.145 768.872 647.823 768.109 647.334 767.755C646.851 767.395 645.733 766.374 645.862 764.573L649.237 717.916L650.274 703.562L651.607 685.124L652.891 667.389L655.299 634.07C655.417 632.431 655.659 630.83 655.884 629.223C656.717 623.371 658.249 617.755 660.409 612.451C671.093 586.193 696.845 567.578 726.419 567.32L787.129 566.782C791.842 566.739 796.56 566.798 801.279 566.949C812.371 567.309 822.571 573.113 828.428 582.533L831.696 587.779C840.31 601.633 836.592 619.802 823.226 629.159L800.435 645.114C787.618 654.089 781.325 669.797 784.394 685.14L787.188 699.064C788.795 707.087 784.442 715.1 776.838 718.12L650.817 768.201ZM627.074 703.153C624.119 702.724 623.662 698.634 626.462 697.575C629.718 696.345 633.233 694.786 636.866 693.066L636.076 703.981C632.894 703.836 629.88 703.562 627.074 703.153ZM612.758 687.107C607.142 688.697 602.343 682.92 604.718 677.589C609.501 666.868 618.148 653.562 633.561 642.062C636.436 639.912 640.552 642.105 640.294 645.684L638.607 669.012C638.258 673.822 635.286 678.078 630.927 680.147C624.033 683.431 617.938 685.64 612.758 687.107ZM596.41 663.676C593.008 669.673 584.372 669.48 581.03 663.456C578.778 659.387 576.472 655.325 574.172 651.273C561.576 629.073 548.549 606.115 546.571 587.983C545.158 575.026 566.853 560.092 585.888 550.87C591.928 547.941 598.597 546.484 605.31 546.441C640.869 546.21 671.475 524.349 684.313 493.04C687.693 484.801 693.234 477.718 700.655 472.801C717.686 461.51 728.547 448.027 735.404 435.946C738.806 429.954 747.442 430.142 750.784 436.172C753.042 440.235 755.347 444.303 757.642 448.349C770.238 470.549 783.27 493.513 785.243 511.645C786.656 524.601 764.961 539.536 745.926 548.758C739.886 551.687 733.217 553.143 726.505 553.186C686.151 553.444 652.171 581.572 643.304 619.743C619.094 632.12 604.777 648.946 596.41 663.676ZM590.805 741.551L569.868 784.565C569.046 786.44 566.917 787.37 564.999 786.65C559.641 784.651 549.312 782.743 546.647 777.901C544.497 773.999 561.565 748.956 571.389 727.235C578.031 712.553 569.406 697.86 562.591 683.291C560.436 677.197 555.186 665.052 544.443 652.439C540.719 646.968 536.855 641.551 533.018 636.172C520.368 618.432 507.282 600.08 500.876 581.835C496.211 568.529 484.114 554.809 471.862 543.507C470.513 542.261 471.647 540.041 473.452 540.396C496.953 544.98 520.851 547.183 544.798 546.974L548.587 546.941C553.09 546.898 555.207 552.584 551.704 555.416C540.198 564.702 531.089 576.364 532.524 589.514C534.818 610.548 547.963 633.716 561.887 658.248C578.945 688.31 599.479 715.89 590.805 741.551ZM533.604 681.91C514.037 678.901 481.771 667.9 439.623 632.501C436.715 630.061 438.424 625.241 442.224 625.252C488.876 625.338 515.848 641.707 531.159 658.055C534.329 662.644 537.376 667.212 540.209 671.775C543.213 676.606 539.225 682.775 533.604 681.91ZM516.224 701.606C505.745 703.788 492.815 704.642 477.236 702.616C453.122 699.488 436.522 685.022 427.881 659.624C426.542 655.69 425.505 651.778 424.694 648.032C423.866 644.217 428.38 641.567 431.374 644.071C466.321 673.29 495.18 686.8 516.563 692.771C521.131 694.045 520.867 700.633 516.224 701.606ZM449.017 521.227C440.633 519.587 433.067 515.149 427.558 508.63L426.376 507.233C412.452 490.767 410.173 467.406 420.642 448.554L432.707 426.832C441.219 411.505 443.342 393.432 438.618 376.547L422.808 320.088C422.469 318.884 423.098 318.104 423.501 317.75C423.786 317.503 424.285 317.175 424.957 317.164C425.242 317.164 425.559 317.223 425.903 317.368L471.867 337.005C474.758 338.241 477.719 339.241 480.734 340.025C485.603 341.283 487.865 346.866 485.141 351.096L482.115 355.809C470.717 373.521 470.335 396.162 481.126 414.246L490.037 429.186C494.116 436.016 494.529 444.34 491.149 451.456C482.212 470.281 474.081 496.458 485.678 514.772C486.409 516.309 487.205 517.825 488.123 519.308L489.521 521.56C491.514 524.757 488.768 528.761 485.055 528.138C482.078 527.638 479.111 527.1 476.155 526.52L449.017 521.227ZM494.008 363.445L504.552 347.044C506.847 343.481 510.372 340.885 514.462 339.767C514.908 339.644 515.348 339.515 515.794 339.38L535.678 333.318C550.892 328.681 567.31 330.024 581.567 337.086L588.268 340.396C593.745 343.11 593.422 351.02 587.747 353.272L549.758 368.373C535.813 373.914 527.827 388.628 530.772 403.342L533.561 417.255C535.533 427.1 531.497 437.182 523.27 442.938L515.66 448.263C512.086 450.768 507.158 448.059 507.438 443.701C507.921 436.209 506.159 428.627 502.177 421.947L493.272 407.018C485.221 393.534 485.506 376.649 494.008 363.445ZM680.997 331.427C682.669 330.755 683.991 331.513 684.48 331.867C684.969 332.227 686.081 333.248 685.958 335.054L682.583 381.711L681.54 396.065L680.207 414.498L678.928 432.233L676.515 465.552C676.397 467.191 676.161 468.792 675.93 470.404C675.097 476.251 673.57 481.867 671.405 487.177C660.721 513.429 634.969 532.044 605.395 532.308L544.685 532.845C539.972 532.883 535.254 532.829 530.535 532.673C519.449 532.313 509.243 526.515 503.386 517.094L500.124 511.844C491.509 497.995 495.223 479.825 508.588 470.469L531.379 454.508C544.201 445.533 550.494 429.825 547.42 414.482L544.631 400.558C543.019 392.54 547.372 384.522 554.976 381.502L680.997 331.427ZM704.74 396.469C707.695 396.898 708.152 400.993 705.358 402.052C702.096 403.283 698.581 404.836 694.948 406.556L695.738 395.641C698.92 395.791 701.94 396.065 704.74 396.469ZM719.056 412.521C724.672 410.925 729.476 416.707 727.096 422.038C722.141 433.146 713.027 447.038 696.539 458.818C694.293 460.425 691.186 458.571 691.391 455.814L693.578 425.564C693.685 424.043 694.615 422.64 695.969 421.931C704.906 417.255 712.677 414.326 719.056 412.521ZM741.009 358.071L761.946 315.063C762.768 313.182 764.897 312.258 766.82 312.972C772.173 314.971 782.502 316.885 785.167 321.721C787.317 325.623 770.249 350.671 760.425 372.388C753.789 387.075 762.408 401.762 769.228 416.331C771.378 422.425 776.628 434.57 787.371 447.183C791.095 452.654 794.959 458.071 798.796 463.45C811.452 481.195 824.532 499.542 830.938 517.787C835.603 531.093 847.7 544.813 859.952 556.12C861.301 557.362 860.167 559.581 858.362 559.232C834.866 554.642 810.963 552.439 787.021 552.649L783.227 552.686C778.724 552.724 776.607 547.038 780.111 544.206C791.622 534.925 800.725 523.258 799.296 510.113C796.996 489.079 783.851 465.906 769.932 441.374C752.87 411.312 732.335 383.732 741.009 358.071ZM798.21 417.712C814.51 420.216 839.639 428.326 871.926 451.396C875.854 454.202 879.869 457.184 884.001 460.457C886.688 462.58 889.418 464.789 892.191 467.121C895.104 469.566 893.39 474.381 889.59 474.37C887.016 474.37 884.721 474.139 882.265 474.037C877.337 473.833 872.608 473.478 868.142 472.919C834.496 468.717 813.424 455.207 800.655 441.573C797.485 436.978 794.438 432.41 791.606 427.847C788.607 423.022 792.589 416.847 798.21 417.712ZM815.595 398.022C826.069 395.834 838.999 394.98 854.578 397.006C869.443 398.935 881.438 405.207 890.488 415.665C893.879 419.582 896.818 424.15 899.376 429.25C901.058 432.609 902.617 436.134 903.933 439.998C905.272 443.932 906.314 447.844 907.12 451.595C907.948 455.411 903.439 458.055 900.44 455.551C896.738 452.455 893.148 449.634 889.585 446.882C885.672 443.857 881.857 441.062 878.111 438.424C853.09 420.818 831.884 411.5 815.251 406.857C810.683 405.583 810.947 398.989 815.595 398.022ZM916.229 583.27L915.052 581.878C910.904 576.966 905.852 572.935 900.252 569.888C887.188 561.306 851.746 534.436 844.271 513.112C841.396 504.916 837.424 496.888 832.835 488.993C830.309 484.646 834.297 479.427 839.074 480.986C845.19 482.98 851.838 484.619 859.017 485.855C865.332 486.946 870.281 491.6 872.56 497.592C875.118 504.298 878.778 510.656 883.598 516.358L884.775 517.75C888.924 522.656 893.981 526.692 899.575 529.734C912.634 538.316 948.081 565.186 955.556 586.516C958.431 594.706 962.403 602.734 966.992 610.629C969.518 614.976 965.531 620.2 960.753 618.642C954.648 616.648 948.006 615.009 940.837 613.773C934.506 612.682 929.546 608.017 927.257 602.009C924.699 595.308 921.044 588.961 916.229 583.27ZM906.626 376.547L890.821 320.088C890.482 318.884 891.106 318.104 891.514 317.75C891.799 317.503 892.299 317.175 892.97 317.164C893.255 317.164 893.572 317.223 893.916 317.368L939.875 337.005C942.858 338.279 945.915 339.305 949.032 340.095C953.783 341.304 955.809 346.968 953.154 351.096L950.123 355.814C938.73 373.527 938.349 396.162 949.14 414.246L958.05 429.186C962.118 436.005 962.526 444.362 959.125 451.536C950.204 470.356 942.111 496.485 953.692 514.772C954.417 516.309 955.212 517.825 956.131 519.308L957.534 521.56C959.522 524.757 956.782 528.761 953.068 528.138C950.091 527.638 947.124 527.1 944.169 526.52L917.03 521.227C908.652 519.587 901.08 515.143 895.566 508.63L894.389 507.233C889.639 501.617 886.355 495.168 884.356 488.397C894.599 488.698 905.691 488.246 917.755 486.86C921.163 486.467 923.828 483.657 923.995 480.228C924.747 465.025 922.001 442.567 911.978 422.973C908.738 416.632 907.711 409.506 908.571 402.439C909.625 393.846 909.007 385.049 906.626 376.547ZM962.016 363.445L972.565 347.044C974.86 343.481 978.385 340.885 982.475 339.767C982.921 339.644 983.362 339.515 983.808 339.38L1003.69 333.318C1018.91 328.681 1035.32 330.024 1049.58 337.086L1056.28 340.396C1061.75 343.11 1061.43 351.02 1055.76 353.272L1017.77 368.373C1003.83 373.914 995.835 388.628 998.785 403.342L1001.57 417.255C1003.55 427.1 999.505 437.182 991.283 442.938L983.673 448.263C980.094 450.768 975.166 448.059 975.451 443.701C975.935 436.209 974.172 428.627 970.184 421.947L961.28 407.018C953.235 393.534 953.52 376.649 962.016 363.445ZM1149.01 331.427C1150.68 330.755 1152 331.513 1152.49 331.867C1152.98 332.227 1154.09 333.248 1153.97 335.054L1144.53 465.552C1141.85 502.659 1110.61 531.98 1073.41 532.308L1012.7 532.845C1007.99 532.883 1003.27 532.829 998.549 532.673C987.462 532.313 977.257 526.515 971.399 517.094L968.137 511.844C959.517 497.995 963.236 479.825 976.596 470.469L999.392 454.508C1012.21 445.533 1018.51 429.825 1015.43 414.482L1012.64 400.558C1011.03 392.54 1015.39 384.522 1022.99 381.502L1149.01 331.427ZM1198.09 607.566C1197.47 604.266 1194.52 601.875 1191.16 601.95C1113.88 603.616 1079.55 637.058 1064.44 663.649C1061.03 669.657 1052.4 669.512 1049.05 663.472C1046.79 659.398 1044.49 655.33 1042.19 651.273C1029.59 629.073 1016.56 606.115 1014.58 587.983C1013.17 575.026 1034.87 560.086 1053.9 550.864C1059.75 548.032 1066.19 546.436 1072.69 546.441C1117.91 546.474 1155.37 511.569 1158.62 466.573L1168.06 336.075C1168.58 328.896 1164.79 322.124 1158.11 318.814C1153.49 316.525 1148.03 316.611 1143.22 318.518L1100.57 335.463C1092.66 338.606 1083.79 338.246 1076.17 334.474L1055.85 324.424C1038.36 315.767 1018.22 314.117 999.548 319.808L979.686 325.865C968.406 329.304 956.271 328.648 945.426 324.016L900.161 304.669C894.26 302.149 887.274 302.805 882.389 306.959C877.456 311.161 875.473 317.675 877.214 323.898L893.019 380.363C894.83 386.838 895.346 393.534 894.642 400.091C884.985 391.46 872.544 385.092 856.4 382.99C849.226 382.061 842.535 381.685 836.291 381.738C815.063 381.921 799.215 387.128 788.3 392.669C782.308 395.711 775.075 391.992 774.161 385.334C773.549 380.857 771.942 375.972 773.785 371.764C779.186 359.447 799.032 325.746 794.647 317.54C788.967 306.91 773.189 303.552 765.305 302.106C762.032 301.504 758.77 302.805 756.76 305.459C744.153 322.103 729.498 354.041 729.498 354.041C726.902 361.387 726.386 369.185 727.359 377.294C727.966 382.351 723.162 386.22 718.25 384.888C714.789 383.952 710.984 383.146 706.852 382.55C701.231 381.744 697.098 376.843 697.506 371.173L700.048 336.075C700.57 328.896 696.781 322.124 690.101 318.814C685.474 316.525 680.014 316.611 675.215 318.518L632.567 335.463C624.656 338.606 615.783 338.246 608.152 334.474L587.839 324.424C570.346 315.767 550.21 314.117 531.54 319.808L511.672 325.865C500.392 329.304 488.258 328.648 477.413 324.016L432.153 304.669C426.252 302.149 419.261 302.805 414.376 306.959C409.442 311.161 407.459 317.675 409.2 323.898L425.011 380.363C428.735 393.663 427.058 407.899 420.352 419.975L408.314 441.643C394.986 465.638 397.877 495.377 415.585 516.358L416.762 517.75C420.91 522.656 425.967 526.692 431.567 529.734C444.626 538.316 480.068 565.186 487.548 586.516C490.418 594.706 494.39 602.729 498.979 610.624C501.521 614.993 497.49 620.184 492.681 618.62C472.431 612.026 446.663 609.001 413.913 612.784C410.576 613.165 407.997 615.938 407.825 619.292C406.293 649.634 418.455 709.237 475.414 716.632C482.594 717.561 489.284 717.943 495.523 717.884C516.751 717.701 532.604 712.494 543.519 706.953C549.506 703.911 556.739 707.63 557.653 714.289C558.265 718.765 559.872 723.65 558.029 727.863C552.633 740.181 532.787 773.876 537.167 782.082C542.847 792.712 558.631 796.076 566.509 797.516C569.782 798.118 573.044 796.817 575.054 794.163C587.667 777.519 602.316 745.587 602.316 745.587C604.912 738.241 605.433 730.443 604.455 722.328C603.848 717.276 608.652 713.407 613.569 714.735C616.896 715.637 620.54 716.417 624.489 717.002C630.379 717.878 634.7 722.994 634.27 728.933L631.771 763.547C631.25 770.727 635.033 777.498 641.713 780.808C646.34 783.098 651.806 783.017 656.599 781.109L699.253 764.159C707.163 761.016 716.036 761.376 723.667 765.154L743.981 775.203C761.473 783.861 781.604 785.51 800.268 779.819L820.142 773.757C831.422 770.323 843.556 770.974 854.401 775.611L899.666 794.953C905.567 797.473 912.553 796.823 917.438 792.663C922.372 788.466 924.36 781.947 922.619 775.724L906.809 719.265C904.992 712.789 904.482 706.093 905.186 699.531C914.843 708.162 927.284 714.536 943.427 716.632C950.601 717.561 957.298 717.943 963.537 717.884C984.764 717.701 1000.61 712.494 1011.53 706.953C1017.52 703.911 1024.75 707.63 1025.67 714.289C1026.28 718.765 1027.89 723.65 1026.04 727.863C1020.65 740.181 1000.79 773.876 1005.18 782.082C1010.86 792.712 1026.64 796.076 1034.52 797.516C1037.8 798.118 1041.06 796.817 1043.07 794.163C1055.67 777.519 1070.33 745.587 1070.33 745.587C1072.9 738.294 1073.44 730.556 1072.49 722.511C1071.89 717.422 1076.64 713.396 1081.58 714.74C1089.34 716.836 1098.77 718.319 1109.84 718.222C1120 718.136 1131.53 716.712 1144.4 713.208C1199.82 698.118 1203.75 637.413 1198.09 607.566Z" fill="#E8E8E8"/>
</svg>
