<svg width="1600" height="1100" viewBox="0 0 1600 1100" fill="none" xmlns="http://www.w3.org/2000/svg">
<g clip-path="url(#clip0_5315_2413)">
<path d="M1414.5 705.334C1414.5 705.334 1414.63 693.411 1400.1 699.994C1400.1 699.994 1395.63 702.229 1386.31 702.353C1382.96 702.477 1379.36 701.484 1375.51 700.863C1371.66 700.242 1367.56 699.497 1363.21 698.752C1358.87 698.007 1354.52 697.137 1350.3 696.392C1359.36 686.705 1367.31 677.142 1374.02 667.828C1380.72 658.513 1386.31 649.696 1390.78 641.375C1395.25 633.054 1398.61 625.23 1400.72 617.903C1402.83 610.575 1403.95 603.993 1403.95 598.156C1403.95 594.182 1403.08 591.325 1401.34 589.338C1399.6 587.351 1397.49 586.358 1395.01 586.358C1392.4 586.358 1389.79 586.73 1387.06 587.227C1384.32 587.848 1381.34 588.469 1378.24 589.214C1375.13 589.959 1371.78 590.58 1368.18 591.201C1364.58 591.822 1360.6 592.071 1356.26 592.071C1349.18 592.071 1343.22 591.946 1338.37 591.574C1333.41 591.201 1329.06 590.953 1325.08 590.456C1321.11 590.084 1317.38 589.711 1313.78 589.338C1310.18 588.966 1306.33 588.842 1302.23 588.842C1300.25 588.842 1298.14 589.711 1295.9 591.45C1293.66 593.188 1291.43 595.424 1289.32 598.156C1287.08 600.888 1285.09 603.993 1282.98 607.346C1281 610.699 1279.26 613.928 1277.77 617.157C1276.28 620.262 1275.04 623.243 1274.17 625.727C1273.67 627.217 1273.42 628.086 1273.05 629.452C1272.92 629.701 1272.8 629.949 1272.8 630.073C1271.43 633.551 1269.7 637.649 1267.34 642.493C1265.1 647.336 1262.49 652.428 1259.51 657.768C1256.66 663.109 1253.55 668.449 1250.2 673.789C1246.84 679.129 1243.61 683.973 1240.26 688.195C1236.91 692.418 1233.68 695.895 1230.45 698.503C1227.22 701.111 1224.24 702.477 1221.51 702.477C1219.15 702.477 1217.29 701.856 1216.04 700.739C1214.8 699.621 1213.81 698.006 1213.19 696.144C1212.57 694.157 1212.19 691.921 1212.07 689.189C1211.95 686.581 1211.95 683.724 1211.95 680.744C1211.95 675.528 1211.95 669.691 1212.07 662.984C1212.07 656.402 1212.19 649.82 1212.32 643.362C1212.44 636.904 1212.44 630.943 1212.57 625.478C1212.57 620.014 1212.69 615.915 1212.69 612.935C1212.69 609.83 1211.95 607.098 1210.33 604.614C1208.72 602.13 1206.73 600.019 1204.37 598.28C1202.01 596.542 1199.28 594.927 1196.17 593.685C1193.19 592.443 1190.21 591.45 1187.36 590.704C1184.5 589.959 1181.77 589.338 1179.16 588.966C1176.68 588.593 1174.69 588.469 1173.2 588.469C1169.6 588.469 1166.74 590.084 1164.75 593.188C1162.77 596.293 1161.28 600.143 1160.41 604.738C1159.41 609.209 1158.92 614.053 1158.79 619.144C1158.67 624.236 1158.54 628.707 1158.54 632.557V655.905C1158.54 664.475 1157.3 672.299 1154.94 679.129C1152.58 685.96 1149.6 691.921 1146.12 696.64C1142.65 701.484 1138.8 705.085 1134.82 707.694C1130.85 710.177 1127.12 711.543 1123.77 711.543C1121.66 711.543 1119.92 711.047 1118.43 709.929C1116.94 708.811 1115.7 707.321 1114.7 705.458C1113.71 703.595 1112.96 701.484 1112.47 699C1111.97 696.516 1111.72 694.032 1111.72 691.3C1111.72 684.097 1111.97 676.77 1112.72 669.442C1113.34 662.115 1113.96 654.788 1114.7 647.584C1115.45 640.257 1116.07 632.93 1116.69 625.354C1117.31 617.903 1117.56 610.203 1117.56 602.503C1117.56 597.783 1116.81 594.182 1115.2 591.574C1113.71 588.966 1110.85 587.6 1107 587.6C1100.42 587.6 1094.58 588.966 1089.49 591.822C1084.52 594.679 1080.18 598.404 1076.45 603.124C1072.73 607.843 1069.75 613.307 1067.26 619.517C1065.77 623.243 1064.41 627.093 1063.29 631.067C1061.92 634.296 1060.18 638.27 1058.07 642.989C1055.84 647.957 1053.23 653.049 1050.25 658.389C1047.39 663.729 1044.29 669.07 1040.93 674.41C1037.58 679.75 1034.23 684.47 1030.87 688.692C1027.52 692.915 1024.17 696.268 1021.06 699C1017.83 701.608 1014.85 702.974 1012.24 702.974C1009.89 702.974 1008.02 702.353 1006.78 701.236C1005.54 700.118 1004.54 698.503 1003.92 696.64C1003.3 694.653 1002.93 692.418 1002.81 689.686C1002.68 687.078 1002.68 684.221 1002.68 681.241C1002.68 670.808 1002.81 660.873 1002.93 651.683C1003.18 642.368 1003.18 634.917 1003.18 629.08C1003.18 624.982 1001.81 621.504 999.205 618.648C996.597 615.791 993.368 613.556 989.642 611.693C985.916 609.83 981.942 608.464 977.968 607.346C973.869 606.228 970.392 605.359 967.66 604.738C961.45 603.248 956.234 601.882 952.26 600.64C948.162 599.398 944.808 598.156 942.2 596.914C939.592 595.672 937.729 594.554 936.488 593.437C935.246 592.319 934.376 591.201 933.88 589.959C933.383 588.842 933.134 587.724 933.134 586.482C933.134 585.364 933.134 584.122 933.134 582.88C933.134 581.763 933.134 580.397 933.259 578.906C933.383 577.416 933.383 575.056 933.383 571.703C933.383 568.226 933.01 565.121 932.265 562.264C931.52 559.408 930.278 556.8 928.663 554.689C926.925 552.453 924.565 550.839 921.584 549.597C918.604 548.355 914.878 547.858 910.407 547.858C906.806 547.858 903.328 548.976 900.224 551.087C897.119 553.198 894.262 556.179 892.027 559.656C889.667 563.258 887.928 567.232 886.562 571.703C885.32 576.174 884.575 580.645 884.575 585.116C884.575 590.58 885.693 595.672 887.804 600.267C889.916 604.862 893.144 608.961 897.367 612.438C897.864 612.811 898.361 613.68 898.857 614.798C899.354 616.04 899.603 617.654 899.603 619.89C899.603 621.132 899.602 622.373 899.478 623.74C899.354 625.106 899.106 626.596 898.733 628.335C898.609 629.08 898.361 629.949 897.988 630.819C894.138 641.996 885.445 655.036 877.869 664.847C870.293 674.658 861.972 682.979 852.906 689.561C843.84 696.144 834.402 701.236 824.59 704.589C814.655 708.066 804.844 709.681 795.033 709.681C785.097 709.681 775.783 707.693 767.089 703.719C758.396 699.745 750.82 693.908 744.362 686.208C737.904 678.384 732.812 668.821 729.087 657.396C725.361 645.97 723.498 632.681 723.498 617.654C723.498 609.706 724.243 601.758 725.858 593.933C727.348 586.109 729.708 578.658 732.688 571.455C735.669 564.252 739.395 557.669 743.741 551.46C748.088 545.25 753.056 539.91 758.644 535.439C764.233 530.968 770.318 527.366 777.025 524.758C783.731 522.15 790.934 520.908 798.634 520.908C799.504 520.908 800.621 521.033 802.112 521.157C803.602 521.281 805.092 521.654 806.458 522.026C807.824 522.523 809.066 523.144 810.06 523.889C811.053 524.634 811.674 525.628 811.674 526.746C811.674 527.863 811.55 528.981 811.178 530.223C810.929 531.341 810.681 532.707 810.681 534.197C810.681 537.178 811.923 539.91 814.531 542.145C817.015 544.505 820.74 545.623 825.584 545.623C828.565 545.623 831.545 545.126 834.277 544.008C837.134 542.89 839.494 541.4 841.605 539.289C843.716 537.302 845.455 534.818 846.697 532.086C847.939 529.229 848.56 526.249 848.56 522.896C848.56 519.17 847.318 515.444 844.71 511.594C842.102 507.868 838.624 504.391 834.277 501.41C829.931 498.43 824.839 495.946 819.002 494.083C813.289 492.22 807.328 491.227 801.118 491.227C787.209 491.227 774.168 493.089 761.873 496.939C749.578 500.789 738.401 506.005 728.217 512.836C718.034 519.542 708.843 527.491 700.771 536.557C692.698 545.623 685.868 555.434 680.403 565.866C674.815 576.298 670.592 587.227 667.612 598.777C664.631 610.203 663.141 621.628 663.141 632.93C663.141 642.617 664.134 652.428 666.245 662.115C668.357 671.802 671.462 680.992 675.808 689.81C680.155 698.503 685.619 706.7 692.202 714.151C698.784 721.603 706.608 728.185 715.55 733.774C724.492 739.363 734.675 743.585 746.225 746.69C757.775 749.795 770.567 751.409 784.601 751.409C801.118 751.409 816.021 748.304 829.31 742.219C842.598 736.133 854.397 727.688 864.704 717.008C875.012 706.327 884.078 693.784 891.778 679.253C899.106 665.468 906.433 650.441 911.898 634.544C911.898 634.42 912.022 634.296 912.022 634.172C912.27 633.551 912.519 632.93 912.643 632.309C913.512 629.701 914.381 627.093 915.127 624.485C916.493 619.89 917.859 616.288 919.473 613.432C926.055 614.425 931.272 615.543 935.121 617.033C939.096 618.524 942.076 620.511 944.187 623.119C946.299 625.727 947.665 629.08 948.286 633.178C948.907 637.277 949.279 642.368 949.279 648.578V669.07C949.279 682.855 949.776 694.653 950.645 704.465C951.515 714.276 953.502 722.224 956.358 728.434C959.215 734.643 963.313 739.238 968.653 742.095C973.994 744.951 980.948 746.441 989.642 746.441C996.845 746.441 1003.8 744.454 1010.51 740.48C1017.21 736.506 1023.42 731.414 1029.38 724.956C1035.34 718.498 1040.68 711.295 1045.78 703.098C1050 696.268 1053.85 689.313 1057.45 682.358C1057.7 688.692 1058.44 695.15 1059.81 701.856C1061.42 709.929 1064.16 717.256 1068.01 723.838C1071.86 730.421 1076.95 735.885 1083.41 740.108C1089.86 744.33 1097.81 746.441 1107.5 746.441C1132.96 746.441 1150.59 733.277 1160.53 706.824C1161.4 713.779 1162.64 719.74 1164.38 724.708C1166.12 729.675 1168.48 733.898 1171.58 737.003C1174.56 740.232 1178.29 742.591 1182.88 744.082C1187.36 745.572 1192.82 746.317 1199.28 746.317C1206.48 746.317 1213.44 744.33 1220.14 740.356C1226.85 736.382 1233.06 731.29 1239.02 724.832C1244.98 718.374 1250.45 711.171 1255.41 702.974C1260.38 694.778 1264.98 686.457 1269.2 678.012C1273.3 669.566 1277.02 661.37 1280.13 653.422C1282.74 646.591 1286.21 636.159 1286.96 635.041C1287.58 634.296 1288.32 634.048 1289.19 633.551C1290.31 632.681 1291.8 631.936 1293.54 631.067C1294.41 630.694 1295.65 630.446 1297.51 630.446C1300.37 630.446 1303.97 630.819 1308.57 631.564C1313.16 632.309 1318.01 633.178 1323.35 634.172C1328.69 635.041 1334.03 635.91 1339.62 636.78C1345.2 637.525 1350.3 637.897 1355.02 637.897C1359.11 637.897 1362.72 637.525 1365.94 636.78C1369.17 636.035 1371.66 634.793 1373.4 632.93C1371.66 635.91 1369.55 639.015 1366.94 642.244C1364.45 645.473 1361.6 648.702 1358.62 651.807C1355.64 654.912 1352.53 658.017 1349.18 661.121C1345.95 664.226 1342.72 667.083 1339.62 669.939C1332.29 676.397 1324.46 682.731 1316.14 688.94C1313.66 688.32 1311.3 688.071 1308.94 688.071C1304.72 688.071 1300.74 688.94 1297.02 690.679C1293.29 692.418 1290.06 694.777 1287.33 697.882C1284.6 700.863 1282.49 704.34 1280.87 708.314C1279.38 712.289 1278.51 716.387 1278.51 720.734C1278.51 728.185 1279.88 734.022 1282.49 738.121C1285.1 742.219 1289.81 744.33 1296.52 744.33C1300 744.33 1302.85 743.958 1305.46 743.212C1307.95 742.467 1310.18 741.722 1311.92 740.729C1313.91 739.735 1315.65 738.493 1317.01 737.127C1322.97 738.866 1329.18 740.48 1335.52 741.846C1340.86 742.964 1346.82 744.082 1353.28 745.075C1359.73 746.069 1366.07 746.566 1372.28 746.566H1373.15C1380.35 746.566 1387.31 744.579 1394.01 740.604C1393.64 740.729 1416.61 725.826 1414.5 705.334Z" fill="#E8E8E8"/>
<path d="M986.164 557.669C968.032 557.669 953.75 543.014 953.75 525.006C953.75 507.123 968.156 492.344 986.164 492.344C996.348 492.344 1004.3 496.442 1010.51 503.645L1000.82 511.966C996.845 507.744 991.877 504.763 986.04 504.763C975.235 504.763 966.914 513.581 966.914 524.882C966.914 536.432 975.235 545.125 986.04 545.125C992.001 545.125 997.093 542.021 1001.07 537.55L1011.13 545.498C1005.04 552.95 996.969 557.669 986.164 557.669Z" fill="#E8E8E8"/>
<path d="M1023.79 525.006C1023.79 507.123 1038.45 492.344 1056.46 492.344C1074.34 492.344 1089.12 507.123 1089.12 525.006C1089.12 543.138 1074.34 557.669 1056.46 557.669C1038.45 557.669 1023.79 543.014 1023.79 525.006ZM1075.71 525.006C1075.71 512.96 1067.51 504.515 1056.58 504.515C1045.53 504.515 1037.33 513.084 1037.33 525.006C1037.33 537.053 1045.53 545.498 1056.58 545.498C1067.51 545.498 1075.71 536.929 1075.71 525.006Z" fill="#E8E8E8"/>
<path d="M1174.93 556.797H1161.03L1157.05 520.906C1156.43 515.938 1156.31 510.97 1156.31 510.474C1156.18 511.343 1155.19 516.062 1154.07 520.533L1142.4 556.797H1131.1L1119.3 520.657C1118.05 516.186 1117.06 511.591 1116.94 510.474C1116.94 510.97 1116.81 516.062 1116.44 520.906L1112.47 556.797H1098.56L1107.37 493.211H1123.4L1135.44 531.462C1136.06 533.946 1136.68 537.051 1136.68 537.672C1136.81 537.175 1137.18 534.07 1137.93 531.586L1150.22 493.211H1166.12L1174.93 556.797Z" fill="#E8E8E8"/>
<path d="M1192.2 556.797V546.117H1200.15V504.016H1192.2V493.211H1221.01V504.016H1213.06V546.117H1221.01V556.797H1192.2Z" fill="#E8E8E8"/>
<path d="M1241.01 556.797V493.211H1261C1281.12 493.211 1293.79 502.401 1293.79 524.259C1293.79 545.123 1281.25 556.922 1263.49 556.922H1241.01V556.797ZM1280.75 524.011C1280.75 509.977 1273.92 505.133 1261 505.133H1254.05V544.875H1263.11C1274.79 544.875 1280.75 536.927 1280.75 524.011Z" fill="#E8E8E8"/>
<path d="M1339.37 541.646H1320.24L1315.77 556.673H1301.98L1322.6 493.211H1337.01L1357.5 556.797H1343.71L1339.37 541.646ZM1323.35 531.462H1336.39L1334.52 524.632C1332.78 518.422 1330.67 510.846 1329.93 506.872C1329.06 511.84 1327.2 518.546 1325.33 524.632L1323.35 531.462Z" fill="#E8E8E8"/>
<path d="M1366.81 545.372L1377.24 537.921C1379.73 542.888 1383.83 545.496 1388.42 545.496C1392.64 545.496 1395.5 542.64 1395.5 538.79C1395.5 529.351 1370.91 525.75 1370.91 508.487C1370.91 498.8 1379.11 492.094 1388.05 492.094C1395.25 492.094 1400.47 495.323 1403.82 500.539L1395.13 508.239C1393.51 505.755 1391.28 503.892 1388.55 503.892C1385.94 503.892 1383.95 505.755 1383.95 508.487C1383.95 516.435 1408.42 520.534 1408.42 538.542C1408.42 549.471 1400.1 557.419 1388.3 557.419C1379.36 557.543 1371.04 553.817 1366.81 545.372Z" fill="#E8E8E8"/>
<path d="M553.852 561.637C546.4 544.126 531.745 519.039 503.678 498.548C473.127 476.317 433.882 464.643 387.061 463.898C272.805 462.283 212.944 492.214 209.342 552.944C208.97 559.526 210.212 567.474 215.304 575.795C208.101 580.39 203.754 589.456 201.891 595.666C196.427 609.948 184.131 646.212 185.001 681.731C185.87 716.877 199.656 740.474 224.867 750.161C253.307 761.09 305.964 767.424 361.602 767.424C412.148 767.424 465.178 762.207 504.671 750.409C525.784 744.075 542.798 728.427 553.727 705.203C574.716 660.494 569.624 599.143 553.852 561.637ZM213.565 599.392C214.31 596.659 218.036 587.593 223.128 585.606C229.213 591.443 237.534 597.28 249.208 602.745C271.935 613.301 302.983 620.628 339.123 623.982C379.237 627.707 420.469 625.72 452.387 618.766C490.141 610.569 511.254 596.038 513.613 576.913C515.849 559.153 511.378 543.629 500.449 530.713C470.767 495.443 400.971 490.475 387.31 489.73C374.394 489.109 260.882 485.383 257.902 542.263C257.529 549.218 260.137 559.65 274.792 568.84C292.675 580.266 326.083 588.214 364.334 590.077C393.147 591.567 430.901 589.456 450.275 579.272C460.956 573.56 463.44 566.605 463.564 561.886C463.812 553.44 460.832 546.113 454.87 539.904C435.745 520.778 391.16 520.53 387.061 520.53C380.852 520.157 335.025 517.922 320.619 531.21C317.265 534.315 315.527 538.165 315.403 542.263C315.278 546.734 317.141 550.957 320.494 554.186C331.672 564.99 360.857 566.108 383.336 564.99C386.689 564.866 389.421 561.886 389.173 558.532C389.049 555.055 386.068 552.447 382.715 552.695C355.641 553.937 335.025 551.081 329.064 545.368C327.822 544.25 327.698 543.257 327.698 542.512C327.698 542.139 327.698 541.394 328.94 540.276C337.136 532.7 368.557 531.707 386.441 532.825C386.565 532.825 386.689 532.825 386.937 532.825C398.86 532.7 432.64 535.308 445.804 548.597C449.406 552.323 451.145 556.545 451.02 561.513C450.896 564.494 446.798 567.102 444.314 568.344C414.384 584.116 316.893 581.135 281.374 558.408C273.674 553.565 269.948 548.224 270.197 542.884C271.066 525.497 287.708 513.326 319.625 506.744C349.183 500.659 380.603 501.777 386.565 502.025C394.016 502.397 413.887 503.764 435.372 509.228C461.328 515.81 479.957 525.621 490.762 538.537C499.58 548.97 502.933 561.016 501.194 575.298C497.841 602.124 422.58 619.014 340.117 611.562C305.964 608.458 275.413 601.254 254.3 591.443C225.984 578.279 220.892 563.624 221.389 553.689C223.004 527.112 237.037 507.862 264.235 494.822C291.806 481.657 333.038 475.324 386.689 476.193C489.52 477.683 528.268 533.321 542.302 566.356C557.205 601.627 559.068 650.31 547.766 685.954C544.413 683.097 542.053 675.77 539.321 665.71C535.347 651.552 530.503 634.041 514.358 635.904C500.449 637.519 495.978 652.918 491.259 669.188C486.291 686.574 481.075 704.458 465.675 708.556C460.459 709.923 458.224 708.556 457.478 708.06C451.766 704.582 449.033 692.412 446.55 681.607C442.824 665.462 438.725 647.206 422.332 646.833C405.069 646.46 397.742 663.847 391.781 677.633C386.565 690.052 382.591 698.124 376.878 697.628C370.916 697.131 367.563 686.823 364.086 676.018C358.87 660.122 352.536 640.251 331.672 640.251C313.54 640.251 304.722 657.886 296.898 673.534C287.584 692.039 281.126 703.216 268.085 702.223C246.103 700.608 243.868 682.228 242.874 654.533C242.75 649.938 242.626 645.591 242.253 641.493C240.515 619.262 221.762 608.085 211.826 603.614C212.323 602.372 212.82 601.006 213.192 599.764C213.441 599.764 213.565 599.516 213.565 599.392ZM501.07 738.487C422.456 762.083 281.25 758.482 229.213 738.611C187.112 722.466 194.315 659.501 207.976 615.537C210.336 616.654 213.192 618.269 216.049 620.256C224.618 626.341 229.213 633.917 229.958 642.61C230.207 646.46 230.455 650.683 230.579 655.154C231.325 679.247 232.442 712.282 267.216 714.766C289.446 716.381 299.258 696.634 307.951 679.247C316.148 662.854 321.861 652.794 331.672 652.794C342.601 652.794 346.823 663.102 352.288 679.992C356.883 694.15 361.602 708.805 375.76 710.171C390.911 711.537 397.369 696.261 403.206 682.725C409.292 668.567 413.763 659.252 422.084 659.376C428.293 659.501 431.15 669.933 434.503 684.463C437.608 698.249 440.961 712.655 451.145 718.74C454.249 720.603 457.851 721.597 461.701 721.597C464.061 721.597 466.42 721.224 469.028 720.603C491.135 714.642 497.841 691.418 503.305 672.665C506.659 660.991 510.136 648.82 515.973 648.199C520.816 647.578 523.424 654.16 527.523 668.939C530.628 679.992 534.229 693.281 543.419 697.876C543.171 698.497 542.798 699.118 542.55 699.739C532.987 720.106 519.078 733.022 501.07 738.487Z" fill="#E8E8E8"/>
<path d="M605.885 547.731C602.532 547.731 599.676 544.999 599.676 541.521C599.676 541.521 599.676 541.521 599.676 541.397C599.676 539.782 599.179 506.623 580.923 488.243C572.975 480.294 562.418 476.196 549.751 476.196C546.273 476.196 543.541 473.464 543.541 469.986C543.541 466.509 546.273 463.777 549.751 463.777C562.418 463.777 572.85 459.679 580.923 451.73C599.303 433.226 599.676 399.57 599.676 398.576C599.676 398.576 599.676 398.576 599.676 398.452C599.676 395.099 602.408 392.242 605.885 392.242C609.239 392.242 612.095 394.974 612.095 398.452C612.095 398.452 612.095 398.452 612.095 398.576C612.095 400.19 612.592 433.35 630.848 451.73C638.796 459.679 649.353 463.777 662.02 463.777C665.498 463.777 668.23 466.509 668.23 469.986C668.23 473.34 665.622 476.072 662.269 476.196C662.144 476.196 662.145 476.196 662.02 476.196C649.353 476.196 638.921 480.294 630.848 488.243C612.468 506.623 612.095 539.907 612.095 541.273V541.397C612.095 544.999 609.363 547.731 605.885 547.731ZM576.824 470.111C581.544 472.595 585.891 475.699 589.74 479.673C597.565 487.498 602.532 497.185 605.885 506.623C609.239 497.185 614.206 487.498 622.03 479.673C625.88 475.823 630.227 472.595 634.946 470.111C630.227 467.627 625.88 464.522 622.03 460.548C614.206 452.724 609.239 443.037 605.885 433.598C602.532 443.037 597.565 452.724 589.74 460.548C585.891 464.398 581.544 467.627 576.824 470.111Z" fill="#E8E8E8"/>
<path d="M681.398 430.367C678.293 430.367 675.81 428.131 675.313 425.151C675.313 424.778 669.227 387.893 646.128 387.893C642.65 387.893 639.918 385.161 639.918 381.683C639.918 378.206 642.65 375.474 646.128 375.474C669.352 375.474 675.313 338.589 675.313 338.216C675.81 335.235 678.418 333 681.398 333C684.503 333 686.987 335.235 687.484 338.216C687.484 338.589 693.569 375.474 716.669 375.474C720.146 375.474 722.878 378.206 722.878 381.683C722.878 385.037 720.146 387.769 716.917 387.893H716.793C693.569 387.893 687.608 424.778 687.608 425.151C687.111 428.131 684.503 430.367 681.398 430.367ZM665.377 381.683C671.214 385.782 676.182 391.991 680.156 400.188C680.653 401.181 681.026 402.051 681.522 403.044C681.895 402.051 682.392 401.057 682.888 400.188C686.863 392.115 691.83 385.906 697.667 381.808C691.83 377.709 686.863 371.5 682.888 363.303C682.392 362.309 682.019 361.44 681.522 360.446C681.15 361.44 680.653 362.434 680.156 363.303C676.058 371.375 671.09 377.585 665.377 381.683Z" fill="#E8E8E8"/>
<path d="M533.111 441.174C529.882 441.174 527.274 438.69 526.902 435.586C526.902 435.337 523.797 405.531 504.796 405.531C501.318 405.531 498.586 402.799 498.586 399.322C498.586 395.844 501.318 393.112 504.796 393.112C523.797 393.112 526.902 363.43 526.902 363.057C527.15 359.828 529.882 357.469 533.111 357.469C536.34 357.469 538.948 359.953 539.321 363.057C539.321 363.306 542.426 393.112 561.427 393.112C564.905 393.112 567.637 395.844 567.637 399.322C567.637 402.799 564.905 405.531 561.427 405.531C542.426 405.531 539.321 435.213 539.321 435.586C538.948 438.69 536.216 441.174 533.111 441.174ZM522.679 399.446C527.15 403.047 530.503 407.767 533.111 412.858C535.719 407.767 539.073 402.923 543.544 399.322C539.073 395.72 535.595 391.001 533.111 385.909C530.255 391.622 526.778 396.217 522.679 399.446Z" fill="#E8E8E8"/>
</g>
<defs>
<clipPath id="clip0_5315_2413">
<rect width="1229.63" height="434.3" fill="white" transform="translate(185 333)"/>
</clipPath>
</defs>
</svg>
