<svg width="1600" height="1100" viewBox="0 0 1600 1100" fill="none" xmlns="http://www.w3.org/2000/svg">
<path d="M1134.43 653.214C1144.36 620.463 1149.7 585.609 1149.7 549.553C1149.7 546.548 1149.55 543.544 1149.41 540.539L1067.39 777.908C1091.86 748.462 1111.59 714.96 1125.68 678.604L1134.43 653.214Z" fill="#E8E8E8"/>
<path d="M1120.64 407.883L962.988 863.24C973.37 857.681 983.454 851.522 993.243 845.062L1132.95 441.235C1129.39 429.817 1125.23 418.7 1120.64 407.883Z" fill="#E8E8E8"/>
<path d="M1073.18 328.258L882.161 894.337C891.059 892.084 899.958 889.53 908.559 886.675L1089.49 350.492C1084.3 342.83 1078.81 335.469 1073.18 328.258Z" fill="#E8E8E8"/>
<path d="M1025.13 278.226C1017.86 272.066 1010.44 266.207 1002.73 260.648L1001.1 364.61L818.241 903.797C826.546 903.347 834.703 902.596 842.86 901.544L1023.64 368.666L1025.13 278.226Z" fill="#E8E8E8"/>
<path d="M945.636 443.485L946.822 227.599C939.407 224.144 931.992 220.839 924.28 217.984L923.094 439.579L766.483 902.748C774.195 903.499 782.055 903.95 789.916 904.1L945.043 445.137L945.636 443.485Z" fill="#E8E8E8"/>
<path d="M866.292 519.203L867.034 201.309C859.619 199.806 852.055 198.605 844.492 197.703L843.75 515.447L714.725 893.885C721.992 895.687 729.555 897.34 736.97 898.692L865.699 521.005L866.292 519.203Z" fill="#E8E8E8"/>
<path d="M787.839 195C780.276 195.3 772.712 195.751 765.297 196.352L763.517 588.611L665.784 877.51C672.755 880.365 679.873 883.069 686.992 885.473L786.06 592.517L787.839 195Z" fill="#E8E8E8"/>
<path d="M708.644 669.133L709.682 206.414C701.97 208.517 694.555 210.771 687.14 213.325L686.102 665.227L621.737 855.122C628.263 859.028 635.085 862.784 641.907 866.239L708.051 670.936L708.644 669.133Z" fill="#E8E8E8"/>
<path d="M631.081 238.266C623.369 242.622 615.806 247.28 608.391 252.087L607.204 732.684L576.653 823.274C582.734 828.382 589.111 833.19 595.636 837.847L629.895 736.44L631.081 238.266Z" fill="#E8E8E8"/>
<path d="M529.491 323.45L528.749 774.751C535.868 783.465 543.431 791.878 551.291 799.99L552.181 298.211C544.173 306.173 536.757 314.586 529.491 323.45Z" fill="#E8E8E8"/>
<path d="M450 526.264V572.686C452.373 609.193 460.085 644.347 472.542 676.948V421.852C460.085 454.602 452.373 489.607 450 526.264Z" fill="#E8E8E8"/>
</svg>
