<svg width="1600" height="1100" viewBox="0 0 1600 1100" fill="none" xmlns="http://www.w3.org/2000/svg">
<path d="M800 160C584.976 160 410 334.976 410 550C410 765.024 584.976 940 800 940C1015.02 940 1189.73 764.755 1189.73 550C1189.73 335.245 1014.76 160 800 160ZM800 924.948C593.039 924.948 424.783 756.692 424.783 549.731C424.783 342.77 593.039 174.783 800 174.783C1006.96 174.783 1175.22 343.039 1175.22 550C1175.22 756.961 1006.69 924.948 800 924.948Z" fill="#E8E8E8"/>
<path d="M799.994 197.092C605.397 197.092 447.354 355.404 447.354 549.732C447.354 744.06 605.666 902.371 799.994 902.371C994.322 902.371 1152.63 744.06 1152.63 549.732C1152.63 355.404 994.322 197.092 799.994 197.092ZM1137.85 550C1137.85 618.271 1117.42 681.971 1082.48 735.19V364.811C1117.42 418.029 1137.85 481.461 1137.85 550ZM516.162 366.424V733.577C481.758 680.628 461.868 617.733 461.868 550C461.868 482.268 481.758 419.104 516.162 366.424ZM1013.41 811.523V543.012H998.622V822.812C981.689 835.176 963.412 846.196 944.329 855.066V713.688H929.546V861.785C912.075 869.042 894.067 874.956 875.252 879.256V713.688H860.469V882.213C842.999 885.438 825.259 887.32 807.251 887.588V713.688H792.468V887.588C773.922 887.32 755.914 885.169 738.174 881.944V713.688H723.391V878.987C704.577 874.687 686.568 868.774 669.098 861.248V730.889H654.315V854.528C635.231 845.39 616.954 834.37 600.021 822.006V730.889H585.238V810.448C565.08 793.784 546.803 774.969 530.945 754.005V345.459C546.803 324.494 565.08 305.679 585.238 289.015V548.925H600.021V277.457C616.954 265.093 635.231 254.073 654.315 244.935V520.166H669.098V238.215C686.568 230.958 704.577 225.045 723.391 220.476V491.944H738.174V217.519C755.914 214.294 773.922 212.413 792.468 211.875V449.477H807.251V211.875C825.528 212.144 843.267 214.025 860.469 217.251V368.305H875.252V220.476C894.067 224.776 912.075 230.69 929.546 237.947V368.574H944.329V244.397C963.412 253.536 981.689 264.287 998.622 276.651V368.305H1013.41V288.209C1034.1 304.873 1052.38 323.956 1068.51 345.19H1067.7V755.617C1051.84 776.313 1033.56 795.128 1013.41 811.523Z" fill="#E8E8E8"/>
<path d="M1012.87 445.712H954.278C954.009 442.487 953.203 439.262 951.59 436.305C948.364 430.123 942.451 426.36 936.001 426.36H895.146C888.964 426.36 883.32 429.854 880.094 435.768C876.331 442.756 876.869 451.088 880.901 457.539L883.857 462.108L701.624 574.727C699.474 573.921 697.324 573.383 694.905 573.383H654.05C647.868 573.383 642.224 576.877 638.999 582.79C635.236 589.779 635.773 598.111 639.805 604.561L643.837 610.475L579.867 649.985C575.029 652.942 572.879 658.586 574.491 663.962C576.104 669.337 580.673 672.832 586.318 672.832H672.059C683.347 672.832 694.367 669.606 704.043 663.693L722.052 652.404H906.435V588.166C906.435 573.114 901.059 558.869 891.114 547.849L1019.59 468.559C1024.43 465.602 1026.85 459.689 1025.24 454.313C1023.62 449.207 1018.78 445.712 1012.87 445.712ZM892.996 443.025C893.265 442.487 894.071 441.412 895.146 441.412H936.001C937.345 441.412 938.151 442.756 938.688 443.562C939.764 445.444 940.032 448.669 938.42 451.088L920.949 477.428H911.542L893.265 449.744C891.921 447.325 892.189 444.637 892.996 443.025ZM651.9 590.316C652.169 589.779 652.975 588.703 654.05 588.703H694.905C696.249 588.703 697.055 590.047 697.593 590.854C698.668 592.735 698.937 595.961 697.324 598.38L679.853 624.72H670.446L652.169 597.036C650.825 594.617 651.094 591.929 651.9 590.316ZM745.973 638.159L798.654 605.637V606.712H891.652V638.159H745.973ZM891.652 588.972V592.198H820.694L878.213 556.719C886.814 565.051 891.652 576.608 891.652 588.972ZM696.249 651.598C688.992 656.167 680.659 658.586 672.059 658.586H594.919L651.9 623.376L662.382 639.503H687.648L709.419 606.443C713.182 600.53 713.988 593.004 711.569 586.553L891.921 475.009L903.209 492.211H928.475L949.44 460.495H1005.61L696.249 651.598Z" fill="#E8E8E8"/>
</svg>
