<svg width="1600" height="1100" viewBox="0 0 1600 1100" fill="none" xmlns="http://www.w3.org/2000/svg">
<path d="M972.438 240C1010.84 240 1045.29 261.532 1061.8 295.982L1119.21 430.916C1121.01 434.505 1121.01 438.452 1119.57 442.041L1072.92 549.7L1119.93 657.359C1121.01 660.948 1121.01 664.896 1119.57 668.484L1062.15 803.417C1045.29 837.868 1010.84 859.4 972.438 859.4H570.869C519.91 859.4 479 811.671 479 759.276V340.123C479 287.729 519.911 240 570.869 240H972.438ZM716.926 767.893H972.078C975.308 767.893 978.538 766.099 979.974 762.869L1016.22 689.302C1018.73 684.637 1015.14 678.895 1009.76 678.895H760.349L716.926 767.893ZM579.123 678.894C574.458 678.894 570.511 682.842 570.511 687.507V758.921C570.511 763.586 574.458 767.533 579.123 767.533H687.142L730.564 678.535H579.123V678.894ZM773.625 651.975H1007.6C1014.06 651.975 1018.37 645.157 1015.5 639.415L980.331 568.001C978.896 565.13 975.665 562.977 972.436 562.977H817.048L773.625 651.975ZM579.122 562.977C574.457 562.977 570.51 566.924 570.51 571.589V643.003C570.51 647.668 574.457 651.616 579.122 651.616H743.482L786.905 562.977H579.122ZM579.122 447.426C574.457 447.426 570.51 451.373 570.51 456.038V527.452C570.51 532.117 574.457 536.065 579.122 536.065H788.341L744.559 447.426H579.122ZM818.486 536.064H972.439C975.669 536.064 978.898 534.27 980.334 531.041L1015.5 459.627C1018.37 453.885 1014.07 447.067 1007.61 447.066H774.705L818.486 536.064ZM579.122 331.512C574.457 331.512 570.51 335.459 570.51 340.124V411.538C570.51 416.203 574.457 420.151 579.122 420.151H731.281L687.5 331.512H579.122ZM761.426 420.15H1007.61C1014.07 420.15 1018.37 413.332 1015.5 407.591L980.333 336.177C978.898 333.306 975.668 331.152 972.438 331.152H717.645L761.426 420.15Z" fill="#E8E8E8"/>
</svg>
