<svg width="1600" height="1100" viewBox="0 0 1600 1100" fill="none" xmlns="http://www.w3.org/2000/svg">
<path d="M891.118 413.343C907.649 421.155 919.603 436.231 935.23 445.721C954.469 457.402 977.692 459.796 999.855 463.714C1012.05 465.87 1025.61 469.604 1031.57 480.458C1036.72 489.854 1034.36 501.498 1030.98 511.667C1013.68 563.626 974.398 604.8 936.272 644.11C932.88 647.606 929.218 651.261 924.477 652.376C914.996 654.609 906.574 645.91 901.782 637.428C890.291 617.093 886.26 593.058 873.715 573.354C869.812 567.221 863.702 560.99 856.513 562.066C850.958 562.897 846.892 568.064 845.421 573.484C843.949 578.905 844.496 584.635 844.708 590.248C845.452 609.956 841.834 629.816 834.187 647.995C831.551 654.263 826.279 661.415 819.696 659.711C816.608 658.911 814.332 656.238 812.914 653.38C803.986 635.393 822.301 612.377 813.248 594.454C809.641 587.313 802.301 582.655 798.528 575.6C794.027 567.186 795.343 556.982 796.778 547.547C798.429 536.704 800.163 525.605 805.43 515.984C810.696 506.363 820.3 498.356 831.266 498.128C840.571 497.935 851.664 502.664 858.092 495.933C861.5 492.365 861.846 486.864 861.192 481.973C859.476 469.145 851.423 456.763 839.339 452.128C827.256 447.492 811.624 452.41 806.187 464.154C805.251 466.178 804.557 468.423 802.906 469.921C798.813 473.633 792.383 470.457 787.884 467.255C780.214 461.797 771.915 456.189 762.507 455.862C753.1 455.535 742.83 463.019 743.92 472.369C744.714 479.189 750.764 483.937 755.035 489.314C768.514 506.281 764.64 530.502 764.315 552.169C763.406 612.99 795.917 670.558 795.266 731.383C795.214 736.235 794.892 741.289 792.489 745.502C790.087 749.715 785.008 752.783 780.367 751.373C775.693 749.954 773.297 744.89 771.623 740.301C765.584 723.733 761.746 706.459 757.924 689.243C752.356 664.155 746.788 639.067 741.22 613.98C739.98 636.294 733.484 658.299 722.407 677.709C721.401 679.475 720.147 681.377 718.167 681.832C714.118 682.765 711.761 677.273 711.874 673.119C712.169 662.253 717.445 652.244 720.674 641.864C726.384 623.505 725.594 603.194 718.475 585.334C693.292 603.619 691.28 641.056 670.775 664.466C669.43 666.003 667.79 667.574 665.75 667.646C664.207 667.7 662.787 666.872 661.488 666.038C637.948 650.916 622.927 625.785 610.264 600.837C598.799 578.249 588.554 555.042 579.589 531.351C575.014 519.262 571.1 504.575 578.967 494.319C582.839 489.273 588.882 486.423 594.848 484.22C612.216 477.806 631.579 474.939 645.858 463.153C657.764 453.325 664.482 438.555 675.317 427.56C689.549 413.12 710.04 406.215 730.253 404.632C742.056 403.706 753.917 404.437 765.654 405.83C771.549 406.53 777.417 407.418 783.281 408.325C787.687 409.008 791.678 408.52 796.066 408.811C816.972 410.194 837.617 406.282 858.498 406.65C869.681 406.847 880.928 408.528 891.118 413.343Z" fill="#E8E8E8"/>
<path d="M480.648 457.381L502.466 465.095L491.434 518.816L404.586 500.979L415.39 448.375L438.483 449.886L432.266 480.157L441.57 482.069L446.564 457.751L469.02 462.363L464.027 486.68L474.2 488.77L480.648 457.381Z" fill="#E8E8E8"/>
<path d="M504.195 396.227L525.991 409.611L505.267 457.087L424.012 421.619L434.551 397.474L492.591 422.808L504.195 396.227Z" fill="#E8E8E8"/>
<path d="M543.922 343.429L560.784 359.275L529.052 404L456.75 352.7L487.823 308.906L508.35 319.589L490.469 344.791L498.216 350.287L512.579 330.043L531.274 343.307L516.911 363.552L525.38 369.561L543.922 343.429Z" fill="#E8E8E8"/>
<path d="M543.804 283.114L540.978 285.654L555.201 301.481L558.028 298.942C563.209 294.285 563.646 287.761 559.498 283.145C555.35 278.529 548.985 278.458 543.804 283.114ZM575.018 313.302L569.931 317.874L585.508 335.208L565.914 352.817L506.652 286.871L531.334 264.69C546.314 251.229 566.48 251.498 579.093 265.537C591.707 279.572 589.998 299.841 575.018 313.302Z" fill="#E8E8E8"/>
<path d="M647.917 190.227L688.783 268.906L665.404 281.05L650.458 252.274L627.305 264.302L642.25 293.076L618.87 305.219L578.004 226.539L601.383 214.396L615.629 241.821L638.783 229.795L624.538 202.37L647.917 190.227Z" fill="#E8E8E8"/>
<path d="M733.781 220.696L721.254 196.147L719.526 223.686L733.781 220.696ZM744.182 241.289L718.277 246.723L717.325 261.934L689.809 267.706L700.736 174.829L731.353 168.406L778.683 249.063L751.165 254.836L744.182 241.289Z" fill="#E8E8E8"/>
<path d="M868.214 166.554L862.393 255.017L838.003 253.412L808.899 207.709L806.029 251.309L780.121 249.604L785.942 161.141L810.585 162.761L839.471 207.944L842.307 164.849L868.214 166.554Z" fill="#E8E8E8"/>
<path d="M928.632 209.446L909.194 270.511L884.09 262.521L903.53 201.456L883.617 195.118L894.329 172.742L952.739 191.335L948.544 215.785L928.632 209.446Z" fill="#E8E8E8"/>
<path d="M1005.97 286.795L988.192 312.999L966.391 298.209L984.168 272.004L993.418 209.406L1017.63 225.832L1011.28 255.5L1036.5 238.63L1060.71 255.055L1005.97 286.795Z" fill="#E8E8E8"/>
<path d="M1085.21 314.256C1077.45 305.395 1064.57 304.721 1055.62 312.563C1046.66 320.406 1045.63 333.263 1053.39 342.125C1061.15 350.985 1074.03 351.66 1082.98 343.816C1091.94 335.974 1092.97 323.117 1085.21 314.256ZM1104.17 297.652C1121.74 316.947 1120.16 347.627 1100.67 364.016C1081.85 381.169 1051.23 378.691 1034.43 358.729C1016.86 339.433 1018.44 308.753 1037.93 292.363C1056.74 275.211 1087.37 277.689 1104.17 297.652Z" fill="#E8E8E8"/>
<path d="M1114.26 435.616L1090.02 443.793L1066.82 397.482L1146.08 357.766L1157.88 381.317L1101.26 409.686L1114.26 435.616Z" fill="#E8E8E8"/>
<path d="M1104.06 495.773L1136.6 465.799L1099.1 474.56L1093.11 448.906L1179.44 428.734L1185.44 454.388L1150.53 462.543L1190.05 474.122L1196.85 503.229L1149.38 487.657L1110.92 525.128L1104.06 495.773Z" fill="#E8E8E8"/>
<path d="M462.506 652.06C463.699 655.695 466.154 657.141 469.049 656.19C471.943 655.24 473.063 652.621 471.869 648.986L471.384 647.508L462.021 650.582L462.506 652.06ZM440.833 665.863L454.505 653.049L438.365 658.347L434.199 645.658L477.321 631.5L482.66 647.764C486.119 658.297 482.311 666.03 474.364 668.639C469.005 670.399 463.783 669.043 460.008 665.027L445.707 680.709L440.833 665.863Z" fill="#E8E8E8"/>
<path d="M473.061 711.951L461.75 715.473L449.816 690.061L490.898 670.766L502.585 695.651L492.652 702.107L485.927 687.785L481.524 689.854L486.927 701.357L476.304 706.345L470.902 694.842L466.089 697.102L473.061 711.951Z" fill="#E8E8E8"/>
<path d="M518.573 720.616C520.618 723.924 521.982 727.73 522.516 731.059L510.332 736.381C510.093 733.403 509.16 730.169 507.628 727.688C504.184 722.118 497.856 720.389 492.563 723.662C487.324 726.901 486.042 733.334 489.519 738.958C491.121 741.549 493.564 743.775 496.722 745.556L486.517 754.075C483.085 751.852 480.152 748.712 478.004 745.238C470.66 733.848 474.047 718.493 485.268 711.862C496.215 704.789 511.569 708.789 518.573 720.616Z" fill="#E8E8E8"/>
<path d="M531.586 759.882C527.725 755.25 521.141 754.744 516.461 758.645C511.778 762.548 511.089 769.114 514.95 773.746C518.81 778.378 525.393 778.885 530.075 774.982C534.756 771.08 535.445 764.515 531.586 759.882ZM541.497 751.623C550.246 761.716 549.051 777.398 538.874 785.541C529.03 794.084 513.389 792.433 505.038 782.006C496.289 771.912 497.483 756.231 507.66 748.087C517.505 739.545 533.145 741.196 541.497 751.623Z" fill="#E8E8E8"/>
<path d="M558.05 799.982C560.891 802.542 563.738 802.577 565.779 800.314C567.817 798.049 567.487 795.222 564.646 792.661L563.49 791.619L556.894 798.94L558.05 799.982ZM546.105 822.729L551.6 804.816L540.23 817.434L530.309 808.495L560.685 774.781L573.399 786.238C581.635 793.658 582.175 802.26 576.578 808.473C572.801 812.663 567.597 814.082 562.325 812.474L557.712 833.187L546.105 822.729Z" fill="#E8E8E8"/>
<path d="M585.973 838.136C591.207 841.738 596.76 840.76 600.252 835.687C603.744 830.613 602.675 825.077 597.442 821.475L595.84 820.372L584.372 837.034L585.973 838.136ZM591.862 802.367L605.053 811.446C616.004 818.747 618.974 833.069 611.573 843.48C604.492 854.109 590.053 856.448 579.324 848.827L566.133 839.748L591.862 802.367Z" fill="#E8E8E8"/>
<path d="M619.483 873.38L607.672 866.874L629.563 827.125L641.375 833.629L619.483 873.38Z" fill="#E8E8E8"/>
<path d="M686.791 853.985L669.183 895.82L657.649 890.965L651.207 863.982L642.529 884.601L630.277 879.444L647.885 837.609L659.539 842.514L665.962 869.208L674.54 848.828L686.791 853.985Z" fill="#E8E8E8"/>
<path d="M726.942 882.751L720.7 906.448C715.347 908.19 709.338 908.35 703.822 906.896C690.966 903.778 682.848 890.309 686.419 877.774C689.487 865.107 703.439 857.451 716.475 861.153C720.926 862.326 725.222 864.598 728.253 867.341L723.374 878.995C720.388 876.331 716.89 874.337 713.63 873.478C707.236 871.794 701.157 875.02 699.522 881.225C697.887 887.432 701.336 893.169 707.795 894.87C708.859 895.15 710.1 895.276 711.375 895.276L712.645 890.449L705.75 888.632L710.079 878.307L726.942 882.751Z" fill="#E8E8E8"/>
<path d="M747.795 898.981C752.612 902.918 757.159 905.004 761.031 905.393C763.805 905.671 765.019 904.619 765.154 903.265C765.303 901.781 764.439 900.651 760.949 899.064L758.453 897.966C751.21 894.827 748.05 889.297 748.717 882.652C749.545 874.394 756.754 868.796 766.496 869.775C770.561 870.182 774.973 871.668 779.612 874.154L776.742 885.856C771.949 882.963 768.072 881.337 765.04 881.032C762.717 880.799 761.588 881.663 761.439 883.147C761.291 884.63 762.283 885.773 765.348 887.058L767.844 888.156C775.889 891.765 778.906 897.411 778.284 903.605C777.513 911.283 771.497 917.977 760.143 916.837C754.918 916.313 749.84 914.304 744.906 910.876L747.795 898.981Z" fill="#E8E8E8"/>
<path d="M807.689 884.967L807.796 917.776L794.308 917.82L794.202 885.011L783.504 885.047L785.214 872.462L816.596 872.359L818.387 884.932L807.689 884.967Z" fill="#E8E8E8"/>
<path d="M822.539 872.258L835.924 870.63L839.188 897.465C839.665 901.39 842.351 903.611 846.019 903.165C849.688 902.718 851.763 899.92 851.286 895.993L848.023 869.159L861.408 867.531L864.757 895.074C866.088 906.013 859.33 914.346 847.554 915.777C835.776 917.21 827.203 910.612 825.865 899.608L822.539 872.258Z" fill="#E8E8E8"/>
<path d="M891.53 894.021C897.679 892.42 900.572 887.58 899.021 881.62C897.468 875.659 892.582 872.845 886.433 874.446L884.551 874.935L889.648 894.511L891.53 894.021ZM868.332 866.161L883.829 862.126C896.516 858.623 909.291 865.748 912.321 878.156C915.727 890.467 908.049 902.918 895.263 906.046L879.767 910.081L868.332 866.161Z" fill="#E8E8E8"/>
<path d="M940.034 891.832L927.376 896.483L911.727 853.885L924.384 849.234L940.034 891.832Z" fill="#E8E8E8"/>
<path d="M957.075 847.656C951.674 850.335 949.654 856.621 952.364 862.082C955.072 867.542 961.298 869.736 966.7 867.057C972.101 864.377 974.119 858.09 971.411 852.63C968.702 847.169 962.474 844.975 957.075 847.656ZM951.341 836.095C963.188 829.927 978.161 834.73 983.722 846.52C989.746 858.081 984.512 872.912 972.434 878.616C960.586 884.784 945.612 879.982 940.053 868.191C934.028 856.63 939.262 841.799 951.341 836.095Z" fill="#E8E8E8"/>
<path d="M1031.83 826.281L1037.42 836.729L1014.71 853.229L988.031 816.508L1010.27 800.352L1018.48 808.894L1005.68 818.191L1008.54 822.126L1018.82 814.657L1025.72 824.151L1015.44 831.621L1018.56 835.923L1031.83 826.281Z" fill="#E8E8E8"/>
<path d="M1059.35 800.39L1066.66 811.252L1046.93 828.967L1016.61 795.197L1026.64 786.188L1048.3 810.309L1059.35 800.39Z" fill="#E8E8E8"/>
<path d="M1074.56 779.372L1086.48 790.356L1077.34 800.272L1065.42 789.289L1034.43 779.865L1044.58 768.852L1059.12 774.315L1052.49 760.271L1062.64 749.258L1074.56 779.372Z" fill="#E8E8E8"/>
<path d="M1086.99 770.017L1095.31 759.484L1107.64 779.226L1101.6 788.661L1086.99 770.017Z" fill="#E8E8E8"/>
<path d="M1140.09 711.845L1120.96 703.443L1133.45 723.881L1109.5 724.221L1126.81 735.917L1120.24 747.838L1082.82 721.722L1088.76 710.936L1110.97 711.484L1098.66 692.997L1104.61 682.211L1146.66 699.923L1140.09 711.845Z" fill="#E8E8E8"/>
<path d="M1122.88 631.711L1165.81 646.449L1161.74 658.285L1135.26 666.537L1156.42 673.8L1152.1 686.373L1109.17 671.634L1113.28 659.675L1139.47 651.462L1118.56 644.283L1122.88 631.711Z" fill="#E8E8E8"/>
<path d="M800 135.539C743.378 135.539 688.318 146.241 636.349 167.345C585.85 187.854 540.43 217.278 501.352 254.798C461.846 292.731 430.756 337.073 408.944 386.591C386.134 438.366 374.57 493.346 374.57 550C374.57 606.654 386.134 661.634 408.944 713.41C430.756 762.928 461.846 807.27 501.352 845.202C540.43 882.723 585.85 912.146 636.349 932.655C688.318 953.76 743.378 964.461 800 964.461C856.622 964.461 911.682 953.76 963.649 932.655C1014.15 912.146 1059.57 882.722 1098.65 845.202C1138.15 807.271 1169.24 762.929 1191.06 713.41C1213.86 661.634 1225.43 606.655 1225.43 550C1225.43 493.344 1213.86 438.366 1191.06 386.591C1169.24 337.07 1138.15 292.73 1098.65 254.798C1059.57 217.278 1014.15 187.855 963.649 167.344C911.682 146.241 856.622 135.539 800 135.539ZM800 978.031C741.62 978.031 684.842 966.995 631.244 945.228C579.142 924.068 532.278 893.708 491.952 854.99C451.162 815.823 419.055 770.029 396.524 718.881C372.952 665.369 361 608.55 361 550C361 491.449 372.952 434.631 396.524 381.12C419.055 329.971 451.162 284.177 491.952 245.009C532.278 206.292 579.142 175.933 631.244 154.772C684.842 133.006 741.62 121.969 800 121.969C858.381 121.969 915.158 133.006 968.756 154.772C1020.86 175.933 1067.72 206.293 1108.05 245.009C1148.84 284.176 1180.94 329.969 1203.47 381.12C1227.05 434.629 1239 491.449 1239 550C1239 608.55 1227.05 665.37 1203.47 718.881C1180.94 770.03 1148.84 815.824 1108.05 854.99C1067.72 893.708 1020.86 924.068 968.756 945.228C915.158 966.995 858.381 978.031 800 978.031Z" fill="#E8E8E8"/>
<path d="M800 292.351C728.197 292.351 660.706 319.186 609.958 367.913C559.286 416.567 531.38 481.235 531.38 550.004C531.38 618.773 559.286 683.442 609.958 732.095C660.706 780.822 728.197 807.657 800 807.657C871.804 807.657 939.295 780.822 990.042 732.095C1040.71 683.442 1068.62 618.773 1068.62 550.004C1068.62 481.235 1040.71 416.567 990.042 367.913C939.295 319.186 871.804 292.351 800 292.351ZM800 821.227C724.676 821.227 653.846 793.049 600.56 741.884C547.197 690.646 517.809 622.502 517.809 550.004C517.809 477.506 547.197 409.362 600.56 358.124C653.846 306.96 724.676 278.781 800 278.781C875.324 278.781 946.154 306.96 999.44 358.124C1052.8 409.362 1082.19 477.506 1082.19 550.004C1082.19 622.502 1052.8 690.646 999.44 741.884C946.154 793.049 875.324 821.227 800 821.227Z" fill="#E8E8E8"/>
</svg>
