<svg width="1600" height="1100" viewBox="0 0 1600 1100" fill="none" xmlns="http://www.w3.org/2000/svg">
<path d="M991.642 492.312H1074.23V457.812H991.642C940.415 457.812 898.597 499.631 898.597 550.858C898.597 602.085 940.415 643.903 991.642 643.903H1074.23V609.403H991.642C959.233 609.403 933.097 583.267 933.097 550.858C933.097 518.449 959.233 492.312 991.642 492.312Z" fill="#E8E8E8"/>
<path d="M800.329 423.328C758.511 360.601 688.465 319.828 607.965 319.828H353.92V354.328H607.965C715.647 354.328 803.465 442.146 803.465 549.828C803.465 657.51 715.647 745.328 607.965 745.328H353.92V779.828H607.965C687.42 779.828 758.511 739.055 799.283 677.374C841.102 739.055 911.147 779.828 990.602 779.828H1244.65V745.328H991.647C917.42 745.328 852.602 703.51 819.147 641.828C826.465 625.101 831.693 607.328 834.829 589.555C852.602 659.601 916.374 710.828 991.647 710.828H1159.97V676.328H991.647C921.602 676.328 864.102 618.828 864.102 548.783C864.102 479.783 921.602 423.328 991.647 423.328H1159.97V388.828H991.647C916.374 388.828 852.602 440.055 834.829 510.101C831.693 491.283 826.465 474.555 819.147 457.828C852.602 396.146 917.42 354.328 991.647 354.328H1245.69V319.828H991.647C912.193 319.828 841.102 360.601 800.329 423.328Z" fill="#E8E8E8"/>
<path d="M439.639 711.864H607.957C696.82 711.864 770.002 639.728 770.002 549.819C770.002 460.955 697.866 387.773 607.957 387.773H439.639V423.319H607.957C678.002 423.319 735.502 480.819 735.502 550.864C735.502 620.91 678.002 678.41 607.957 678.41H439.639V711.864Z" fill="#E8E8E8"/>
<path d="M607.97 608.388H525.379V642.888H607.97C659.197 642.888 701.015 601.07 701.015 549.842C701.015 498.615 659.197 456.797 607.97 456.797H525.379V491.297H607.97C640.379 491.297 666.515 517.433 666.515 549.842C666.515 582.251 640.379 608.388 607.97 608.388Z" fill="#E8E8E8"/>
</svg>
