<svg width="1600" height="1100" viewBox="0 0 1600 1100" fill="none" xmlns="http://www.w3.org/2000/svg">
<g clip-path="url(#clip0_5315_2203)">
<path d="M818 549.552C818 453.514 740.431 375.945 644.393 375.945H448.624C443.084 387.95 437.543 399.955 432.926 412.883H645.317C721.039 412.883 781.986 473.83 781.986 549.552C781.986 645.59 859.555 723.158 955.592 723.158H1151.36C1156.9 711.154 1162.44 699.149 1167.06 686.221H954.669C879.87 686.221 818 625.274 818 549.552Z" fill="#E8E8E8"/>
<path d="M1191.07 538.457C1185.53 327.913 1011.92 158 799.533 158C719.194 158 641.625 182.009 576.061 228.181H575.137C559.439 239.263 543.74 251.267 529.889 265.119H644.395C801.38 265.119 928.814 392.554 928.814 549.538C928.814 563.39 940.819 575.395 954.671 575.395H1190.15C1191.07 567.084 1191.07 557.849 1191.07 549.538C1191.99 545.845 1191.07 542.151 1191.07 538.457ZM649.012 228.181C696.108 206.019 746.897 194.938 799.533 194.938C991.608 194.938 1148.59 348.229 1154.13 538.457H965.752C960.211 368.544 820.772 230.952 649.012 228.181Z" fill="#E8E8E8"/>
<path d="M891.88 549.552C891.88 412.883 781.067 302.07 644.398 302.07H495.724C486.49 314.075 477.255 326.08 468.944 339.008H644.398C760.751 339.008 854.942 433.199 854.942 549.552C854.942 604.958 899.267 649.283 954.673 649.283H1178.15C1180.92 637.279 1183.69 625.274 1185.53 612.346H954.673C920.506 612.346 891.88 584.643 891.88 549.552Z" fill="#E8E8E8"/>
<path d="M670.258 549.552C670.258 535.7 658.253 523.695 644.401 523.695H408.924C408.001 532.006 408.001 541.241 408.001 549.552C408.001 553.245 408.001 556.939 408.001 560.633C414.465 771.177 587.148 941.09 799.539 941.09C879.878 941.09 956.524 917.08 1023.01 870.908H1023.93C1039.63 859.827 1055.33 847.822 1069.18 833.971H954.677C798.616 833.971 670.258 706.536 670.258 549.552ZM445.862 560.633H634.244C639.784 730.546 779.224 868.138 950.06 870.908C903.888 892.148 853.099 904.152 800.463 904.152C608.387 904.152 451.403 750.861 445.862 560.633Z" fill="#E8E8E8"/>
<path d="M744.129 549.552C744.129 494.145 699.804 449.82 644.398 449.82H420.926C418.155 461.825 415.385 473.83 413.538 486.758H645.321C680.412 486.758 708.115 515.385 708.115 549.552C708.115 686.221 818.928 797.033 955.597 797.033H1104.27C1113.51 785.029 1122.74 773.024 1131.05 760.096H954.674C839.244 760.096 744.129 665.905 744.129 549.552Z" fill="#E8E8E8"/>
</g>
<defs>
<clipPath id="clip0_5315_2203">
<rect width="784" height="783.077" fill="white" transform="translate(408 158)"/>
</clipPath>
</defs>
</svg>
