<svg width="1600" height="1100" viewBox="0 0 1600 1100" fill="none" xmlns="http://www.w3.org/2000/svg">
<g clip-path="url(#clip0_5315_2211)">
<path d="M1048.7 320.541C1067.64 322.788 1080.79 339.156 1079.83 358.413C1078.23 390.187 1042.28 450.204 818.902 443.785C650.084 438.649 658.108 318.295 672.551 294.224C677.365 286.2 687.314 282.99 696.622 284.274C732.247 289.088 814.73 379.274 679.291 529.156C553.8 668.126 498.277 662.67 476.773 642.772C461.368 628.65 467.145 603.616 486.723 596.234C512.398 586.606 561.182 586.927 648.48 645.339C762.416 721.724 654.578 804.529 633.074 808.059C564.392 818.971 578.834 691.876 772.686 629.934C966.538 567.991 1036.18 614.528 1020.78 653.042C1005.37 691.876 858.058 660.745 881.166 521.133C900.423 403.987 994.139 314.443 1048.7 320.541Z" stroke="#E8E8E8" stroke-width="15.502" stroke-miterlimit="10"/>
<path d="M1014.04 231C1014.04 231 969.425 342.689 858.056 346.862C773.968 349.75 782.313 252.503 782.313 252.503L1014.04 231Z" fill="#E8E8E8"/>
<path d="M556.042 304.82L426.059 507.338C426.059 507.338 561.819 554.196 607.072 476.527C662.917 380.885 556.042 304.82 556.042 304.82Z" fill="#E8E8E8"/>
<path d="M419 695.409C419 695.409 514 660.105 543.527 713.703C573.054 767.301 503.088 821.862 503.088 821.862L419 695.409Z" fill="#E8E8E8"/>
<path d="M718.444 868.4C718.444 868.4 694.052 756.71 826.282 719.481C958.512 682.572 1009.22 762.808 1009.22 762.808L718.444 868.4Z" fill="#E8E8E8"/>
<path d="M1130.86 611.641C1130.86 611.641 1018.85 569.597 1028.48 508.938C1040.99 431.269 1180.61 401.742 1180.61 401.742L1130.86 611.641Z" fill="#E8E8E8"/>
</g>
<defs>
<clipPath id="clip0_5315_2211">
<rect width="761.927" height="637.4" fill="white" transform="translate(419 231)"/>
</clipPath>
</defs>
</svg>
