<svg width="1600" height="1100" viewBox="0 0 1600 1100" fill="none" xmlns="http://www.w3.org/2000/svg">
<g clip-path="url(#clip0_5320_2884)">
<path d="M270.65 512.504C289.46 510.524 295.364 503.484 300.24 502.97C339.29 498.864 374.93 516.097 400.047 513.457C406.134 512.797 412.44 504.51 418.05 496.774C427.657 482.694 431.067 482.07 430.81 479.65C430.664 478.184 429.38 477.817 428.39 477.927C410.827 479.76 384.024 464.324 331.04 465.204C340.354 455.084 355.167 436.494 368.22 412.66C382.044 387.03 404.777 358.98 408.664 358.32C409.397 358.247 409.727 358.944 409.8 359.677C410.094 362.354 406.574 371.117 401.257 379.33C391.32 395.17 379.404 415.667 381.2 432.754C381.604 436.677 383.987 438.144 387.91 437.74C400.597 436.42 421.607 413.21 420.764 405.18C420.617 403.97 419.114 403.64 417.354 403.31C428.207 379.697 444.377 345.67 442.874 331.517C442.507 327.85 431.25 319.674 427.107 320.077C412.954 321.58 375.114 363.05 351.207 405.804C335.22 434.624 321.727 454.057 314.577 465.937C311.13 466.047 307.977 466.377 304.53 466.744C299.654 467.257 292.174 469.017 289.424 470.814C282.934 474.957 275.014 486.397 270.65 494.244C266.69 501.32 263.794 506.564 264.087 509.24C264.454 512.65 268.634 512.724 270.614 512.504H270.65Z" fill="#E8E8E8"/>
<path d="M1052.7 264.919C1056.37 264.516 1059.63 267.376 1060.55 276.176C1063.63 305.472 1041.26 355.706 1010.32 389.806C1012.26 408.139 1017.43 412.759 1023.96 411.586C1032.24 409.496 1046.91 392.849 1052.85 384.232C1055.89 356.586 1086.29 323.586 1108.51 321.239C1117.53 320.286 1127.94 325.603 1128.42 330.003C1128.64 332.203 1125.96 334.953 1122.15 338.546L1124.83 338.253C1131.65 337.556 1134.03 343.973 1134.69 350.06C1135.79 360.326 1132.75 373.709 1127.17 386.396C1128.2 386.799 1129.15 386.689 1130.14 386.579C1134.76 386.102 1140.34 380.566 1145.1 374.149C1145.18 374.076 1145.29 373.966 1145.4 373.893C1148.51 342.029 1179.28 311.339 1184.59 310.789C1199.74 309.176 1204.17 313.906 1204.69 318.782C1205.97 331.249 1177.85 364.066 1172.16 371.069C1167.8 376.459 1166.59 381.262 1166.92 384.452C1167.25 387.385 1168.79 390.429 1170.26 390.282C1173.92 389.916 1197.02 363.296 1211.25 338.839C1215.21 331.982 1218.29 326.006 1220.53 321.569C1224.41 314.016 1225.4 311.926 1229.33 311.522C1234.2 311.046 1245.79 315.483 1246.16 319.149C1246.52 322.596 1240.55 333.817 1231.05 356.293C1226.91 366.339 1224.71 373.746 1225.44 380.565C1225.77 383.975 1227.05 386.579 1229.73 386.286C1235.08 385.736 1243.48 371.766 1245.13 366.156C1243.55 355.706 1245.64 347.346 1249.09 340.306C1255.36 327.289 1267.72 310.936 1275.53 310.129C1278.42 309.836 1282.16 312.403 1283.12 321.423C1284.66 336.053 1277.98 354.753 1272.63 362.489C1272.96 365.496 1277.47 366.413 1279.78 365.973C1283.52 365.239 1286.49 361.83 1289.68 359.923C1295.14 356.696 1302 356.366 1308.09 358.162C1321.32 362.122 1330.64 374.223 1334.89 386.909L1335.18 386.763C1353.37 440.883 1383.88 534.749 1226.06 631.916C1058.64 734.986 652.78 752.805 491.41 770.259C361.28 784.339 302.137 816.569 279 833.803C274.893 836.846 268.991 833.363 270.127 828.56L296.417 715.919C298.03 709.026 296.82 701.803 293.007 695.68L251.794 629.496C248.751 624.62 250.474 618.387 255.606 615.526C294.216 594.113 334.477 573.103 533.613 577.246C817.523 583.149 1076.06 535.483 1141.69 521.109C1253.97 496.506 1310.95 481.729 1314.58 429.589C1314.61 428.966 1314.65 428.379 1314.69 427.793C1315.38 416.72 1315.64 405.315 1313.73 394.315C1312.74 388.632 1311.39 382.179 1307.43 377.779C1305.41 375.506 1302.62 373.819 1299.62 373.416C1296.13 372.939 1292.58 374.186 1289.64 376.166C1286.6 378.219 1284.47 381.336 1281.5 383.426C1278.53 385.516 1274.94 386.873 1271.35 387.239C1262.29 388.192 1258.37 383.683 1257.63 383.756C1256.39 383.903 1234.64 413.822 1221.44 415.216C1210 416.426 1204.43 403.446 1203.73 396.846C1203.07 390.246 1204.94 384.635 1204.83 383.646C1204.8 383.169 1204.76 382.913 1204.03 382.986C1202.56 383.133 1180.82 415.766 1173.48 416.536C1168.94 417.013 1151.37 412.869 1146.5 389.586C1141.07 398.459 1128.93 405.389 1121.05 406.232C1119.33 406.379 1117.86 406.526 1116.1 406.232C1107.67 417.489 1097.18 425.739 1085.7 426.949C1071.15 428.489 1058.57 416.022 1054.24 399.449C1046.36 410.743 1023 439.232 1010.13 440.589C999.867 441.689 987.034 427.169 984.431 406.855C976.474 418.185 953.154 446.602 940.32 447.959C930.054 449.059 917.221 434.539 914.617 414.263C906.514 426.656 885.247 453.752 859.544 456.466C844.914 458.006 829.221 449.792 826.544 424.162C822.547 429.772 815.947 437.032 807.257 442.459C811.914 486.899 768.17 530.716 756.437 531.963C747.893 532.842 738.58 519.496 736.894 503.399C735.097 486.313 742.797 461.086 751.157 437.253C749.801 435.346 748.627 433.146 747.674 430.726L747.563 430.946C742.833 437.583 727.323 452.066 709.356 469.006C695.386 500.576 667.447 542.266 653.037 543.77C649.114 544.173 645.813 543.293 645.227 537.683C642.66 513.299 668.987 484.59 689.08 466.696C696.963 450.307 702.903 438.83 704.847 433.696C705.433 432.413 704.187 432.046 703.271 432.89C701.363 436.044 673.643 468.089 656.557 469.886C649.663 470.619 638.186 458.922 634.3 443.742C625.977 455.512 603.024 482.682 590.19 484.039C583.114 484.809 573.323 478.686 572.26 468.419C571.637 462.296 573.287 454.742 578.42 444.806C583.479 434.173 589.676 425.118 589.604 424.383C589.53 423.429 589.236 423.209 588.76 423.246C586.339 423.504 577.137 434.614 567.971 448.399C556.567 464.166 550.444 481.106 541.9 481.986C532.294 483.013 526.391 469.043 524.117 456.393C518.361 464.569 507.067 470.839 499.624 471.609C497.901 471.756 496.434 471.903 494.674 471.609C486.241 482.866 475.754 491.116 464.277 492.326C447.667 494.086 433.587 477.549 431.497 457.529C428.454 428.709 462.773 389.073 487.193 386.506C496.213 385.553 506.627 390.87 507.104 395.27C507.323 397.469 504.647 400.219 500.834 403.812L503.51 403.52C510.33 402.823 512.714 409.24 513.374 415.326C514.437 425.593 511.393 438.976 505.82 451.662C506.847 452.065 507.8 451.956 508.79 451.846C513.41 451.369 518.983 445.833 523.75 439.416C524.923 435.309 527.197 432.339 530.13 427.133C537.83 413.493 549.197 395.013 555.063 394.39C562.873 393.583 572.7 393.033 573.287 398.643C573.837 403.996 559.573 420.789 552.13 432.192C550.003 435.639 548.647 439.232 548.867 441.176C549.014 442.386 549.38 443.596 550.59 443.449C551.837 443.339 557.594 434.833 569.144 420.276C585.277 400.073 607.13 377.779 615.674 376.899C619.084 376.533 622.384 381.886 624.474 387.826C625.28 390.979 626.014 395.342 626.087 398.532C626.417 406.159 598.807 427.573 600.75 446.126C601.043 449.059 602.95 450.599 605.627 450.306C609.55 449.902 625.904 438.792 633.384 427.902C633.421 427.829 633.53 427.793 633.604 427.72C639.654 395.233 688.201 361.426 703.931 359.776C710.017 359.153 721.42 364.359 721.971 369.492C722.924 378.512 679.253 399.889 661.727 423.209C657.143 428.856 656.043 434.906 656.63 440.516C656.96 443.705 657.803 444.842 660.26 444.586C674.67 443.083 691.573 420.57 699.677 408.616C711.85 390.796 717.901 380.016 723.254 379.466C725.968 379.173 735.5 387.79 735.903 391.713C736.893 400.99 727.506 417.526 718.743 442.129C730.11 432.339 740.707 422.879 744.851 417.489C744.484 406.783 749.507 400.916 757.023 400.109C757.5 400.073 758.234 399.962 759.004 400.146C764.32 394.389 768.097 390.539 775.577 379.393C784.194 348.886 808.981 291.246 820.714 289.999C825.334 289.486 829.88 297.663 830.797 306.206C833.4 331.103 801.977 377.339 792.113 396.149L784.23 410.56C790.904 415.29 797.21 421.523 801.684 428.709C812.5 422.696 822.144 412.502 825.737 407.846C829.147 382.399 856.647 346.686 886.017 343.605C899.913 342.139 906.294 346.429 907.32 356.183C909.557 377.413 888.693 397.396 854.227 417.049C856.867 425.665 863.027 430.213 870.58 429.406C883.743 428.013 905.377 408.249 913.48 398.496C913.517 398.459 913.554 398.459 913.554 398.459C914.91 379.466 925.251 347.602 941.641 318.782C956.674 293.006 974.091 273.17 982.891 272.253C986.557 271.85 989.821 274.709 990.737 283.509C993.817 312.805 971.487 363.04 940.504 397.14C942.411 415.473 947.617 420.092 954.144 418.919C962.54 416.792 977.537 399.669 983.294 391.162C983.331 391.089 983.367 391.089 983.367 391.089C984.724 372.096 995.063 340.269 1011.45 311.449C1026.52 285.673 1043.9 265.836 1052.7 264.919ZM519.57 642.271L512.971 680.478H512.824L500.101 643.774L488.221 644.69L481.034 682.494H480.888L468.897 646.157L456.211 647.147L475.681 700.388L488.551 699.397L495.334 661.631H495.48L508.08 697.855L520.671 696.904L532.037 641.317L519.57 642.271ZM508.058 697.857L508.094 697.894L508.08 697.855L508.058 697.857ZM596.61 636.378L598.225 657.241L574.867 659.038L573.254 638.175L560.567 639.164L564.747 693.541L577.435 692.551L575.638 669.084L598.994 667.288L600.791 690.754L613.478 689.765L609.298 635.388L596.61 636.378ZM658.95 631.659L641.277 687.723L654.037 686.732L657.631 674.266L679.228 672.616L684.507 684.386L697.671 683.359L671.913 630.673L658.95 631.659ZM709.182 627.76L709.952 637.807L727.259 636.486L730.669 680.816L743.355 679.826L739.945 635.496L757.252 634.177L756.482 624.13L709.182 627.76ZM785.781 621.946L789.961 676.322L833.777 672.949L833.008 662.902L801.878 665.286L800.851 651.939L828.828 649.776L828.095 640.463L800.118 642.626L799.237 630.966L829.708 628.619L828.942 618.647L785.781 621.946ZM893.682 613.604L883.598 652.874H883.451L867.648 615.621L854.631 616.611L877.475 669.558V669.594L891.774 668.494L906.771 612.614L893.682 613.604ZM666.394 644.529L675.193 663.926H675.23L660.271 665.062L666.247 644.529H666.394ZM934.381 610.545L938.562 664.922L982.378 661.548L981.608 651.502L950.478 653.885L949.451 640.538L977.428 638.411L976.694 629.099L948.718 631.225L947.838 619.564L978.308 617.218L977.543 607.247L934.381 610.545ZM1047.62 603C1045.49 602.34 1043.14 602.157 1040.54 602.34L1040.58 602.413L1009.45 604.797L1013.63 659.174L1026.31 658.184L1024.66 636.917L1037.35 635.927C1040.54 635.707 1042.89 636.184 1044.39 637.394C1045.89 638.604 1046.96 640.62 1047.62 643.443C1048.09 645.607 1048.53 647.88 1048.86 650.264C1049.19 652.647 1049.78 654.664 1050.62 656.351L1063.31 655.36C1062.65 654.664 1062.14 653.747 1061.77 652.684C1061.4 651.62 1061.07 650.483 1060.85 649.273C1060.63 648.063 1060.45 646.89 1060.3 645.717C1060.16 644.544 1060.01 643.517 1059.9 642.674C1059.68 641.317 1059.39 639.96 1058.98 638.604C1058.58 637.247 1057.99 636.037 1057.26 634.937C1056.49 633.837 1055.61 632.92 1054.51 632.15C1053.41 631.38 1052.09 630.867 1050.48 630.573V630.427C1053.63 628.96 1055.83 627.017 1057.08 624.561C1058.32 622.104 1058.84 619.28 1058.58 616.09C1058.43 614 1057.88 612.057 1056.97 610.334C1056.01 608.574 1054.77 607.07 1053.19 605.823C1051.61 604.577 1049.74 603.623 1047.62 603ZM671.913 630.673L671.967 630.669L671.894 630.633L671.913 630.673ZM1036.73 611.983C1039.62 611.763 1041.86 612.203 1043.4 613.267C1044.98 614.33 1045.86 616.2 1046.04 618.84C1046.26 621.59 1045.67 623.644 1044.32 624.964C1042.96 626.32 1040.8 627.091 1037.9 627.311L1024 628.373L1022.83 613.047L1036.73 611.983ZM828.942 618.647L828.975 618.646L828.938 618.572L828.942 618.647ZM977.543 607.247L977.574 607.245L977.538 607.172L977.543 607.247ZM767.363 448.692C763.44 460.719 761.057 473.039 762.561 487.449C763.441 495.992 765.64 502.922 768.097 502.666C777.373 501.676 785.477 466.036 782.104 450.343C777.19 450.636 771.947 450.196 767.363 448.692ZM487.23 415.473C478.174 423.099 467.797 432.339 460.757 442.936C455.624 450.379 453.424 457.53 454.084 463.873C454.561 468.236 456.944 469.959 461.856 469.702C468.933 468.969 475.424 465.083 480.777 459.583C480.301 457.64 479.824 455.219 479.53 452.543V452.579C478.21 437.656 481.51 424.456 487.23 415.473ZM1108.66 350.133C1099.6 357.759 1089.22 366.999 1082.18 377.596C1077.05 385.039 1074.85 392.189 1075.51 398.532C1075.99 402.895 1078.37 404.619 1083.28 404.362C1090.36 403.629 1096.85 399.742 1102.2 394.242C1101.73 392.299 1101.25 389.879 1100.96 387.202V387.239C1099.64 372.316 1102.94 359.116 1108.66 350.133ZM878.5 362.709C868.49 363.773 856.501 385.773 853.567 402.603C871.424 389.366 882.24 372.683 881.434 364.873C881.287 363.406 880.223 362.526 878.5 362.709ZM968.04 313.1C964.629 313.468 945.747 342.837 941.164 376.643C963.383 348.41 969.69 319.334 969.214 314.713C969.104 313.723 968.517 313.063 968.04 313.1ZM1037.82 305.766C1034.41 306.132 1015.52 335.503 1010.94 369.31C1033.16 341.076 1039.47 311.999 1038.99 307.379C1038.92 306.389 1038.33 305.729 1037.85 305.766H1037.82Z" fill="#E8E8E8"/>
</g>
<defs>
<clipPath id="clip0_5320_2884">
<rect width="1100" height="572" fill="white" transform="translate(250 264)"/>
</clipPath>
</defs>
</svg>
