<svg width="1799" height="991" viewBox="0 0 1799 991" fill="none" xmlns="http://www.w3.org/2000/svg">
<rect width="1799" height="991" fill="white"/>
<rect width="1015" height="496" fill="#4A4847"/>
<path d="M30 58.8V31.6H36.4V58.8H30ZM40.44 53.6C41.9867 53.6 43.3067 53.2667 44.4 52.6C45.52 51.9333 46.3733 50.9867 46.96 49.76C47.5467 48.5067 47.84 47 47.84 45.24C47.84 43.4533 47.5467 41.9333 46.96 40.68C46.3733 39.4267 45.52 38.4667 44.4 37.8C43.3067 37.1333 41.9867 36.8 40.44 36.8H34.68V31.6H40.44C43.32 31.6 45.8 32.16 47.88 33.28C49.96 34.3733 51.56 35.9333 52.68 37.96C53.8267 39.9867 54.4 42.4133 54.4 45.24C54.4 48.04 53.8267 50.4533 52.68 52.48C51.56 54.5067 49.96 56.0667 47.88 57.16C45.8 58.2533 43.32 58.8 40.44 58.8H34.68V53.6H40.44Z" fill="#EFEFEF"/>
<path d="M64.0384 44.4H57.9184C58.1318 42.7733 58.6651 41.3867 59.5184 40.24C60.3984 39.0667 61.5451 38.1733 62.9584 37.56C64.3718 36.92 65.9851 36.6 67.7984 36.6C69.8518 36.6 71.5718 36.9733 72.9584 37.72C74.3451 38.4667 75.3851 39.48 76.0784 40.76C76.7984 42.04 77.1584 43.52 77.1584 45.2V53.44C77.1584 54.8533 77.2118 55.96 77.3184 56.76C77.4518 57.56 77.5984 58.24 77.7584 58.8H71.4384C71.2784 58.24 71.1718 57.56 71.1184 56.76C71.0651 55.96 71.0384 55.1067 71.0384 54.2V45.16C71.0384 43.96 70.7451 43.0667 70.1584 42.48C69.5718 41.8667 68.6918 41.56 67.5184 41.56C66.4784 41.56 65.6651 41.8267 65.0784 42.36C64.5184 42.8667 64.1718 43.5467 64.0384 44.4ZM71.7984 45.64V49.2C70.0918 49.2 68.6784 49.2933 67.5584 49.48C66.4651 49.64 65.5984 49.8933 64.9584 50.24C64.3451 50.56 63.9051 50.9467 63.6384 51.4C63.3984 51.8267 63.2784 52.3067 63.2784 52.84C63.2784 53.56 63.5318 54.1333 64.0384 54.56C64.5718 54.9867 65.2784 55.2 66.1584 55.2C67.0651 55.2 67.8784 54.9867 68.5984 54.56C69.3451 54.1067 69.9318 53.48 70.3584 52.68C70.8118 51.88 71.0384 51 71.0384 50.04H72.9984C72.8918 51.7467 72.5718 53.2 72.0384 54.4C71.5318 55.5733 70.8651 56.5333 70.0384 57.28C69.2384 58.0267 68.3318 58.5733 67.3184 58.92C66.3318 59.2667 65.3184 59.44 64.2784 59.44C62.9184 59.44 61.6918 59.2133 60.5984 58.76C59.5318 58.3067 58.6918 57.6133 58.0784 56.68C57.4651 55.7467 57.1584 54.6 57.1584 53.24C57.1584 51.7733 57.5718 50.4933 58.3984 49.4C59.2518 48.3067 60.5318 47.4667 62.2384 46.88C63.7318 46.3733 65.2384 46.04 66.7584 45.88C68.2784 45.72 69.9584 45.64 71.7984 45.64Z" fill="#EFEFEF"/>
<path d="M81.515 58.8V37.28H87.635V58.8H81.515ZM87.635 47.68H86.035C86.0883 45.04 86.4617 42.9067 87.155 41.28C87.8483 39.6533 88.7283 38.4667 89.795 37.72C90.8883 36.9733 92.0483 36.6 93.275 36.6C93.7017 36.6 94.1017 36.6533 94.475 36.76C94.875 36.8667 95.1817 37.04 95.395 37.28V42.44C95.0217 42.36 94.6483 42.3067 94.275 42.28C93.9017 42.2267 93.4617 42.2 92.955 42.2C92.0483 42.2 91.2483 42.3333 90.555 42.6C89.8883 42.84 89.3417 43.2 88.915 43.68C88.4883 44.16 88.1683 44.7333 87.955 45.4C87.7417 46.0667 87.635 46.8267 87.635 47.68Z" fill="#EFEFEF"/>
<path d="M97.8431 58.8V30H103.963V58.8H97.8431ZM102.923 47.32L110.883 37.28H117.883L109.403 47.32H102.923ZM102.923 47.32L109.603 46.36L118.483 58.8H111.123L102.923 47.32Z" fill="#EFEFEF"/>
<path d="M152.991 40.32H146.271C145.898 38.9867 145.231 37.9733 144.271 37.28C143.338 36.56 142.204 36.2 140.871 36.2C139.511 36.2 138.338 36.5733 137.351 37.32C136.391 38.04 135.658 39.08 135.151 40.44C134.644 41.7733 134.391 43.3733 134.391 45.24C134.391 47.1067 134.658 48.7067 135.191 50.04C135.724 51.3733 136.484 52.4 137.471 53.12C138.484 53.84 139.684 54.2 141.071 54.2C142.058 54.2 142.964 54.0133 143.791 53.64C144.618 53.2667 145.298 52.6933 145.831 51.92C146.364 51.1467 146.711 50.1467 146.871 48.92H149.871C149.871 51.2933 149.458 53.2667 148.631 54.84C147.831 56.3867 146.724 57.5467 145.311 58.32C143.898 59.0667 142.284 59.44 140.471 59.44C137.938 59.44 135.724 58.8667 133.831 57.72C131.938 56.5733 130.458 54.9467 129.391 52.84C128.351 50.7067 127.831 48.1733 127.831 45.24C127.831 42.3067 128.364 39.7733 129.431 37.64C130.498 35.48 132.018 33.8267 133.991 32.68C135.964 31.5333 138.311 30.96 141.031 30.96C142.978 30.96 144.778 31.3067 146.431 32C148.111 32.6933 149.524 33.7333 150.671 35.12C151.844 36.5067 152.618 38.24 152.991 40.32ZM152.991 58.8H148.631L146.871 48.92H141.671V44.08H152.991V58.8Z" fill="#EFEFEF"/>
<path d="M157.023 58.8V37.28H163.143V58.8H157.023ZM163.143 47.68H161.543C161.596 45.04 161.969 42.9067 162.663 41.28C163.356 39.6533 164.236 38.4667 165.303 37.72C166.396 36.9733 167.556 36.6 168.783 36.6C169.209 36.6 169.609 36.6533 169.983 36.76C170.383 36.8667 170.689 37.04 170.903 37.28V42.44C170.529 42.36 170.156 42.3067 169.783 42.28C169.409 42.2267 168.969 42.2 168.463 42.2C167.556 42.2 166.756 42.3333 166.063 42.6C165.396 42.84 164.849 43.2 164.423 43.68C163.996 44.16 163.676 44.7333 163.463 45.4C163.249 46.0667 163.143 46.8267 163.143 47.68Z" fill="#EFEFEF"/>
<path d="M190.4 45.76L186.92 48C186.92 45.8933 186.547 44.28 185.8 43.16C185.054 42.04 183.987 41.48 182.6 41.48C181.187 41.48 180.107 42.04 179.36 43.16C178.614 44.28 178.24 45.9067 178.24 48.04C178.24 50.1467 178.627 51.76 179.4 52.88C180.2 54 181.347 54.56 182.84 54.56C183.854 54.56 184.694 54.3333 185.36 53.88C186.027 53.4267 186.52 52.7067 186.84 51.72H193.24C192.68 54.2 191.467 56.1067 189.6 57.44C187.734 58.7733 185.48 59.44 182.84 59.44C180.6 59.44 178.667 58.9867 177.04 58.08C175.44 57.1467 174.2 55.8267 173.32 54.12C172.467 52.4133 172.04 50.3867 172.04 48.04C172.04 45.5867 172.467 43.52 173.32 41.84C174.2 40.1333 175.427 38.84 177 37.96C178.6 37.0533 180.467 36.6 182.6 36.6C184.734 36.6 186.587 37.0533 188.16 37.96C189.734 38.8667 190.947 40.1733 191.8 41.88C192.654 43.56 193.08 45.5733 193.08 47.92V49.28H174.52V45.76H190.4Z" fill="#EFEFEF"/>
<path d="M198.263 68.28C197.65 68.28 197.063 68.2133 196.503 68.08C195.943 67.9467 195.53 67.8133 195.263 67.68V63.04H196.503C197.063 63.04 197.556 62.9867 197.983 62.88C198.41 62.8 198.81 62.6267 199.183 62.36C199.583 62.0933 199.956 61.68 200.303 61.12C200.65 60.56 200.996 59.8267 201.343 58.92L201.783 57.84L193.463 37.28H199.983L204.103 48.72L205.183 53.04H204.623L205.783 48.72L209.703 37.28H215.943L206.823 60.48C206.263 61.9467 205.676 63.1733 205.063 64.16C204.476 65.1733 203.85 65.9733 203.183 66.56C202.543 67.1733 201.81 67.6133 200.983 67.88C200.183 68.1467 199.276 68.28 198.263 68.28Z" fill="#EFEFEF"/>
<path d="M927.775 39.52L929.735 30H930.897L928.937 39.52H927.775ZM931.415 39.52L933.375 30H934.523L932.563 39.52H931.415ZM927.915 33.262V32.282H935.321V33.262H927.915ZM926.977 37.252V36.272H934.383V37.252H926.977Z" fill="#EFEFEF"/>
<path d="M942.31 39.52H941.05V32.184L937.83 36.426H943.626V37.406H936.668V36.286L941.176 30.518H942.31V39.52Z" fill="#EFEFEF"/>
<path d="M946.372 37.238V36.202H951.286V37.238H946.372ZM952.028 39.52L949.13 32.086L948.822 31.162H948.878L948.57 32.086L945.672 39.52H944.398L948.136 30H949.62L953.372 39.52H952.028Z" fill="#EFEFEF"/>
<path d="M959.905 39.52H958.645V32.184L955.425 36.426H961.221V37.406H954.263V36.286L958.771 30.518H959.905V39.52Z" fill="#EFEFEF"/>
<path d="M965.816 39.688C965.144 39.688 964.556 39.5807 964.052 39.366C963.557 39.1513 963.17 38.848 962.89 38.456C962.61 38.064 962.47 37.5973 962.47 37.056C962.47 36.5053 962.61 36.0387 962.89 35.656C963.179 35.2733 963.576 34.984 964.08 34.788C964.584 34.5827 965.162 34.48 965.816 34.48C966.488 34.48 967.071 34.5873 967.566 34.802C968.07 35.0167 968.462 35.3153 968.742 35.698C969.022 36.0807 969.162 36.5287 969.162 37.042C969.162 37.5927 969.022 38.0687 968.742 38.47C968.462 38.862 968.07 39.1653 967.566 39.38C967.071 39.5853 966.488 39.688 965.816 39.688ZM965.816 38.652C966.45 38.652 966.959 38.5073 967.342 38.218C967.734 37.9287 967.93 37.518 967.93 36.986C967.93 36.6313 967.841 36.328 967.664 36.076C967.486 35.824 967.239 35.6327 966.922 35.502C966.604 35.3713 966.236 35.306 965.816 35.306C965.181 35.306 964.668 35.4507 964.276 35.74C963.893 36.0293 963.702 36.4493 963.702 37C963.702 37.5133 963.893 37.9193 964.276 38.218C964.668 38.5073 965.181 38.652 965.816 38.652ZM965.816 30.35C966.422 30.35 966.95 30.448 967.398 30.644C967.855 30.84 968.21 31.1247 968.462 31.498C968.723 31.862 968.854 32.3053 968.854 32.828C968.854 33.3133 968.723 33.738 968.462 34.102C968.21 34.4567 967.855 34.732 967.398 34.928C966.95 35.124 966.422 35.222 965.816 35.222C965.218 35.222 964.691 35.1287 964.234 34.942C963.786 34.746 963.431 34.4707 963.17 34.116C962.918 33.7613 962.792 33.332 962.792 32.828C962.792 32.324 962.918 31.89 963.17 31.526C963.431 31.1527 963.786 30.8633 964.234 30.658C964.691 30.4527 965.218 30.35 965.816 30.35ZM965.816 31.386C965.274 31.386 964.836 31.5167 964.5 31.778C964.164 32.0393 963.996 32.4033 963.996 32.87C963.996 33.3553 964.159 33.7287 964.486 33.99C964.822 34.2513 965.265 34.382 965.816 34.382C966.357 34.382 966.796 34.2513 967.132 33.99C967.477 33.7193 967.65 33.3507 967.65 32.884C967.65 32.3987 967.482 32.03 967.146 31.778C966.81 31.5167 966.366 31.386 965.816 31.386Z" fill="#EFEFEF"/>
<path d="M976.038 39.52H974.778V32.184L971.558 36.426H977.354V37.406H970.396V36.286L974.904 30.518H976.038V39.52Z" fill="#EFEFEF"/>
<path d="M981.599 39.52H980.311C980.553 38.0267 980.959 36.6127 981.529 35.278C982.098 33.9433 982.812 32.6833 983.671 31.498H978.645V30.518H985.001V31.302C984.058 32.5993 983.302 33.934 982.733 35.306C982.163 36.678 981.785 38.0827 981.599 39.52Z" fill="#EFEFEF"/>
<rect width="1015" height="495" transform="translate(0 496)" fill="#F99A0B"/>
<path d="M43.64 554.48C40.8133 554.48 38.3867 553.907 36.36 552.76C34.3333 551.613 32.76 549.987 31.64 547.88C30.5467 545.747 30 543.213 30 540.28C30 537.347 30.5467 534.813 31.64 532.68C32.76 530.52 34.3333 528.867 36.36 527.72C38.3867 526.573 40.8133 526 43.64 526C46.44 526 48.8533 526.573 50.88 527.72C52.9067 528.867 54.4667 530.52 55.56 532.68C56.68 534.813 57.24 537.347 57.24 540.28C57.24 543.213 56.68 545.747 55.56 547.88C54.4667 549.987 52.9067 551.613 50.88 552.76C48.8533 553.907 46.44 554.48 43.64 554.48ZM43.64 549.24C45.1067 549.24 46.36 548.88 47.4 548.16C48.4667 547.44 49.28 546.413 49.84 545.08C50.4 543.72 50.68 542.12 50.68 540.28C50.68 538.413 50.4 536.813 49.84 535.48C49.28 534.12 48.4667 533.08 47.4 532.36C46.36 531.613 45.1067 531.24 43.64 531.24C42.1467 531.24 40.8667 531.613 39.8 532.36C38.76 533.08 37.96 534.12 37.4 535.48C36.84 536.813 36.56 538.413 36.56 540.28C36.56 542.12 36.84 543.72 37.4 545.08C37.96 546.413 38.76 547.44 39.8 548.16C40.8667 548.88 42.1467 549.24 43.64 549.24Z" fill="#4A4847"/>
<path d="M60.8716 553.84V532.32H66.9916V553.84H60.8716ZM66.9916 542.72H65.3916C65.4449 540.08 65.8182 537.947 66.5116 536.32C67.2049 534.693 68.0849 533.507 69.1516 532.76C70.2449 532.013 71.4049 531.64 72.6316 531.64C73.0582 531.64 73.4582 531.693 73.8316 531.8C74.2316 531.907 74.5382 532.08 74.7516 532.32V537.48C74.3782 537.4 74.0049 537.347 73.6316 537.32C73.2582 537.267 72.8182 537.24 72.3116 537.24C71.4049 537.24 70.6049 537.373 69.9116 537.64C69.2449 537.88 68.6982 538.24 68.2716 538.72C67.8449 539.2 67.5249 539.773 67.3116 540.44C67.0982 541.107 66.9916 541.867 66.9916 542.72Z" fill="#4A4847"/>
<path d="M83.0434 539.44H76.9234C77.1368 537.813 77.6701 536.427 78.5234 535.28C79.4034 534.107 80.5501 533.213 81.9634 532.6C83.3768 531.96 84.9901 531.64 86.8034 531.64C88.8568 531.64 90.5768 532.013 91.9634 532.76C93.3501 533.507 94.3901 534.52 95.0834 535.8C95.8034 537.08 96.1634 538.56 96.1634 540.24V548.48C96.1634 549.893 96.2168 551 96.3234 551.8C96.4568 552.6 96.6034 553.28 96.7634 553.84H90.4434C90.2834 553.28 90.1768 552.6 90.1234 551.8C90.0701 551 90.0434 550.147 90.0434 549.24V540.2C90.0434 539 89.7501 538.107 89.1634 537.52C88.5768 536.907 87.6968 536.6 86.5234 536.6C85.4834 536.6 84.6701 536.867 84.0834 537.4C83.5234 537.907 83.1768 538.587 83.0434 539.44ZM90.8034 540.68V544.24C89.0968 544.24 87.6834 544.333 86.5634 544.52C85.4701 544.68 84.6034 544.933 83.9634 545.28C83.3501 545.6 82.9101 545.987 82.6434 546.44C82.4034 546.867 82.2834 547.347 82.2834 547.88C82.2834 548.6 82.5368 549.173 83.0434 549.6C83.5768 550.027 84.2834 550.24 85.1634 550.24C86.0701 550.24 86.8834 550.027 87.6034 549.6C88.3501 549.147 88.9368 548.52 89.3634 547.72C89.8168 546.92 90.0434 546.04 90.0434 545.08H92.0034C91.8968 546.787 91.5768 548.24 91.0434 549.44C90.5368 550.613 89.8701 551.573 89.0434 552.32C88.2434 553.067 87.3368 553.613 86.3234 553.96C85.3368 554.307 84.3234 554.48 83.2834 554.48C81.9234 554.48 80.6968 554.253 79.6034 553.8C78.5368 553.347 77.6968 552.653 77.0834 551.72C76.4701 550.787 76.1634 549.64 76.1634 548.28C76.1634 546.813 76.5768 545.533 77.4034 544.44C78.2568 543.347 79.5368 542.507 81.2434 541.92C82.7368 541.413 84.2434 541.08 85.7634 540.92C87.2834 540.76 88.9634 540.68 90.8034 540.68Z" fill="#4A4847"/>
<path d="M100.52 553.84V532.32H106.64V553.84H100.52ZM106.64 541.48H105C105.133 539.213 105.547 537.36 106.24 535.92C106.933 534.48 107.84 533.413 108.96 532.72C110.107 532 111.413 531.64 112.88 531.64C114.267 531.64 115.493 531.92 116.56 532.48C117.653 533.04 118.507 533.907 119.12 535.08C119.76 536.227 120.08 537.693 120.08 539.48V553.84H113.96V540.72C113.96 539.813 113.84 539.053 113.6 538.44C113.36 537.827 112.987 537.373 112.48 537.08C112 536.76 111.387 536.6 110.64 536.6C110.027 536.6 109.467 536.72 108.96 536.96C108.48 537.2 108.067 537.547 107.72 538C107.373 538.427 107.107 538.947 106.92 539.56C106.733 540.147 106.64 540.787 106.64 541.48Z" fill="#4A4847"/>
<path d="M132.151 553.88C130.364 553.88 128.804 553.44 127.471 552.56C126.138 551.653 125.111 550.373 124.391 548.72C123.671 547.04 123.311 545.067 123.311 542.8C123.311 539.227 124.111 536.48 125.711 534.56C127.338 532.613 129.484 531.64 132.151 531.64C134.658 531.64 136.564 532.6 137.871 534.52C139.204 536.44 139.871 539.187 139.871 542.76C139.871 546.36 139.164 549.12 137.751 551.04C136.364 552.933 134.498 553.88 132.151 553.88ZM133.631 548.92C134.991 548.92 136.018 548.4 136.711 547.36C137.404 546.293 137.751 544.76 137.751 542.76C137.751 540.787 137.391 539.267 136.671 538.2C135.978 537.133 134.964 536.6 133.631 536.6C132.324 536.6 131.324 537.133 130.631 538.2C129.938 539.24 129.591 540.773 129.591 542.8C129.591 544.747 129.938 546.253 130.631 547.32C131.324 548.387 132.324 548.92 133.631 548.92ZM143.871 554.56C143.871 556.453 143.444 558.053 142.591 559.36C141.764 560.667 140.618 561.653 139.151 562.32C137.684 562.987 136.018 563.32 134.151 563.32C131.404 563.32 129.111 562.693 127.271 561.44C125.431 560.213 124.324 558.293 123.951 555.68H130.071C130.204 556.64 130.631 557.373 131.351 557.88C132.098 558.387 133.004 558.64 134.071 558.64C135.164 558.64 136.044 558.347 136.711 557.76C137.404 557.173 137.751 556.133 137.751 554.64V532.32H143.871V554.56Z" fill="#4A4847"/>
<path d="M165.46 540.8L161.98 543.04C161.98 540.933 161.607 539.32 160.86 538.2C160.113 537.08 159.047 536.52 157.66 536.52C156.247 536.52 155.167 537.08 154.42 538.2C153.673 539.32 153.3 540.947 153.3 543.08C153.3 545.187 153.687 546.8 154.46 547.92C155.26 549.04 156.407 549.6 157.9 549.6C158.913 549.6 159.753 549.373 160.42 548.92C161.087 548.467 161.58 547.747 161.9 546.76H168.3C167.74 549.24 166.527 551.147 164.66 552.48C162.793 553.813 160.54 554.48 157.9 554.48C155.66 554.48 153.727 554.027 152.1 553.12C150.5 552.187 149.26 550.867 148.38 549.16C147.527 547.453 147.1 545.427 147.1 543.08C147.1 540.627 147.527 538.56 148.38 536.88C149.26 535.173 150.487 533.88 152.06 533C153.66 532.093 155.527 531.64 157.66 531.64C159.793 531.64 161.647 532.093 163.22 533C164.793 533.907 166.007 535.213 166.86 536.92C167.713 538.6 168.14 540.613 168.14 542.96V544.32H149.58V540.8H165.46Z" fill="#4A4847"/>
<path d="M926.778 535.52L928.738 526H929.9L927.94 535.52H926.778ZM930.418 535.52L932.378 526H933.526L931.566 535.52H930.418ZM926.918 529.262V528.282H934.324V529.262H926.918ZM925.98 533.252V532.272H933.386V533.252H925.98Z" fill="#4A4847"/>
<path d="M936.148 535.52V526H937.436V535.52H936.148ZM937.072 527.05V526H942.602V527.05H937.072ZM937.072 531.362V530.312H942.084V531.362H937.072Z" fill="#4A4847"/>
<path d="M947.043 527.386L947.001 526.35C947.729 526.35 948.359 526.513 948.891 526.84C949.423 527.167 949.829 527.675 950.109 528.366C950.398 529.047 950.543 529.92 950.543 530.984C950.543 532.001 950.398 532.86 950.109 533.56C949.819 534.26 949.409 534.792 948.877 535.156C948.345 535.511 947.71 535.688 946.973 535.688C946.431 535.688 945.937 535.59 945.489 535.394C945.05 535.189 944.677 534.89 944.369 534.498C944.07 534.106 943.851 533.625 943.711 533.056H944.971C945.12 533.579 945.372 533.971 945.727 534.232C946.091 534.493 946.52 534.624 947.015 534.624C947.78 534.624 948.363 534.325 948.765 533.728C949.166 533.131 949.367 532.258 949.367 531.11C949.367 530.223 949.283 529.509 949.115 528.968C948.956 528.417 948.704 528.016 948.359 527.764C948.023 527.512 947.584 527.386 947.043 527.386ZM947.001 526.35C947.551 526.35 948.037 526.476 948.457 526.728C948.877 526.971 949.203 527.321 949.437 527.778C949.679 528.226 949.801 528.758 949.801 529.374C949.801 530.009 949.675 530.559 949.423 531.026C949.18 531.493 948.844 531.852 948.415 532.104C947.985 532.356 947.5 532.482 946.959 532.482C945.997 532.482 945.218 532.211 944.621 531.67C944.033 531.129 943.739 530.363 943.739 529.374C943.739 528.739 943.874 528.198 944.145 527.75C944.425 527.293 944.812 526.947 945.307 526.714C945.801 526.471 946.366 526.35 947.001 526.35ZM947.043 527.414C946.427 527.414 945.932 527.587 945.559 527.932C945.185 528.268 944.999 528.749 944.999 529.374C944.999 530.018 945.185 530.522 945.559 530.886C945.932 531.241 946.427 531.418 947.043 531.418C947.649 531.418 948.139 531.241 948.513 530.886C948.886 530.531 949.073 530.027 949.073 529.374C949.073 528.758 948.886 528.277 948.513 527.932C948.139 527.587 947.649 527.414 947.043 527.414Z" fill="#4A4847"/>
<path d="M955.109 527.386L955.067 526.35C955.795 526.35 956.425 526.513 956.957 526.84C957.489 527.167 957.895 527.675 958.175 528.366C958.464 529.047 958.609 529.92 958.609 530.984C958.609 532.001 958.464 532.86 958.175 533.56C957.886 534.26 957.475 534.792 956.943 535.156C956.411 535.511 955.776 535.688 955.039 535.688C954.498 535.688 954.003 535.59 953.555 535.394C953.116 535.189 952.743 534.89 952.435 534.498C952.136 534.106 951.917 533.625 951.777 533.056H953.037C953.186 533.579 953.438 533.971 953.793 534.232C954.157 534.493 954.586 534.624 955.081 534.624C955.846 534.624 956.43 534.325 956.831 533.728C957.232 533.131 957.433 532.258 957.433 531.11C957.433 530.223 957.349 529.509 957.181 528.968C957.022 528.417 956.77 528.016 956.425 527.764C956.089 527.512 955.65 527.386 955.109 527.386ZM955.067 526.35C955.618 526.35 956.103 526.476 956.523 526.728C956.943 526.971 957.27 527.321 957.503 527.778C957.746 528.226 957.867 528.758 957.867 529.374C957.867 530.009 957.741 530.559 957.489 531.026C957.246 531.493 956.91 531.852 956.481 532.104C956.052 532.356 955.566 532.482 955.025 532.482C954.064 532.482 953.284 532.211 952.687 531.67C952.099 531.129 951.805 530.363 951.805 529.374C951.805 528.739 951.94 528.198 952.211 527.75C952.491 527.293 952.878 526.947 953.373 526.714C953.868 526.471 954.432 526.35 955.067 526.35ZM955.109 527.414C954.493 527.414 953.998 527.587 953.625 527.932C953.252 528.268 953.065 528.749 953.065 529.374C953.065 530.018 953.252 530.522 953.625 530.886C953.998 531.241 954.493 531.418 955.109 531.418C955.716 531.418 956.206 531.241 956.579 530.886C956.952 530.531 957.139 530.027 957.139 529.374C957.139 528.758 956.952 528.277 956.579 527.932C956.206 527.587 955.716 527.414 955.109 527.414Z" fill="#4A4847"/>
<path d="M961.481 533.238V532.202H966.395V533.238H961.481ZM967.137 535.52L964.239 528.086L963.931 527.162H963.987L963.679 528.086L960.781 535.52H959.507L963.245 526H964.729L968.481 535.52H967.137Z" fill="#4A4847"/>
<path d="M972.789 535.688C971.678 535.688 970.815 535.277 970.199 534.456C969.583 533.635 969.275 532.491 969.275 531.026C969.275 529.523 969.583 528.371 970.199 527.568C970.824 526.756 971.687 526.35 972.789 526.35C973.899 526.35 974.758 526.761 975.365 527.582C975.981 528.403 976.289 529.551 976.289 531.026C976.289 532.529 975.976 533.681 975.351 534.484C974.735 535.287 973.881 535.688 972.789 535.688ZM972.789 534.624C973.507 534.624 974.058 534.316 974.441 533.7C974.833 533.075 975.029 532.183 975.029 531.026C975.029 529.878 974.833 528.991 974.441 528.366C974.058 527.731 973.507 527.414 972.789 527.414C972.061 527.414 971.501 527.727 971.109 528.352C970.726 528.968 970.535 529.859 970.535 531.026C970.535 532.155 970.731 533.037 971.123 533.672C971.515 534.307 972.07 534.624 972.789 534.624Z" fill="#4A4847"/>
<path d="M977.915 535.52V526H979.203V535.52H977.915ZM981.737 535.52H978.839V534.484H981.709C982.316 534.484 982.796 534.335 983.151 534.036C983.506 533.728 983.683 533.322 983.683 532.818C983.683 532.314 983.487 531.913 983.095 531.614C982.712 531.315 982.185 531.166 981.513 531.166H978.839V530.13H981.205C981.821 530.13 982.297 529.99 982.633 529.71C982.978 529.43 983.151 529.061 983.151 528.604C983.151 528.119 982.978 527.736 982.633 527.456C982.297 527.176 981.83 527.036 981.233 527.036H978.839V526H981.261C982.241 526 983.02 526.229 983.599 526.686C984.187 527.143 984.481 527.759 984.481 528.534C984.481 529.094 984.304 529.57 983.949 529.962C983.594 530.345 983.081 530.587 982.409 530.69V530.396C983.249 530.48 983.888 530.746 984.327 531.194C984.775 531.633 984.999 532.183 984.999 532.846C984.999 533.695 984.71 534.353 984.131 534.82C983.552 535.287 982.754 535.52 981.737 535.52Z" fill="#4A4847"/>
<rect width="784" height="330" transform="translate(1015)" fill="#ACD8AC"/>
<path d="M1070.16 39.36H1063.44C1063.07 38.0267 1062.4 37.0133 1061.44 36.32C1060.51 35.6 1059.37 35.24 1058.04 35.24C1056.68 35.24 1055.51 35.6133 1054.52 36.36C1053.56 37.08 1052.83 38.12 1052.32 39.48C1051.81 40.8133 1051.56 42.4133 1051.56 44.28C1051.56 46.1467 1051.83 47.7467 1052.36 49.08C1052.89 50.4133 1053.65 51.44 1054.64 52.16C1055.65 52.88 1056.85 53.24 1058.24 53.24C1059.23 53.24 1060.13 53.0533 1060.96 52.68C1061.79 52.3067 1062.47 51.7333 1063 50.96C1063.53 50.1867 1063.88 49.1867 1064.04 47.96H1067.04C1067.04 50.3333 1066.63 52.3067 1065.8 53.88C1065 55.4267 1063.89 56.5867 1062.48 57.36C1061.07 58.1067 1059.45 58.48 1057.64 58.48C1055.11 58.48 1052.89 57.9067 1051 56.76C1049.11 55.6133 1047.63 53.9867 1046.56 51.88C1045.52 49.7467 1045 47.2133 1045 44.28C1045 41.3467 1045.53 38.8133 1046.6 36.68C1047.67 34.52 1049.19 32.8667 1051.16 31.72C1053.13 30.5733 1055.48 30 1058.2 30C1060.15 30 1061.95 30.3467 1063.6 31.04C1065.28 31.7333 1066.69 32.7733 1067.84 34.16C1069.01 35.5467 1069.79 37.28 1070.16 39.36ZM1070.16 57.84H1065.8L1064.04 47.96H1058.84V43.12H1070.16V57.84Z" fill="#4A4847"/>
<path d="M1074.19 57.84V36.32H1080.31V57.84H1074.19ZM1080.31 46.72H1078.71C1078.77 44.08 1079.14 41.9467 1079.83 40.32C1080.53 38.6933 1081.41 37.5067 1082.47 36.76C1083.57 36.0133 1084.73 35.64 1085.95 35.64C1086.38 35.64 1086.78 35.6933 1087.15 35.8C1087.55 35.9067 1087.86 36.08 1088.07 36.32V41.48C1087.7 41.4 1087.33 41.3467 1086.95 41.32C1086.58 41.2667 1086.14 41.24 1085.63 41.24C1084.73 41.24 1083.93 41.3733 1083.23 41.64C1082.57 41.88 1082.02 42.24 1081.59 42.72C1081.17 43.2 1080.85 43.7733 1080.63 44.44C1080.42 45.1067 1080.31 45.8667 1080.31 46.72Z" fill="#4A4847"/>
<path d="M1107.57 44.8L1104.09 47.04C1104.09 44.9333 1103.72 43.32 1102.97 42.2C1102.22 41.08 1101.16 40.52 1099.77 40.52C1098.36 40.52 1097.28 41.08 1096.53 42.2C1095.78 43.32 1095.41 44.9467 1095.41 47.08C1095.41 49.1867 1095.8 50.8 1096.57 51.92C1097.37 53.04 1098.52 53.6 1100.01 53.6C1101.02 53.6 1101.86 53.3733 1102.53 52.92C1103.2 52.4667 1103.69 51.7467 1104.01 50.76H1110.41C1109.85 53.24 1108.64 55.1467 1106.77 56.48C1104.9 57.8133 1102.65 58.48 1100.01 58.48C1097.77 58.48 1095.84 58.0267 1094.21 57.12C1092.61 56.1867 1091.37 54.8667 1090.49 53.16C1089.64 51.4533 1089.21 49.4267 1089.21 47.08C1089.21 44.6267 1089.64 42.56 1090.49 40.88C1091.37 39.1733 1092.6 37.88 1094.17 37C1095.77 36.0933 1097.64 35.64 1099.77 35.64C1101.9 35.64 1103.76 36.0933 1105.33 37C1106.9 37.9067 1108.12 39.2133 1108.97 40.92C1109.82 42.6 1110.25 44.6133 1110.25 46.96V48.32H1091.69V44.8H1107.57Z" fill="#4A4847"/>
<path d="M1131.05 44.8L1127.57 47.04C1127.57 44.9333 1127.19 43.32 1126.45 42.2C1125.7 41.08 1124.63 40.52 1123.25 40.52C1121.83 40.52 1120.75 41.08 1120.01 42.2C1119.26 43.32 1118.89 44.9467 1118.89 47.08C1118.89 49.1867 1119.27 50.8 1120.05 51.92C1120.85 53.04 1121.99 53.6 1123.49 53.6C1124.5 53.6 1125.34 53.3733 1126.01 52.92C1126.67 52.4667 1127.17 51.7467 1127.49 50.76H1133.89C1133.33 53.24 1132.11 55.1467 1130.25 56.48C1128.38 57.8133 1126.13 58.48 1123.49 58.48C1121.25 58.48 1119.31 58.0267 1117.69 57.12C1116.09 56.1867 1114.85 54.8667 1113.97 53.16C1113.11 51.4533 1112.69 49.4267 1112.69 47.08C1112.69 44.6267 1113.11 42.56 1113.97 40.88C1114.85 39.1733 1116.07 37.88 1117.65 37C1119.25 36.0933 1121.11 35.64 1123.25 35.64C1125.38 35.64 1127.23 36.0933 1128.81 37C1130.38 37.9067 1131.59 39.2133 1132.45 40.92C1133.3 42.6 1133.73 44.6133 1133.73 46.96V48.32H1115.17V44.8H1131.05Z" fill="#4A4847"/>
<path d="M1137.08 57.84V36.32H1143.2V57.84H1137.08ZM1143.2 45.48H1141.56C1141.7 43.2133 1142.11 41.36 1142.8 39.92C1143.5 38.48 1144.4 37.4133 1145.52 36.72C1146.67 36 1147.98 35.64 1149.44 35.64C1150.83 35.64 1152.06 35.92 1153.12 36.48C1154.22 37.04 1155.07 37.9067 1155.68 39.08C1156.32 40.2267 1156.64 41.6933 1156.64 43.48V57.84H1150.52V44.72C1150.52 43.8133 1150.4 43.0533 1150.16 42.44C1149.92 41.8267 1149.55 41.3733 1149.04 41.08C1148.56 40.76 1147.95 40.6 1147.2 40.6C1146.59 40.6 1146.03 40.72 1145.52 40.96C1145.04 41.2 1144.63 41.5467 1144.28 42C1143.94 42.4267 1143.67 42.9467 1143.48 43.56C1143.3 44.1467 1143.2 44.7867 1143.2 45.48Z" fill="#4A4847"/>
<path d="M1706.5 39.688L1708.46 30.168H1709.62L1707.66 39.688H1706.5ZM1710.14 39.688L1712.1 30.168H1713.24L1711.28 39.688H1710.14ZM1706.64 33.43V32.45H1714.04V33.43H1706.64ZM1705.7 37.42V36.44H1713.1V37.42H1705.7Z" fill="#4A4847"/>
<path d="M1717.03 37.406V36.37H1721.94V37.406H1717.03ZM1722.68 39.688L1719.78 32.254L1719.48 31.33H1719.53L1719.22 32.254L1716.33 39.688H1715.05L1718.79 30.168H1720.27L1724.03 39.688H1722.68Z" fill="#4A4847"/>
<path d="M1732.67 32.912H1731.33C1731.15 32.3333 1730.83 31.89 1730.36 31.582C1729.91 31.2647 1729.37 31.106 1728.77 31.106C1728.15 31.106 1727.62 31.26 1727.17 31.568C1726.73 31.876 1726.39 32.3193 1726.15 32.898C1725.92 33.4673 1725.8 34.1487 1725.8 34.942C1725.8 35.7353 1725.92 36.4167 1726.15 36.986C1726.38 37.5553 1726.72 37.994 1727.16 38.302C1727.61 38.6007 1728.14 38.75 1728.77 38.75C1729.36 38.75 1729.87 38.6007 1730.32 38.302C1730.77 38.0033 1731.1 37.5693 1731.3 37H1732.66C1732.48 37.5973 1732.2 38.1107 1731.82 38.54C1731.44 38.9693 1730.98 39.296 1730.45 39.52C1729.92 39.744 1729.36 39.856 1728.75 39.856C1727.87 39.856 1727.1 39.66 1726.46 39.268C1725.82 38.8667 1725.33 38.302 1724.99 37.574C1724.65 36.8367 1724.48 35.9593 1724.48 34.942C1724.48 33.9247 1724.66 33.0473 1725 32.31C1725.36 31.5727 1725.86 31.0033 1726.5 30.602C1727.14 30.2007 1727.91 30 1728.81 30C1729.43 30 1729.99 30.112 1730.52 30.336C1731.05 30.5507 1731.5 30.8773 1731.88 31.316C1732.26 31.7453 1732.52 32.2773 1732.67 32.912Z" fill="#4A4847"/>
<path d="M1734.36 39.688V30.168H1735.65V39.688H1734.36ZM1737.47 38.638C1738.2 38.638 1738.82 38.4933 1739.35 38.204C1739.87 37.9053 1740.27 37.4807 1740.54 36.93C1740.82 36.3793 1740.96 35.7167 1740.96 34.942C1740.96 34.158 1740.82 33.4907 1740.54 32.94C1740.27 32.38 1739.87 31.9553 1739.35 31.666C1738.82 31.3673 1738.2 31.218 1737.47 31.218H1735.29V30.168H1737.47C1738.46 30.168 1739.31 30.3593 1740.02 30.742C1740.74 31.1247 1741.29 31.6707 1741.68 32.38C1742.08 33.0893 1742.27 33.9433 1742.27 34.942C1742.27 35.9313 1742.08 36.7807 1741.68 37.49C1741.29 38.1993 1740.74 38.7453 1740.02 39.128C1739.31 39.5013 1738.46 39.688 1737.47 39.688H1735.29V38.638H1737.47Z" fill="#4A4847"/>
<path d="M1747.13 39.856C1746.46 39.856 1745.87 39.7487 1745.37 39.534C1744.88 39.3193 1744.49 39.016 1744.21 38.624C1743.93 38.232 1743.79 37.7653 1743.79 37.224C1743.79 36.6733 1743.93 36.2067 1744.21 35.824C1744.5 35.4413 1744.89 35.152 1745.4 34.956C1745.9 34.7507 1746.48 34.648 1747.13 34.648C1747.81 34.648 1748.39 34.7553 1748.88 34.97C1749.39 35.1847 1749.78 35.4833 1750.06 35.866C1750.34 36.2487 1750.48 36.6967 1750.48 37.21C1750.48 37.7607 1750.34 38.2367 1750.06 38.638C1749.78 39.03 1749.39 39.3333 1748.88 39.548C1748.39 39.7533 1747.81 39.856 1747.13 39.856ZM1747.13 38.82C1747.77 38.82 1748.28 38.6753 1748.66 38.386C1749.05 38.0967 1749.25 37.686 1749.25 37.154C1749.25 36.7993 1749.16 36.496 1748.98 36.244C1748.8 35.992 1748.56 35.8007 1748.24 35.67C1747.92 35.5393 1747.55 35.474 1747.13 35.474C1746.5 35.474 1745.99 35.6187 1745.59 35.908C1745.21 36.1973 1745.02 36.6173 1745.02 37.168C1745.02 37.6813 1745.21 38.0873 1745.59 38.386C1745.99 38.6753 1746.5 38.82 1747.13 38.82ZM1747.13 30.518C1747.74 30.518 1748.27 30.616 1748.72 30.812C1749.17 31.008 1749.53 31.2927 1749.78 31.666C1750.04 32.03 1750.17 32.4733 1750.17 32.996C1750.17 33.4813 1750.04 33.906 1749.78 34.27C1749.53 34.6247 1749.17 34.9 1748.72 35.096C1748.27 35.292 1747.74 35.39 1747.13 35.39C1746.54 35.39 1746.01 35.2967 1745.55 35.11C1745.1 34.914 1744.75 34.6387 1744.49 34.284C1744.24 33.9293 1744.11 33.5 1744.11 32.996C1744.11 32.492 1744.24 32.058 1744.49 31.694C1744.75 31.3207 1745.1 31.0313 1745.55 30.826C1746.01 30.6207 1746.54 30.518 1747.13 30.518ZM1747.13 31.554C1746.59 31.554 1746.15 31.6847 1745.82 31.946C1745.48 32.2073 1745.31 32.5713 1745.31 33.038C1745.31 33.5233 1745.48 33.8967 1745.8 34.158C1746.14 34.4193 1746.58 34.55 1747.13 34.55C1747.68 34.55 1748.11 34.4193 1748.45 34.158C1748.8 33.8873 1748.97 33.5187 1748.97 33.052C1748.97 32.5667 1748.8 32.198 1748.46 31.946C1748.13 31.6847 1747.68 31.554 1747.13 31.554Z" fill="#4A4847"/>
<path d="M1753.35 37.406V36.37H1758.27V37.406H1753.35ZM1759.01 39.688L1756.11 32.254L1755.8 31.33H1755.86L1755.55 32.254L1752.65 39.688H1751.38L1755.12 30.168H1756.6L1760.35 39.688H1759.01Z" fill="#4A4847"/>
<path d="M1769 32.912H1767.66C1767.48 32.3333 1767.16 31.89 1766.69 31.582C1766.23 31.2647 1765.7 31.106 1765.09 31.106C1764.48 31.106 1763.95 31.26 1763.5 31.568C1763.06 31.876 1762.72 32.3193 1762.48 32.898C1762.24 33.4673 1762.13 34.1487 1762.13 34.942C1762.13 35.7353 1762.24 36.4167 1762.48 36.986C1762.71 37.5553 1763.04 37.994 1763.48 38.302C1763.93 38.6007 1764.47 38.75 1765.09 38.75C1765.68 38.75 1766.2 38.6007 1766.65 38.302C1767.1 38.0033 1767.42 37.5693 1767.63 37H1768.99C1768.81 37.5973 1768.53 38.1107 1768.15 38.54C1767.76 38.9693 1767.31 39.296 1766.77 39.52C1766.25 39.744 1765.69 39.856 1765.08 39.856C1764.19 39.856 1763.43 39.66 1762.78 39.268C1762.15 38.8667 1761.66 38.302 1761.31 37.574C1760.98 36.8367 1760.81 35.9593 1760.81 34.942C1760.81 33.9247 1760.98 33.0473 1761.33 32.31C1761.68 31.5727 1762.18 31.0033 1762.83 30.602C1763.47 30.2007 1764.24 30 1765.14 30C1765.75 30 1766.32 30.112 1766.84 30.336C1767.38 30.5507 1767.83 30.8773 1768.2 31.316C1768.58 31.7453 1768.85 32.2773 1769 32.912Z" fill="#4A4847"/>
<rect width="784" height="331" transform="translate(1015 330)" fill="#70D1D5"/>
<path d="M1070.16 369.36H1063.44C1063.07 368.027 1062.4 367.013 1061.44 366.32C1060.51 365.6 1059.37 365.24 1058.04 365.24C1056.68 365.24 1055.51 365.613 1054.52 366.36C1053.56 367.08 1052.83 368.12 1052.32 369.48C1051.81 370.813 1051.56 372.413 1051.56 374.28C1051.56 376.147 1051.81 377.747 1052.32 379.08C1052.83 380.413 1053.56 381.44 1054.52 382.16C1055.48 382.88 1056.65 383.24 1058.04 383.24C1059.32 383.24 1060.43 382.907 1061.36 382.24C1062.32 381.573 1062.99 380.6 1063.36 379.32H1070.16C1069.68 381.32 1068.87 383 1067.72 384.36C1066.57 385.72 1065.17 386.747 1063.52 387.44C1061.87 388.133 1060.07 388.48 1058.12 388.48C1055.4 388.48 1053.05 387.907 1051.08 386.76C1049.13 385.613 1047.63 383.987 1046.56 381.88C1045.52 379.747 1045 377.213 1045 374.28C1045 371.347 1045.53 368.813 1046.6 366.68C1047.67 364.52 1049.19 362.867 1051.16 361.72C1053.13 360.573 1055.48 360 1058.2 360C1060.15 360 1061.95 360.347 1063.6 361.04C1065.28 361.733 1066.69 362.773 1067.84 364.16C1069.01 365.547 1069.79 367.28 1070.16 369.36Z" fill="#4A4847"/>
<path d="M1076.33 397.32C1075.72 397.32 1075.13 397.253 1074.57 397.12C1074.01 396.987 1073.6 396.853 1073.33 396.72V392.08H1074.57C1075.13 392.08 1075.62 392.027 1076.05 391.92C1076.48 391.84 1076.88 391.667 1077.25 391.4C1077.65 391.133 1078.02 390.72 1078.37 390.16C1078.72 389.6 1079.06 388.867 1079.41 387.96L1079.85 386.88L1071.53 366.32H1078.05L1082.17 377.76L1083.25 382.08H1082.69L1083.85 377.76L1087.77 366.32H1094.01L1084.89 389.52C1084.33 390.987 1083.74 392.213 1083.13 393.2C1082.54 394.213 1081.92 395.013 1081.25 395.6C1080.61 396.213 1079.88 396.653 1079.05 396.92C1078.25 397.187 1077.34 397.32 1076.33 397.32Z" fill="#4A4847"/>
<path d="M1101.29 373.44H1095.17C1095.38 371.813 1095.91 370.427 1096.77 369.28C1097.65 368.107 1098.79 367.213 1100.21 366.6C1101.62 365.96 1103.23 365.64 1105.05 365.64C1107.1 365.64 1108.82 366.013 1110.21 366.76C1111.59 367.507 1112.63 368.52 1113.33 369.8C1114.05 371.08 1114.41 372.56 1114.41 374.24V382.48C1114.41 383.893 1114.46 385 1114.57 385.8C1114.7 386.6 1114.85 387.28 1115.01 387.84H1108.69C1108.53 387.28 1108.42 386.6 1108.37 385.8C1108.31 385 1108.29 384.147 1108.29 383.24V374.2C1108.29 373 1107.99 372.107 1107.41 371.52C1106.82 370.907 1105.94 370.6 1104.77 370.6C1103.73 370.6 1102.91 370.867 1102.33 371.4C1101.77 371.907 1101.42 372.587 1101.29 373.44ZM1109.05 374.68V378.24C1107.34 378.24 1105.93 378.333 1104.81 378.52C1103.71 378.68 1102.85 378.933 1102.21 379.28C1101.59 379.6 1101.15 379.987 1100.89 380.44C1100.65 380.867 1100.53 381.347 1100.53 381.88C1100.53 382.6 1100.78 383.173 1101.29 383.6C1101.82 384.027 1102.53 384.24 1103.41 384.24C1104.31 384.24 1105.13 384.027 1105.85 383.6C1106.59 383.147 1107.18 382.52 1107.61 381.72C1108.06 380.92 1108.29 380.04 1108.29 379.08H1110.25C1110.14 380.787 1109.82 382.24 1109.29 383.44C1108.78 384.613 1108.11 385.573 1107.29 386.32C1106.49 387.067 1105.58 387.613 1104.57 387.96C1103.58 388.307 1102.57 388.48 1101.53 388.48C1100.17 388.48 1098.94 388.253 1097.85 387.8C1096.78 387.347 1095.94 386.653 1095.33 385.72C1094.71 384.787 1094.41 383.64 1094.41 382.28C1094.41 380.813 1094.82 379.533 1095.65 378.44C1096.5 377.347 1097.78 376.507 1099.49 375.92C1100.98 375.413 1102.49 375.08 1104.01 374.92C1105.53 374.76 1107.21 374.68 1109.05 374.68Z" fill="#4A4847"/>
<path d="M1118.76 387.84V366.32H1124.88V387.84H1118.76ZM1124.88 375.48H1123.24C1123.38 373.213 1123.79 371.36 1124.48 369.92C1125.18 368.48 1126.08 367.413 1127.2 366.72C1128.35 366 1129.66 365.64 1131.12 365.64C1132.51 365.64 1133.74 365.92 1134.8 366.48C1135.9 367.04 1136.75 367.907 1137.36 369.08C1138 370.227 1138.32 371.693 1138.32 373.48V387.84H1132.2V374.72C1132.2 373.813 1132.08 373.053 1131.84 372.44C1131.6 371.827 1131.23 371.373 1130.72 371.08C1130.24 370.76 1129.63 370.6 1128.88 370.6C1128.27 370.6 1127.71 370.72 1127.2 370.96C1126.72 371.2 1126.31 371.547 1125.96 372C1125.62 372.427 1125.35 372.947 1125.16 373.56C1124.98 374.147 1124.88 374.787 1124.88 375.48Z" fill="#4A4847"/>
<path d="M1709.5 369.52L1711.46 360H1712.62L1710.66 369.52H1709.5ZM1713.14 369.52L1715.1 360H1716.25L1714.29 369.52H1713.14ZM1709.64 363.262V362.282H1717.04V363.262H1709.64ZM1708.7 367.252V366.272H1716.11V367.252H1708.7Z" fill="#4A4847"/>
<path d="M1721.53 369.52H1720.24C1720.48 368.027 1720.89 366.613 1721.46 365.278C1722.03 363.943 1722.74 362.683 1723.6 361.498H1718.57V360.518H1724.93V361.302C1723.99 362.599 1723.23 363.934 1722.66 365.306C1722.09 366.678 1721.71 368.083 1721.53 369.52Z" fill="#4A4847"/>
<path d="M1729.87 369.688C1728.76 369.688 1727.9 369.277 1727.28 368.456C1726.67 367.635 1726.36 366.491 1726.36 365.026C1726.36 363.523 1726.67 362.371 1727.28 361.568C1727.91 360.756 1728.77 360.35 1729.87 360.35C1730.98 360.35 1731.84 360.761 1732.45 361.582C1733.06 362.403 1733.37 363.551 1733.37 365.026C1733.37 366.529 1733.06 367.681 1732.43 368.484C1731.82 369.287 1730.96 369.688 1729.87 369.688ZM1729.87 368.624C1730.59 368.624 1731.14 368.316 1731.52 367.7C1731.92 367.075 1732.11 366.183 1732.11 365.026C1732.11 363.878 1731.92 362.991 1731.52 362.366C1731.14 361.731 1730.59 361.414 1729.87 361.414C1729.14 361.414 1728.58 361.727 1728.19 362.352C1727.81 362.968 1727.62 363.859 1727.62 365.026C1727.62 366.155 1727.81 367.037 1728.21 367.672C1728.6 368.307 1729.15 368.624 1729.87 368.624Z" fill="#4A4847"/>
<path d="M1735 369.52V360H1736.29V369.52H1735ZM1738.11 368.47C1738.84 368.47 1739.46 368.325 1739.98 368.036C1740.51 367.737 1740.9 367.313 1741.17 366.762C1741.45 366.211 1741.59 365.549 1741.59 364.774C1741.59 363.99 1741.45 363.323 1741.17 362.772C1740.9 362.212 1740.51 361.787 1739.98 361.498C1739.46 361.199 1738.84 361.05 1738.11 361.05H1735.92V360H1738.11C1739.1 360 1739.95 360.191 1740.66 360.574C1741.37 360.957 1741.93 361.503 1742.32 362.212C1742.71 362.921 1742.91 363.775 1742.91 364.774C1742.91 365.763 1742.71 366.613 1742.32 367.322C1741.93 368.031 1741.37 368.577 1740.66 368.96C1739.95 369.333 1739.1 369.52 1738.11 369.52H1735.92V368.47H1738.11Z" fill="#4A4847"/>
<path d="M1748.61 369.52H1747.32V362.24C1747.28 362.24 1747.22 362.24 1747.14 362.24C1747.08 362.24 1746.99 362.24 1746.89 362.24H1745.6V361.26H1746.62C1746.99 361.26 1747.23 361.218 1747.35 361.134C1747.47 361.041 1747.53 360.891 1747.53 360.686V360.518H1748.61V369.52ZM1745.6 369.52V368.54H1750.33V369.52H1745.6Z" fill="#4A4847"/>
<path d="M1752.83 369.52V360H1754.12V369.52H1752.83ZM1755.94 368.47C1756.66 368.47 1757.29 368.325 1757.81 368.036C1758.33 367.737 1758.73 367.313 1759 366.762C1759.28 366.211 1759.42 365.549 1759.42 364.774C1759.42 363.99 1759.28 363.323 1759 362.772C1758.73 362.212 1758.33 361.787 1757.81 361.498C1757.29 361.199 1756.66 361.05 1755.94 361.05H1753.75V360H1755.94C1756.92 360 1757.77 360.191 1758.48 360.574C1759.2 360.957 1759.76 361.503 1760.15 362.212C1760.54 362.921 1760.74 363.775 1760.74 364.774C1760.74 365.763 1760.54 366.613 1760.15 367.322C1759.76 368.031 1759.2 368.577 1758.48 368.96C1757.77 369.333 1756.92 369.52 1755.94 369.52H1753.75V368.47H1755.94Z" fill="#4A4847"/>
<path d="M1769 366.524C1769 367.14 1768.87 367.686 1768.62 368.162C1768.37 368.638 1768 369.011 1767.5 369.282C1767.01 369.553 1766.39 369.688 1765.65 369.688C1764.98 369.688 1764.4 369.581 1763.92 369.366C1763.43 369.151 1763.05 368.843 1762.76 368.442C1762.47 368.041 1762.28 367.555 1762.2 366.986H1763.43C1763.51 367.49 1763.74 367.891 1764.1 368.19C1764.46 368.479 1764.98 368.624 1765.64 368.624C1766.35 368.624 1766.88 368.442 1767.24 368.078C1767.59 367.705 1767.77 367.191 1767.77 366.538C1767.77 366.277 1767.73 366.02 1767.66 365.768C1767.59 365.507 1767.47 365.273 1767.31 365.068C1767.15 364.863 1766.93 364.699 1766.66 364.578C1766.39 364.457 1766.05 364.396 1765.64 364.396C1765.29 364.396 1764.98 364.443 1764.72 364.536C1764.46 364.62 1764.25 364.737 1764.07 364.886C1763.9 365.026 1763.76 365.18 1763.65 365.348L1762.55 365.236L1763.11 364.578C1763.41 364.223 1763.77 363.929 1764.17 363.696C1764.58 363.453 1765.1 363.332 1765.74 363.332C1766.34 363.332 1766.84 363.421 1767.25 363.598C1767.67 363.766 1768.01 363.999 1768.26 364.298C1768.52 364.597 1768.71 364.937 1768.82 365.32C1768.94 365.703 1769 366.104 1769 366.524ZM1762.83 360.518H1768.58V361.498H1763.81L1763.6 364.872L1762.55 365.236L1762.83 360.518Z" fill="#4A4847"/>
<rect width="784" height="330" transform="translate(1015 661)" fill="#EFEFEF"/>
<path d="M1045 719.8V692.6H1050.92L1051.4 719.8H1045ZM1062.6 719.8L1062.12 692.6H1068.52V719.8H1062.6ZM1061.76 719.8L1053.16 705.52L1046.96 692.6H1051.76L1060.36 706.88L1066.6 719.8H1061.76Z" fill="#4A4847"/>
<path d="M1090.48 706.76L1087 709C1087 706.893 1086.63 705.28 1085.88 704.16C1085.13 703.04 1084.07 702.48 1082.68 702.48C1081.27 702.48 1080.19 703.04 1079.44 704.16C1078.69 705.28 1078.32 706.907 1078.32 709.04C1078.32 711.147 1078.71 712.76 1079.48 713.88C1080.28 715 1081.43 715.56 1082.92 715.56C1083.93 715.56 1084.77 715.333 1085.44 714.88C1086.11 714.427 1086.6 713.707 1086.92 712.72H1093.32C1092.76 715.2 1091.55 717.107 1089.68 718.44C1087.81 719.773 1085.56 720.44 1082.92 720.44C1080.68 720.44 1078.75 719.987 1077.12 719.08C1075.52 718.147 1074.28 716.827 1073.4 715.12C1072.55 713.413 1072.12 711.387 1072.12 709.04C1072.12 706.587 1072.55 704.52 1073.4 702.84C1074.28 701.133 1075.51 699.84 1077.08 698.96C1078.68 698.053 1080.55 697.6 1082.68 697.6C1084.81 697.6 1086.67 698.053 1088.24 698.96C1089.81 699.867 1091.03 701.173 1091.88 702.88C1092.73 704.56 1093.16 706.573 1093.16 708.92V710.28H1074.6V706.76H1090.48Z" fill="#4A4847"/>
<path d="M1102.52 705.4H1096.4C1096.61 703.773 1097.14 702.387 1098 701.24C1098.88 700.067 1100.02 699.173 1101.44 698.56C1102.85 697.92 1104.46 697.6 1106.28 697.6C1108.33 697.6 1110.05 697.973 1111.43 698.72C1112.82 699.467 1113.86 700.48 1114.56 701.76C1115.28 703.04 1115.64 704.52 1115.64 706.2V714.44C1115.64 715.853 1115.69 716.96 1115.79 717.76C1115.93 718.56 1116.08 719.24 1116.24 719.8H1109.92C1109.76 719.24 1109.65 718.56 1109.6 717.76C1109.54 716.96 1109.51 716.107 1109.51 715.2V706.16C1109.51 704.96 1109.22 704.067 1108.63 703.48C1108.05 702.867 1107.17 702.56 1106 702.56C1104.96 702.56 1104.14 702.827 1103.56 703.36C1103 703.867 1102.65 704.547 1102.52 705.4ZM1110.28 706.64V710.2C1108.57 710.2 1107.16 710.293 1106.04 710.48C1104.94 710.64 1104.08 710.893 1103.44 711.24C1102.82 711.56 1102.38 711.947 1102.12 712.4C1101.88 712.827 1101.76 713.307 1101.76 713.84C1101.76 714.56 1102.01 715.133 1102.52 715.56C1103.05 715.987 1103.76 716.2 1104.64 716.2C1105.54 716.2 1106.36 715.987 1107.08 715.56C1107.82 715.107 1108.41 714.48 1108.84 713.68C1109.29 712.88 1109.51 712 1109.51 711.04H1111.47C1111.37 712.747 1111.05 714.2 1110.51 715.4C1110.01 716.573 1109.34 717.533 1108.52 718.28C1107.72 719.027 1106.81 719.573 1105.8 719.92C1104.81 720.267 1103.8 720.44 1102.76 720.44C1101.4 720.44 1100.17 720.213 1099.08 719.76C1098.01 719.307 1097.17 718.613 1096.56 717.68C1095.94 716.747 1095.64 715.6 1095.64 714.24C1095.64 712.773 1096.05 711.493 1096.88 710.4C1097.73 709.307 1099.01 708.467 1100.72 707.88C1102.21 707.373 1103.72 707.04 1105.24 706.88C1106.76 706.72 1108.44 706.64 1110.28 706.64Z" fill="#4A4847"/>
<path d="M1119.99 719.8V698.28H1126.11V719.8H1119.99ZM1126.11 708.68H1124.51C1124.56 706.04 1124.94 703.907 1125.63 702.28C1126.32 700.653 1127.2 699.467 1128.27 698.72C1129.36 697.973 1130.52 697.6 1131.75 697.6C1132.18 697.6 1132.58 697.653 1132.95 697.76C1133.35 697.867 1133.66 698.04 1133.87 698.28V703.44C1133.5 703.36 1133.12 703.307 1132.75 703.28C1132.38 703.227 1131.94 703.2 1131.43 703.2C1130.52 703.2 1129.72 703.333 1129.03 703.6C1128.36 703.84 1127.82 704.2 1127.39 704.68C1126.96 705.16 1126.64 705.733 1126.43 706.4C1126.22 707.067 1126.11 707.827 1126.11 708.68Z" fill="#4A4847"/>
<path d="M1134.8 711.52V706.28H1145.88V711.52H1134.8Z" fill="#4A4847"/>
<path d="M1172.2 719.8L1167.76 704.16L1166.84 700.12H1167.36L1166.44 704.16L1162.04 719.8H1154.84L1146.8 692.6H1153.64L1158 710.44L1159 714.84H1158.48L1159.44 710.44L1164.48 692.6H1170.08L1175.08 710.44L1176.08 714.84H1175.56L1176.52 710.44L1180.88 692.6H1187.36L1179.32 719.8H1172.2Z" fill="#4A4847"/>
<path d="M1190.26 719.8V691H1196.38V719.8H1190.26ZM1196.38 707.44H1194.74C1194.88 705.173 1195.29 703.32 1195.99 701.88C1196.68 700.44 1197.59 699.373 1198.71 698.68C1199.85 697.96 1201.16 697.6 1202.62 697.6C1204.01 697.6 1205.24 697.88 1206.3 698.44C1207.4 699 1208.25 699.867 1208.87 701.04C1209.51 702.187 1209.82 703.653 1209.82 705.44V719.8H1203.71V706.68C1203.71 705.773 1203.59 705.013 1203.35 704.4C1203.11 703.787 1202.73 703.333 1202.22 703.04C1201.74 702.72 1201.13 702.56 1200.38 702.56C1199.77 702.56 1199.21 702.68 1198.71 702.92C1198.23 703.16 1197.81 703.507 1197.46 703.96C1197.12 704.387 1196.85 704.907 1196.66 705.52C1196.48 706.107 1196.38 706.747 1196.38 707.44Z" fill="#4A4847"/>
<path d="M1213.98 719.8V698.28H1220.1V719.8H1213.98ZM1213.98 696.12V691H1220.1V696.12H1213.98Z" fill="#4A4847"/>
<path d="M1225.01 712.8V693.28H1231.13V712.04C1231.13 713.08 1231.33 713.88 1231.73 714.44C1232.16 715 1233.02 715.28 1234.33 715.28H1235.49V719.88C1235.14 720.013 1234.65 720.133 1234.01 720.24C1233.37 720.373 1232.64 720.44 1231.81 720.44C1229.52 720.44 1227.81 719.8 1226.69 718.52C1225.57 717.213 1225.01 715.307 1225.01 712.8ZM1222.37 702.92V698.28H1235.53V702.92H1222.37Z" fill="#4A4847"/>
<path d="M1255.71 706.76L1252.23 709C1252.23 706.893 1251.86 705.28 1251.11 704.16C1250.37 703.04 1249.3 702.48 1247.91 702.48C1246.5 702.48 1245.42 703.04 1244.67 704.16C1243.93 705.28 1243.55 706.907 1243.55 709.04C1243.55 711.147 1243.94 712.76 1244.71 713.88C1245.51 715 1246.66 715.56 1248.15 715.56C1249.17 715.56 1250.01 715.333 1250.67 714.88C1251.34 714.427 1251.83 713.707 1252.15 712.72H1258.55C1257.99 715.2 1256.78 717.107 1254.91 718.44C1253.05 719.773 1250.79 720.44 1248.15 720.44C1245.91 720.44 1243.98 719.987 1242.35 719.08C1240.75 718.147 1239.51 716.827 1238.63 715.12C1237.78 713.413 1237.35 711.387 1237.35 709.04C1237.35 706.587 1237.78 704.52 1238.63 702.84C1239.51 701.133 1240.74 699.84 1242.31 698.96C1243.91 698.053 1245.78 697.6 1247.91 697.6C1250.05 697.6 1251.9 698.053 1253.47 698.96C1255.05 699.867 1256.26 701.173 1257.11 702.88C1257.97 704.56 1258.39 706.573 1258.39 708.92V710.28H1239.83V706.76H1255.71Z" fill="#4A4847"/>
<path d="M1712.61 700.52L1714.57 691H1715.73L1713.77 700.52H1712.61ZM1716.25 700.52L1718.21 691H1719.36L1717.4 700.52H1716.25ZM1712.75 694.262V693.282H1720.16V694.262H1712.75ZM1711.81 698.252V697.272H1719.22V698.252H1711.81Z" fill="#4A4847"/>
<path d="M1721.98 700.52V691H1723.27V700.52H1721.98ZM1722.91 700.52V699.47H1728.44V700.52H1722.91ZM1722.91 692.05V691H1728.44V692.05H1722.91ZM1722.91 696.11V695.06H1727.92V696.11H1722.91Z" fill="#4A4847"/>
<path d="M1730.14 700.52V691H1731.43V700.52H1730.14ZM1731.07 692.05V691H1736.6V692.05H1731.07ZM1731.07 696.362V695.312H1736.08V696.362H1731.07Z" fill="#4A4847"/>
<path d="M1738.18 700.52V691H1739.47V700.52H1738.18ZM1739.11 700.52V699.47H1744.64V700.52H1739.11ZM1739.11 692.05V691H1744.64V692.05H1739.11ZM1739.11 696.11V695.06H1744.12V696.11H1739.11Z" fill="#4A4847"/>
<path d="M1746.34 700.52V691H1747.63V700.52H1746.34ZM1747.27 692.05V691H1752.8V692.05H1747.27ZM1747.27 696.362V695.312H1752.28V696.362H1747.27Z" fill="#4A4847"/>
<path d="M1754.38 700.52V691H1755.67V700.52H1754.38ZM1755.31 700.52V699.47H1760.84V700.52H1755.31ZM1755.31 692.05V691H1760.84V692.05H1755.31ZM1755.31 696.11V695.06H1760.32V696.11H1755.31Z" fill="#4A4847"/>
<path d="M1762.55 700.52V691H1763.83V700.52H1762.55ZM1763.47 692.05V691H1769V692.05H1763.47ZM1763.47 696.362V695.312H1768.48V696.362H1763.47Z" fill="#4A4847"/>
</svg>
