<svg width="1600" height="960" viewBox="0 0 1600 960" fill="none" xmlns="http://www.w3.org/2000/svg">
<rect width="1600" height="960" fill="#FFEFD8"/>
<path d="M780.521 376.898C781.742 374.175 783.644 371.813 786.045 370.041C788.339 368.289 791.16 367.371 794.045 367.438C795.465 367.522 796.86 367.844 798.172 368.39C798.884 368.547 799.522 368.94 799.983 369.504C800.444 370.069 800.7 370.772 800.712 371.501C800.815 372.429 800.815 373.366 800.712 374.295C800.416 375.424 800.183 376.568 800.014 377.723C797.918 387.311 796.077 396.771 794.49 406.739C792.902 416.707 791.506 426.231 790.299 435.818C789.093 445.406 787.95 454.866 787.061 464.072C786.172 473.279 785.41 481.914 784.902 490.104C789.918 490.137 794.924 490.518 799.887 491.247C806.121 492.373 812.127 494.519 817.664 497.596C828.841 495.658 839.654 492.018 849.728 486.803C857.822 482.57 864.988 476.763 870.807 469.723C876.11 462.918 879.957 455.094 882.109 446.739C884.538 437.714 885.734 428.402 885.664 419.057C885.905 407.838 884.009 396.677 880.077 386.168C876.82 377.507 871.617 369.711 864.869 363.381C858.12 357.051 850.007 352.356 841.156 349.66C831.627 346.663 821.685 345.185 811.696 345.279C800.764 345.263 789.856 346.305 779.125 348.39C769.095 350.256 759.415 353.661 750.426 358.485C742.285 362.86 735.3 369.105 730.045 376.707C724.652 384.954 721.946 394.669 722.299 404.517C722.264 410.009 722.991 415.479 724.458 420.771C725.802 425.737 727.565 430.58 729.728 435.247C731.44 439.02 733.413 442.669 735.633 446.168C737.056 448.507 738.625 450.755 740.331 452.898C740.943 453.629 741.515 454.392 742.045 455.184C742.638 456.109 742.927 457.197 742.871 458.295C742.867 458.814 742.752 459.327 742.533 459.798C742.314 460.269 741.996 460.688 741.601 461.025C740.242 461.951 738.604 462.377 736.966 462.231C732.565 461.974 728.254 460.874 724.267 458.993C718.72 456.599 713.613 453.295 709.156 449.215C703.948 444.39 699.647 438.67 696.458 432.326C692.774 424.784 690.966 416.464 691.188 408.072C691.256 401.037 692.5 394.062 694.871 387.438C697.558 379.948 701.322 372.889 706.045 366.485C711.431 359.046 717.699 352.288 724.712 346.358C732.592 339.885 741.252 334.425 750.49 330.104C761.011 325.187 772.04 321.44 783.379 318.93C796.468 316.028 809.845 314.622 823.252 314.739C838.613 314.431 853.892 317.06 868.268 322.485C880.328 327.13 891.322 334.171 900.585 343.184C909.197 351.725 915.885 362.008 920.204 373.342C924.48 384.661 926.633 396.671 926.553 408.771C926.877 422.423 924.167 435.976 918.617 448.453C913.605 459.398 906.585 469.305 897.918 477.66C889.394 485.87 879.675 492.741 869.093 498.041C858.721 503.229 847.905 507.479 836.775 510.739C844.106 517.87 850.778 525.648 856.712 533.977C864.916 545.369 872.361 557.289 878.998 569.66C883.696 578.379 888.585 587.247 893.664 596.263C898.714 605.188 904.49 613.683 910.934 621.66C917.244 629.465 924.495 636.46 932.521 642.485C940.79 648.651 950.199 653.118 960.204 655.628C961.824 656 963.37 656.644 964.775 657.533C965.126 657.739 965.424 658.024 965.644 658.366C965.865 658.708 966.002 659.097 966.045 659.501C966.045 660.898 965.029 661.787 962.998 662.104C960.644 662.457 958.266 662.627 955.887 662.612C951.654 662.612 946.447 662.358 940.268 661.85C924.27 660.335 908.776 655.444 894.807 647.501C885.727 642.333 877.414 635.922 870.109 628.453C864.386 622.68 859.318 616.292 854.998 609.406C850.948 602.894 847.281 596.153 844.014 589.215C840.839 582.422 837.664 575.628 835.125 568.898C832.585 562.168 829.664 555.882 826.807 549.533C824.055 543.533 820.872 537.74 817.283 532.199C813.823 526.859 809.537 522.101 804.585 518.104C800.521 518.739 796.648 519.184 793.029 519.501L782.807 520.072C782.807 525.088 782.363 529.66 782.299 533.723C782.236 537.787 782.299 541.215 782.299 543.946C782.299 550.295 782.299 557.025 782.299 563.755C782.299 570.485 782.299 576.453 782.299 582.803C782.299 589.152 782.299 593.85 782.299 598.422C782.299 602.993 782.299 606.168 782.299 608.136V610.231C782.302 611.134 782.174 612.032 781.918 612.898C781.636 613.711 781.205 614.464 780.648 615.12C780.322 615.438 779.934 615.687 779.508 615.851C779.083 616.014 778.628 616.09 778.172 616.072C776.556 616.095 774.954 615.77 773.474 615.12C772.039 614.494 770.659 613.751 769.347 612.898C768.014 612.009 766.744 611.311 765.537 610.612C764.402 610.008 763.14 609.681 761.855 609.66C761.207 609.632 760.561 609.742 759.958 609.982C759.356 610.223 758.812 610.589 758.363 611.057C757.918 611.49 757.391 611.831 756.814 612.06C756.236 612.289 755.619 612.401 754.998 612.39C753.673 612.464 752.366 612.058 751.315 611.247C750.397 610.479 749.714 609.466 749.347 608.326C748.956 607.134 748.721 605.896 748.648 604.644C748.648 603.311 748.648 602.168 748.648 601.152C748.648 598.676 748.648 594.803 748.648 589.469C748.648 584.136 748.648 578.168 749.029 571.501C749.41 564.834 749.474 557.85 749.728 550.549C749.982 543.247 750.236 536.39 750.49 529.914L751.125 518.041C746.998 517.342 742.997 516.037 739.252 514.168C736.394 512.58 734.998 510.93 734.998 509.088C735.232 507.646 735.772 506.271 736.583 505.055C737.393 503.839 738.455 502.811 739.696 502.041C743.545 499.137 747.831 496.865 752.394 495.311C753.22 485.469 754.109 475.692 755.061 465.914C756.014 456.136 756.966 446.866 757.791 439.057C758.617 431.247 759.442 423.882 760.141 418.104C760.839 412.326 761.41 408.326 761.855 406.231C762.744 400.517 763.696 395.692 764.648 391.692C765.209 388.784 766.307 386.006 767.887 383.501C768.868 382.322 769.999 381.276 771.252 380.39C772.476 379.504 773.797 378.759 775.188 378.168C776.852 377.361 778.672 376.928 780.521 376.898Z" fill="#83B793"/>
<path d="M942.554 577.857C945.602 577.912 948.555 576.799 950.808 574.746C953.31 572.429 955.337 569.647 956.777 566.556C958.566 562.833 959.908 558.912 960.777 554.873C961.857 550.294 962.642 545.649 963.126 540.969C959.003 538.072 955.25 534.682 951.951 530.873C948.038 526.28 944.77 521.175 942.237 515.699C940.62 512.318 939.405 508.759 938.618 505.096C937.878 501.609 937.495 498.056 937.475 494.492C937.437 490.424 938.037 486.375 939.253 482.492C940.279 478.934 942.03 475.627 944.396 472.778C946.771 470.079 949.693 467.915 952.967 466.429C956.655 464.764 960.667 463.94 964.713 464.016C969.639 463.809 974.498 465.213 978.554 468.016C982.141 470.669 985.055 474.127 987.062 478.111C989.183 482.294 990.681 486.765 991.507 491.381C992.306 495.803 992.731 500.285 992.776 504.778C992.757 510.361 992.396 515.938 991.697 521.477C990.971 527.308 989.826 533.08 988.269 538.746C992.752 538.406 997.098 537.037 1000.97 534.746C1005.22 531.937 1008.55 527.941 1010.55 523.254C1012.14 520.016 1013.79 518.365 1015.44 518.365C1016.33 518.347 1017.2 518.614 1017.92 519.127C1018.28 519.439 1018.57 519.83 1018.76 520.271C1018.94 520.711 1019.03 521.189 1019 521.667C1018.99 522.606 1018.8 523.534 1018.43 524.397C1016.02 531.452 1011.44 537.564 1005.35 541.857C999.434 546.055 992.346 548.277 985.094 548.207C983.024 554.323 980.433 560.249 977.348 565.921C974.288 571.357 970.508 576.354 966.11 580.778C961.847 585.001 956.857 588.421 951.38 590.873C945.633 593.372 939.423 594.627 933.157 594.556C929.109 594.503 925.081 593.971 921.157 592.969C916.468 591.926 912.107 589.746 908.459 586.619C904.14 582.775 900.753 577.998 898.554 572.651C895.546 565.021 894.162 556.847 894.491 548.651C894.624 539.864 896.19 531.157 899.126 522.873C902.604 513.037 907.807 503.9 914.491 495.889C916.636 493.115 919.182 490.675 922.046 488.651C923.699 487.486 925.623 486.764 927.634 486.556C930.554 486.556 931.951 488.27 931.951 491.762C931.836 493.791 931.318 495.777 930.427 497.603C929.152 500.527 928.028 503.516 927.062 506.556C925.748 510.73 924.646 514.968 923.761 519.254C922.615 525.045 922.083 530.94 922.173 536.842C921.648 547.193 923.561 557.524 927.761 567C928.897 570.057 930.904 572.714 933.532 574.643C936.161 576.573 939.298 577.69 942.554 577.857ZM964.332 520.715C964.851 511.083 963.581 501.439 960.586 492.27C958.11 486.492 955.38 484.207 952.396 485.35C951.711 485.657 951.131 486.157 950.725 486.788C950.319 487.419 950.106 488.155 950.11 488.905C949.913 490.634 949.807 492.372 949.792 494.111C949.838 497.133 950.243 500.138 950.999 503.064C951.775 506.227 952.794 509.326 954.046 512.334C955.254 515.437 956.764 518.415 958.554 521.223C960.247 523.883 962.113 526.428 964.142 528.842C964.142 527.445 964.142 526.111 964.142 524.778L964.332 520.715Z" fill="#83B793"/>
<path d="M1070.05 561.536L1072.78 559.187C1076.68 555.473 1080.21 551.39 1083.32 546.997C1088.5 539.515 1092.77 531.436 1096.02 522.933C1097.41 519.695 1099.25 518.044 1101.48 518.044C1103.7 518.044 1104.27 519.06 1104.27 521.155C1104.2 522.155 1103.99 523.139 1103.64 524.076C1101.08 531.541 1097.83 538.747 1093.92 545.6C1090.9 551.01 1087.32 556.095 1083.25 560.774C1080.07 564.477 1076.5 567.82 1072.59 570.743C1069.43 573.031 1066.02 574.948 1062.43 576.457C1059.18 581.409 1055.2 585.84 1050.62 589.6C1046.17 593.26 1040.57 595.218 1034.81 595.124C1031.29 595.239 1027.82 594.359 1024.78 592.584C1022.13 590.972 1019.85 588.806 1018.11 586.235C1016.43 583.778 1015.18 581.051 1014.43 578.171C1013.67 575.637 1013.26 573.008 1013.22 570.362C1013.17 566.344 1013.73 562.341 1014.87 558.489C1015.85 555.346 1017.21 552.338 1018.94 549.536C1020.24 547.407 1021.91 545.534 1023.89 544.012C1025.17 542.987 1026.71 542.348 1028.33 542.171C1029.92 542.171 1031.45 543.505 1033.03 546.044C1035.05 549.525 1036.75 553.18 1038.11 556.965C1039.98 562.152 1042.2 567.201 1044.78 572.076L1050.49 571.187C1052.38 570.88 1054.23 570.391 1056.02 569.727C1056.82 568.241 1057.28 566.59 1057.35 564.901C1057.24 562.047 1056.57 559.243 1055.38 556.647C1053.94 553.172 1052.27 549.799 1050.37 546.552C1048.4 542.997 1046.11 539.378 1043.64 535.695C1041.16 532.013 1038.68 528.52 1036.27 525.219L1029.48 516.076C1027.45 513.282 1025.79 510.997 1024.59 509.219L1022.24 516.838C1021.71 518.723 1021.06 520.569 1020.27 522.362C1019.75 524.195 1018.93 525.932 1017.86 527.505C1017.51 527.92 1017.07 528.25 1016.58 528.47C1016.08 528.69 1015.54 528.794 1015 528.774C1012.91 528.774 1011.83 527.568 1011.83 525.092C1011.84 524.248 1011.99 523.412 1012.27 522.616C1013.29 519.251 1014.18 516.266 1014.87 513.536C1015.57 510.806 1016.21 508.647 1016.78 507.187C1017.35 505.727 1017.73 503.124 1018.11 501.536C1015.78 498.632 1013.78 495.481 1012.14 492.139C1010.21 487.834 1009.3 483.141 1009.48 478.425C1009.56 473.912 1010.33 469.437 1011.76 465.155C1013.21 460.437 1015.14 455.883 1017.54 451.568C1019.65 447.71 1022.25 444.146 1025.29 440.965C1026.29 439.75 1027.52 438.747 1028.92 438.017C1030.32 437.286 1031.84 436.842 1033.41 436.711C1034.95 436.711 1036.45 437.224 1037.67 438.171C1038.96 439.206 1040.02 440.505 1040.78 441.981C1041.68 443.657 1042.34 445.453 1042.75 447.314C1043.2 449.25 1043.43 451.231 1043.45 453.219C1043.33 458.274 1042.54 463.292 1041.1 468.139C1041.1 468.647 1040.78 469.409 1040.59 470.362C1040.49 471.375 1040.49 472.396 1040.59 473.409C1041.5 479.275 1044.11 484.746 1048.08 489.155C1052.65 495.759 1058.7 503.187 1066.24 511.441C1069.6 515.138 1072.2 519.45 1073.92 524.139C1075.55 529.141 1076.34 534.374 1076.27 539.632C1076.25 541.613 1076.06 543.588 1075.7 545.536C1075.34 547.341 1074.88 549.122 1074.3 550.87L1070.05 561.536Z" fill="#83B793"/>
<path d="M1169.03 517.789C1169.41 517.794 1169.79 517.875 1170.14 518.028C1170.49 518.181 1170.8 518.401 1171.06 518.678C1171.37 519 1171.6 519.379 1171.75 519.794C1171.91 520.208 1171.97 520.649 1171.95 521.09C1171.95 522.029 1171.75 522.958 1171.38 523.82C1168.33 532.328 1165.54 540.138 1163 547.122C1160.46 554.106 1157.86 560.328 1155.25 565.725C1152.4 572.482 1148.76 578.876 1144.4 584.773C1141.45 588.752 1137.38 591.759 1132.72 593.408L1129.16 594.233C1127.82 594.492 1126.46 594.619 1125.1 594.614C1121.5 594.568 1117.93 593.902 1114.56 592.646C1110.56 591.098 1107.04 588.538 1104.33 585.217C1100.64 580.748 1097.91 575.559 1096.33 569.979C1094.06 561.711 1093.02 553.154 1093.22 544.582C1093.22 535.249 1093.54 526.297 1094.18 517.662C1094.81 509.027 1095.83 500.392 1097.16 491.566C1099.06 487.588 1101.47 483.874 1104.33 480.519C1106.93 477.43 1109.77 474.563 1112.84 471.947C1115.28 469.829 1117.94 467.977 1120.78 466.424C1122.42 465.392 1124.26 464.721 1126.18 464.455C1126.68 464.455 1126.94 465.027 1126.94 466.233C1126.89 468.018 1126.74 469.798 1126.49 471.566C1126.11 474.106 1125.79 477.916 1125.41 482.17C1125.03 486.424 1124.59 492.455 1124.14 499.503C1123.7 506.551 1123.32 515.122 1123.06 524.9C1123.01 530.295 1123.37 535.687 1124.14 541.027C1124.71 545.361 1125.75 549.62 1127.25 553.725C1128.35 556.847 1130.05 559.718 1132.27 562.17C1133.08 563.063 1134.06 563.787 1135.15 564.3C1136.24 564.812 1137.42 565.102 1138.62 565.154C1139.84 565.105 1141.04 564.796 1142.14 564.249C1143.23 563.702 1144.2 562.928 1144.97 561.979C1147.27 559.241 1149.23 556.235 1150.81 553.027C1152.78 549.217 1154.81 544.709 1157.16 539.439C1159.51 534.17 1161.48 528.519 1163.51 522.487C1164.84 519.693 1166.62 517.789 1169.03 517.789ZM1142.94 388.709C1143.33 389.498 1143.52 390.369 1143.51 391.249C1143.31 392.797 1142.79 394.285 1141.98 395.62C1141.17 396.954 1140.09 398.103 1138.81 398.995C1136.21 401.344 1133.79 403.566 1131.57 405.789C1129.35 408.011 1127.32 409.979 1125.22 411.693C1123.69 413.2 1122.06 414.6 1120.33 415.884C1119.32 416.717 1118.08 417.245 1116.78 417.408C1116.15 417.41 1115.52 417.28 1114.94 417.027C1114.2 416.646 1113.6 416.048 1113.22 415.312C1111.7 412.328 1110.11 408.963 1108.52 405.979C1106.94 402.995 1105.54 399.63 1104.33 396.836C1103.13 394.043 1102.05 391.503 1101.29 389.408C1100.7 388.005 1100.29 386.533 1100.08 385.027C1100.22 383.291 1100.91 381.645 1102.05 380.328C1102.56 379.566 1103.83 378.106 1105.67 375.884L1112.02 368.9C1114.18 366.424 1116.21 364.201 1118.37 362.106L1122.18 358.043C1123.76 356.201 1125.03 355.312 1126.11 355.312C1127.19 355.312 1128.21 356.138 1128.84 357.852C1129.48 359.566 1130.11 360.709 1131.51 363.693C1132.91 366.678 1134.37 370.043 1135.89 373.281L1140.4 382.868C1141.6 386.106 1142.43 388.074 1142.94 388.963V388.709Z" fill="#83B793"/>
<path d="M1261.16 517.789C1261.93 517.769 1262.68 518.041 1263.26 518.551C1263.56 518.861 1263.79 519.23 1263.94 519.634C1264.09 520.037 1264.16 520.468 1264.14 520.9C1264.17 521.91 1263.95 522.911 1263.51 523.82C1261.68 529.036 1259.56 534.144 1257.16 539.122C1254.87 543.947 1252.78 548.201 1250.81 551.82C1248.84 555.439 1246.18 560.138 1243.95 563.884C1241.18 568.124 1238.12 572.176 1234.81 576.011C1231.53 579.749 1227.87 583.132 1223.89 586.106C1220.03 589.016 1215.74 591.328 1211.19 592.963C1206.54 594.678 1201.61 595.538 1196.65 595.503C1192.35 595.464 1188.08 594.823 1183.95 593.598C1179.23 592.183 1174.88 589.707 1171.25 586.36C1167.03 582.349 1163.76 577.447 1161.67 572.011C1158.88 564.502 1157.59 556.523 1157.86 548.519C1157.85 544.023 1158.27 539.536 1159.13 535.122C1159.95 530.7 1161.12 526.348 1162.62 522.106C1164.08 518.125 1165.8 514.244 1167.76 510.487C1169.44 507.169 1171.37 503.985 1173.54 500.963C1176.86 496.383 1180.47 492.015 1184.33 487.884C1187.87 484.046 1191.69 480.48 1195.76 477.217C1199.24 474.419 1203.04 472.033 1207.06 470.106C1210.26 468.554 1213.74 467.689 1217.29 467.566C1219.73 467.568 1222.14 468.07 1224.38 469.042C1226.62 470.014 1228.63 471.435 1230.3 473.217C1232.27 475.393 1233.78 477.942 1234.74 480.712C1235.7 483.483 1236.09 486.419 1235.89 489.344C1235.78 495.966 1234.17 502.478 1231.19 508.392C1227.93 515.121 1223.99 521.503 1219.45 527.439C1214.81 533.537 1209.76 539.308 1204.33 544.709C1199.67 549.383 1194.76 553.792 1189.6 557.916C1191.38 562.897 1194.5 567.291 1198.62 570.614C1201.8 573.163 1205.72 574.591 1209.79 574.678C1215.57 574.714 1221.16 572.713 1225.6 569.027C1230.49 565.079 1234.77 560.437 1238.3 555.249C1242.01 549.827 1245.28 544.116 1248.08 538.17C1250.87 532.201 1253.41 526.995 1255.64 522.487C1256.24 521.173 1257.03 519.954 1257.99 518.868C1258.4 518.462 1258.9 518.154 1259.45 517.967C1260 517.78 1260.58 517.719 1261.16 517.789ZM1184.97 527.122C1184.88 533.895 1185.48 540.659 1186.75 547.312C1189.35 544.709 1191.95 541.789 1194.68 538.487C1197.31 535.235 1199.73 531.821 1201.92 528.265C1204.03 524.895 1205.8 521.321 1207.19 517.598C1208.53 514.266 1209.24 510.714 1209.29 507.122C1209.56 502.836 1208.37 498.585 1205.92 495.058C1205.2 493.896 1204.23 492.91 1203.07 492.173C1201.92 491.437 1200.61 490.969 1199.26 490.805C1197.54 491.022 1195.97 491.885 1194.87 493.217C1192.92 495.306 1191.33 497.71 1190.18 500.328C1188.47 503.952 1187.22 507.768 1186.43 511.693C1185.33 516.847 1184.82 522.108 1184.91 527.376L1184.97 527.122Z" fill="#83B793"/>
<path d="M987.256 621.211H991.002V633.274H1005.54V621.211H1009.1V649.719H1005.35V637.02H990.811V649.719H987.065L987.256 621.211Z" fill="#D2BF55"/>
<path d="M1030.3 650.431C1028.48 650.458 1026.67 650.135 1024.97 649.479C1023.36 648.837 1021.91 647.863 1020.71 646.622C1019.52 645.25 1018.61 643.652 1018.05 641.923C1016.72 637.794 1016.72 633.354 1018.05 629.225C1018.63 627.492 1019.56 625.894 1020.78 624.526C1021.96 623.279 1023.39 622.285 1024.97 621.606C1026.67 620.94 1028.47 620.595 1030.3 620.59C1032.15 620.584 1033.98 620.929 1035.7 621.606C1037.3 622.21 1038.74 623.189 1039.89 624.463C1041.08 625.847 1042 627.44 1042.62 629.161C1043.29 631.209 1043.61 633.355 1043.57 635.511C1043.6 637.664 1043.27 639.808 1042.62 641.86C1042.05 643.608 1041.15 645.227 1039.95 646.622C1038.78 647.88 1037.35 648.876 1035.76 649.542C1034.01 650.176 1032.16 650.478 1030.3 650.431ZM1030.3 647.257C1031.7 647.273 1033.08 646.992 1034.36 646.431C1035.52 645.881 1036.52 645.052 1037.28 644.018C1038.14 642.935 1038.74 641.678 1039.06 640.336C1039.9 637.152 1039.9 633.805 1039.06 630.622C1038.73 629.284 1038.12 628.031 1037.28 626.939C1036.53 625.904 1035.52 625.074 1034.36 624.526C1033.09 623.937 1031.7 623.654 1030.3 623.701C1028.9 623.661 1027.51 623.944 1026.24 624.526C1025.06 625.072 1024.03 625.901 1023.25 626.939C1022.46 628.049 1021.87 629.298 1021.54 630.622C1020.7 633.805 1020.7 637.152 1021.54 640.336C1021.86 641.664 1022.44 642.915 1023.25 644.018C1024.03 645.038 1025.02 645.864 1026.17 646.431C1027.48 646.984 1028.88 647.265 1030.3 647.257Z" fill="#D2BF55"/>
<path d="M1053.54 641.586C1053.62 642.425 1053.87 643.24 1054.28 643.981C1054.68 644.722 1055.23 645.376 1055.89 645.903C1057.6 646.944 1059.6 647.432 1061.6 647.3C1062.67 647.309 1063.74 647.159 1064.78 646.855C1065.54 646.659 1066.24 646.265 1066.81 645.713C1067.3 645.272 1067.69 644.731 1067.95 644.125C1068.15 643.467 1068.26 642.782 1068.27 642.093C1068.33 641.566 1068.33 641.033 1068.27 640.506C1068.09 639.988 1067.81 639.511 1067.44 639.109C1066.99 638.629 1066.45 638.241 1065.85 637.966C1065 637.603 1064.1 637.347 1063.19 637.205L1059.57 636.57C1058.27 636.358 1057 636.039 1055.76 635.617C1054.76 635.253 1053.81 634.739 1052.97 634.093C1052.22 633.454 1051.63 632.649 1051.25 631.744C1050.79 630.661 1050.58 629.491 1050.62 628.316C1050.62 627.124 1050.9 625.95 1051.44 624.887C1052.03 623.917 1052.81 623.074 1053.73 622.411C1054.73 621.736 1055.85 621.241 1057.03 620.951C1058.42 620.614 1059.85 620.444 1061.28 620.443C1062.89 620.423 1064.5 620.637 1066.05 621.078C1067.18 621.431 1068.23 621.991 1069.16 622.728C1069.93 623.397 1070.56 624.219 1071 625.141C1071.44 626.004 1071.76 626.922 1071.95 627.871L1068.46 628.506C1068.29 627.771 1068.01 627.065 1067.63 626.411C1067.32 625.787 1066.86 625.244 1066.3 624.824C1065.68 624.395 1064.99 624.073 1064.27 623.871C1063.3 623.759 1062.32 623.759 1061.35 623.871C1060.23 623.845 1059.12 623.973 1058.05 624.252C1057.26 624.435 1056.53 624.781 1055.89 625.268C1055.35 625.611 1054.95 626.126 1054.74 626.728C1054.49 627.287 1054.36 627.893 1054.36 628.506C1054.26 629.115 1054.26 629.738 1054.36 630.347C1054.51 630.874 1054.82 631.341 1055.25 631.681C1055.69 632.141 1056.24 632.489 1056.84 632.697C1057.67 632.976 1058.52 633.188 1059.38 633.332L1063.38 634.03C1065.7 634.396 1067.89 635.359 1069.73 636.824C1070.46 637.572 1071.03 638.469 1071.39 639.454C1071.75 640.44 1071.9 641.491 1071.82 642.538C1071.83 643.634 1071.59 644.718 1071.12 645.713C1070.71 646.737 1070.03 647.634 1069.16 648.316C1068.21 649.118 1067.11 649.723 1065.92 650.093C1064.4 650.552 1062.81 650.766 1061.22 650.728C1059.68 650.766 1058.14 650.595 1056.65 650.22C1055.36 649.948 1054.13 649.431 1053.03 648.697C1052.01 647.954 1051.17 647.001 1050.55 645.903C1049.88 644.67 1049.49 643.304 1049.41 641.903L1053.54 641.586Z" fill="#D2BF55"/>
<path d="M1080.52 621.22H1090.17C1091.95 621.164 1093.73 621.378 1095.44 621.855C1096.66 622.243 1097.78 622.869 1098.75 623.696C1099.49 624.471 1100.06 625.404 1100.4 626.426C1100.68 627.483 1100.83 628.571 1100.84 629.664C1100.84 630.825 1100.67 631.98 1100.33 633.093C1100.01 634.16 1099.45 635.139 1098.68 635.95C1097.76 636.862 1096.62 637.538 1095.38 637.918C1093.7 638.471 1091.94 638.729 1090.17 638.68H1084.21V649.728H1080.52V621.22ZM1090.11 635.569C1091.29 635.584 1092.47 635.434 1093.6 635.124C1094.41 634.943 1095.16 634.549 1095.76 633.982C1096.27 633.465 1096.64 632.833 1096.84 632.14C1096.94 631.361 1097.1 630.28 1097 629.5C1097.03 628.684 1096.77 628.159 1096.52 627.378C1096.34 626.713 1095.97 626.116 1095.44 625.664C1094.8 625.192 1094.06 624.847 1093.29 624.648C1092.15 624.536 1091 624.536 1089.86 624.648H1083.95V635.886L1090.11 635.569Z" fill="#D2BF55"/>
<path d="M1109.03 621.211H1112.72V649.719H1109.03V621.211Z" fill="#D2BF55"/>
<path d="M1129.73 624.449H1120.21V621.211H1142.43V624.449H1132.9V649.846H1129.73V624.449Z" fill="#D2BF55"/>
<path d="M1154.24 621.211H1158.17L1169.35 649.719H1165.35L1162.3 641.782H1149.92L1146.93 649.719H1143.06L1154.24 621.211ZM1161.47 638.417L1156.39 625.211L1151.06 638.417H1161.47Z" fill="#D2BF55"/>
<path d="M1175.45 621.211H1179.13V646.608H1194.05L1193.48 649.909H1175.45V621.211Z" fill="#D2BF55"/>
<path d="M1201.35 621.211H1205.03V649.719H1201.35V621.211Z" fill="#D2BF55"/>
<path d="M1221.73 624.449H1212.27V621.211H1235.06V624.449H1225.54V649.846H1221.79L1221.73 624.449Z" fill="#D2BF55"/>
<path d="M1250.37 637.592L1240.27 621.211H1244.59L1252.21 634.354L1260.02 621.211H1263.95L1254.11 637.592V649.719H1250.37V637.592Z" fill="#D2BF55"/>
<path d="M394.492 365.653L390.936 362.161L371.317 381.59V354.098H366.302V381.59L346.683 362.161L343.19 365.653L362.81 385.082H335V390.034H362.81L343.19 409.463L346.683 412.955L366.302 393.526V421.018H371.317V393.526L390.936 412.955L394.492 409.463L374.81 390.034H402.619V385.082H374.81L394.492 365.653Z" fill="#F8ADA0"/>
<path d="M611.825 385.082H584.079L603.698 365.653L600.206 362.161L580.523 381.59V354.098H575.571V381.59L555.889 362.161L552.397 365.653L572.016 385.082H544.27V390.034H572.016L552.397 409.463L555.889 412.955L575.571 393.526V421.018H580.523V393.526L600.206 412.955L603.698 409.463L584.079 390.034H611.825V385.082Z" fill="#F8ADA0"/>
<path d="M521.603 280.762L518.111 277.333L475.889 319.048V260H470.936V319.048L428.714 277.333L425.222 280.762L467.444 322.54H407.762V327.492H467.444L425.222 369.27L428.714 372.698L470.936 330.984V390.032H475.889V330.984L518.111 372.698L521.603 369.27L479.444 327.492H539.127V322.54H479.444L521.603 280.762Z" fill="#F8ADA0"/>
<path d="M558.304 544.762C554.495 537.206 545.606 523.556 532.526 519.365C535.574 513.016 543.891 498.222 556.78 494.857C567.701 497.714 575.383 508.889 579.32 516.064C577.068 509.824 574.46 503.719 571.51 497.778C568.557 495.1 565.163 492.952 561.479 491.429C562.177 489.968 563.257 487.81 564.717 485.079C563.764 483.429 562.749 481.841 561.796 480.317C560.525 482.264 559.359 484.278 558.304 486.349C554.304 478.54 545.225 464.127 531.003 460.952H530.558C527.955 455.175 518.304 435.937 501.606 432H501.034H500.463C486.241 435.365 477.161 449.714 473.161 457.397C469.161 449.587 460.018 435.238 445.86 432H445.288H444.717C428.018 435.937 418.304 455.175 415.764 460.952H415.257C401.606 464.127 392.653 477.587 388.463 485.524C387.637 484 386.622 482.222 385.479 480.381C384.463 481.968 383.51 483.556 382.558 485.206C383.891 487.492 384.907 489.524 385.606 490.984C382.246 492.262 379.132 494.109 376.399 496.444C373.874 501.425 371.607 506.532 369.606 511.746C374.021 503.93 381.095 497.959 389.542 494.921C402.241 498.286 410.749 513.143 413.796 519.429C401.098 523.238 392.526 536 388.399 543.619C383.655 533.811 375.918 525.762 366.304 520.635C365.796 522.222 365.288 523.746 364.78 525.397C374.06 531.028 381.292 539.483 385.415 549.524C370.495 555.175 361.923 572.698 359.701 577.714L356.59 578.73C356.59 580.508 356.59 582.286 356.59 584.127C357.921 583.44 359.327 582.907 360.78 582.54C373.796 585.968 382.177 601.016 385.161 607.238C375.378 611.549 367.344 619.046 362.368 628.508C363.003 630.73 363.701 632.825 364.463 634.857C369.034 626.476 377.161 614.413 387.701 611.556C401.288 615.175 409.86 631.492 412.463 636.952C398.685 642.857 389.542 660.508 386.495 667.238C387.828 668.444 389.098 669.587 390.431 670.667C392.59 665.778 402.558 644.444 417.161 640.508C430.304 644 438.749 659.556 441.606 665.46C431.805 669.791 423.799 677.371 418.939 686.921L423.637 688.635C428.178 679.866 435.798 673.082 445.034 669.587C461.415 673.968 470.431 696.762 470.431 697.016L472.78 696.127L475.066 697.016C475.066 697.016 484.272 673.968 500.463 669.587C509.805 673.16 517.48 680.087 521.987 689.016L526.749 687.238C521.821 677.589 513.73 669.923 503.828 665.524C506.685 659.492 515.13 644.063 528.336 640.571C543.574 644.698 553.733 667.81 555.257 671.302L559.193 667.937C556.463 661.587 547.257 643.111 533.034 637.016C535.574 631.429 544.145 615.111 557.733 611.619C568.463 614.54 576.78 627.238 581.606 635.746C582.368 633.778 583.13 631.683 583.764 629.397C578.75 619.862 570.835 612.169 561.161 607.429C563.955 601.079 572.399 585.968 585.606 582.476C587.079 582.844 588.506 583.376 589.86 584.064V578.667C588.657 578.21 587.427 577.828 586.177 577.524H585.733C583.701 571.937 575.447 555.429 561.288 549.524C565.49 539.47 572.813 531.033 582.177 525.46C581.733 523.873 581.225 522.286 580.717 520.698C570.837 526.08 562.971 534.525 558.304 544.762ZM554.685 548.698C541.352 552.635 532.717 566.286 528.907 573.778C524.062 563.3 515.832 554.757 505.542 549.524C508.145 543.937 516.653 527.683 530.241 524.127C543.13 527.556 551.447 542.349 554.495 548.698H554.685ZM497.542 549.143C484.844 553.587 476.78 566.54 473.098 573.778C469.352 566.54 461.225 553.587 448.59 549.143C451.447 542.794 459.891 527.619 473.098 524.127C486.114 527.619 494.812 543.175 497.415 549.143H497.542ZM476.463 520.064C479.32 513.714 487.764 498.603 500.971 495.111C514.495 498.667 523.066 514.921 525.669 520.508C512.971 525.714 504.907 539.556 501.733 545.905C498.368 539.492 489.923 524.825 476.336 520.064H476.463ZM444.717 546.286C441.542 539.937 433.542 525.778 420.78 520.889C423.383 515.238 431.891 498.984 445.479 495.492C458.622 498.984 467.066 514.54 469.923 520.444C456.018 524.825 447.574 539.492 444.336 546.286H444.717ZM445.479 553.206C458.622 556.698 467.066 572.254 469.923 578.159C456.399 582.984 447.955 597.651 444.526 604.381C439.647 593.454 431.209 584.502 420.59 578.984C423.003 573.016 431.32 556.825 445.098 553.206H445.479ZM473.352 582.286C486.495 585.778 494.939 601.333 497.796 607.238C485.098 611.683 477.034 624.635 473.352 631.873C469.606 624.635 461.479 611.683 448.844 607.238C451.32 601.206 459.764 585.778 472.971 582.286H473.352ZM476.717 578.159C479.574 571.81 488.018 556.698 501.225 553.206C514.749 556.825 523.32 573.016 525.923 578.603C515.304 584.121 506.866 593.073 501.987 604C498.368 597.651 489.923 582.984 476.336 578.159H476.717ZM554.495 490.54C541.161 494.54 532.526 508.19 528.717 515.937C523.908 505.513 515.75 496.997 505.542 491.746C508.145 486.159 516.717 469.905 530.241 466.349C543.13 469.46 551.447 484.254 554.495 490.54ZM501.161 437.016C514.685 440.571 523.257 456.825 525.86 462.413C513.161 467.619 505.098 481.46 501.923 487.81C498.685 481.016 490.241 466.349 476.526 461.587C479.193 455.937 487.637 440.508 501.161 437.016ZM473.288 466.032C486.431 469.524 494.876 485.079 497.733 490.984C485.034 495.429 476.971 508.444 473.288 515.683C469.542 508.444 461.415 495.429 448.78 490.984C451.32 484.952 459.764 469.524 472.971 466.032H473.288ZM445.415 437.016C458.558 440.508 467.003 456.063 469.86 461.968C456.336 466.73 447.891 481.397 444.463 488.19C441.288 481.841 433.288 467.683 420.526 462.794C423.003 456.825 431.32 440.571 445.098 437.016H445.415ZM391.701 490.54C394.749 484.19 403.066 469.46 415.955 466.032C429.542 469.651 438.05 485.905 440.653 491.429C430.463 496.683 422.326 505.2 417.542 515.619C413.352 508.191 404.717 494.54 391.383 490.54H391.701ZM415.637 524.127C429.225 527.746 437.733 544 440.336 549.524C430.132 554.73 421.987 563.232 417.225 573.651C413.352 566.159 404.526 552.508 391.383 548.571C394.431 542.349 402.812 527.556 415.637 524.127ZM364.844 578.349C367.574 572.444 376.082 556.762 389.415 552.952C402.114 556.381 410.622 571.175 413.669 577.46C400.971 581.27 392.399 594.032 388.272 601.714C383.357 591.46 375.061 583.209 364.78 578.349H364.844ZM416.526 633.46C413.225 626.667 404.78 612 391.13 607.238C393.987 600.889 402.368 585.778 415.574 582.286C429.161 585.841 437.669 602.095 440.272 607.683C427.574 613.016 419.574 626.921 416.463 633.46H416.526ZM420.653 636.254C423.51 629.905 431.955 614.794 445.161 611.302C458.304 614.794 466.749 630.349 469.606 636.254C456.907 640.698 448.844 653.714 445.161 660.952C441.352 653.714 433.225 640.698 420.59 636.254H420.653ZM473.034 690.032C469.288 682.73 461.161 669.778 448.526 665.333C451.383 659.302 459.828 643.873 473.034 640.381C486.177 643.873 494.622 659.429 497.479 665.333C486.591 670.331 477.884 679.106 472.971 690.032H473.034ZM501.161 660.952C497.415 653.714 489.288 640.698 476.653 636.254C479.574 629.905 488.018 614.794 501.161 611.302C514.304 614.794 522.749 630.349 525.606 636.254C512.717 640.698 504.526 653.714 501.161 660.952ZM529.796 633.46C526.622 627.111 518.622 612.952 505.86 608.064C508.463 602.413 517.034 586.159 530.558 582.667C543.764 586.159 552.209 601.714 555.066 607.619C541.161 612 532.907 626.667 529.479 633.46H529.796ZM581.606 578.667C571.365 583.915 563.165 592.427 558.304 602.857C554.495 595.302 545.606 581.714 532.526 577.46C535.574 571.111 543.891 556.381 556.78 552.952C570.114 556.825 578.685 573.016 581.288 578.667H581.606Z" fill="#D2BF55"/>
<path d="M474.176 699.377H472.716C463.065 699.377 371.128 697.218 357.16 616.456C348.632 572.149 355.959 526.254 377.858 486.805C386.931 470.261 398.986 455.537 413.414 443.377C430.966 431.107 452.008 424.827 473.414 425.472C494.85 424.818 515.922 431.122 533.477 443.44C534.176 443.948 609.097 502.551 590.049 616.456C576.081 697.218 483.763 699.377 474.176 699.377ZM473.414 430.361C453.054 429.765 433.036 435.681 416.271 447.25C415.509 447.821 343.001 504.393 361.795 615.631C375.382 696.202 472.144 694.488 473.097 694.424C474.112 694.424 570.811 696.139 584.462 615.631C603.573 504.71 531.128 447.948 530.366 447.313C513.662 435.761 493.716 429.824 473.414 430.361Z" fill="#F8ADA0"/>
</svg>
