<svg width="2000" height="1400" viewBox="0 0 2000 1400" fill="none" xmlns="http://www.w3.org/2000/svg">
<rect width="2000" height="1400" fill="#E83738"/>
<path d="M1000 1138C1241.9 1138 1438 941.901 1438 700C1438 458.099 1241.9 262 1000 262C758.099 262 562 458.099 562 700C562 941.901 758.099 1138 1000 1138Z" fill="#FAF6CD"/>
<path d="M1285.61 414.39C1209.32 338.1 1107.89 296.09 1000 296.09C892.11 296.09 790.68 338.09 714.39 414.39C638.1 490.69 596.09 592.11 596.09 700C596.09 807.89 638.09 909.32 714.39 985.61C790.69 1061.9 892.11 1103.91 1000 1103.91C1107.89 1103.91 1209.32 1061.91 1285.61 985.61C1361.9 909.31 1403.91 807.89 1403.91 700C1403.91 592.11 1361.9 490.68 1285.61 414.39ZM1273.67 973.67C1237.73 1009.61 1195.07 1038.12 1148.11 1057.58C1101.15 1077.03 1050.83 1087.04 1000 1087.04C949.174 1087.04 898.845 1077.03 851.888 1057.58C804.932 1038.12 762.267 1009.61 726.33 973.67C714.059 961.386 702.614 948.304 692.07 934.51V868.51H675.18V910.58C634.58 847.835 612.98 774.694 612.98 699.96C612.98 625.226 634.58 552.084 675.18 489.34V870.89H692.07V465.54H692C702.558 451.727 714.02 438.628 726.31 426.33C735.27 417.37 744.586 408.91 754.26 400.95V698.74H771.14V387.74C790.655 373.369 811.484 360.873 833.35 350.42V665.75H850.23V342.91C870.359 334.483 891.171 327.792 912.44 322.91V633.94H929.33V319.4C949.864 315.633 970.667 313.519 991.54 313.08V585.08H1008.42V313.08C1028.9 313.512 1049.32 315.552 1069.48 319.18V492.29H1086.37V322.61C1107.63 327.425 1128.45 334.053 1148.58 342.42V492.29H1165.46V349.91C1187.33 360.283 1208.16 372.702 1227.69 387V492.29H1244.57V400C1254.64 408.24 1264.34 417.017 1273.67 426.33C1285.97 438.627 1297.44 451.726 1308 465.54L1306.8 462.54V541.17H1323.69V487.62C1365.03 550.738 1387.05 624.549 1387.05 700C1387.05 775.451 1365.03 849.262 1323.69 912.38V538.09H1306.8V936C1296.57 949.25 1285.5 961.832 1273.67 973.67Z" fill="#E83738"/>
<path d="M1244 580.58H1176.81C1176.6 576.85 1175.58 573.211 1173.81 569.92C1170.02 562.87 1163.32 558.66 1155.88 558.66H1109.18C1102 558.66 1095.52 562.72 1091.86 569.52C1089.79 573.399 1088.79 577.761 1088.96 582.156C1089.14 586.551 1090.48 590.819 1092.86 594.52L1096.4 599.87L887.63 729C885.169 727.914 882.509 727.352 879.82 727.35H833.12C825.94 727.35 819.46 731.41 815.8 738.22C813.725 742.099 812.724 746.461 812.9 750.856C813.076 755.251 814.422 759.52 816.8 763.22L821.27 769.98L748.09 815.23C745.477 816.845 743.463 819.268 742.352 822.132C741.24 824.995 741.093 828.143 741.932 831.097C742.771 834.052 744.551 836.652 747.001 838.504C749.451 840.356 752.438 841.359 755.51 841.36H853.78C866.696 841.376 879.361 837.788 890.35 831L911.11 818.17H1122.11V744.62C1122.11 727.63 1115.88 711.23 1104.59 698.53L1251.65 607.62C1254.34 605.942 1256.4 603.436 1257.54 600.48C1258.68 597.525 1258.83 594.279 1257.96 591.233C1257.09 588.186 1255.26 585.504 1252.74 583.59C1250.21 581.676 1247.14 580.634 1243.97 580.62L1244 580.58ZM1106.76 577.52C1107.16 576.78 1108.01 575.52 1109.21 575.52H1155.91C1157.46 575.52 1158.5 577.01 1158.97 577.9C1159.69 579.252 1160.04 580.769 1159.99 582.299C1159.94 583.829 1159.49 585.319 1158.68 586.62L1138.68 616.85H1127.91L1107 585.23C1106.28 584.082 1105.88 582.766 1105.83 581.413C1105.78 580.059 1106.09 578.717 1106.72 577.52H1106.76ZM830.67 746.19C831.07 745.45 831.92 744.19 833.12 744.19H879.82C881.37 744.19 882.4 745.68 882.88 746.56C883.6 747.912 883.952 749.429 883.901 750.959C883.85 752.489 883.398 753.979 882.59 755.28L862.59 785.52H851.84L830.93 753.87C830.219 752.725 829.82 751.412 829.775 750.065C829.729 748.717 830.038 747.381 830.67 746.19V746.19ZM938.43 801.19L996.62 765.19H1105.21V801.19H938.43ZM1105.21 744.57V748.33H1023.94L1089.94 707.53C1099.74 717.384 1105.23 730.723 1105.21 744.62V744.57ZM881.47 816.57C873.163 821.709 863.588 824.431 853.82 824.43H765.27L830.63 784.03L842.76 802.39H871.68L896.68 764.58C898.853 761.218 900.21 757.395 900.643 753.415C901.075 749.436 900.571 745.41 899.17 741.66L1105.74 614L1118.81 633.78H1147.74L1171.74 597.48H1236L881.47 816.57Z" fill="#E83738"/>
<path d="M844.67 970.49L863.7 880.07H846.29L834.55 935.26L819.3 880.07H802.56L787.31 935.26L775.57 880.07H758.16L777.19 970.49H795.27L810.79 914.08L826.31 970.49H844.67Z" fill="#E83738"/>
<path d="M901.75 880.07L859 970.49H878L887.45 950.78H933.45L942.63 970.49H961.63L918.84 880.07H901.75ZM895.41 933.37L910.41 901.93L925.26 933.37H895.41Z" fill="#E83738"/>
<path d="M1004.59 970.49V934.05L1047.37 880.07H1025.51L996.09 917.18L966.53 880.07H944.67L987.45 934.05V970.49H1004.59Z" fill="#E83738"/>
<path d="M1125.78 943.23L1075.04 880.07H1058.16V970.49H1075.31V908L1126.05 970.49H1143.19V880.07H1125.78V943.23Z" fill="#E83738"/>
<path d="M1178.28 931.22H1209.99V913.67H1178.28V897.21H1233.07V880.07H1161.13V970.49H1234.42V953.35H1178.28V931.22Z" fill="#E83738"/>
<path d="M846.49 1013.83L842.16 998.141H837.4L833.06 1013.83L829.73 998.141H824.77L830.18 1023.85H835.33L839.74 1007.81L844.15 1023.85H849.37L854.78 998.141H849.83L846.49 1013.83Z" fill="#E83738"/>
<path d="M874.54 997.71C872.773 997.67 871.016 997.987 869.375 998.644C867.733 999.3 866.242 1000.28 864.99 1001.53C863.752 1002.77 862.772 1004.24 862.106 1005.86C861.439 1007.47 861.101 1009.21 861.109 1010.96C861.117 1012.71 861.473 1014.44 862.154 1016.05C862.836 1017.66 863.83 1019.13 865.08 1020.35C866.957 1022.22 869.347 1023.5 871.949 1024.02C874.55 1024.54 877.247 1024.27 879.699 1023.26C882.15 1022.25 884.247 1020.53 885.724 1018.33C887.202 1016.12 887.994 1013.53 888 1010.88C888.014 1009.15 887.666 1007.43 886.977 1005.83C886.288 1004.24 885.274 1002.81 884 1001.63C882.771 1000.37 881.299 999.374 879.672 998.7C878.046 998.026 876.3 997.689 874.54 997.71V997.71ZM880.59 1016.86C878.986 1018.46 876.812 1019.36 874.545 1019.36C872.279 1019.36 870.105 1018.46 868.5 1016.86C867.69 1016.09 867.049 1015.16 866.617 1014.12C866.185 1013.09 865.972 1011.98 865.99 1010.86C865.966 1009.76 866.178 1008.67 866.611 1007.66C867.044 1006.65 867.688 1005.74 868.5 1005C870.138 1003.46 872.3 1002.61 874.545 1002.61C876.791 1002.61 878.952 1003.46 880.59 1005C881.391 1005.74 882.027 1006.64 882.46 1007.63C882.892 1008.63 883.11 1009.71 883.1 1010.8C883.124 1011.93 882.914 1013.05 882.482 1014.09C882.05 1015.14 881.406 1016.08 880.59 1016.86V1016.86Z" fill="#E83738"/>
<path d="M908.89 997.711C907.121 997.669 905.362 997.986 903.719 998.643C902.077 999.299 900.583 1000.28 899.33 1001.53C898.094 1002.77 897.115 1004.24 896.451 1005.86C895.786 1007.48 895.449 1009.21 895.458 1010.96C895.467 1012.71 895.823 1014.44 896.505 1016.05C897.187 1017.66 898.181 1019.13 899.43 1020.35C901.31 1022.21 903.697 1023.47 906.292 1023.98C908.887 1024.49 911.575 1024.22 914.018 1023.21C916.462 1022.2 918.553 1020.49 920.03 1018.3C921.506 1016.11 922.303 1013.52 922.32 1010.88C922.332 1009.15 921.983 1007.43 921.294 1005.83C920.606 1004.24 919.593 1002.81 918.32 1001.63C917.092 1000.38 915.624 999.386 914.003 998.712C912.383 998.039 910.645 997.698 908.89 997.711V997.711ZM914.89 1016.86C913.285 1018.46 911.112 1019.36 908.845 1019.36C906.579 1019.36 904.405 1018.46 902.8 1016.86C901.992 1016.09 901.352 1015.15 900.921 1014.12C900.489 1013.09 900.274 1011.98 900.29 1010.86C900.272 1009.77 900.486 1008.68 900.919 1007.67C901.351 1006.66 901.993 1005.76 902.8 1005.02C904.412 1003.47 906.567 1002.62 908.8 1002.65C909.91 1002.64 911.011 1002.84 912.041 1003.26C913.071 1003.67 914.008 1004.28 914.8 1005.06C915.602 1005.8 916.241 1006.69 916.673 1007.69C917.106 1008.69 917.323 1009.77 917.31 1010.86C917.345 1011.97 917.152 1013.08 916.743 1014.11C916.333 1015.14 915.716 1016.08 914.93 1016.86H914.89Z" fill="#E83738"/>
<path d="M941.85 998.14H930.57V1023.85H941.85C943.568 1023.9 945.279 1023.6 946.88 1022.98C948.482 1022.35 949.942 1021.41 951.174 1020.21C952.406 1019.02 953.386 1017.58 954.055 1016C954.724 1014.42 955.068 1012.71 955.068 1010.99C955.068 1009.28 954.724 1007.57 954.055 1005.99C953.386 1004.41 952.406 1002.97 951.174 1001.78C949.942 1000.58 948.482 999.638 946.88 999.013C945.279 998.389 943.568 998.092 941.85 998.14ZM947.47 1016.63C946.744 1017.38 945.87 1017.98 944.903 1018.38C943.936 1018.79 942.897 1018.99 941.85 1018.97H935.44V1003H941.85C943.951 1003.02 945.961 1003.86 947.447 1005.34C948.933 1006.83 949.774 1008.84 949.79 1010.94C949.811 1012 949.617 1013.05 949.218 1014.02C948.819 1015 948.224 1015.89 947.47 1016.63Z" fill="#E83738"/>
<path d="M983.48 1013.83L979.14 998.141H974.39L970.05 1013.83L966.71 998.141H961.76L967.17 1023.85H972.32L976.73 1007.81L981.14 1023.85H986.36L991.77 998.141H986.82L983.48 1013.83Z" fill="#E83738"/>
<path d="M1011.53 997.711C1009.76 997.669 1008.01 997.986 1006.36 998.643C1004.72 999.299 1003.23 1000.28 1001.98 1001.53C1000.74 1002.77 999.761 1004.24 999.095 1005.86C998.429 1007.47 998.09 1009.21 998.099 1010.96C998.107 1012.71 998.462 1014.44 999.144 1016.05C999.826 1017.66 1000.82 1019.13 1002.07 1020.35C1003.95 1022.21 1006.34 1023.48 1008.93 1023.99C1011.53 1024.51 1014.22 1024.24 1016.66 1023.23C1019.11 1022.22 1021.2 1020.5 1022.68 1018.31C1024.15 1016.11 1024.95 1013.53 1024.96 1010.88C1024.97 1009.15 1024.63 1007.43 1023.94 1005.83C1023.25 1004.24 1022.23 1002.81 1020.96 1001.63C1019.73 1000.38 1018.26 999.384 1016.64 998.711C1015.02 998.037 1013.28 997.697 1011.53 997.711V997.711ZM1017.53 1016.86C1015.93 1018.46 1013.75 1019.36 1011.49 1019.36C1009.23 1019.36 1007.05 1018.46 1005.45 1016.86C1004.64 1016.09 1004 1015.16 1003.56 1014.12C1003.13 1013.09 1002.91 1011.98 1002.93 1010.86C1002.91 1009.76 1003.13 1008.68 1003.56 1007.67C1004 1006.66 1004.64 1005.76 1005.45 1005.02C1007.06 1003.47 1009.22 1002.62 1011.45 1002.65C1012.56 1002.64 1013.66 1002.84 1014.69 1003.25C1015.72 1003.67 1016.66 1004.28 1017.45 1005.06C1018.25 1005.8 1018.89 1006.69 1019.33 1007.69C1019.76 1008.69 1019.98 1009.77 1019.97 1010.86C1020 1011.97 1019.81 1013.08 1019.39 1014.11C1018.98 1015.14 1018.36 1016.08 1017.57 1016.86H1017.53Z" fill="#E83738"/>
<path d="M1055.5 1010.8C1056.36 1009.6 1056.87 1008.18 1056.98 1006.7C1057.08 1005.23 1056.78 1003.75 1056.09 1002.44C1055.41 1001.13 1054.37 1000.03 1053.1 999.273C1051.83 998.514 1050.38 998.121 1048.9 998.139H1033.21V1023.85H1038.08V1014.21H1046.08L1051.76 1023.85H1057.44L1051.56 1013.75C1053.15 1013.2 1054.53 1012.17 1055.5 1010.8ZM1048.9 1009.34H1038.08V1003H1048.9C1049.33 1002.99 1049.75 1003.07 1050.14 1003.23C1050.54 1003.39 1050.89 1003.63 1051.19 1003.94C1051.49 1004.23 1051.72 1004.57 1051.89 1004.96C1052.05 1005.34 1052.13 1005.75 1052.13 1006.16C1052.13 1006.58 1052.05 1006.99 1051.89 1007.37C1051.72 1007.75 1051.49 1008.1 1051.19 1008.39C1050.89 1008.7 1050.54 1008.94 1050.14 1009.1C1049.75 1009.27 1049.33 1009.35 1048.9 1009.34V1009.34Z" fill="#E83738"/>
<path d="M1087.85 998.141H1081.29L1070.55 1009.5V998.141H1065.67V1023.85H1070.55V1016.63L1076.3 1010.68L1084.17 1023.85H1089.73L1079.76 1007L1087.85 998.141Z" fill="#E83738"/>
<path d="M1103.54 998.141H1098.67V1023.85H1103.54V998.141Z" fill="#E83738"/>
<path d="M1133.02 1016.1L1118.59 998.141H1113.79V1023.85H1118.66V1006.08L1133.09 1023.85H1137.97V998.141H1133.02V1016.1Z" fill="#E83738"/>
<path d="M1160 1014.75H1165.76C1165.47 1015.56 1165.04 1016.32 1164.49 1016.98C1163.85 1017.76 1163.04 1018.39 1162.12 1018.8C1161.2 1019.21 1160.2 1019.41 1159.19 1019.36C1158.17 1019.4 1157.16 1019.22 1156.22 1018.82C1155.29 1018.43 1154.45 1017.83 1153.77 1017.07C1152.41 1015.33 1151.69 1013.19 1151.71 1010.99C1151.74 1008.79 1152.51 1006.66 1153.9 1004.95C1154.76 1004.13 1155.8 1003.51 1156.92 1003.12C1158.05 1002.73 1159.24 1002.59 1160.43 1002.71C1161.62 1002.82 1162.76 1003.19 1163.79 1003.78C1164.83 1004.38 1165.72 1005.19 1166.41 1006.16L1170.41 1003.39C1169.38 1001.97 1168.14 1000.71 1166.73 999.67C1164.7 998.327 1162.32 997.629 1159.89 997.67C1158.15 997.6 1156.41 997.892 1154.78 998.527C1153.15 999.162 1151.67 1000.13 1150.44 1001.36C1149.22 1002.64 1148.26 1004.15 1147.64 1005.8C1147.02 1007.46 1146.73 1009.22 1146.81 1010.99C1146.66 1014.38 1147.81 1017.71 1150.03 1020.28C1151.17 1021.57 1152.57 1022.6 1154.15 1023.29C1155.73 1023.98 1157.44 1024.32 1159.16 1024.28C1160.69 1024.29 1162.21 1024 1163.63 1023.42C1165.05 1022.84 1166.34 1021.98 1167.43 1020.9C1168.52 1019.82 1169.38 1018.53 1169.97 1017.12C1170.56 1015.7 1170.87 1014.18 1170.87 1012.65V1009.73H1160V1014.75Z" fill="#E83738"/>
</svg>
