<svg id="Layer_1" data-name="Layer 1" xmlns="http://www.w3.org/2000/svg" viewBox="0 0 1100 1100"><defs><style>.cls-1{fill:#e83738;}.cls-2{fill:#faf6cd;}</style></defs><path class="cls-1" d="M548.72,0h0A551.28,551.28,0,0,1,1100,551.28V1100a0,0,0,0,1,0,0H0a0,0,0,0,1,0,0V548.72A548.72,548.72,0,0,1,548.72,0Z"/><path class="cls-2" d="M332.83,643.68l-31.17,148.1H271.6l-25.42-92.4-25.42,92.4H191.14L160,643.68h28.51l19.23,90.41,25-90.41h27.41l25,90.41,19.23-90.41Z"/><path class="cls-2" d="M493.31,791.78H462.14l-15-32.27H371.73l-15.47,32.27H325.09l70.07-148.1h28.08ZM433.62,731l-24.31-51.5L384.77,731Z"/><path class="cls-2" d="M633.67,643.68,563.6,732.1v59.68H535.52V732.1l-70.07-88.42h35.81l48.41,60.79,48.19-60.79Z"/><path class="cls-2" d="M790.6,791.78H762.53L679.42,689.44V791.78H651.35V643.68H679l83.11,103.45V643.68H790.6Z"/><path class="cls-2" d="M940,791.78H820V643.68H937.81v28.07H848.07v27H900v28.74H848.07v36.25H940Z"/><path class="cls-2" d="M685.63,403.14a8.14,8.14,0,0,0-7.88-6H641.24a14.24,14.24,0,0,0-1.62-5.7,11.35,11.35,0,0,0-10-6.27h-25.5a10.94,10.94,0,0,0-9.64,6.05,13.69,13.69,0,0,0,.57,13.88l1.82,2.74L483.1,478.21a10.83,10.83,0,0,0-4.24-.88h-25.5a11,11,0,0,0-9.65,6.05,13.71,13.71,0,0,0,.58,13.88l2.32,3.51-39.79,24.6A7.92,7.92,0,0,0,411,540h53.67a38.15,38.15,0,0,0,20.07-5.7l11.28-7H611.4V487a38,38,0,0,0-9.49-25.1l80.15-49.54A8.14,8.14,0,0,0,685.63,403.14ZM603,395.83c.16-.3.58-1,1.15-1h25.5c.74,0,1.25.74,1.49,1.18a4.56,4.56,0,0,1-.15,4.55L620.12,417h-5.65l-11.36-17.19A4,4,0,0,1,603,395.83ZM452.21,488c.15-.29.58-1,1.15-1h25.5c.74,0,1.25.74,1.49,1.18a4.56,4.56,0,0,1-.15,4.55l-10.85,16.42H463.7l-11.36-17.19A4,4,0,0,1,452.21,488Zm59.4,29.76,32.26-19.94-4.4.71h62.29v19.23ZM601.76,487v1.85H558.32L593.58,467A28.46,28.46,0,0,1,601.76,487Zm-122.1,39.14a28.59,28.59,0,0,1-15,4.26H417l34.89-21.57,6.58,9.95h16L488.24,498a14.19,14.19,0,0,0,1.43-12.54l112.52-69.56,7.09,10.72h16l13.11-19.82h34.23Z"/><path class="cls-2" d="M300.76,388a7.65,7.65,0,0,1,4.21,5.79q.64,3.89-2,9a22.91,22.91,0,0,1-10,10.3l-2.43-4.66a18.48,18.48,0,0,0,7.69-7.93,13.37,13.37,0,0,0,1.58-5.3,2.87,2.87,0,0,0-1.37-2.74,2.6,2.6,0,0,0-3,.4,16.92,16.92,0,0,0-3.91,4.53c-2.59,3.91-4.85,6.24-6.81,7a6.78,6.78,0,0,1-5.86-.43,6.51,6.51,0,0,1-3.41-5.59,15.65,15.65,0,0,1,1.84-8.17,21.34,21.34,0,0,1,8-8.33l2.41,4.51a16.6,16.6,0,0,0-5.84,6.61,13.49,13.49,0,0,0-1.4,3.77c-.25,1.27,0,2.1.87,2.47s1.53.25,2.48-.53a21.79,21.79,0,0,0,3.67-4.62q3.48-5.46,7-6.5A8.29,8.29,0,0,1,300.76,388Z"/><path class="cls-2" d="M306.84,352.8l-5.2,7.71,18.61,12.54-2.93,4.35-18.61-12.53-5.17,7.67-4.36-2.93,13.31-19.74Z"/><path class="cls-2" d="M331.86,353.78a2.59,2.59,0,0,1,1,1.84,2.72,2.72,0,0,1-.6,2.05,2.54,2.54,0,0,1-1.84,1,2.61,2.61,0,0,1-2-.55,2.74,2.74,0,0,1-1.06-1.86,2.64,2.64,0,0,1,.55-2,2.82,2.82,0,0,1,3.95-.45Z"/><path class="cls-2" d="M354.67,317.48l-8.43,8,7.15,7.51-3.8,3.62-19.1-20,12.24-11.67a8.61,8.61,0,0,1,14.62,6.39A8.29,8.29,0,0,1,354.67,317.48Zm-3.47-8.68a3.25,3.25,0,0,0-2.38-1,3.37,3.37,0,0,0-2.47,1l-8.44,8.05,4.71,4.93,8.43-8a3.31,3.31,0,0,0,1.08-2.43A3.27,3.27,0,0,0,351.2,308.8Z"/><path class="cls-2" d="M398.45,295.74l-4.68,3.47L387.92,296l-11.32,8.4,1.27,6.57-4.68,3.47-6-30,4.22-3.13Zm-15.74-2.48-9.38-5,2.05,10.46Z"/><path class="cls-2" d="M421,267.73a14.15,14.15,0,0,1,2.07,7.13,12.6,12.6,0,0,1-1.87,6.33,12.9,12.9,0,0,1-4.8,4.71,13.05,13.05,0,0,1-6.55,1.66,12.34,12.34,0,0,1-6.42-1.73,14.47,14.47,0,0,1-5-5.42l-7.13-12.73,4.58-2.56L403,277.84a9,9,0,0,0,3.12,3.37,7.41,7.41,0,0,0,3.81,1,7.75,7.75,0,0,0,3.89-1,7.52,7.52,0,0,0,2.83-2.77,7.37,7.37,0,0,0,1.08-3.78,8.92,8.92,0,0,0-1.25-4.42l-7.13-12.72,4.54-2.55Z"/><path class="cls-2" d="M456.94,266.41,436.21,275,425.6,249.43l4.85-2L439,268.14l15.88-6.58Z"/><path class="cls-2" d="M469.33,260a8,8,0,0,1,.07,4.41,6.07,6.07,0,0,1-2.66,3.65l-.27-.83a4.55,4.55,0,0,0,1.31-3.86l-.28.09a2.58,2.58,0,0,1-2.08-.19,2.65,2.65,0,0,1-1.36-1.55,2.74,2.74,0,0,1,.15-2.14,2.61,2.61,0,0,1,1.57-1.38,2.73,2.73,0,0,1,2.15.17A2.7,2.7,0,0,1,469.33,260Z"/><path class="cls-2" d="M523.49,250.38l-5.17.87-2.71-16.19-6.87,17.79-12.37-14.57,2.71,16.18-5.1.85L489.42,228l4.77-.8,12.86,15.54,7-18.85,4.89-.82Z"/><path class="cls-2" d="M559.42,248.67l-5.24.18L538,230.24l.64,19.12-5.25.18-.92-27.68,5.17-.17,16.17,18.82-.64-19.33,5.33-.18Z"/><path class="cls-2" d="M639.41,261.07l-21.71-5.69,7-26.78L646,234.18l-1.33,5.08L628.47,235l-1.28,4.87,9.39,2.47-1.36,5.19-9.39-2.46-1.72,6.56L640.74,256Z"/><path class="cls-2" d="M674.66,265.29a7.65,7.65,0,0,1-5.3,4.81q-3.81,1-9.2-1.05a22.88,22.88,0,0,1-11.31-8.87l4.37-2.92a18.45,18.45,0,0,0,8.71,6.8,13.39,13.39,0,0,0,5.44,1,2.83,2.83,0,0,0,2.57-1.66c.45-.92.21-1.91-.71-3a17,17,0,0,0-4.93-3.4q-6.24-3.23-7.68-6a6.72,6.72,0,0,1-.2-5.86,6.48,6.48,0,0,1,5.19-4,15.63,15.63,0,0,1,8.32,1,21.36,21.36,0,0,1,9.14,7.06l-4.23,2.88a16.48,16.48,0,0,0-7.19-5.1,13.33,13.33,0,0,0-3.9-1c-1.3-.12-2.08.25-2.36,1.12s-.09,1.56.79,2.42a22.19,22.19,0,0,0,5,3.15q5.8,2.88,7.21,6.31A8.23,8.23,0,0,1,674.66,265.29Z"/><path class="cls-2" d="M710.31,267.53l-8.23-4.34-10.45,19.87L687,280.61l10.45-19.86-8.2-4.31,2.45-4.64,21.06,11.08Z"/><path class="cls-2" d="M736.43,295a13.9,13.9,0,0,1-19.31,3.59l-10-6.87,15.66-22.83,10,6.87a13.4,13.4,0,0,1,5.8,8.9A13.25,13.25,0,0,1,736.43,295Zm-4.4-3a8.57,8.57,0,0,0-2.21-11.9l-5.69-3.91-9.73,14.18,5.69,3.91a8.19,8.19,0,0,0,6.42,1.34A8.34,8.34,0,0,0,732,292Z"/><path class="cls-2" d="M766.21,340.51l-18.5-18.27q8.91-6,21.27-.54a21.52,21.52,0,0,0,4.73,1.79,2.5,2.5,0,0,0,2.76-.73c.6-.61.67-1.57.21-2.9a9.78,9.78,0,0,0-2.47-3.75,20.79,20.79,0,0,0-10.35-4.93l0-5.2a23.81,23.81,0,0,1,14,6.45,14.79,14.79,0,0,1,4.22,7.19,6.85,6.85,0,0,1-1.89,6.74,7.27,7.27,0,0,1-6.29,2.08,21.92,21.92,0,0,1-7.59-2.31c-3.38-1.56-6.35-2.13-8.92-1.73l12.53,12.37Z"/><path class="cls-2" d="M800.34,360.16a14.42,14.42,0,0,1-23.32-13,14.27,14.27,0,0,1,15.82-12.67,14.58,14.58,0,0,1,12.6,16.06A13.4,13.4,0,0,1,800.34,360.16Zm-3.27-4.11a8.37,8.37,0,0,0,3.21-6,9.49,9.49,0,0,0-8-10.23,8.35,8.35,0,0,0-6.61,1.78,8.81,8.81,0,0,0-3.37,6.13,9.23,9.23,0,0,0,8.09,10.2A8.78,8.78,0,0,0,797.07,356.05Z"/><path class="cls-2" d="M799.18,384.14l-2.84-4.41,17.07-11-2.1-3.27,3.54-2.27a8.05,8.05,0,0,0,5.47,2.62l2.15,3.34Z"/><path class="cls-2" d="M823.92,411.23a8.28,8.28,0,0,1-4.74.86,9.21,9.21,0,0,1-4.68-1.81q-2.29-1.65-4.8-6.5-3.06-6-2.41-9.55a8.19,8.19,0,0,1,4.54-6.06,7.47,7.47,0,0,1,7.39.33,6.29,6.29,0,0,1,3.61-4.61,6.58,6.58,0,0,1,6.56.17,15.14,15.14,0,0,1,5.77,6.58,15.39,15.39,0,0,1,2,8.62,6.61,6.61,0,0,1-3.61,5.56c-2.2,1.1-4.12,1.23-5.77.37A6.44,6.44,0,0,1,823.92,411.23Zm-2.37-4.59c1-.53,1.52-1.6,1.47-3.2a16.53,16.53,0,0,0-5.27-10.21,3.2,3.2,0,0,0-3.56-.51,3,3,0,0,0-1.51,3,13.45,13.45,0,0,0,1.82,5.73,13.73,13.73,0,0,0,3.61,4.84A3.06,3.06,0,0,0,821.55,406.64Zm9.85-6.52a2.09,2.09,0,0,0,1-2.34,14.62,14.62,0,0,0-1.67-4.77,13.58,13.58,0,0,0-2.84-4,2.21,2.21,0,0,0-2.56-.59,2.1,2.1,0,0,0-1.09,2.35,14.08,14.08,0,0,0,1.68,4.65,13.41,13.41,0,0,0,3,4.34A2.06,2.06,0,0,0,831.4,400.12Z"/><path class="cls-2" d="M246.94,823.29,235.42,878H224.31l-9.39-34.14L205.52,878H194.58l-11.52-54.73H193.6l7.1,33.41,9.24-33.41h10.12l9.24,33.41,7.1-33.41Z"/><path class="cls-2" d="M317.6,850.41a28.6,28.6,0,0,1-57.19.16,27,27,0,0,1,8.26-20.05,28.84,28.84,0,0,1,40.35.2A26.56,26.56,0,0,1,317.6,850.41Zm-10.38,0a16.49,16.49,0,0,0-5.35-12.33A17.88,17.88,0,0,0,289,832.93,18.07,18.07,0,0,0,276.14,838a16.44,16.44,0,0,0-5.35,12.42,17.29,17.29,0,0,0,5.35,12.74,18.24,18.24,0,0,0,25.73,0A17.29,17.29,0,0,0,307.22,850.41Z"/><path class="cls-2" d="M390.7,850.41a28.59,28.59,0,0,1-57.17.16,27,27,0,0,1,8.25-20.05,28.84,28.84,0,0,1,40.35.2A26.55,26.55,0,0,1,390.7,850.41Zm-10.37,0A16.49,16.49,0,0,0,375,838.08a18.76,18.76,0,0,0-25.73-.09,16.44,16.44,0,0,0-5.35,12.42,17.29,17.29,0,0,0,5.35,12.74,18.24,18.24,0,0,0,25.73,0A17.29,17.29,0,0,0,380.33,850.41Z"/><path class="cls-2" d="M459.73,850.57A27.48,27.48,0,0,1,432.28,878h-24V823.29h24a26.49,26.49,0,0,1,19.4,8A26.17,26.17,0,0,1,459.73,850.57Zm-10.54,0a16.93,16.93,0,0,0-16.91-16.9H418.64v34h13.64a16.2,16.2,0,0,0,12-5A16.54,16.54,0,0,0,449.19,850.57Z"/><path class="cls-2" d="M538.56,823.29,527,878H515.93l-9.39-34.14L497.14,878H486.2l-11.52-54.73h10.54l7.1,33.41,9.23-33.41h10.13l9.23,33.41L528,823.29Z"/><path class="cls-2" d="M609.21,850.41a28.59,28.59,0,0,1-57.18.16,27,27,0,0,1,8.25-20.05,28.85,28.85,0,0,1,40.36.2A26.55,26.55,0,0,1,609.21,850.41Zm-10.37,0a16.49,16.49,0,0,0-5.35-12.33,18.76,18.76,0,0,0-25.73-.09,16.44,16.44,0,0,0-5.35,12.42,17.29,17.29,0,0,0,5.35,12.74,18.24,18.24,0,0,0,25.73,0A17.29,17.29,0,0,0,598.84,850.41Z"/><path class="cls-2" d="M678.24,878H666.15l-12.09-20.5H637.15V878H626.78V823.29h33.41a16.66,16.66,0,0,1,12.21,5,17,17,0,0,1,1.84,21.94,17.43,17.43,0,0,1-8.5,6.29Zm-11.19-37.66a6.43,6.43,0,0,0-2-4.69,6.61,6.61,0,0,0-4.86-2h-23v13.47h23a6.61,6.61,0,0,0,4.86-2A6.52,6.52,0,0,0,667.05,840.36Z"/><path class="cls-2" d="M747.1,878H735.26l-16.75-28-12.25,12.66V878H695.88V823.29h10.38v24.18l22.87-24.18h14l-17.24,18.87Z"/><path class="cls-2" d="M766.13,878V823.29h10.38V878Z"/><path class="cls-2" d="M849.78,878H839.41L808.69,840.2V878H798.32V823.29h10.21l30.71,38.23V823.29h10.54Z"/><path class="cls-2" d="M919.87,854.25A24.75,24.75,0,0,1,895,879a25.08,25.08,0,0,1-19.44-8.49q-6.85-7.6-6.86-19.77,0-12.66,7.72-20.51t20.13-7.84A25.45,25.45,0,0,1,911,826.56a35,35,0,0,1,7.85,7.92l-8.58,5.88q-5.4-7.43-14-7.43-7.92,0-12.58,4.86T879,851q0,7.77,4.37,12.62A14.79,14.79,0,0,0,895,868.46q7.18,0,11.27-5.06a15.18,15.18,0,0,0,2.7-4.74H896.67V848h23.2Z"/></svg>