<svg id="Layer_1" data-name="Layer 1" xmlns="http://www.w3.org/2000/svg" viewBox="0 0 1100 1100"><defs><style>.cls-1{fill:#e83738;}.cls-2{fill:#faf6cd;}</style></defs><circle class="cls-1" cx="550" cy="550" r="550"/><path class="cls-2" d="M860.44,418.65a14.33,14.33,0,0,0-13.9-10.5h-85a27.82,27.82,0,0,0-3.23-14.69c-4-7.48-11.08-11.95-18.87-11.95H682.71c-7.5,0-14.28,4.29-18.14,11.47a26.66,26.66,0,0,0,1.11,27l6.19,9.36L413.54,589a20,20,0,0,0-9.63-2.5H347.15c-7.49,0-14.27,4.28-18.13,11.46a26.68,26.68,0,0,0,1.11,27l7.32,11.07-91.87,56.79a13.85,13.85,0,0,0,7.28,25.63H372.79a79.36,79.36,0,0,0,41.78-11.87L854.14,434.89A14.34,14.34,0,0,0,860.44,418.65ZM676.8,399.55c.84-1.55,2.72-4.15,5.91-4.15h56.76c3.61,0,5.71,2.9,6.64,4.63a14.07,14.07,0,0,1-.51,14l-25.27,38.23H703.68l-26.41-39.95A12.81,12.81,0,0,1,676.8,399.55Zm-335.55,205c.84-1.55,2.71-4.15,5.9-4.15h56.76c3.62,0,5.72,2.9,6.65,4.63a14.07,14.07,0,0,1-.51,14l-25.28,38.23H368.12l-26.4-39.95A12.79,12.79,0,0,1,341.25,604.57Zm505.58-181.5L407.26,694.81a65.46,65.46,0,0,1-34.47,9.79l-119.91.07,92.23-57,15.55,23.52h31.58l29.39-44.47a27.81,27.81,0,0,0,1.57-27.32L679.53,440.93l16.68,25.23h31.58L757,422h89.58c.25,0,.42,0,.54.41S847,423,846.83,423.07Z"/><path class="cls-2" d="M392.88,414.39,368.54,530.06H345.06l-19.85-72.17-19.86,72.17H282.22L257.88,414.39h22.27l15,70.61,19.5-70.61h21.41L355.59,485l15-70.61Z"/><path class="cls-2" d="M843.48,595.88,819.14,711.55H795.66l-19.85-72.16L756,711.55H732.82L708.48,595.88h22.27l15,70.61,19.51-70.61h21.4l19.51,70.61,15-70.61Z"/></svg>