<svg fill="none" height="1030" viewBox="0 0 1600 1030" width="1600" xmlns="http://www.w3.org/2000/svg" xmlns:xlink="http://www.w3.org/1999/xlink"><clipPath id="a"><path d="m334.5 69.1172h930.5v890.894h-930.5z"/></clipPath><g clip-path="url(#a)"><path d="m1260.96 514.564c0 46.92-58.66 83.986-72.4 126.325-14.24 43.879 10.93 108.273-15.67 144.8-26.86 36.874-96.03 32.717-132.94 59.544-36.53 26.597-53.772 93.839-97.651 108.081-42.339 13.741-95.648-30.061-142.568-30.061-46.919 0-100.228 43.802-142.567 30.061-43.879-14.242-61.123-81.484-97.65-108.081-36.874-26.866-106.079-22.67-132.945-59.544-26.597-36.527-1.386-100.921-15.666-144.8-13.741-42.339-72.4-79.405-72.4-126.325 0-46.919 58.659-83.985 72.4-126.324 14.242-43.879-10.931-108.273 15.666-144.8 26.866-36.874 96.033-32.717 132.945-59.545 36.527-26.596 53.771-93.8388 97.65-108.0802 42.339-13.741 95.648 30.0612 142.567 30.0612 46.92 0 100.229-43.8022 142.568-30.0612 43.879 14.2414 61.121 81.4842 97.651 108.0802 36.87 26.866 106.08 22.671 132.94 59.545 26.6 36.527 1.39 100.921 15.67 144.8 13.74 42.339 72.4 79.405 72.4 126.324z" fill="#fff" stroke="#419fd8" stroke-miterlimit="10" stroke-width="8.05211"/><path d="m466.021 528.149v6.312c0 7.621 2.271 11.855 8.276 11.855 6.158 0 7.736-5.812 7.736-12.471 0-10.969-2.386-14.395-13.317-23.055-11.009-8.699-16.898-14.242-16.898-29.368 0-13.472 4.08-27.059 22.517-27.059 18.86 0 21.786 13.472 21.786 24.557v5.466h-15.627v-5.043c0-7.12-1.194-11.431-6.428-11.431-5.12 0-6.467 4.465-6.467 11.239 0 7.236 1.386 10.777 10.354 17.321 15.319 11.316 19.977 17.897 19.977 34.987 0 14.511-5.081 28.252-24.172 28.252-18.899 0-23.518-12.048-23.518-25.519v-6.082h15.781z" fill="#d23e2b"/><path d="m538.729 455.979v102.229h-15.781v-102.229z" fill="#d23e2b"/><path d="m597.427 558.248-10.085-36.99h-.154l-10.777 36.99h-16.32l18.091-52.001-17.282-50.229h17.436l9.43 33.832h.154l9.314-33.832h16.474l-17.205 47.881 18.398 54.349z" fill="#d23e2b"/><path d="m631.145 275.885h8.275l9.161 14.741 9.16-14.741h8.276v34.872h-7.621v-22.748l-9.815 14.896h-.193l-9.738-14.78v22.593h-7.505z" fill="#419fd8"/><path d="m679.334 275.885h14.242c8.314 0 13.356 4.927 13.356 12.047v.116c0 8.083-6.274 12.24-14.087 12.24h-5.812v10.469h-7.66v-34.872zm13.741 17.59c3.849 0 6.082-2.31 6.082-5.273v-.116c0-3.425-2.386-5.273-6.235-5.273h-5.928v10.662z" fill="#419fd8"/><path d="m717.594 275.885h7.659v27.905h17.398v6.967h-25.057z" fill="#419fd8"/><path d="m751.003 305.677 4.542-5.428c3.156 2.579 6.428 4.234 10.392 4.234 3.156 0 5.042-1.231 5.042-3.271v-.116c0-1.924-1.193-2.925-7.005-4.426-7.005-1.809-11.547-3.734-11.547-10.662v-.115c0-6.313 5.081-10.508 12.201-10.508 5.081 0 9.431 1.578 12.933 4.426l-3.964 5.774c-3.08-2.156-6.12-3.426-9.046-3.426-2.925 0-4.464 1.347-4.464 3.041v.115c0 2.31 1.501 3.041 7.505 4.581 7.082 1.847 11.047 4.387 11.047 10.469v.115c0 6.929-5.273 10.816-12.779 10.816-5.35-.077-10.7-1.886-14.857-5.619z" fill="#419fd8"/><path d="m811.009 293.244v-.115c0-4.08 3.348-7.352 7.428-7.352s7.429 3.272 7.429 7.352v.115c0 4.08-3.349 7.352-7.429 7.352s-7.428-3.272-7.428-7.352z" fill="#ef404c"/><g fill="#419fd8"><path d="m859.931 275.885h8.275l9.161 14.741 9.16-14.741h8.276v34.872h-7.621v-22.748l-9.815 14.896h-.193l-9.699-14.742v22.594h-7.506v-34.872z"/><path d="m908.159 275.885h7.082l16.32 21.477v-21.477h7.582v34.872h-6.505l-16.897-22.17v22.17h-7.582z"/><path d="m567.443 712.016h13.587c10.97 0 18.514 7.505 18.514 17.32v.116c0 9.815-7.583 17.436-18.514 17.436h-13.587zm13.587 27.943c6.274 0 10.508-4.233 10.508-10.392v-.115c0-6.159-4.234-10.508-10.508-10.508h-5.928v21.015z"/><path d="m609.82 729.529v-.115c0-9.892 7.814-18.014 18.591-18.014 10.739 0 18.475 8.006 18.475 17.937v.115c0 9.892-7.813 18.014-18.59 18.014-10.778 0-18.476-8.006-18.476-17.937zm29.022 0v-.115c0-5.966-4.388-10.97-10.546-10.97-6.159 0-10.47 4.888-10.47 10.854v.116c0 5.966 4.388 10.97 10.547 10.97 6.158 0 10.469-4.889 10.469-10.855z"/><path d="m658.665 712.016h8.275l9.161 14.741 9.16-14.741h8.276v34.872h-7.621v-22.748l-9.815 14.896h-.193l-9.699-14.742v22.594h-7.506v-34.872z"/><path d="m707.201 712.016h7.659v34.872h-7.659z"/><path d="m728.562 712.016h7.083l16.32 21.477v-21.477h7.582v34.872h-6.505l-16.897-22.171v22.171h-7.583z"/><path d="m771.363 729.529v-.115c0-9.892 7.814-18.014 18.591-18.014s18.475 8.006 18.475 17.937v.115c0 9.892-7.813 18.014-18.59 18.014-10.778 0-18.476-8.006-18.476-17.937zm29.022 0v-.115c0-5.966-4.388-10.97-10.546-10.97-6.159 0-10.47 4.888-10.47 10.854v.116c0 5.966 4.388 10.97 10.547 10.97 6.158 0 10.469-4.889 10.469-10.855z"/></g><path d="m840.954 729.375v-.115c0-4.08 3.349-7.352 7.429-7.352s7.428 3.272 7.428 7.352v.115c0 4.08-3.348 7.352-7.428 7.352s-7.429-3.272-7.429-7.352z" fill="#ef404c"/><path d="m889.914 712.016h16.165c3.965 0 7.121 1.077 9.123 3.079 1.578 1.578 2.386 3.541 2.386 5.927v.116c0 3.926-2.078 6.12-4.58 7.505 4.041 1.54 6.505 3.888 6.505 8.584v.115c0 6.389-5.197 9.546-13.049 9.546h-16.55zm14.549 14.087c3.387 0 5.542-1.078 5.542-3.695v-.116c0-2.309-1.809-3.579-5.042-3.579h-7.582v7.352h7.082zm2.04 14.049c3.387 0 5.427-1.193 5.427-3.772v-.116c0-2.347-1.732-3.772-5.658-3.772h-8.853v7.66z" fill="#419fd8"/><path d="m942.799 711.746h7.082l14.934 35.103h-8.006l-3.194-7.813h-14.742l-3.195 7.813h-7.813zm8.083 20.515-4.619-11.316-4.619 11.316z" fill="#419fd8"/><path d="m975.169 712.016h15.935c4.427 0 7.852 1.231 10.166 3.541 1.92 1.924 3 4.695 3 7.967v.116c0 5.619-3.04 9.16-7.469 10.815l8.509 12.433h-8.971l-7.467-11.162h-6.043v11.162h-7.66zm15.435 16.935c3.734 0 5.889-2.001 5.889-4.926v-.116c0-3.272-2.309-4.965-6.043-4.965h-7.621v10.007z" fill="#419fd8"/><path d="m945.416 455.979h21.862c21.709 0 26.982 11.239 26.982 30.214v39.222c0 15.627-2.694 32.832-26.982 32.832h-21.823v-102.268zm15.743 88.835h5.042c10.354 0 11.97-6.659 11.97-17.244v-42.608c0-9.392-1.655-15.396-12.047-15.396h-4.965z" fill="#d23e2b"/><path d="m1069.47 483.115v47.728c0 19.592-8.31 28.868-25.63 28.868-16.63 0-24.1-9.507-24.1-28.599v-48.112c0-19.592 9.85-28.521 25.1-28.521 15.51.038 24.63 8.968 24.63 28.636zm-33.68-1.539v51.422c0 8.507 3.08 12.471 8.74 12.471 6.12 0 8.85-3.733 8.85-12.701v-51.308c0-8.121-2.5-12.586-8.89-12.586-5.62 0-8.7 4.041-8.7 12.702z" fill="#d23e2b"/><path d="m1105.38 470.644h-16.4v-14.626h48.69v14.626h-16.51v87.604h-15.78z" fill="#d23e2b"/><path d="m875.172 405.672c1.078 3.618 1.232 7.621.077 11.508l-56.504 197.724c-3.117 10.855-14.434 17.167-25.326 14.049l-88.066-25.172c-2.771-.809-5.234-2.117-7.313-3.811 1.963 6.428 7.005 11.817 13.972 13.78l88.065 25.172c10.855 3.118 22.209-3.194 25.289-14.049l56.503-197.685c2.348-8.122-.577-16.474-6.697-21.516z" fill="#d23e2b"/><path d="m697.963 588.424 56.503-197.686c3.118-10.854 14.434-17.166 25.289-14.049l88.065 25.173c2.771.808 5.235 2.117 7.313 3.811-1.963-6.428-7.005-11.817-13.972-13.78l-88.065-25.172c-10.855-3.118-22.209 3.194-25.327 14.048l-56.465 197.686c-2.309 8.121.577 16.474 6.736 21.477-1.078-3.618-1.193-7.582-.077-11.508z" fill="#419fd8"/><path d="m793.419 628.954c10.854 3.118 22.209-3.194 25.326-14.048l56.504-197.686c1.116-3.926 1.001-7.89-.077-11.509-2.079-1.693-4.542-3.04-7.313-3.81l-88.066-25.173c-10.854-3.117-22.209 3.195-25.288 14.049l-56.503 197.686c-1.117 3.926-1.001 7.89.077 11.508 2.078 1.694 4.541 3.041 7.313 3.811z" fill="#010101"/><path d="m774.904 409.327c7.27 0 13.164-5.893 13.164-13.163s-5.894-13.164-13.164-13.164-13.163 5.894-13.163 13.164 5.893 13.163 13.163 13.163z" fill="#fff"/><path d="m765.282 442.894c7.27 0 13.164-5.894 13.164-13.164s-5.894-13.164-13.164-13.164-13.163 5.894-13.163 13.164 5.893 13.164 13.163 13.164z" fill="#fff"/><path d="m844.149 429.152c7.27 0 13.164-5.894 13.164-13.164s-5.894-13.164-13.164-13.164-13.164 5.894-13.164 13.164 5.894 13.164 13.164 13.164z" fill="#fff"/><path d="m834.565 462.716c7.27 0 13.164-5.894 13.164-13.164s-5.894-13.163-13.164-13.163-13.164 5.893-13.164 13.163 5.894 13.164 13.164 13.164z" fill="#fff"/><path d="m755.699 476.456c7.27 0 13.163-5.893 13.163-13.163 0-7.271-5.893-13.164-13.163-13.164s-13.164 5.893-13.164 13.164c0 7.27 5.894 13.163 13.164 13.163z" fill="#fff"/><path d="m824.942 496.277c7.27 0 13.164-5.894 13.164-13.164s-5.894-13.164-13.164-13.164-13.164 5.894-13.164 13.164 5.894 13.164 13.164 13.164z" fill="#fff"/><path d="m830.562 511.367-94.571-27.058" stroke="#fff" stroke-miterlimit="10" stroke-width="4.68306"/><path d="m791.687 612.673c7.27 0 13.163-5.894 13.163-13.164s-5.893-13.163-13.163-13.163-13.164 5.893-13.164 13.163 5.894 13.164 13.164 13.164z" fill="#fff"/><path d="m801.271 579.11c7.27 0 13.163-5.893 13.163-13.163s-5.893-13.164-13.163-13.164c-7.271 0-13.164 5.894-13.164 13.164s5.893 13.163 13.164 13.163z" fill="#fff"/><path d="m722.404 592.851c7.27 0 13.164-5.894 13.164-13.164s-5.894-13.164-13.164-13.164-13.163 5.894-13.163 13.164 5.893 13.164 13.163 13.164z" fill="#fff"/><path d="m732.027 559.286c7.27 0 13.164-5.893 13.164-13.163s-5.894-13.164-13.164-13.164-13.164 5.894-13.164 13.164 5.894 13.163 13.164 13.163z" fill="#fff"/><path d="m810.894 545.507c7.27 0 13.163-5.894 13.163-13.164s-5.893-13.163-13.163-13.163-13.164 5.893-13.164 13.163 5.894 13.164 13.164 13.164z" fill="#fff"/><path d="m741.611 525.724c7.27 0 13.164-5.894 13.164-13.164s-5.894-13.164-13.164-13.164-13.164 5.894-13.164 13.164 5.894 13.164 13.164 13.164z" fill="#fff"/></g></svg>