<?xml version="1.0" encoding="UTF-8"?>
<svg width="595px" height="340px" viewBox="0 0 595 340" version="1.1" xmlns="http://www.w3.org/2000/svg" xmlns:xlink="http://www.w3.org/1999/xlink">
    <!-- Generator: Sketch 54.1 (76490) - https://sketchapp.com -->
    <title>Artboard</title>
    <desc>Created with Sketch.</desc>
    <defs>
        <polygon id="path-1" points="0 53.5896 49.8465517 53.5896 49.8465517 0.756872727 0 0.756872727"></polygon>
    </defs>
    <g id="Artboard" stroke="none" stroke-width="1" fill="none" fill-rule="evenodd">
        <g id="Group-8" transform="translate(206.000000, 130.000000)">
            <ellipse id="Oval" fill="#8DC63F" cx="39.8385376" cy="39.8841571" rx="39.8385376" ry="39.8841571"></ellipse>
            <g id="Leafhoppers-Icon" transform="translate(16.000000, 10.000000)" stroke="#FFFFFF" stroke-width="2">
                <path d="M27.5432,17.1548 C27.5432,17.1548 22.5132,18.1108 22.5132,22.1328 L22.5132,37.1708" id="Stroke-1"></path>
                <path d="M22.5138,16.1986 C22.5138,16.1986 26.2058,16.1966 27.5438,17.1546" id="Stroke-3"></path>
                <path d="M25.0276,8.9878 C25.0276,8.9878 27.5436,2.9718 34.3836,0.9598" id="Stroke-5"></path>
                <path d="M27.5432,15.143 L33.7792,12.629 C33.7792,12.629 35.3892,4.781 40.9192,2.065" id="Stroke-7"></path>
                <path d="M28.7346,19.1918 L34.7846,16.6758 C34.7846,16.6758 39.1086,25.5038 44.7446,27.1638" id="Stroke-9"></path>
                <path d="M30.9708,27.1636 L35.3568,30.2316 L32.0368,47.1296 C32.0368,47.1296 32.9428,52.3616 36.4628,52.8636" id="Stroke-11"></path>
                <path d="M22.5138,54.4984 C22.5138,56.6104 18.4958,57.4524 18.4958,57.4524 C18.4958,57.4524 18.4718,47.5324 16.0598,38.9824 C11.1758,21.6664 16.7518,17.1544 16.7518,17.1544 L16.7518,15.1424 C19.0558,12.4264 22.5138,11.8244 22.5138,11.8244 C22.5138,11.8244 25.9718,12.4264 28.2758,15.1424 L28.2758,17.1544 C28.2758,17.1544 33.8498,21.6664 28.9678,38.9824 C26.5558,47.5324 26.5298,57.4524 26.5298,57.4524 C26.5298,57.4524 22.5138,56.6104 22.5138,54.4984 Z" id="Stroke-13"></path>
                <path d="M18.0256,14.4896 C15.5996,9.4876 22.5136,8.0256 22.5136,8.0256 C22.5136,8.0256 29.4276,9.4876 26.9996,14.4896" id="Stroke-15"></path>
                <path d="M17.4826,17.1548 C17.4826,17.1548 22.5146,18.1108 22.5146,22.1328 L22.5146,54.4988" id="Stroke-17"></path>
                <path d="M22.5138,16.1986 C22.5138,16.1986 18.8198,16.1966 17.4818,17.1546" id="Stroke-19"></path>
                <path d="M19.9982,8.9878 C19.9982,8.9878 17.4822,2.9718 10.6422,0.9598" id="Stroke-21"></path>
                <path d="M17.4826,15.143 L11.2466,12.629 C11.2466,12.629 9.6366,4.781 4.1066,2.065" id="Stroke-23"></path>
                <path d="M16.2912,19.1918 L10.2412,16.6758 C10.2412,16.6758 5.9172,25.5038 0.2832,27.1638" id="Stroke-25"></path>
                <path d="M14.0548,27.1636 L9.6688,30.2316 L12.9888,47.1296 C12.9888,47.1296 12.0848,52.3616 8.5628,52.8636" id="Stroke-27"></path>
            </g>
        </g>
        <g id="Group-7" transform="translate(103.000000, 130.000000)">
            <circle id="Oval" fill="#8DC63F" cx="40" cy="40" r="40"></circle>
            <g id="Flies-Icon" transform="translate(20.000000, 14.000000)" stroke="#FFFFFF" stroke-width="2">
                <path d="M29.163225,12.9420581 C29.163225,12.9420581 38.074225,30.3858 38.544975,36.1812194 C38.914225,40.7363806 37.309475,41.2728968 33.854975,40.2782516 C27.028225,38.3116065 24.126725,34.1100581 23.725975,31.6156065 C23.209725,28.4069613 22.490475,24.6478645 22.490475,22.6881871" id="Stroke-1"></path>
                <path d="M38.554075,38.2358323 C38.554075,38.2358323 33.218325,35.0811871 24.296825,33.3200903" id="Stroke-3"></path>
                <path d="M22.992025,2.7108 C22.992025,2.7108 22.040025,4.80983226 22.759275,6.03092903 C23.478525,7.25376774 27.062525,7.41054194 27.062525,7.41054194" id="Stroke-5"></path>
                <path d="M21.985425,2.54409677 C21.985425,2.54409677 23.047675,1.35087097 24.136175,0.765580645" id="Stroke-7"></path>
                <polyline id="Stroke-9" points="29.161475 13.8785226 32.458475 11.5948452 34.192725 5.44929677 39.808475 2.2005871 40.839225 0.766974194"></polyline>
                <path d="M34.2902,23.7636581 L39.07295,26.3765613 C39.07295,26.3765613 39.7502,29.6827548 41.4267,32.4054" id="Stroke-11"></path>
                <path d="M31.425975,39.4224387 L31.252725,42.2983742 L36.220975,49.4089548 C36.220975,49.4089548 35.368725,51.1944387 35.926975,52.3946323" id="Stroke-13"></path>
                <path d="M17.99665,22.6784323 C17.99665,22.6784323 15.56765,23.2114645 13.52715,16.6687548 C10.99315,8.55133548 21.0714,8.55133548 21.0714,8.55133548 L21.0994,8.55133548 C21.0994,8.55133548 31.31065,8.51823871 28.6454,16.6687548 C26.5139,23.1835935 24.1759,22.6784323 24.1759,22.6784323 L17.99665,22.6784323 Z" id="Stroke-15"></path>
                <path d="M13.0081,12.9420581 C13.0081,12.9420581 4.0971,30.3858 3.6281,36.1812194 C3.25885,40.7363806 4.8636,41.2728968 8.3181,40.2782516 C15.14485,38.3116065 18.0446,34.1100581 18.4471,31.6156065 C18.96335,28.4069613 19.68085,24.6478645 19.68085,22.6881871" id="Stroke-17"></path>
                <path d="M3.61725,38.2358323 C3.61725,38.2358323 8.95475,35.0811871 17.8745,33.3200903" id="Stroke-19"></path>
                <path d="M9.38,35.3090323 C9.38,35.3090323 12.13275,22.1190968 13.83725,17.5970323" id="Stroke-21"></path>
                <path d="M32.793075,35.3090323 C32.793075,35.3090323 30.038575,22.1190968 28.334075,17.5970323" id="Stroke-23"></path>
                <path d="M16.2792,9.48797419 C16.2792,9.48797419 13.6822,7.97249032 15.74195,4.92236129 C17.23645,2.71010323 21.0707,2.40526452 21.0707,2.40526452 L21.10045,2.40526452 C21.10045,2.40526452 24.8822,2.54461935 26.4292,4.92236129 C28.43645,8.00907097 25.89195,9.48797419 25.89195,9.48797419" id="Stroke-25"></path>
                <path d="M19.18105,2.7108 C19.18105,2.7108 20.13305,4.80983226 19.4138,6.03092903 C18.69455,7.25376774 15.1088,7.41054194 15.1088,7.41054194" id="Stroke-27"></path>
                <path d="M20.1859,2.54409677 C20.1859,2.54409677 19.1254,1.35087097 18.03515,0.765580645" id="Stroke-29"></path>
                <polyline id="Stroke-31" points="13.0116 13.8785226 9.7146 11.5948452 7.9786 5.44929677 2.36285 2.2005871 1.33385 0.766974194"></polyline>
                <path d="M7.882875,23.7636581 L3.098375,26.3765613 C3.098375,26.3765613 2.422875,29.6827548 0.746375,32.4054" id="Stroke-33"></path>
                <path d="M10.747275,39.4224387 L10.920525,42.2983742 L5.950525,49.4089548 C5.950525,49.4089548 6.802775,51.1944387 6.244525,52.3946323" id="Stroke-35"></path>
                <path d="M12.7057,38.4570581 C12.7057,38.4570581 17.46395,46.3079613 21.0707,46.3079613 L21.10045,46.3079613 C24.70895,46.3079613 29.4672,38.4570581 29.4672,38.4570581" id="Stroke-37"></path>
            </g>
        </g>
        <g id="Group-6" transform="translate(0.000000, 130.000000)">
            <circle id="Oval" fill="#8DC63F" cx="40" cy="40" r="40"></circle>
            <g id="Fleas-Icon" transform="translate(12.000000, 18.000000)" stroke="#FFFFFF" stroke-width="2">
                <path d="M47.6214,17.188 C44.6494,20.312 41.9074,20.312 40.3054,19.932 C38.7054,19.55 36.8134,17.994 34.2854,21.074 C29.4014,27.028 23.9974,28.01 23.9974,28.01 C23.9974,28.01 0.1694,33.928 1.0214,16.894 C1.8214,0.932 23.5414,-0.34 30.0934,1.794 C36.6474,3.928 41.0674,5.148 46.4014,6.29 C51.7374,7.434 56.5374,14.674 56.5374,14.674 C56.5374,14.674 57.7934,16.502 54.2854,19.034 C54.2854,19.034 53.8834,22.718 49.7254,21.716" id="Stroke-1"></path>
                <path d="M46.4006,6.2906 C43.7786,16.6706 50.2946,18.5446 50.2946,18.5446 L48.5726,24.4226 L44.3126,29.2826 L48.8726,42.0106" id="Stroke-3"></path>
                <path d="M37.551,4.0904 C37.551,4.0904 39.827,10.4764 38.185,19.2784" id="Stroke-5"></path>
                <path d="M31.1682,2.0864 C31.1682,2.0864 32.7362,10.2424 30.1942,24.9904 L31.6462,29.4204" id="Stroke-7"></path>
                <path d="M31.2796,16.855 C31.2796,16.855 25.1216,17.105 25.1216,11.243 L25.1216,1.001" id="Stroke-9"></path>
                <path d="M25.5178,13.5376 C25.5178,13.5376 17.8558,15.3396 17.3938,9.5756 C17.0218,4.9676 16.5438,1.7336 16.5438,1.7336" id="Stroke-11"></path>
                <path d="M18.6996,12.4898 C18.6996,12.4898 13.0456,16.3438 10.3896,11.6838 L7.1556,5.6258" id="Stroke-13"></path>
                <path d="M12.2424,13.5376 C12.2424,13.5376 9.1344,18.8096 4.6764,15.8536 L1.4304,13.9876" id="Stroke-15"></path>
                <path d="M21.8596,13.7446 L23.4776,28.1266" id="Stroke-17"></path>
                <path d="M15.6682,13.8042 L17.4102,28.9402" id="Stroke-19"></path>
                <path d="M10.7132,15.3404 L11.5372,28.7564" id="Stroke-21"></path>
                <path d="M3.4456,15.146 C3.4456,15.146 8.1936,21.758 7.6616,27.8" id="Stroke-23"></path>
                <path d="M43.6604,19.809 C43.6604,19.809 45.0144,27.229 35.2924,31.939 L37.5504,38.503 L31.9864,48.575" id="Stroke-25"></path>
                <path d="M38.973,19.4926 C38.973,19.4926 41.105,27.6786 24.119,32.1886 L18.257,38.8046 C18.257,38.8046 13.945,43.9686 1.769,43.9646023" id="Stroke-27"></path>
            </g>
        </g>
        <g id="Group-22" transform="translate(515.000000, 32.000000)">
            <ellipse id="Oval" fill="#8DC63F" cx="39.8385376" cy="39.8841571" rx="39.8385376" ry="39.8841571"></ellipse>
            <g id="Fabric-Pests-Icon" transform="translate(26.000000, 10.000000)" stroke="#FFFFFF" stroke-width="2">
                <path d="M16.2129375,15.9965455 L19.2016875,15.9965455 C20.3529375,15.9965455 21.2848125,16.902 21.2848125,18.0165455 L21.2848125,20.8147273 C21.2848125,21.9310909 20.3529375,22.8365455 19.2016875,22.8365455 L16.2129375,22.8365455" id="Stroke-1"></path>
                <path d="M16.2129375,35.7247273 L19.2016875,35.7247273 C20.3529375,35.7247273 21.2848125,36.6301818 21.2848125,37.7465455 L21.2848125,40.5429091 C21.2848125,41.6592727 20.3529375,42.5647273 19.2016875,42.5647273 L16.2129375,42.5647273" id="Stroke-3"></path>
                <path d="M16.2129375,22.836 L19.9554375,22.836 C21.3991875,22.836 22.5691875,23.6887273 22.5691875,24.7396364 L22.5691875,27.376 C22.5691875,28.4287273 21.3991875,29.2796364 19.9554375,29.2796364 L16.2129375,29.2796364" id="Stroke-5"></path>
                <path d="M16.2129375,29.2803636 L19.9554375,29.2803636 C21.3991875,29.2803636 22.5691875,30.1330909 22.5691875,31.184 L22.5691875,33.8203636 C22.5691875,34.8730909 21.3991875,35.724 19.9554375,35.724 L16.2129375,35.724" id="Stroke-7"></path>
                <path d="M16.2129375,9.15618182 L18.4798125,9.15618182 C19.3535625,9.15618182 20.0623125,10.0616364 20.0623125,11.178 L20.0623125,13.9743636 C20.0623125,15.0925455 19.3535625,15.9961818 18.4798125,15.9961818 L16.2129375,15.9961818" id="Stroke-9"></path>
                <path d="M16.2129375,42.5652727 L18.4798125,42.5652727 C19.3535625,42.5652727 20.0623125,43.4707273 20.0623125,44.5852727 L20.0623125,47.3834545 C20.0623125,48.4998182 19.3535625,49.4052727 18.4798125,49.4052727 L16.2129375,49.4052727" id="Stroke-11"></path>
                <path d="M16.2129375,49.4047273 L17.9304375,49.4047273 C18.5923125,49.4047273 19.1285625,50.0029091 19.1285625,50.7410909 L19.1285625,52.5901818 C19.1285625,53.3283636 18.5923125,53.9265455 17.9304375,53.9265455 L16.2129375,53.9265455" id="Stroke-13"></path>
                <path d="M13.0783125,15.9965455 L10.0895625,15.9965455 C8.9401875,15.9965455 8.0064375,16.902 8.0064375,18.0165455 L8.0064375,20.8147273 C8.0064375,21.9310909 8.9401875,22.8365455 10.0895625,22.8365455 L13.0783125,22.8365455" id="Stroke-15"></path>
                <path d="M13.0783125,35.7247273 L10.0895625,35.7247273 C8.9401875,35.7247273 8.0064375,36.6301818 8.0064375,37.7465455 L8.0064375,40.5429091 C8.0064375,41.6592727 8.9401875,42.5647273 10.0895625,42.5647273 L13.0783125,42.5647273" id="Stroke-17"></path>
                <path d="M13.0783125,22.836 L9.3358125,22.836 C7.8920625,22.836 6.7239375,23.6887273 6.7239375,24.7396364 L6.7239375,27.376 C6.7239375,28.4287273 7.8920625,29.2796364 9.3358125,29.2796364 L13.0783125,29.2796364" id="Stroke-19"></path>
                <path d="M13.0783125,29.2803636 L9.3358125,29.2803636 C7.8920625,29.2803636 6.7239375,30.1330909 6.7239375,31.184 L6.7239375,33.8203636 C6.7239375,34.8730909 7.8920625,35.724 9.3358125,35.724 L13.0783125,35.724" id="Stroke-21"></path>
                <path d="M13.0783125,9.15618182 L10.8114375,9.15618182 C9.9376875,9.15618182 9.2308125,10.0616364 9.2308125,11.178 L9.2308125,13.9743636 C9.2308125,15.0925455 9.9376875,15.9961818 10.8114375,15.9961818 L13.0783125,15.9961818" id="Stroke-23"></path>
                <path d="M13.0783125,42.5652727 L10.8114375,42.5652727 C9.9376875,42.5652727 9.2308125,43.4707273 9.2308125,44.5852727 L9.2308125,47.3834545 C9.2308125,48.4998182 9.9376875,49.4052727 10.8114375,49.4052727 L13.0783125,49.4052727" id="Stroke-25"></path>
                <path d="M13.0783125,9.15618182 L11.3608125,9.15618182 C10.6989375,9.15618182 10.1626875,8.558 10.1626875,7.81981818 L10.1626875,5.97072727 C10.1626875,5.23254545 10.6989375,4.63436364 11.3608125,4.63436364 L13.0783125,4.63436364 L16.2133125,4.63436364 L17.9308125,4.63436364 C18.5908125,4.63436364 19.1289375,5.23254545 19.1289375,5.97072727 L19.1289375,7.81981818 C19.1289375,8.558 18.5908125,9.15618182 17.9308125,9.15618182 L16.2133125,9.15618182" id="Stroke-27"></path>
                <path d="M13.0783125,49.4047273 L11.3608125,49.4047273 C10.6989375,49.4047273 10.1626875,50.0029091 10.1626875,50.7410909 L10.1626875,52.5901818 C10.1626875,53.3283636 10.6989375,53.9265455 11.3608125,53.9265455 L13.0783125,53.9265455" id="Stroke-29"></path>
                <path d="M13.0783125,53.9270909 L11.3608125,53.9270909 C10.6989375,53.9270909 10.1626875,54.5252727 10.1626875,55.2634545 L10.1626875,56.1889091 C10.1626875,57.678 11.0176875,58.4489091 12.6114375,58.4489091 L13.0783125,58.4489091 L16.2133125,58.4489091 L16.6801875,58.4489091 C18.2739375,58.4489091 19.1289375,57.678 19.1289375,56.1889091 L19.1289375,55.2634545 C19.1289375,54.5252727 18.5908125,53.9270909 17.9308125,53.9270909 L16.2133125,53.9270909" id="Stroke-31"></path>
                <path d="M10.882875,4.63381818 C10.882875,2.57745455 12.566625,0.910181818 14.646,0.910181818 C16.7235,0.910181818 18.409125,2.57745455 18.409125,4.63381818" id="Stroke-33"></path>
                <path d="M20.0619375,11.4927273 C20.0619375,11.4927273 23.5588125,11.6054545 25.9306875,9.94727273" id="Stroke-35"></path>
                <path d="M20.0619375,12.5767273 C20.0619375,12.5767273 23.6075625,12.284 24.4438125,13.4149091" id="Stroke-37"></path>
                <path d="M21.285,19.4161818 C21.285,19.4161818 24.18,19.218 25.54125,18.4652727" id="Stroke-39"></path>
                <path d="M21.285,19.8965455 C21.285,19.8965455 25.385625,21.7056364 28.455,21.0656364" id="Stroke-41"></path>
                <path d="M22.568625,26.2654545 C22.568625,26.2654545 26.9805,25.8509091 28.456125,26.8309091" id="Stroke-43"></path>
                <path d="M22.568625,31.9561818 C22.568625,31.9561818 26.3955,32.3707273 28.456125,30.8252727" id="Stroke-45"></path>
                <path d="M22.568625,32.8609091 C22.568625,32.8609091 26.163,33.6154545 26.746125,34.5572727" id="Stroke-47"></path>
                <path d="M21.285,38.2496364 C21.285,38.2496364 24.444375,37.7950909 25.54125,36.8132727" id="Stroke-49"></path>
                <path d="M21.285,39.1445455 C21.285,39.1445455 25.074375,38.6645455 27.6,39.7954545" id="Stroke-51"></path>
                <path d="M20.0619375,45.9849091 C20.0619375,45.9849091 24.6856875,46.1649091 26.3956875,45.1849091" id="Stroke-53"></path>
                <path d="M19.128,51.8167273 C19.128,51.8167273 22.092375,52.344 22.8255,51.6658182" id="Stroke-55"></path>
                <path d="M19.128,55.2630909 C19.128,55.2630909 21.702375,54.794 22.8255,55.774" id="Stroke-57"></path>
                <path d="M8.9675625,11.4927273 C8.9675625,11.4927273 5.4706875,11.6054545 3.0988125,9.94727273" id="Stroke-59"></path>
                <path d="M8.9675625,12.5767273 C8.9675625,12.5767273 6.8694375,12.284 6.0350625,13.4149091" id="Stroke-61"></path>
                <path d="M7.7443125,19.4161818 C7.7443125,19.4161818 4.8493125,19.218 3.4880625,18.4652727" id="Stroke-63"></path>
                <path d="M7.7443125,19.8965455 C7.7443125,19.8965455 3.6436875,21.7056364 0.5743125,21.0656364" id="Stroke-65"></path>
                <path d="M6.460875,25.4745455 C6.460875,25.4745455 3.519,25.4745455 1.428375,24.4472727" id="Stroke-67"></path>
                <path d="M6.460875,31.9561818 C6.460875,31.9561818 2.634,32.3707273 0.573375,30.8252727" id="Stroke-69"></path>
                <path d="M6.460875,32.8609091 C6.460875,32.8609091 2.634,32.8463636 2.283375,34.5572727" id="Stroke-71"></path>
                <path d="M7.7443125,39.1445455 C7.7443125,39.1445455 3.9549375,38.6645455 1.4293125,39.7954545" id="Stroke-73"></path>
                <path d="M8.9675625,45.9849091 C8.9675625,45.9849091 4.3438125,46.1649091 2.6338125,45.1849091" id="Stroke-75"></path>
                <path d="M9.9013125,51.8167273 C9.9013125,51.8167273 6.9369375,52.344 6.2038125,51.6658182" id="Stroke-77"></path>
                <path d="M9.9013125,55.2630909 C9.9013125,55.2630909 7.3269375,54.794 6.2038125,55.774" id="Stroke-79"></path>
            </g>
        </g>
        <g id="Group-21" transform="translate(412.000000, 32.000000)">
            <ellipse id="Oval" fill="#8DC63F" cx="39.8385376" cy="39.8841571" rx="39.8385376" ry="39.8841571"></ellipse>
            <g id="Darkling-Beetles-Icon" transform="translate(22.000000, 12.000000)" stroke="#FFFFFF" stroke-width="2">
                <path d="M21.7821429,7.32823226 L29.6137619,0.687716129" id="Stroke-1"></path>
                <polyline id="Stroke-3" points="23.8725048 17.2284903 29.6141238 18.1461677 27.6290762 9.15003871 33.6620286 4.34849032"></polyline>
                <path d="M21.0858381,6.52743226 C21.0858381,6.52743226 21.880219,3.96769032 20.4018381,2.44123871" id="Stroke-4"></path>
                <polyline id="Stroke-6" points="25.5300286 22.1414968 30.3795524 22.1414968 31.980981 29.6581419 36.4106952 33.4697548"></polyline>
                <path d="M27.0427905,35.6803097 L33.6620286,37.4343742 L30.9694571,47.8016 C30.9694571,47.8016 33.7380286,50.2403097 33.6620286,54.1277935" id="Stroke-8"></path>
                <path d="M18.4652857,25.8452645 C18.4652857,25.8452645 18.4652857,20.2542968 23.2514762,20.2542968" id="Stroke-10"></path>
                <path d="M18.3945333,53.2896 C18.3945333,53.2896 12.6312,53.6310194 10.7420571,46.2769548 C9.2564381,40.5071484 10.0182476,29.917729 10.5882476,25.7430194 C11.1980571,21.2720516 13.6807238,20.2550194 13.6807238,20.2550194 L12.8646286,16.2916645 C11.4206286,10.8813419 18.4651048,11.0059871 18.4651048,11.0059871 C18.4651048,11.0059871 25.5113905,10.8813419 24.065581,16.2916645 L23.2512952,20.2550194 C23.2512952,20.2550194 25.7321524,21.2720516 26.3437714,25.7430194 C26.9137714,29.917729 27.675581,40.5071484 26.1917714,46.2769548 C24.2990095,53.6310194 18.5356762,53.2896 18.5356762,53.2896 L18.3945333,53.2896 Z" id="Stroke-12"></path>
                <path d="M13.7505714,20.2548387 C18.5367619,20.2548387 18.464381,25.8458065 18.464381,25.8458065 L18.464381,53.2894194" id="Stroke-14"></path>
                <path d="M14.9115619,11.5056516 C13.5019429,5.47571613 18.5360381,5.64371613 18.5360381,5.64371613 L18.4654667,5.64371613 C18.4654667,5.64371613 23.4995619,5.47571613 22.0899429,11.5056516" id="Stroke-16"></path>
                <path d="M15.219,7.32823226 L7.38738095,0.687716129" id="Stroke-18"></path>
                <polyline id="Stroke-20" points="13.1284571 17.2284903 7.3868381 18.1461677 9.37369524 9.15003871 3.34074286 4.34849032"></polyline>
                <path d="M15.9169333,6.52743226 C15.9169333,6.52743226 15.1207429,3.96769032 16.5991238,2.44123871" id="Stroke-22"></path>
                <polyline id="Stroke-24" points="11.4727429 22.1414968 6.62321905 22.1414968 5.01998095 29.6581419 0.590266667 33.4697548"></polyline>
                <path d="M9.88940952,35.6996387 L3.34074286,37.4338323 L6.03150476,47.8010581 C6.03150476,47.8010581 3.26293333,50.2397677 3.34074286,54.1290581" id="Stroke-26"></path>
            </g>
        </g>
        <g id="Group-5" transform="translate(309.000000, 32.000000)">
            <circle id="Oval" fill="#8DC63F" cx="40" cy="40" r="40"></circle>
            <g id="Cockroaches-Icon" transform="translate(18.000000, 16.000000)" stroke="#FFFFFF" stroke-linejoin="bevel" stroke-width="2">
                <path d="M21.7411765,42.3829787 C21.7411765,42.3829787 13.9764706,39.2203365 13.9764706,27.3604283 C13.9764706,9.43878929 21.7411765,9.70234281 21.7411765,9.70234281 C21.7411765,9.70234281 29.5058824,9.43878929 29.5058824,27.3604283 C29.5058824,39.2203365 21.7411765,42.3829787 21.7411765,42.3829787 Z" id="Stroke-1"></path>
                <path d="M15.5294118,16.3404255 C15.5294118,16.3404255 22.1356934,19.787234 28.4705882,16.3404255" id="Stroke-3"></path>
                <path d="M21.7411765,18.3829787 L21.7411765,42.893617" id="Stroke-5"></path>
                <path d="M16.0470588,15.3191489 L11.1679389,14.6612186 C11.1679389,14.6612186 11.1679389,11.2751958 10.3529412,9.19148936" id="Stroke-7"></path>
                <path d="M27.9529412,15.3191489 L32.8320611,14.6612186 C32.8320611,14.6612186 32.8320611,11.2751958 33.6470588,9.19148936" id="Stroke-9"></path>
                <path d="M14.4941176,22.6364991 L8.22345729,21.4468085 C8.22345729,21.4468085 6.34504996,29.3133985 2.58823529,31.1489362" id="Stroke-11"></path>
                <path d="M29.5058824,22.6364991 L35.7765427,21.4468085 C35.7765427,21.4468085 37.65495,29.3133985 41.4117647,31.1489362" id="Stroke-13"></path>
                <path d="M28.9882353,31.4173592 L35.1427858,30.1276596 C35.1427858,30.1276596 34.6060674,45.1088861 36.7529412,48" id="Stroke-15"></path>
                <path d="M14.4941176,31.4173592 L8.33956713,30.1276596 C8.33956713,30.1276596 8.87628558,45.1088861 6.72941176,48" id="Stroke-17"></path>
                <path d="M17.6163059,12.0749224 C17.2759529,11.5034812 17.0823529,10.8485024 17.0823529,10.1518936 C17.0823529,7.92912877 19.0522588,6.12765957 21.4823529,6.12765957 C23.9124471,6.12765957 25.8823529,7.92912877 25.8823529,10.1518936 C25.8823529,10.9228814 25.6452706,11.643358 25.234,12.2553191" id="Stroke-19"></path>
                <path d="M22.7771771,6.20201763 C22.7771771,6.20201763 22.5085338,-0.250561512 32.4483369,0.00754165344 C42.38814,0.265644819 44,17.8166601 44,22.9787234" id="Stroke-21"></path>
                <path d="M21.2228229,6.20201763 C21.2228229,6.20201763 21.4914662,-0.250561512 11.5516631,0.00754165344 C1.61185997,0.265644819 0,17.8166601 0,22.9787234" id="Stroke-23"></path>
            </g>
        </g>
        <g id="Group-4" transform="translate(206.000000, 32.000000)">
            <circle id="Oval" fill="#8DC63F" cx="40" cy="40" r="40"></circle>
            <g id="Bed-Bug" transform="translate(16.000000, 10.000000)" stroke="#FFFFFF" stroke-width="2">
                <path d="M27.6996,19.2664 C27.6996,19.2664 30.7516,21.1384 30.2796,23.3984 C29.7576,25.8864 26.2096,28.2224 24.7276,28.2224" id="Stroke-1"></path>
                <path d="M27.0492,15.7538 C27.0492,15.7538 34.2412,5.0898 38.7092,0.7138" id="Stroke-3"></path>
                <polyline id="Stroke-5" points="30.2406 23.5546 35.4466 22.3246 33.0386 13.4486 35.4466 9.8546"></polyline>
                <polyline id="Stroke-7" points="34.3108 29.0438 39.1028 29.0438 44.9148 37.5438 48.9448 39.9178"></polyline>
                <polyline id="Stroke-9" points="37.6078 36.0506 41.3838 37.0426 41.1638 53.1366 43.8838 57.8866"></polyline>
                <path d="M20.018,25.2518 C18.298,25.7518 16.518,26.6998 15.476,28.4698 C12.976,32.7198 9.31,39.8858 10.81,46.8858 C12.31,53.8858 20.392,59.1358 24.726,59.4698 C29.06,59.1358 37.144,53.8858 38.644,46.8858 C40.144,39.8858 36.476,32.7198 33.976,28.4698 C32.936,26.6998 31.156,25.7538 29.436,25.2518" id="Stroke-11"></path>
                <path d="M21.6644,18.8866 C21.6644,14.3246 24.7264,14.3246 24.7264,14.3246 C24.7264,14.3246 27.7904,14.3246 27.7904,18.8866 C27.7904,18.8866 27.3264,20.4586 24.7264,20.4586 C22.1264,20.4586 21.6644,18.8866 21.6644,18.8866 Z" id="Stroke-13"></path>
                <path d="M21.7542,19.2664 C21.7542,19.2664 18.7002,21.1384 19.1742,23.3984 C19.6962,25.8864 23.2442,28.2224 24.7262,28.2224" id="Stroke-15"></path>
                <path d="M22.4046,15.7538 C22.4046,15.7538 15.2106,5.0898 10.7426,0.7138" id="Stroke-17"></path>
                <polyline id="Stroke-19" points="19.2132 23.5546 14.0072 22.3246 16.4152 13.4486 14.0072 9.8546"></polyline>
                <polyline id="Stroke-21" points="15.143 29.0438 10.351 29.0438 4.539 37.5438 0.509 39.9178"></polyline>
                <polyline id="Stroke-23" points="11.844 36.0506 8.07 37.0426 8.29 53.1366 5.57 57.8866"></polyline>
                <path d="M14.932,29.411 C14.932,29.411 24.726,33.667 34.31,29.411" id="Stroke-25"></path>
                <path d="M12.344,34.7146 C12.344,34.7146 24.726,37.3866 37.162,34.7146" id="Stroke-27"></path>
                <path d="M10.85,39.6678 C10.85,39.6678 24.752,41.4798 38.602,39.6678" id="Stroke-29"></path>
                <path d="M10.6684,46.1356 C10.6684,46.1356 24.7524,43.7936 38.7844,46.1356" id="Stroke-31"></path>
                <path d="M12.344,50.7294 C12.344,50.7294 24.726,49.1054 37.162,50.7294" id="Stroke-33"></path>
                <path d="M16.4418,55.4598 C16.4418,55.4598 24.7518,54.1998 33.0118,55.4598" id="Stroke-35"></path>
            </g>
        </g>
        <g id="Group-3" transform="translate(103.000000, 32.000000)">
            <ellipse id="Oval" fill="#8DC63F" cx="39.8385376" cy="39.8841571" rx="39.8385376" ry="39.8841571"></ellipse>
            <g id="Aphid-Icon" transform="translate(14.000000, 11.000000)">
                <path d="M29.1331034,12.0735515 L26.5348276,12.0735515" id="Stroke-1" stroke="#FFFFFF" stroke-width="2"></path>
                <path d="M27.3482759,8.56947273 C27.3482759,8.56947273 33.8948276,1.30013939 40.1844828,1.64813939 C46.4741379,1.99613939 48.5913793,10.1495333 48.5913793,25.4808667" id="Stroke-2" stroke="#FFFFFF" stroke-width="2"></path>
                <polyline id="Stroke-4" stroke="#FFFFFF" stroke-width="2" points="31.3960345 14.5244909 36.2339655 13.007703 39.0218966 6.45721818 40.252931 5.20230909"></polyline>
                <polyline id="Stroke-6" stroke="#FFFFFF" stroke-width="2" points="35.6710345 21.0561697 42.1675862 18.5938061 47.0193103 30.7070182 49.4124138 32.128897"></polyline>
                <polyline id="Stroke-8" stroke="#FFFFFF" stroke-width="2" points="38.4760345 31.1065152 44.9208621 33.8043939 40.2518966 50.636697 42.1812069 52.7651212"></polyline>
                <path d="M24.927069,38.0053515 C30.4632759,38.0053515 35.277069,37.3163818 37.7494828,36.3040182 C35.277069,37.3163818 30.4632759,38.0053515 24.927069,38.0053515" id="Stroke-10" stroke="#FFFFFF" stroke-width="2"></path>
                <path d="M24.927069,33.1523333 C31.0701724,33.1523333 36.3236207,32.3051818 38.4753448,31.1065152 C36.3236207,32.3051818 31.0701724,33.1523333 24.927069,33.1523333" id="Stroke-12" stroke="#FFFFFF" stroke-width="2"></path>
                <path d="M24.927069,28.2993152 C30.4632759,28.2993152 35.277069,27.6103455 37.7494828,26.5979818 C35.277069,27.6103455 30.4632759,28.2993152 24.927069,28.2993152" id="Stroke-14" stroke="#FFFFFF" stroke-width="2"></path>
                <path d="M24.927069,23.446297 C29.4874138,23.446297 33.5581034,22.9787818 36.2339655,22.2476303 C33.5581034,22.9787818 29.4874138,23.446297 24.927069,23.446297" id="Stroke-16" stroke="#FFFFFF" stroke-width="2"></path>
                <path d="M24.927069,18.593103 C28.3012069,18.593103 31.4063793,18.336497 33.8753448,17.9094061 C31.4063793,18.336497 28.3012069,18.593103 24.927069,18.593103" id="Stroke-18" stroke="#FFFFFF" stroke-width="2"></path>
                <path d="M24.9237931,49.7299636 L24.9237931,49.7299636 C24.9237931,49.7299636 11.3496552,40.5325697 11.372069,32.2280242 C11.4013793,20.5647515 20.7151724,12.073903 20.7151724,12.073903 C20.7151724,9.70469091 22.597931,7.78190303 24.9237931,7.78190303 C27.2496552,7.78190303 29.1324138,9.70469091 29.1324138,12.073903 C29.1324138,12.073903 38.4444828,20.5647515 38.4755172,32.2280242 C38.497931,40.5325697 24.9237931,49.7299636 24.9237931,49.7299636 Z" id="Stroke-20" stroke="#FFFFFF" stroke-width="2"></path>
                <path d="M22.5867241,44.8126182 L18.6539655,53.2103152" id="Stroke-22" stroke="#FFFFFF" stroke-width="2"></path>
                <path d="M27.2337931,44.8126182 L31.1648276,53.2103152" id="Stroke-24" stroke="#FFFFFF" stroke-width="2"></path>
                <path d="M20.7144828,12.0735515 L23.3110345,12.0735515" id="Stroke-26" stroke="#FFFFFF" stroke-width="2"></path>
                <path d="M22.4974138,8.56947273 C22.4974138,8.56947273 15.9508621,1.30013939 9.66293103,1.64813939 C3.37327586,1.99613939 1.25431034,10.1495333 1.25431034,25.4808667" id="Stroke-28" stroke="#FFFFFF" stroke-width="2"></path>
                <polyline id="Stroke-30" stroke="#FFFFFF" stroke-width="2" points="18.4498276 14.5244909 13.6136207 13.007703 10.8239655 6.45721818 9.59465517 5.20230909"></polyline>
                <polyline id="Stroke-32" stroke="#FFFFFF" stroke-width="2" points="14.1765517 21.0561697 7.68 18.5938061 2.82655172 30.7070182 0.433448276 32.128897"></polyline>
                <polyline id="Stroke-34" stroke="#FFFFFF" stroke-width="2" points="11.3696552 31.1065152 4.92482759 33.8043939 9.59551724 50.636697 7.6662069 52.7651212"></polyline>
                <path d="M16.6465517,42.2843455 C18.9965517,42.6464061 21.8482759,42.8573152 24.9189655,42.8590727 L24.9275862,42.8590727 C28,42.8573152 30.85,42.6464061 33.2017241,42.2843455" id="Stroke-36" stroke="#FFFFFF" stroke-width="2"></path>
                <path d="M24.9186207,38.0053515 C19.3841379,38.0053515 14.5703448,37.3163818 12.0962069,36.3040182 C14.5703448,37.3163818 19.3841379,38.0053515 24.9186207,38.0053515" id="Stroke-38" stroke="#FFFFFF" stroke-width="2"></path>
                <path d="M24.9186207,33.1523333 C18.7772414,33.1523333 13.5237931,32.3051818 11.3703448,31.1065152 C13.5237931,32.3051818 18.7772414,33.1523333 24.9186207,33.1523333" id="Stroke-40" stroke="#FFFFFF" stroke-width="2"></path>
                <path d="M24.9186207,28.2993152 C19.3841379,28.2993152 14.5703448,27.6103455 12.0962069,26.5979818 C14.5703448,27.6103455 19.3841379,28.2993152 24.9186207,28.2993152" id="Stroke-42" stroke="#FFFFFF" stroke-width="2"></path>
                <path d="M24.9186207,23.446297 C20.3582759,23.446297 16.2893103,22.9787818 13.6134483,22.2476303 C16.2893103,22.9787818 20.3582759,23.446297 24.9186207,23.446297" id="Stroke-44" stroke="#FFFFFF" stroke-width="2"></path>
                <path d="M24.9186207,18.593103 C21.5462069,18.593103 18.4410345,18.336497 15.9703448,17.9094061 C18.4410345,18.336497 21.5462069,18.593103 24.9186207,18.593103" id="Stroke-46" stroke="#FFFFFF" stroke-width="2"></path>
                <mask id="mask-2" fill="white">
                    <use xlink:href="#path-1"></use>
                </mask>
                <g id="Clip-49"></g>
                <polygon id="Fill-48" fill="#8DC63F" mask="url(#mask-2)" points="21.1551724 45.3536 28.6396552 45.3536 28.6396552 44.0705697 21.1551724 44.0705697"></polygon>
            </g>
        </g>
        <g id="Group-2" transform="translate(0.000000, 32.000000)">
            <ellipse id="Oval" fill="#8DC63F" cx="39.8385376" cy="39.8841571" rx="39.8385376" ry="39.8841571"></ellipse>
            <g id="Ants-Icon" transform="translate(18.550725, 13.913043)" stroke="#FFFFFF" stroke-width="2">
                <path d="M25.8601043,25.2987671 C25.8601043,28.33583 23.915942,30.7981295 21.5170551,30.7981295 C19.1181681,30.7981295 17.1740058,28.33583 17.1740058,25.2987671 C17.1740058,22.2617043 19.1181681,19.7994048 21.5170551,19.7994048 C23.915942,19.7994048 25.8601043,22.2617043 25.8601043,25.2987671 Z" id="Stroke-1"></path>
                <path d="M21.5031559,50.248085 C21.5031559,50.248085 14.4952487,47.5630222 14.4952487,39.2357565 C14.4952487,30.7248386 21.5031559,30.7979594 21.5031559,30.7979594 L21.5168835,30.7979594 C21.5168835,30.7979594 28.5247907,30.7248386 28.5247907,39.2357565 C28.5247907,47.5630222 21.5168835,50.248085 21.5168835,50.248085 L21.5031559,50.248085 Z" id="Stroke-3"></path>
                <path d="M18.4583884,19.7987246 C14.9904696,19.5555556 16.4370087,15.2023188 16.4370087,15.2023188 C16.4370087,15.2023188 17.849229,8.83400966 21.4355478,8.83400966 C25.0235826,8.83400966 26.434087,15.2023188 26.434087,15.2023188 C26.434087,15.2023188 27.8806261,19.5555556 24.4127072,19.7987246 L18.4583884,19.7987246 Z" id="Stroke-5"></path>
                <path d="M23.8634342,9.96381063 L27.2198168,8.33814879 C27.2198168,8.33814879 27.3982748,2.81157874 29.7216603,0.614554589" id="Stroke-7"></path>
                <path d="M19.0666899,9.96381063 L15.7103072,8.33814879 C15.7103072,8.33814879 15.5318493,2.81157874 13.2084638,0.614554589" id="Stroke-9"></path>
                <polyline id="Stroke-11" points="25.0690551 22.1385894 32.9744 19.6031691 36.4783536 8.83400966"></polyline>
                <polyline id="Stroke-13" points="25.8551281 25.5222106 35.9071165 26.9727227 42.2698296 39.265515"></polyline>
                <polyline id="Stroke-15" points="25.1009716 28.4007884 33.1538875 33.8100251 30.4375513 44.0486338 34.8337948 50.5308754"></polyline>
                <polyline id="Stroke-17" points="17.9640255 22.1385894 10.0586806 19.6031691 6.55472696 8.83400966"></polyline>
                <polyline id="Stroke-19" points="17.1781241 25.5222106 7.12613565 26.9727227 0.763422609 39.265515"></polyline>
                <polyline id="Stroke-21" points="17.9322806 28.4007884 9.87936464 33.8100251 12.5957009 44.0486338 8.19945739 50.5308754"></polyline>
            </g>
        </g>
        <g id="Group-9" transform="translate(309.000000, 130.000000)">
            <ellipse id="Oval" fill="#8DC63F" cx="39.8385376" cy="39.8841571" rx="39.8385376" ry="39.8841571"></ellipse>
            <g id="Mosquitoes-Icon" transform="translate(14.000000, 10.000000)">
                <path d="M30.3042,24.3256 C36.6402,25.3156 58.2562,29.5036 51.5262,39.7496 C45.1282,49.4956 37.3522,32.7816 29.9062,25.2896" id="Stroke-1" stroke="#FFFFFF" stroke-width="2"></path>
                <path d="M23.9076,24.3256 C17.5716,25.3156 -4.0444,29.5036 2.6856,39.7496 C9.0836,49.4956 16.8596,32.7816 24.3056,25.2896" id="Stroke-3" stroke="#FFFFFF" stroke-width="2"></path>
                <polyline id="Stroke-5" stroke="#FFFFFF" stroke-width="2" points="30.935 29.642 35.727 38.97 33.819 47.688 42.727 58.906"></polyline>
                <polyline id="Stroke-7" stroke="#FFFFFF" stroke-width="2" points="32.8412 24.7632 38.1632 19.6872 46.5072 21.7512 53.5072 14.7812"></polyline>
                <polyline id="Stroke-9" stroke="#FFFFFF" stroke-width="2" points="31.3822 19.3754 35.6642 15.2494 35.6642 8.8434 42.9142 1.9074"></polyline>
                <path d="M27.14,43.563 C27.128,43.563 27.118,43.561 27.106,43.561 C27.096,43.561 27.084,43.563 27.072,43.563 L27.14,43.563 Z" id="Stroke-11" stroke="#FFFFFF" stroke-width="2"></path>
                <path d="M31.3822,20.2816 C31.3822,18.3716 30.4662,17.1776 29.4842,16.4196 C30.4662,16.0516 31.3822,15.3656 31.3822,14.0316 C31.3822,11.1936 27.2982,10.9496 27.1062,10.9396 C26.9142,10.9496 22.8322,11.1936 22.8322,14.0316 C22.8322,15.3656 23.7462,16.0516 24.7282,16.4196 C23.7462,17.1776 22.8322,18.3716 22.8322,20.2816 C22.8322,24.4216 25.1782,25.5516 25.1962,25.5616 C24.0562,26.9016 22.8322,29.3776 22.8322,33.8756 C22.8322,41.4956 24.5002,43.5416 27.1062,43.5616 C29.7122,43.5416 31.3822,41.4956 31.3822,33.8756 C31.3822,29.3716 30.1602,26.8956 29.0242,25.5556 C29.0962,25.5196 31.3822,24.3716 31.3822,20.2816 Z" id="Stroke-13" stroke="#FFFFFF" stroke-width="2"></path>
                <path d="M27.0718,10.938 C27.0718,10.938 27.1018,10.94 27.1078,10.94 C27.1118,10.94 27.1398,10.938 27.1398,10.938 L27.0718,10.938 Z" id="Stroke-15" stroke="#FFFFFF" stroke-width="2"></path>
                <polygon id="Fill-17" fill="#FFFFFF" points="25.6108 11.1322 27.0988 0.0002 28.6008 11.1322"></polygon>
                <polyline id="Stroke-19" stroke="#FFFFFF" stroke-width="2" points="23.2768 29.642 18.4868 38.97 20.3948 47.688 11.4868 58.906"></polyline>
                <polyline id="Stroke-21" stroke="#FFFFFF" stroke-width="2" points="21.3706 24.7632 16.0506 19.6872 7.7066 21.7512 0.7066 14.7812"></polyline>
                <polyline id="Stroke-23" stroke="#FFFFFF" stroke-width="2" points="22.8314 19.3754 18.5494 15.2494 18.5494 8.8434 11.2994 1.9074"></polyline>
                <path d="M29.3882,25.6234 L24.8242,25.6234" id="Stroke-25" stroke="#FFFFFF" stroke-width="2"></path>
                <path d="M30.1128,16.438 L24.0988,16.438" id="Stroke-27" stroke="#FFFFFF" stroke-width="2"></path>
            </g>
        </g>
        <g id="Group-10" transform="translate(412.000000, 130.000000)">
            <circle id="Oval" fill="#8DC63F" cx="40" cy="40" r="40"></circle>
            <g id="Occassional-Invaders-Icon" transform="translate(16.000000, 12.000000)" stroke="#FFFFFF" stroke-width="2">
                <path d="M31.3114815,19.5324267 C31.3114815,19.5324267 33.6577778,21.3804267 34.1466667,36.7020267 C34.1466667,36.7020267 34.1466667,41.1950933 33.6281481,43.9148267 C33.5374074,44.38896 32.9596296,44.5644267 32.6244444,44.2190933 L26.3374074,37.7660267 C25.5114815,36.9166933 25.167037,35.7070933 25.4151852,34.54416 L28.3225926,21.09296" id="Stroke-1"></path>
                <polyline id="Stroke-3" points="33.6390741 28.80024 39.5724074 31.2343733 35.8575926 44.97864 38.6927778 52.0253067"></polyline>
                <polyline id="Stroke-5" points="31.9788889 20.67632 35.7585185 17.88192 43.3844444 23.9896533 49.4937037 24.18752"></polyline>
                <polyline id="Stroke-7" points="29.7418519 15.66432 36.6048148 13.6445867 33.4122222 9.11232 35.3677778 5.71125333"></polyline>
                <path d="M26.7759259,8.59861333 L26.7759259,6.10661333 C26.7759259,6.10661333 32.4851852,1.42501333 48.9574074,0.93408" id="Stroke-9"></path>
                <path d="M24.7612963,21.3800533 C21.9242593,21.3800533 20.102037,20.92272 19.0242593,20.50272 C18.2872222,20.2133867 17.9631481,19.3472533 18.3316667,18.6397867 L20.7557407,14.01232 C20.8742593,13.7864533 21.1075926,13.6445867 21.3631481,13.6445867 L24.7612963,13.6445867 L28.1612963,13.6445867 C28.415,13.6445867 28.6501852,13.7864533 28.7668519,14.01232 L31.1927778,18.6397867 C31.5612963,19.3472533 31.2372222,20.2133867 30.4983333,20.50272 C29.4224074,20.92272 27.6001852,21.3800533 24.7612963,21.3800533 Z" id="Stroke-11"></path>
                <path d="M18.2111111,19.5324267 C18.2111111,19.5324267 15.8648148,21.3804267 15.3777778,36.7020267 C15.3777778,36.7020267 15.3777778,41.1950933 15.8962963,43.9148267 C15.9851852,44.38896 16.562963,44.5644267 16.9,44.2190933 L23.1851852,37.7660267 C24.0111111,36.9166933 24.3574074,35.7070933 24.1074074,34.54416 L21.2,21.09296" id="Stroke-13"></path>
                <path d="M21.3633333,13.6444 C21.3633333,13.6444 21.6633333,7.48626667 24.7614815,7.48626667 C27.8596296,7.48626667 28.1614815,13.6444 28.1614815,13.6444" id="Stroke-15"></path>
                <path d="M16.9,44.21928 C16.9,44.21928 15.612963,55.86728 24.7611111,55.86728 C33.9111111,55.86728 32.6240741,44.21928 32.6240741,44.21928" id="Stroke-17"></path>
                <polyline id="Stroke-19" points="15.8837037 28.80024 9.95222222 31.2343733 13.667037 44.97864 10.83 52.0253067"></polyline>
                <polyline id="Stroke-21" points="17.5438889 20.67632 13.7642593 17.88192 6.14018519 23.9896533 0.0290740741 24.18752"></polyline>
                <polyline id="Stroke-23" points="19.7825926 15.66432 12.9177778 13.6445867 16.1103704 9.11232 14.1548148 5.71125333"></polyline>
                <path d="M22.7466667,8.59861333 L22.7466667,6.10661333 C22.7466667,6.10661333 17.0392593,1.42501333 0.567037037,0.93408" id="Stroke-25"></path>
                <path d="M24.7612963,13.6444 L26.4964815,21.3798667" id="Stroke-27"></path>
                <path d="M24.7612963,13.6444 L23.0261111,21.3798667" id="Stroke-29"></path>
            </g>
        </g>
        <g id="Group-11" transform="translate(515.000000, 130.000000)">
            <circle id="Oval" fill="#8DC63F" cx="40" cy="40" r="40"></circle>
            <g id="Scorpions-Icon" transform="translate(22.000000, 10.000000)" stroke="#FFFFFF" stroke-width="2">
                <path d="M19.3102,16.1476 C19.3102,16.1476 23.5362,14.5936 29.5622,14.5936" id="Stroke-1"></path>
                <path d="M21.3786,18.2452 C21.3786,18.2452 30.5306,18.4412 32.6566,15.5692 C35.4306,11.8192 35.6686,6.6632 30.6726,0.6372" id="Stroke-3"></path>
                <path d="M32.6988,3.5002 C32.6988,3.5002 27.0748,6.5242 28.6108,11.1042 C29.5628,13.9442 33.8728,13.4522 33.8728,13.4522" id="Stroke-5"></path>
                <path d="M28.941,17.501 C28.941,17.501 28.737,13.777 30.757,13.115" id="Stroke-7"></path>
                <path d="M24.648,14.919 L23.1,12.047" id="Stroke-9"></path>
                <path d="M22.1266,22.4044 C22.1266,22.4044 25.7926,22.6664 27.9986,24.6744 L30.0966,23.1424 L29.1986,20.0744" id="Stroke-11"></path>
                <path d="M22.1676,26.049 C22.1676,26.049 25.7096,27.583 27.2416,33.291 L29.5616,34.243 L32.1576,33.449" id="Stroke-13"></path>
                <polyline id="Stroke-15" points="22.1676 32.4454 24.6516 40.2154 26.5016 42.0134 30.0976 42.0134"></polyline>
                <path d="M27.4468,51.6006 C27.6288,52.9346 27.1628,55.7046 24.4408,55.2826 C17.6368,54.2246 19.9888,47.1946 19.9888,47.1946 C22.1428,42.3306 22.1668,35.7746 22.1668,35.7746 L22.1668,23.7226 C22.1668,15.4606 17.8088,15.4766 17.8088,15.4766 C17.8088,15.4766 13.4488,15.4606 13.4488,23.7226 L13.4488,35.7746 C13.4488,35.7746 13.1168,41.9106 14.9928,46.7026 C15.1428,47.0826 15.2708,47.4646 15.3528,47.8626 C15.6148,49.1506 16.4808,52.2446 17.1468,53.8826 C18.9688,58.3686 30.5488,60.8186 30.5488,53.8546 C30.5488,45.7626 25.5248,47.1426 25.5248,47.1426 C25.5248,47.1426 23.6748,47.4046 24.2568,48.8326 C24.8368,50.2606 24.8908,52.7446 24.8908,52.7446 C24.8908,52.7446 29.8608,52.4546 26.9328,47.1006" id="Stroke-17"></path>
                <path d="M16.3062,16.1476 C16.3062,16.1476 12.0802,14.5936 6.0522,14.5936" id="Stroke-19"></path>
                <path d="M14.236,18.2452 C14.236,18.2452 5.086,18.4412 2.96,15.5692 C0.186,11.8192 -0.054,6.6632 4.944,0.6372" id="Stroke-21"></path>
                <path d="M2.9156,3.5002 C2.9156,3.5002 8.5396,6.5242 7.0036,11.1042 C6.0516,13.9442 1.7436,13.4522 1.7436,13.4522" id="Stroke-23"></path>
                <path d="M6.6734,17.501 C6.6734,17.501 6.8774,13.777 4.8594,13.115" id="Stroke-25"></path>
                <path d="M10.9664,14.919 L12.5144,12.047" id="Stroke-27"></path>
                <path d="M13.4898,22.4044 C13.4898,22.4044 9.8238,22.6664 7.6178,24.6744 L5.5198,23.1424 L6.4178,20.0744" id="Stroke-29"></path>
                <path d="M13.4488,26.049 C13.4488,26.049 9.9068,27.583 8.3728,33.291 L6.0528,34.243 L3.4568,33.449" id="Stroke-31"></path>
                <polyline id="Stroke-33" points="13.4488 32.4454 10.9628 40.2154 9.1128 42.0134 5.5188 42.0134"></polyline>
                <path d="M13.4254,25.2852 C13.4254,25.2852 17.7754,26.6592 22.1274,25.2852" id="Stroke-35"></path>
                <path d="M13.4254,30.1456 C13.4254,30.1456 17.7754,31.5196 22.1274,30.1456" id="Stroke-37"></path>
                <path d="M13.4254,35.006 C13.4254,35.006 17.7754,36.38 22.1274,35.006" id="Stroke-39"></path>
                <path d="M13.4254,39.8672 C13.4254,39.8672 17.7754,41.2412 22.1274,39.8672" id="Stroke-41"></path>
                <path d="M14.8296,46.4424 C14.8296,46.4424 17.5816,47.3124 20.3316,46.4424" id="Stroke-43"></path>
            </g>
        </g>
        <g id="Group-16" transform="translate(52.000000, 228.000000)">
            <g id="Group-12">
                <ellipse id="Oval" fill="#8DC63F" cx="39.8385376" cy="39.8841571" rx="39.8385376" ry="39.8841571"></ellipse>
                <g id="Spiders-Icon" transform="translate(13.000000, 10.000000)" stroke="#FFFFFF" stroke-width="2">
                    <polyline id="Stroke-1" points="29.8222 17.8026 30.8702 14.6866 28.0602 13.1206"></polyline>
                    <polyline id="Stroke-2" points="32.1952 24.5702 42.7592 17.2262 42.7592 8.2022 32.9232 0.7982"></polyline>
                    <polyline id="Stroke-4" points="31.4922 26.6406 40.8142 26.6406 50.4862 19.7126 50.4862 10.7426"></polyline>
                    <polyline id="Stroke-6" points="34.996 31.6014 45.084 31.6014 52.108 26.6414"></polyline>
                    <polyline id="Stroke-8" points="35.6738 33.5898 42.6498 38.4658 42.6498 50.3538 34.7438 58.2618"></polyline>
                    <path d="M26.3418,51.1092 C20.9158,51.1092 16.5198,44.6012 16.5198,36.5692 C16.5198,36.5692 16.7798,29.7392 21.4298,27.1792 C21.4298,27.1792 22.9378,25.9832 26.3418,25.8192 C29.7458,25.9832 31.2538,27.1792 31.2538,27.1792 C35.9038,29.7392 36.1658,36.5692 36.1658,36.5692 C36.1658,44.6012 31.7678,51.1092 26.3418,51.1092 Z" id="Stroke-10"></path>
                    <path d="M21.4296,27.1796 C16.6996,16.6336 26.3416,16.6336 26.3416,16.6336 C26.3416,16.6336 36.1656,16.8216 31.2536,27.1796" id="Stroke-12"></path>
                    <polyline id="Stroke-14" points="22.8632 17.8026 21.8152 14.6866 24.6252 13.1206"></polyline>
                    <polyline id="Stroke-16" points="20.4902 24.5702 9.9262 17.2262 9.9262 8.2022 19.7622 0.7982"></polyline>
                    <polyline id="Stroke-18" points="21.1934 26.6406 11.8714 26.6406 2.1974 19.7126 2.1974 10.7426"></polyline>
                    <polyline id="Stroke-20" points="17.6894 31.6014 7.6014 31.6014 0.5754 26.6414"></polyline>
                    <polyline id="Stroke-22" points="17.0116 33.5898 10.0336 38.4658 10.0336 50.3538 17.9416 58.2618"></polyline>
                </g>
            </g>
            <g id="Group" transform="translate(103.000000, 0.000000)">
                <ellipse id="Oval" fill="#8DC63F" cx="39.8385376" cy="39.8841571" rx="39.8385376" ry="39.8841571"></ellipse>
                <g id="Stored-Product-Pests" transform="translate(14.000000, 10.000000)" stroke="#FFFFFF" stroke-width="1.875">
                    <path d="M25.6244857,15.9470625 C28.4547714,15.9470625 31.2089143,20.7789375 31.2089143,20.7789375 C32.1839143,22.3651875 32.8952,24.3583125 32.8952,26.7958125 C32.8952,26.7958125 33.4412,30.3995625 25.6244857,30.3995625 C17.8077714,30.3995625 18.3556286,26.7958125 18.3556286,26.7958125 C18.3556286,24.3583125 19.0650571,22.3651875 20.0400571,20.7789375 C20.0400571,20.7789375 22.7942,15.9470625 25.6244857,15.9470625 Z" id="Stroke-1"></path>
                    <path d="M26.8141714,9.350625 L29.9954571,9.350625 C31.0113143,9.350625 31.8340286,8.52 31.8340286,7.494375 L31.8340286,0" id="Stroke-3"></path>
                    <path d="M32.4201429,23.4789375 L39.715,16.4008125 C39.715,16.4008125 39.8431429,12.5683125 38.0417143,10.4908125 L44.4117143,6.1370625" id="Stroke-5"></path>
                    <path d="M33.7078857,33.7275 L39.3944571,29.9775 L42.8023143,38.225625 C42.8023143,38.225625 48.0784571,37.6725 50.6190286,40.044375" id="Stroke-7"></path>
                    <path d="M33.6824429,43.602375 L42.4964429,49.009875 C42.4964429,49.009875 38.8787286,51.10425 38.8787286,54.417375 L44.0415857,59.483625" id="Stroke-9"></path>
                    <path d="M23.1689714,16.9935 C23.1689714,16.9935 22.8588286,11.44725 25.6241143,11.44725 C28.3931143,11.44725 28.0829714,16.9935 28.0829714,16.9935" id="Stroke-11"></path>
                    <path d="M24.3913374,11.9424375 C24.3913374,11.9424375 24.3783429,2.1193125 25.6244857,2.1193125 C26.8724857,2.1193125 26.8576327,11.9424375 26.8576327,11.9424375" id="Stroke-13"></path>
                    <path d="M20.2907714,29.424375 C20.2907714,29.424375 17.3416286,29.578125 17.3416286,36.02625 C17.3416286,42.478125 18.1142,51.4725 18.1142,51.4725 C18.1142,51.4725 18.3797714,56.415 22.2872,56.415 C25.6412,56.415 25.6244857,54.238125 25.6244857,54.238125 C25.6244857,54.238125 25.6077714,56.415 28.9636286,56.415 C32.8710571,56.415 33.1366286,51.4725 33.1366286,51.4725 C33.1366286,51.4725 33.9092,42.478125 33.9092,36.02625 C33.9092,29.578125 30.9600571,29.424375 30.9600571,29.424375" id="Stroke-15"></path>
                    <path d="M24.4366571,9.350625 L21.2553714,9.350625 C20.2395143,9.350625 19.4168,8.52 19.4168,7.494375 L19.4168,0" id="Stroke-17"></path>
                    <path d="M18.8288286,23.4789375 L11.5339714,16.4008125 C11.5339714,16.4008125 11.4058286,12.5683125 13.2091143,10.4908125 L6.83911429,6.1370625" id="Stroke-19"></path>
                    <path d="M17.5431286,33.7275 L11.8565571,29.9775 L8.4487,38.225625 C8.4487,38.225625 3.17255714,37.6725 0.631985714,40.044375" id="Stroke-21"></path>
                    <path d="M17.5683857,43.602375 L8.75252857,49.009875 C8.75252857,49.009875 12.3721,51.10425 12.3721,54.417375 L7.20924286,59.483625" id="Stroke-23"></path>
                    <path d="M25.6244857,54.238875 L25.6244857,30.39825" id="Stroke-25"></path>
                </g>
            </g>
            <g id="Group-13" transform="translate(206.000000, 0.000000)">
                <circle id="Oval" fill="#8DC63F" cx="40" cy="40" r="40"></circle>
                <g id="Thrips-Icon" transform="translate(16.000000, 12.000000)" stroke="#FFFFFF" stroke-width="2">
                    <path d="M28.8418,20.2848 L47.5598,41.7768 C47.5598,41.7768 38.9178,44.6328 35.2698,39.7168 C29.8958,32.4728 27.3478,28.2188 28.8418,20.2848" id="Stroke-1"></path>
                    <path d="M28.8204,19.2046 L30.5204,19.2046 C31.4784,19.2046 32.2584,19.9846 32.2584,20.9426 L32.2584,24.2066" id="Stroke-3"></path>
                    <path d="M32.67,36.0836 C32.67,36.0836 32.336,40.3516 33.844,41.8576" id="Stroke-5"></path>
                    <path d="M28.1212,13.773 C28.1212,13.773 31.4492,13.231 33.2412,7.363" id="Stroke-7"></path>
                    <path d="M25.8398,6.9566 L29.9998,0.5446" id="Stroke-9"></path>
                    <path d="M24.4278,57.902 C13.7858,40.984 23.0198,24.702 23.0198,24.702 C19.9538,23.54 20.4818,19.204 20.4818,19.204 L21.6438,17.514 C20.2718,15.292 21.6438,12.228 21.6438,12.228 C21.6438,6.306 24.6098,6.624 24.6098,6.624 L24.6938,6.624 C24.6938,6.624 27.6578,6.306 27.6578,12.228 C27.6578,12.228 29.0338,15.292 27.6578,17.514 L28.8198,19.204 C28.8198,19.204 29.3498,23.54 26.2838,24.702 C26.2838,24.702 35.5198,40.984 24.8758,57.902 L24.4278,57.902 Z" id="Stroke-11"></path>
                    <path d="M20.461,20.2848 L1.743,41.7768 C1.743,41.7768 10.385,44.6328 14.033,39.7168 C19.409,32.4728 21.955,28.2188 20.461,20.2848" id="Stroke-13"></path>
                    <path d="M20.4824,19.2046 L18.7844,19.2046 C17.8244,19.2046 17.0464,19.9846 17.0464,20.9426 L17.0464,24.2066" id="Stroke-15"></path>
                    <path d="M16.6328,36.0836 C16.6328,36.0836 16.9668,40.3516 15.4608,41.8576" id="Stroke-17"></path>
                    <path d="M21.1836,13.773 C21.1836,13.773 17.8536,13.231 16.0616,7.363" id="Stroke-19"></path>
                    <path d="M23.463,6.9566 L19.303,0.5446" id="Stroke-21"></path>
                    <path d="M23.0196,24.7028 L26.2836,24.7028" id="Stroke-23"></path>
                    <path d="M21.3222,18.6304 C21.3222,18.6304 22.7802,20.6464 24.8742,20.6844 C26.9682,20.6464 28.4262,18.6304 28.4262,18.6304" id="Stroke-25"></path>
                    <path d="M27.7384,17.6032 C27.7384,17.6032 26.4844,16.3112 24.6844,16.2852 C22.8844,16.3112 21.6304,17.6032 21.6304,17.6032" id="Stroke-27"></path>
                    <path d="M21.6446,12.2272 L27.6586,12.2272" id="Stroke-29"></path>
                    <path d="M19.379,42.6012 C19.379,42.6012 24.875,41.0772 29.925,42.6012" id="Stroke-31"></path>
                    <path d="M28.795,49.6754 C28.795,49.6754 24.477,50.6974 20.507,49.6754" id="Stroke-33"></path>
                    <path d="M19.379,35.3374 C19.379,35.3374 24.875,33.8134 29.925,35.3374" id="Stroke-35"></path>
                </g>
            </g>
            <g id="Group-14" transform="translate(309.000000, 0.000000)">
                <circle id="Oval" fill="#8DC63F" cx="40" cy="40" r="40"></circle>
                <g id="Ticks" transform="translate(14.000000, 14.000000)" stroke="#FFFFFF" stroke-width="1.79310345">
                    <path d="M35.7256138,21.8900276 C35.7256138,21.8900276 33.5577517,22.6000966 33.4627172,23.7369241 C33.3694759,24.8737517 31.5692,28.1927862 25.5963724,28.1927862" id="Stroke-1"></path>
                    <polyline id="Stroke-3" points="32.6104552 18.3335862 39.3399724 13.4993793 42.8472828 0.22862069"></polyline>
                    <polyline id="Stroke-5" points="36.5644276 23.6130207 43.6059448 20.8928828 48.1550483 12.6464"></polyline>
                    <polyline id="Stroke-7" points="38.0371034 29.0256828 44.4582069 30.0889931 50.6211034 35.2065103"></polyline>
                    <polyline id="Stroke-9" points="38.4869931 35.1123724 45.5016138 41.7468552 48.7238207 51.8886483"></polyline>
                    <path d="M25.4344552,49.8039862 C22.6174897,49.8039862 12.7052138,48.8572276 12.7052138,35.1130897 C12.7052138,21.3671586 18.5830069,18.3332276 18.5830069,18.3332276 C18.5830069,10.2768138 25.4344552,10.3718483 25.4344552,10.3718483 L25.7590069,10.3718483 C25.7590069,10.3718483 32.6104552,10.2768138 32.6104552,18.3332276 C32.6104552,18.3332276 38.4864552,21.3671586 38.4864552,35.1130897 C38.4864552,48.8572276 28.5759724,49.8039862 25.7590069,49.8039862 L25.4344552,49.8039862 Z" id="Stroke-11"></path>
                    <path d="M15.4656966,21.8900276 C15.4656966,21.8900276 17.6353517,22.6000966 17.7303862,23.7369241 C17.8236276,24.8737517 19.6221103,28.1927862 25.5949379,28.1927862" id="Stroke-13"></path>
                    <polyline id="Stroke-15" points="18.582469 18.3335862 11.8529517 13.4993793 8.34564138 0.22862069"></polyline>
                    <polyline id="Stroke-17" points="14.6286759 23.6130207 7.58715862 20.8928828 3.03805517 12.6464"></polyline>
                    <polyline id="Stroke-19" points="13.1542069 29.0256828 6.73489655 30.0889931 0.572 35.2065103"></polyline>
                    <polyline id="Stroke-21" points="12.705931 35.1123724 5.69131034 41.7468552 2.46910345 51.8886483"></polyline>
                    <path d="M32.6104552,18.3335862 C32.6104552,18.3335862 25.7590069,15.7282069 18.5830069,18.3335862" id="Stroke-23"></path>
                    <polyline id="Stroke-25" points="29.0452276 11.1629655 30.0852276 8.06986207 27.2987448 6.51524138"></polyline>
                    <polyline id="Stroke-27" points="22.1476966 11.1629655 21.1076966 8.06986207 23.8941793 6.51524138"></polyline>
                </g>
            </g>
            <g id="Group-15" transform="translate(412.000000, 0.000000)">
                <ellipse id="Oval" fill="#8DC63F" cx="39.8385376" cy="39.8841571" rx="39.8385376" ry="39.8841571"></ellipse>
                <g id="Wasps-Icon" transform="translate(12.000000, 10.000000)" stroke="#FFFFFF" stroke-width="2">
                    <path d="M31.56,3.51 C31.56,3.51 33.34,1 38.52,1" id="Stroke-1"></path>
                    <path d="M34.5248,16.2306 L37.0148,16.2306 C37.0148,16.2306 37.9808,8.3506 45.5628,8.1166" id="Stroke-3"></path>
                    <polyline id="Stroke-5" points="35.1184 19.4378 42.0024 19.4378 46.4104 24.3618 54.6124 24.3618"></polyline>
                    <path d="M33.6224,23.9884 L50.1264,56.3104 C50.1264,56.3104 58.1524,52.1964 53.6064,43.3144 C48.5784,33.4904 37.0324,21.8804 35.0304,20.6844" id="Stroke-7"></path>
                    <path d="M27.9994,10.258 C27.9994,10.258 20.8814,10.258 20.8814,19.438 C20.8814,26.244 27.9994,26.864 27.9994,26.864 C27.9994,26.864 35.1194,26.244 35.1194,19.438 C35.1194,10.258 27.9994,10.258 27.9994,10.258" id="Stroke-9"></path>
                    <path d="M27.9994,10.258 L25.6254,10.258 C25.6254,10.258 21.9134,10.342 21.9134,6.8 C21.9134,3.262 25.6254,3.346 25.6254,3.346 L27.9994,3.346 L30.3734,3.346 C30.3734,3.346 34.0874,3.262 34.0874,6.8 C34.0874,10.342 30.3734,10.258 30.3734,10.258 L27.9994,10.258 Z" id="Stroke-11"></path>
                    <path d="M24.892,25.9358 C24.892,25.9358 18.006,31.5978 19.102,44.4758 C19.954,54.4558 28,58.4878 28,58.4878 C28,58.4878 36.046,54.4558 36.898,44.4758 C37.996,31.5978 31.108,25.9358 31.108,25.9358" id="Stroke-13"></path>
                    <path d="M24.4408,3.51 C24.4408,3.51 22.6608,1 17.4788,1" id="Stroke-15"></path>
                    <path d="M21.476,16.2306 L18.984,16.2306 C18.984,16.2306 18.02,8.3506 10.438,8.1166" id="Stroke-17"></path>
                    <polyline id="Stroke-19" points="20.8822 19.4378 13.9982 19.4378 9.5882 24.3618 1.3882 24.3618"></polyline>
                    <path d="M22.3782,23.9884 L5.8742,56.3104 C5.8742,56.3104 -2.1518,52.1964 2.3942,43.3144 C7.4202,33.4904 18.9662,21.8804 20.9682,20.6844" id="Stroke-21"></path>
                    <path d="M18.9838,43.6702 C18.9838,43.6702 27.9998,45.7322 37.0158,43.6702" id="Stroke-23"></path>
                    <path d="M20.3178,50.3284 C22.9618,50.7764 29.1838,51.5484 35.6378,50.3584" id="Stroke-25"></path>
                    <path d="M18.9838,37.2678 C18.9838,37.2678 27.9998,39.3298 37.0158,37.2678" id="Stroke-27"></path>
                </g>
            </g>
        </g>
    </g>
</svg>